<svg width="203" height="180" viewBox="0 0 203 180" fill="none" xmlns="http://www.w3.org/2000/svg">
<path fill-rule="evenodd" clip-rule="evenodd" d="M107.102 7.23328C129.305 7.68717 153.133 -4.92091 172.094 6.64214C191.3 18.3548 198.75 42.9733 202.168 65.2082C205.235 85.1645 199.521 105.232 189.984 123.028C181.653 138.574 166.827 148.307 152.285 158.288C138.173 167.973 124.196 179.056 107.102 179.912C89.5403 180.792 71.2878 175.061 58.5055 162.986C46.4181 151.568 49.3754 131.961 41.0833 117.549C29.2141 96.9185 0.197014 85.0983 0.00151154 61.298C-0.194984 37.3769 18.7952 14.725 40.1501 3.94494C60.5973 -6.37688 84.2019 6.76516 107.102 7.23328Z" fill="#FFF1CB"/>
<path d="M75.104 95.944C77.152 94.2373 78.784 92.8187 80 91.688C81.216 90.536 82.2293 89.3413 83.04 88.104C83.8507 86.8667 84.256 85.6507 84.256 84.456C84.256 83.368 84 82.5147 83.488 81.896C82.976 81.2773 82.1867 80.968 81.12 80.968C80.0533 80.968 79.232 81.3307 78.656 82.056C78.08 82.76 77.7813 83.7307 77.76 84.968H73.408C73.4933 82.408 74.2507 80.4667 75.68 79.144C77.1307 77.8213 78.9653 77.16 81.184 77.16C83.616 77.16 85.4827 77.8107 86.784 79.112C88.0853 80.392 88.736 82.088 88.736 84.2C88.736 85.864 88.288 87.4533 87.392 88.968C86.496 90.4827 85.472 91.8053 84.32 92.936C83.168 94.0453 81.664 95.3893 79.808 96.968H89.248V100.68H73.44V97.352L75.104 95.944ZM92.071 89.032C92.071 85.3413 92.7323 82.4507 94.055 80.36C95.399 78.2693 97.6177 77.224 100.711 77.224C103.804 77.224 106.012 78.2693 107.335 80.36C108.679 82.4507 109.351 85.3413 109.351 89.032C109.351 92.744 108.679 95.656 107.335 97.768C106.012 99.88 103.804 100.936 100.711 100.936C97.6177 100.936 95.399 99.88 94.055 97.768C92.7323 95.656 92.071 92.744 92.071 89.032ZM104.935 89.032C104.935 87.4533 104.828 86.1307 104.615 85.064C104.423 83.976 104.018 83.0907 103.399 82.408C102.802 81.7253 101.906 81.384 100.711 81.384C99.5163 81.384 98.6097 81.7253 97.991 82.408C97.3937 83.0907 96.9883 83.976 96.775 85.064C96.583 86.1307 96.487 87.4533 96.487 89.032C96.487 90.6533 96.583 92.0187 96.775 93.128C96.967 94.216 97.3723 95.1013 97.991 95.784C98.6097 96.4453 99.5163 96.776 100.711 96.776C101.906 96.776 102.812 96.4453 103.431 95.784C104.05 95.1013 104.455 94.216 104.647 93.128C104.839 92.0187 104.935 90.6533 104.935 89.032ZM112.215 81.8V77.672H119.927V101H115.319V81.8H112.215ZM136.448 83.496C136.235 82.6 135.862 81.928 135.328 81.48C134.816 81.032 134.07 80.808 133.088 80.808C131.616 80.808 130.528 81.4053 129.824 82.6C129.142 83.7733 128.79 85.6933 128.768 88.36C129.28 87.5067 130.027 86.8453 131.008 86.376C131.99 85.8853 133.056 85.64 134.208 85.64C135.595 85.64 136.822 85.9387 137.888 86.536C138.955 87.1333 139.787 88.008 140.384 89.16C140.982 90.2907 141.28 91.656 141.28 93.256C141.28 94.7707 140.971 96.1253 140.352 97.32C139.755 98.4933 138.87 99.4107 137.696 100.072C136.523 100.733 135.126 101.064 133.504 101.064C131.286 101.064 129.536 100.573 128.256 99.592C126.998 98.6107 126.112 97.2453 125.6 95.496C125.11 93.7253 124.864 91.5493 124.864 88.968C124.864 85.064 125.536 82.12 126.88 80.136C128.224 78.1307 130.347 77.128 133.248 77.128C135.488 77.128 137.227 77.736 138.464 78.952C139.702 80.168 140.416 81.6827 140.608 83.496H136.448ZM133.184 89.32C132.054 89.32 131.104 89.6507 130.336 90.312C129.568 90.9733 129.184 91.9333 129.184 93.192C129.184 94.4507 129.536 95.4427 130.24 96.168C130.966 96.8933 131.979 97.256 133.28 97.256C134.432 97.256 135.339 96.904 136 96.2C136.683 95.496 137.024 94.5467 137.024 93.352C137.024 92.1147 136.694 91.1333 136.032 90.408C135.392 89.6827 134.443 89.32 133.184 89.32Z" fill="#FD9800"/>
</svg>
