<svg width="198" height="198" viewBox="0 0 198 198" fill="none" xmlns="http://www.w3.org/2000/svg">
<path d="M99 0L184.737 148.5H13.2635L99 0Z" fill="#FFD5C7"/>
<path d="M67.104 97.944C69.152 96.2373 70.784 94.8187 72 93.688C73.216 92.536 74.2293 91.3413 75.04 90.104C75.8507 88.8667 76.256 87.6507 76.256 86.456C76.256 85.368 76 84.5147 75.488 83.896C74.976 83.2773 74.1867 82.968 73.12 82.968C72.0533 82.968 71.232 83.3307 70.656 84.056C70.08 84.76 69.7813 85.7307 69.76 86.968H65.408C65.4933 84.408 66.2507 82.4667 67.68 81.144C69.1307 79.8213 70.9653 79.16 73.184 79.16C75.616 79.16 77.4827 79.8107 78.784 81.112C80.0853 82.392 80.736 84.088 80.736 86.2C80.736 87.864 80.288 89.4533 79.392 90.968C78.496 92.4827 77.472 93.8053 76.32 94.936C75.168 96.0453 73.664 97.3893 71.808 98.968H81.248V102.68H65.44V99.352L67.104 97.944ZM84.071 91.032C84.071 87.3413 84.7323 84.4507 86.055 82.36C87.399 80.2693 89.6177 79.224 92.711 79.224C95.8043 79.224 98.0123 80.2693 99.335 82.36C100.679 84.4507 101.351 87.3413 101.351 91.032C101.351 94.744 100.679 97.656 99.335 99.768C98.0123 101.88 95.8043 102.936 92.711 102.936C89.6177 102.936 87.399 101.88 86.055 99.768C84.7323 97.656 84.071 94.744 84.071 91.032ZM96.935 91.032C96.935 89.4533 96.8283 88.1307 96.615 87.064C96.423 85.976 96.0177 85.0907 95.399 84.408C94.8017 83.7253 93.9057 83.384 92.711 83.384C91.5163 83.384 90.6097 83.7253 89.991 84.408C89.3937 85.0907 88.9883 85.976 88.775 87.064C88.583 88.1307 88.487 89.4533 88.487 91.032C88.487 92.6533 88.583 94.0187 88.775 95.128C88.967 96.216 89.3723 97.1013 89.991 97.784C90.6097 98.4453 91.5163 98.776 92.711 98.776C93.9057 98.776 94.8123 98.4453 95.431 97.784C96.0497 97.1013 96.455 96.216 96.647 95.128C96.839 94.0187 96.935 92.6533 96.935 91.032ZM104.215 83.8V79.672H111.927V103H107.319V83.8H104.215ZM131.2 83.064L122.688 103H118.144L126.72 83.576H115.776V79.736H131.2V83.064Z" fill="#FF7142"/>
</svg>
