<svg width="198" height="198" viewBox="0 0 198 198" fill="none" xmlns="http://www.w3.org/2000/svg">
<path d="M99 0L198 99L99 198L0 99L99 0Z" fill="#CFB6FF"/>
<path d="M64.104 104.944C66.152 103.237 67.784 101.819 69 100.688C70.216 99.536 71.2293 98.3413 72.04 97.104C72.8507 95.8667 73.256 94.6507 73.256 93.456C73.256 92.368 73 91.5147 72.488 90.896C71.976 90.2773 71.1867 89.968 70.12 89.968C69.0533 89.968 68.232 90.3307 67.656 91.056C67.08 91.76 66.7813 92.7307 66.76 93.968H62.408C62.4933 91.408 63.2507 89.4667 64.68 88.144C66.1307 86.8213 67.9653 86.16 70.184 86.16C72.616 86.16 74.4827 86.8107 75.784 88.112C77.0853 89.392 77.736 91.088 77.736 93.2C77.736 94.864 77.288 96.4533 76.392 97.968C75.496 99.4827 74.472 100.805 73.32 101.936C72.168 103.045 70.664 104.389 68.808 105.968H78.248V109.68H62.44V106.352L64.104 104.944ZM81.071 98.032C81.071 94.3413 81.7323 91.4507 83.055 89.36C84.399 87.2693 86.6177 86.224 89.711 86.224C92.8043 86.224 95.0123 87.2693 96.335 89.36C97.679 91.4507 98.351 94.3413 98.351 98.032C98.351 101.744 97.679 104.656 96.335 106.768C95.0123 108.88 92.8043 109.936 89.711 109.936C86.6177 109.936 84.399 108.88 83.055 106.768C81.7323 104.656 81.071 101.744 81.071 98.032ZM93.935 98.032C93.935 96.4533 93.8283 95.1307 93.615 94.064C93.423 92.976 93.0177 92.0907 92.399 91.408C91.8017 90.7253 90.9057 90.384 89.711 90.384C88.5163 90.384 87.6097 90.7253 86.991 91.408C86.3937 92.0907 85.9883 92.976 85.775 94.064C85.583 95.1307 85.487 96.4533 85.487 98.032C85.487 99.6533 85.583 101.019 85.775 102.128C85.967 103.216 86.3723 104.101 86.991 104.784C87.6097 105.445 88.5163 105.776 89.711 105.776C90.9057 105.776 91.8123 105.445 92.431 104.784C93.0497 104.101 93.455 103.216 93.647 102.128C93.839 101.019 93.935 99.6533 93.935 98.032ZM101.215 90.8V86.672H108.927V110H104.319V90.8H101.215ZM117.256 97.648C115.123 96.5387 114.056 94.8213 114.056 92.496C114.056 91.344 114.344 90.2987 114.92 89.36C115.518 88.4 116.403 87.6427 117.576 87.088C118.771 86.512 120.222 86.224 121.928 86.224C123.635 86.224 125.075 86.512 126.248 87.088C127.443 87.6427 128.328 88.4 128.904 89.36C129.502 90.2987 129.8 91.344 129.8 92.496C129.8 93.6693 129.512 94.704 128.936 95.6C128.36 96.4747 127.592 97.1573 126.632 97.648C127.806 98.16 128.723 98.9067 129.384 99.888C130.046 100.869 130.376 102.032 130.376 103.376C130.376 104.827 130.003 106.096 129.256 107.184C128.531 108.251 127.528 109.072 126.248 109.648C124.968 110.224 123.528 110.512 121.928 110.512C120.328 110.512 118.888 110.224 117.608 109.648C116.35 109.072 115.347 108.251 114.6 107.184C113.875 106.096 113.512 104.827 113.512 103.376C113.512 102.032 113.843 100.869 114.504 99.888C115.166 98.8853 116.083 98.1387 117.256 97.648ZM125.448 93.136C125.448 92.0907 125.128 91.28 124.488 90.704C123.87 90.128 123.016 89.84 121.928 89.84C120.862 89.84 120.008 90.128 119.368 90.704C118.75 91.28 118.44 92.1013 118.44 93.168C118.44 94.128 118.76 94.896 119.4 95.472C120.062 96.048 120.904 96.336 121.928 96.336C122.952 96.336 123.795 96.048 124.456 95.472C125.118 94.8747 125.448 94.096 125.448 93.136ZM121.928 99.6C120.712 99.6 119.72 99.9093 118.952 100.528C118.206 101.147 117.832 102.032 117.832 103.184C117.832 104.251 118.195 105.125 118.92 105.808C119.667 106.469 120.67 106.8 121.928 106.8C123.187 106.8 124.179 106.459 124.904 105.776C125.63 105.093 125.992 104.229 125.992 103.184C125.992 102.053 125.619 101.179 124.872 100.56C124.126 99.92 123.144 99.6 121.928 99.6Z" fill="#9F6CFF"/>
</svg>
