<svg width="198" height="198" viewBox="0 0 198 198" fill="none" xmlns="http://www.w3.org/2000/svg">
<path d="M99 0L193.155 68.4073L157.191 179.093H40.8093L4.84541 68.4073L99 0Z" fill="#D1FFFA"/>
<path d="M65.104 105.944C67.152 104.237 68.784 102.819 70 101.688C71.216 100.536 72.2293 99.3413 73.04 98.104C73.8507 96.8667 74.256 95.6507 74.256 94.456C74.256 93.368 74 92.5147 73.488 91.896C72.976 91.2773 72.1867 90.968 71.12 90.968C70.0533 90.968 69.232 91.3307 68.656 92.056C68.08 92.76 67.7813 93.7307 67.76 94.968H63.408C63.4933 92.408 64.2507 90.4667 65.68 89.144C67.1307 87.8213 68.9653 87.16 71.184 87.16C73.616 87.16 75.4827 87.8107 76.784 89.112C78.0853 90.392 78.736 92.088 78.736 94.2C78.736 95.864 78.288 97.4533 77.392 98.968C76.496 100.483 75.472 101.805 74.32 102.936C73.168 104.045 71.664 105.389 69.808 106.968H79.248V110.68H63.44V107.352L65.104 105.944ZM82.071 99.032C82.071 95.3413 82.7323 92.4507 84.055 90.36C85.399 88.2693 87.6177 87.224 90.711 87.224C93.8043 87.224 96.0123 88.2693 97.335 90.36C98.679 92.4507 99.351 95.3413 99.351 99.032C99.351 102.744 98.679 105.656 97.335 107.768C96.0123 109.88 93.8043 110.936 90.711 110.936C87.6177 110.936 85.399 109.88 84.055 107.768C82.7323 105.656 82.071 102.744 82.071 99.032ZM94.935 99.032C94.935 97.4533 94.8283 96.1307 94.615 95.064C94.423 93.976 94.0177 93.0907 93.399 92.408C92.8017 91.7253 91.9057 91.384 90.711 91.384C89.5163 91.384 88.6097 91.7253 87.991 92.408C87.3937 93.0907 86.9883 93.976 86.775 95.064C86.583 96.1307 86.487 97.4533 86.487 99.032C86.487 100.653 86.583 102.019 86.775 103.128C86.967 104.216 87.3723 105.101 87.991 105.784C88.6097 106.445 89.5163 106.776 90.711 106.776C91.9057 106.776 92.8123 106.445 93.431 105.784C94.0497 105.101 94.455 104.216 94.647 103.128C94.839 102.019 94.935 100.653 94.935 99.032ZM102.215 91.8V87.672H109.927V111H105.319V91.8H102.215ZM119.536 104.44C119.707 105.379 120.091 106.104 120.688 106.616C121.307 107.107 122.128 107.352 123.152 107.352C124.475 107.352 125.435 106.808 126.032 105.72C126.63 104.611 126.928 102.755 126.928 100.152C126.438 100.835 125.744 101.368 124.848 101.752C123.974 102.136 123.024 102.328 122 102.328C120.635 102.328 119.398 102.051 118.288 101.496C117.2 100.92 116.336 100.077 115.696 98.968C115.056 97.8373 114.736 96.472 114.736 94.872C114.736 92.504 115.44 90.6267 116.848 89.24C118.256 87.832 120.176 87.128 122.608 87.128C125.638 87.128 127.771 88.0987 129.008 90.04C130.267 91.9813 130.896 94.904 130.896 98.808C130.896 101.581 130.651 103.853 130.16 105.624C129.691 107.395 128.87 108.739 127.696 109.656C126.544 110.573 124.966 111.032 122.96 111.032C121.382 111.032 120.038 110.733 118.928 110.136C117.819 109.517 116.966 108.717 116.368 107.736C115.792 106.733 115.462 105.635 115.376 104.44H119.536ZM122.928 98.68C124.038 98.68 124.912 98.3387 125.552 97.656C126.192 96.9733 126.512 96.056 126.512 94.904C126.512 93.6453 126.171 92.6747 125.488 91.992C124.827 91.288 123.92 90.936 122.768 90.936C121.616 90.936 120.699 91.2987 120.016 92.024C119.355 92.728 119.024 93.6667 119.024 94.84C119.024 95.9707 119.344 96.8987 119.984 97.624C120.646 98.328 121.627 98.68 122.928 98.68Z" fill="#6CD3C7"/>
</svg>
