<svg width="198" height="198" viewBox="0 0 198 198" fill="none" xmlns="http://www.w3.org/2000/svg">
<path d="M99 0L184.737 49.5V148.5L99 198L13.2635 148.5V49.5L99 0Z" fill="#D1FFFA"/>
<path d="M99 0L184.737 49.5V148.5L99 198L13.2635 148.5V49.5L99 0Z" fill="#D1FFFA"/>
<path d="M99 0L184.737 49.5V148.5L99 198L13.2635 148.5V49.5L99 0Z" fill="#D1FFFA"/>
<path d="M99 0L184.737 49.5V148.5L99 198L13.2635 148.5V49.5L99 0Z" fill="#D1FFFA"/>
<path d="M99 0L184.737 49.5V148.5L99 198L13.2635 148.5V49.5L99 0Z" fill="#D1FFFA"/>
<path d="M99 0L184.737 49.5V148.5L99 198L13.2635 148.5V49.5L99 0Z" fill="#D1FFFA"/>
<path d="M99 0L184.737 49.5V148.5L99 198L13.2635 148.5V49.5L99 0Z" fill="#FFD7D7"/>
<path d="M68.104 104.944C70.152 103.237 71.784 101.819 73 100.688C74.216 99.536 75.2293 98.3413 76.04 97.104C76.8507 95.8667 77.256 94.6507 77.256 93.456C77.256 92.368 77 91.5147 76.488 90.896C75.976 90.2773 75.1867 89.968 74.12 89.968C73.0533 89.968 72.232 90.3307 71.656 91.056C71.08 91.76 70.7813 92.7307 70.76 93.968H66.408C66.4933 91.408 67.2507 89.4667 68.68 88.144C70.1307 86.8213 71.9653 86.16 74.184 86.16C76.616 86.16 78.4827 86.8107 79.784 88.112C81.0853 89.392 81.736 91.088 81.736 93.2C81.736 94.864 81.288 96.4533 80.392 97.968C79.496 99.4827 78.472 100.805 77.32 101.936C76.168 103.045 74.664 104.389 72.808 105.968H82.248V109.68H66.44V106.352L68.104 104.944ZM85.071 98.032C85.071 94.3413 85.7323 91.4507 87.055 89.36C88.399 87.2693 90.6177 86.224 93.711 86.224C96.8043 86.224 99.0123 87.2693 100.335 89.36C101.679 91.4507 102.351 94.3413 102.351 98.032C102.351 101.744 101.679 104.656 100.335 106.768C99.0123 108.88 96.8043 109.936 93.711 109.936C90.6177 109.936 88.399 108.88 87.055 106.768C85.7323 104.656 85.071 101.744 85.071 98.032ZM97.935 98.032C97.935 96.4533 97.8283 95.1307 97.615 94.064C97.423 92.976 97.0177 92.0907 96.399 91.408C95.8017 90.7253 94.9057 90.384 93.711 90.384C92.5163 90.384 91.6097 90.7253 90.991 91.408C90.3937 92.0907 89.9883 92.976 89.775 94.064C89.583 95.1307 89.487 96.4533 89.487 98.032C89.487 99.6533 89.583 101.019 89.775 102.128C89.967 103.216 90.3723 104.101 90.991 104.784C91.6097 105.445 92.5163 105.776 93.711 105.776C94.9057 105.776 95.8123 105.445 96.431 104.784C97.0497 104.101 97.455 103.216 97.647 102.128C97.839 101.019 97.935 99.6533 97.935 98.032ZM107.167 104.944C109.215 103.237 110.847 101.819 112.062 100.688C113.279 99.536 114.292 98.3413 115.103 97.104C115.913 95.8667 116.319 94.6507 116.319 93.456C116.319 92.368 116.063 91.5147 115.551 90.896C115.039 90.2773 114.249 89.968 113.183 89.968C112.116 89.968 111.295 90.3307 110.719 91.056C110.143 91.76 109.844 92.7307 109.823 93.968H105.471C105.556 91.408 106.313 89.4667 107.743 88.144C109.193 86.8213 111.028 86.16 113.247 86.16C115.679 86.16 117.545 86.8107 118.847 88.112C120.148 89.392 120.799 91.088 120.799 93.2C120.799 94.864 120.351 96.4533 119.455 97.968C118.559 99.4827 117.535 100.805 116.383 101.936C115.231 103.045 113.727 104.389 111.871 105.968H121.311V109.68H105.503V106.352L107.167 104.944ZM124.134 98.032C124.134 94.3413 124.795 91.4507 126.118 89.36C127.462 87.2693 129.68 86.224 132.774 86.224C135.867 86.224 138.075 87.2693 139.398 89.36C140.742 91.4507 141.414 94.3413 141.414 98.032C141.414 101.744 140.742 104.656 139.398 106.768C138.075 108.88 135.867 109.936 132.774 109.936C129.68 109.936 127.462 108.88 126.118 106.768C124.795 104.656 124.134 101.744 124.134 98.032ZM136.998 98.032C136.998 96.4533 136.891 95.1307 136.678 94.064C136.486 92.976 136.08 92.0907 135.462 91.408C134.864 90.7253 133.968 90.384 132.774 90.384C131.579 90.384 130.672 90.7253 130.054 91.408C129.456 92.0907 129.051 92.976 128.838 94.064C128.646 95.1307 128.55 96.4533 128.55 98.032C128.55 99.6533 128.646 101.019 128.838 102.128C129.03 103.216 129.435 104.101 130.054 104.784C130.672 105.445 131.579 105.776 132.774 105.776C133.968 105.776 134.875 105.445 135.494 104.784C136.112 104.101 136.518 103.216 136.71 102.128C136.902 101.019 136.998 99.6533 136.998 98.032Z" fill="#FF8686"/>
</svg>
