<svg width="198" height="198" viewBox="0 0 198 198" fill="none" xmlns="http://www.w3.org/2000/svg">
<path d="M99 0L176.401 37.2745L195.518 121.03L141.954 188.196H56.0455L2.48214 121.03L21.5987 37.2745L99 0Z" fill="#D1FFFA"/>
<path d="M99 0L176.401 37.2745L195.518 121.03L141.954 188.196H56.0455L2.48214 121.03L21.5987 37.2745L99 0Z" fill="#D1FFFA"/>
<path d="M99 0L176.401 37.2745L195.518 121.03L141.954 188.196H56.0455L2.48214 121.03L21.5987 37.2745L99 0Z" fill="#D1FFFA"/>
<path d="M99 0L176.401 37.2745L195.518 121.03L141.954 188.196H56.0455L2.48214 121.03L21.5987 37.2745L99 0Z" fill="#D1FFFA"/>
<path d="M99 0L176.401 37.2745L195.518 121.03L141.954 188.196H56.0455L2.48214 121.03L21.5987 37.2745L99 0Z" fill="#D1FFFA"/>
<path d="M99 0L176.401 37.2745L195.518 121.03L141.954 188.196H56.0455L2.48214 121.03L21.5987 37.2745L99 0Z" fill="#D1FFFA"/>
<path d="M99 0L176.401 37.2745L195.518 121.03L141.954 188.196H56.0455L2.48214 121.03L21.5987 37.2745L99 0Z" fill="#BCD7FF"/>
<path d="M55.496 93.576C55.496 94.7707 55.208 95.8907 54.632 96.936C54.0773 97.9813 53.192 98.824 51.976 99.464C50.7813 100.104 49.2667 100.424 47.432 100.424H43.688V109H39.208V86.664H47.432C49.16 86.664 50.632 86.9627 51.848 87.56C53.064 88.1573 53.9707 88.9787 54.568 90.024C55.1867 91.0693 55.496 92.2533 55.496 93.576ZM47.24 96.808C48.4773 96.808 49.3947 96.5307 49.992 95.976C50.5893 95.4 50.888 94.6 50.888 93.576C50.888 91.4 49.672 90.312 47.24 90.312H43.688V96.808H47.24ZM63.1568 94.024C63.7328 93.0853 64.4794 92.3493 65.3968 91.816C66.3354 91.2827 67.4021 91.016 68.5968 91.016V95.72H67.4128C66.0048 95.72 64.9381 96.0507 64.2128 96.712C63.5088 97.3733 63.1568 98.5253 63.1568 100.168V109H58.6768V91.272H63.1568V94.024ZM88.0943 99.752C88.0943 100.392 88.0516 100.968 87.9663 101.48H75.0063C75.1129 102.76 75.5609 103.763 76.3503 104.488C77.1396 105.213 78.1103 105.576 79.2623 105.576C80.9263 105.576 82.1103 104.861 82.8143 103.432H87.6463C87.1343 105.139 86.1529 106.547 84.7023 107.656C83.2516 108.744 81.4703 109.288 79.3583 109.288C77.6516 109.288 76.1156 108.915 74.7503 108.168C73.4063 107.4 72.3503 106.323 71.5823 104.936C70.8356 103.549 70.4622 101.949 70.4622 100.136C70.4622 98.3013 70.8356 96.6907 71.5823 95.304C72.3289 93.9173 73.3743 92.8507 74.7183 92.104C76.0623 91.3573 77.6089 90.984 79.3583 90.984C81.0436 90.984 82.5476 91.3467 83.8703 92.072C85.2143 92.7973 86.2489 93.832 86.9743 95.176C87.7209 96.4987 88.0943 98.024 88.0943 99.752ZM83.4543 98.472C83.4329 97.32 83.0169 96.4027 82.2063 95.72C81.3956 95.016 80.4036 94.664 79.2303 94.664C78.1209 94.664 77.1823 95.0053 76.4143 95.688C75.6676 96.3493 75.2089 97.2773 75.0383 98.472H83.4543ZM98.1483 109.288C96.6976 109.288 95.3963 109.032 94.2443 108.52C93.0923 107.987 92.1749 107.272 91.4923 106.376C90.8309 105.48 90.4683 104.488 90.4043 103.4H94.9163C95.0016 104.083 95.3323 104.648 95.9083 105.096C96.5056 105.544 97.2416 105.768 98.1163 105.768C98.9696 105.768 99.6309 105.597 100.1 105.256C100.591 104.915 100.836 104.477 100.836 103.944C100.836 103.368 100.538 102.941 99.9403 102.664C99.3643 102.365 98.4363 102.045 97.1562 101.704C95.8336 101.384 94.7456 101.053 93.8923 100.712C93.0603 100.371 92.3349 99.848 91.7163 99.144C91.1189 98.44 90.8203 97.4907 90.8203 96.296C90.8203 95.3147 91.0976 94.4187 91.6523 93.608C92.2283 92.7973 93.0389 92.1573 94.0843 91.688C95.1509 91.2187 96.3989 90.984 97.8283 90.984C99.9403 90.984 101.626 91.5173 102.884 92.584C104.143 93.6293 104.836 95.048 104.964 96.84H100.676C100.612 96.136 100.314 95.5813 99.7803 95.176C99.2683 94.7493 98.5749 94.536 97.7003 94.536C96.8896 94.536 96.2603 94.6853 95.8123 94.984C95.3856 95.2827 95.1723 95.6987 95.1723 96.232C95.1723 96.8293 95.4709 97.288 96.0683 97.608C96.6656 97.9067 97.5936 98.216 98.8523 98.536C100.132 98.856 101.188 99.1867 102.02 99.528C102.852 99.8693 103.567 100.403 104.164 101.128C104.783 101.832 105.103 102.771 105.124 103.944C105.124 104.968 104.836 105.885 104.26 106.696C103.706 107.507 102.895 108.147 101.828 108.616C100.783 109.064 99.5563 109.288 98.1483 109.288ZM125.282 99.752C125.282 100.392 125.239 100.968 125.154 101.48H112.194C112.3 102.76 112.748 103.763 113.538 104.488C114.327 105.213 115.298 105.576 116.45 105.576C118.114 105.576 119.298 104.861 120.002 103.432H124.834C124.322 105.139 123.34 106.547 121.89 107.656C120.439 108.744 118.658 109.288 116.546 109.288C114.839 109.288 113.303 108.915 111.938 108.168C110.594 107.4 109.538 106.323 108.77 104.936C108.023 103.549 107.65 101.949 107.65 100.136C107.65 98.3013 108.023 96.6907 108.77 95.304C109.516 93.9173 110.562 92.8507 111.906 92.104C113.25 91.3573 114.796 90.984 116.546 90.984C118.231 90.984 119.735 91.3467 121.058 92.072C122.402 92.7973 123.436 93.832 124.162 95.176C124.908 96.4987 125.282 98.024 125.282 99.752ZM120.642 98.472C120.62 97.32 120.204 96.4027 119.394 95.72C118.583 95.016 117.591 94.664 116.418 94.664C115.308 94.664 114.37 95.0053 113.602 95.688C112.855 96.3493 112.396 97.2773 112.226 98.472H120.642ZM138.376 91.016C140.488 91.016 142.194 91.688 143.496 93.032C144.797 94.3547 145.448 96.2107 145.448 98.6V109H140.968V99.208C140.968 97.8 140.616 96.7227 139.912 95.976C139.208 95.208 138.248 94.824 137.032 94.824C135.794 94.824 134.813 95.208 134.088 95.976C133.384 96.7227 133.032 97.8 133.032 99.208V109H128.552V91.272H133.032V93.48C133.629 92.712 134.386 92.1147 135.304 91.688C136.242 91.24 137.266 91.016 138.376 91.016ZM154.924 94.952V103.528C154.924 104.125 155.063 104.563 155.34 104.84C155.639 105.096 156.129 105.224 156.812 105.224H158.892V109H156.076C152.3 109 150.412 107.165 150.412 103.496V94.952H148.3V91.272H150.412V86.888H154.924V91.272H158.892V94.952H154.924Z" fill="#62A1FF"/>
</svg>
