<svg width="656" height="545" viewBox="0 0 656 545" fill="none" xmlns="http://www.w3.org/2000/svg">
<g clip-path="url(#clip0)">
<path opacity="0.6" d="M157.287 451.004C102.846 378.634 119.528 231.828 187.216 135.877C256.735 37.284 387.337 -19.0442 434.727 21.7719C467.352 49.8792 436.549 103.452 478.587 168.227C517.996 228.959 565.216 212.907 587.459 262.597C622.038 339.854 551.788 476.697 485.752 485.93C478.72 486.877 467.437 491.328 448.658 483.383C284.51 413.948 229.472 546.974 157.287 451.004Z" fill="#FFFDB0"/>
<path d="M173.361 306.48C207.267 343.802 218.028 399.884 206.678 454.943C166.406 461.648 126.607 449.791 97.7975 418.085C63.892 380.754 53.131 324.672 64.4803 269.622C104.753 262.899 144.552 274.755 173.361 306.48Z" fill="#00A05F"/>
<path d="M206.678 454.943C206.678 454.943 115.884 404.828 88.6592 310.619" stroke="black" stroke-width="0.782816" stroke-miterlimit="10"/>
<path d="M98.9459 338.357C98.9459 338.357 88.8397 347.619 75.678 344.664" stroke="black" stroke-width="0.782816" stroke-miterlimit="10"/>
<path d="M118.589 372.913C118.589 372.913 145.576 332.192 132.215 323.224" stroke="black" stroke-width="0.782816" stroke-miterlimit="10"/>
<path d="M121.084 414.856C121.084 414.856 140.262 427.12 149.552 410.055" stroke="black" stroke-width="0.782816" stroke-miterlimit="10"/>
<path d="M171.871 363.955C171.871 363.955 188.003 392.517 171.207 429.801" stroke="black" stroke-width="0.782816" stroke-miterlimit="10"/>
<path d="M375.798 237.453C381.596 289.416 358.47 340.942 318.416 377.052C282.726 355.782 257.893 320.108 252.939 275.968C247.151 224.006 270.267 172.479 310.331 136.36C346.039 157.658 370.873 193.313 375.798 237.453Z" fill="#00A05F"/>
<path d="M318.416 377.052C318.416 377.052 274.765 277.36 306.364 184.809" stroke="black" stroke-width="0.782816" stroke-miterlimit="10"/>
<path d="M298.868 213.531C298.868 213.531 285.64 214.194 276.871 203.171" stroke="black" stroke-width="0.782816" stroke-miterlimit="10"/>
<path d="M294.93 253.922C294.93 253.922 339.292 239.461 333.751 223.561" stroke="black" stroke-width="0.782816" stroke-miterlimit="10"/>
<path d="M273.237 288.791C273.237 288.791 281.502 311.159 298.507 303.791" stroke="black" stroke-width="0.782816" stroke-miterlimit="10"/>
<path d="M342.177 281.991C342.177 281.991 338.846 315.278 304.495 333.716" stroke="black" stroke-width="0.782816" stroke-miterlimit="10"/>
<path d="M532.904 348.395C513.061 396.124 468.661 427.329 417.133 435.871C396.731 397.725 392.461 353.301 409.362 312.759C429.204 265.03 473.605 233.826 525.132 225.274C545.534 263.42 549.766 307.844 532.904 348.395Z" fill="#00A05F"/>
<path d="M417.115 435.871C417.115 435.871 427.354 326.131 498.59 264.528" stroke="black" stroke-width="0.782816" stroke-miterlimit="10"/>
<path d="M478.435 284.965C478.435 284.965 466.782 278.137 464.552 263.799" stroke="black" stroke-width="0.782816" stroke-miterlimit="10"/>
<path d="M455.793 317.314C455.793 317.314 500.687 329.72 503.544 313.005" stroke="black" stroke-width="0.782816" stroke-miterlimit="10"/>
<path d="M420.569 335.052C420.569 335.052 416.973 358.832 435.05 362.014" stroke="black" stroke-width="0.782816" stroke-miterlimit="10"/>
<path d="M482.848 367.752C482.848 367.752 464.144 394.411 425.893 390.992" stroke="black" stroke-width="0.782816" stroke-miterlimit="10"/>
<path d="M282.745 270.807C296.03 321.131 280.696 375.925 246.391 418.446C208.054 403.511 178.343 372.516 167.051 329.758C153.766 279.434 169.11 224.64 203.405 182.129C241.742 197.054 271.51 228.049 282.745 270.807Z" fill="#0D8C58"/>
<path d="M246.391 418.446C246.391 418.446 188.8 327.428 206.536 230.644" stroke="black" stroke-width="0.782816" stroke-miterlimit="10"/>
<path d="M203.3 260.333C203.3 260.333 190.328 263.24 180.07 253.836" stroke="black" stroke-width="0.782816" stroke-miterlimit="10"/>
<path d="M205.284 300.846C205.284 300.846 246.989 279.008 239.208 264.244" stroke="black" stroke-width="0.782816" stroke-miterlimit="10"/>
<path d="M188.952 338.973C188.952 338.973 200.339 359.655 216.092 349.484" stroke="black" stroke-width="0.782816" stroke-miterlimit="10"/>
<path d="M256.023 320.544C256.023 320.544 257.579 353.983 226.35 378.046" stroke="black" stroke-width="0.782816" stroke-miterlimit="10"/>
<path d="M472.105 282.238C464.514 333.916 429.223 376.617 381.548 399.477C352.615 368.444 337.774 326.775 344.217 282.853C351.809 231.175 387.1 188.474 434.774 165.613C463.707 196.647 478.549 238.315 472.105 282.238Z" fill="#0D8C58"/>
<path d="M381.586 399.477C381.586 399.477 364.885 290.675 418.699 211.022" stroke="black" stroke-width="0.782816" stroke-miterlimit="10"/>
<path d="M404.162 236.459C400.071 235.194 396.301 233.067 393.105 230.223C389.91 227.378 387.363 223.882 385.638 219.971" stroke="black" stroke-width="0.782816" stroke-miterlimit="10"/>
<path d="M390.127 274.14C390.127 274.14 436.464 273.392 435.164 256.45" stroke="black" stroke-width="0.782816" stroke-miterlimit="10"/>
<path d="M360.463 301.197C360.463 301.197 362.74 325.166 380.969 323.12" stroke="black" stroke-width="0.782816" stroke-miterlimit="10"/>
<path d="M428.483 315.099C428.483 315.099 416.849 346.113 379.147 353.689" stroke="black" stroke-width="0.782816" stroke-miterlimit="10"/>
<path d="M566.145 426.315C542.251 471.772 495.335 498.383 443.277 501.669C426.272 461.611 425.911 416.959 446.218 378.293C470.113 332.789 517.019 306.225 569.077 302.939C586.082 342.997 586.443 387.649 566.145 426.315Z" fill="#0D8C58"/>
<path d="M443.267 501.669C443.267 501.669 462.986 393.464 539.243 339.333" stroke="black" stroke-width="0.782816" stroke-miterlimit="10"/>
<path d="M517.408 357.638C517.408 357.638 506.4 349.664 505.423 335.156" stroke="black" stroke-width="0.782816" stroke-miterlimit="10"/>
<path d="M492.062 387.545C492.062 387.545 535.713 404.459 539.974 388.104" stroke="black" stroke-width="0.782816" stroke-miterlimit="10"/>
<path d="M455.461 401.636C455.461 401.636 449.768 424.942 467.541 429.952" stroke="black" stroke-width="0.782816" stroke-miterlimit="10"/>
<path d="M514.637 440.511C514.637 440.511 493.656 465.133 455.907 457.869" stroke="black" stroke-width="0.782816" stroke-miterlimit="10"/>
<path d="M642.544 474.906C714.283 504.737 482.971 556.652 340.269 541.197C134.711 518.999 136.76 511.527 35.841 489.112C-101.28 458.618 188.743 428.91 338.447 441.524C472.589 452.803 575.331 447.007 642.544 474.906Z" fill="url(#paint0_linear)"/>
<path d="M527.144 523.45C527.333 523.45 527.514 523.375 527.647 523.242C527.781 523.109 527.856 522.928 527.856 522.74C527.856 522.551 527.781 522.371 527.647 522.237C527.514 522.104 527.333 522.029 527.144 522.029C526.955 522.029 526.774 522.104 526.641 522.237C526.507 522.371 526.432 522.551 526.432 522.74C526.432 522.928 526.507 523.109 526.641 523.242C526.774 523.375 526.955 523.45 527.144 523.45Z" fill="#00DB91"/>
<path opacity="0.69" d="M143.195 118.963L247.644 117.22C249.105 116.397 259.544 110.232 261.593 97.2291C263.833 83.0239 254.163 73.033 253.167 72.0386C249.589 51.9336 232.12 37.397 213.312 37.4917C197.664 37.5769 183.363 47.8236 177.708 63.2598C175.38 60.6241 172.311 58.7498 168.9 57.8815C165.489 57.0131 161.895 57.1911 158.586 58.3922C155.08 59.776 152.153 62.3153 150.292 65.5884C148.431 68.8616 147.748 72.6715 148.357 76.3854C136.818 78.7245 128.961 88.4882 129.378 98.9905C129.691 107.286 135.1 115.042 143.195 118.963Z" fill="#E1F9FF"/>
<path opacity="0.69" d="M229.965 57.5119L297.34 46.4035C298.213 45.7501 304.438 40.9298 304.665 32.6719C304.903 23.6753 297.795 18.391 297.074 17.8701C295.091 12.063 291.139 7.12865 285.901 3.91819C280.662 0.707735 274.465 -0.577516 268.378 0.284134C263.362 1.07914 258.697 3.3478 254.979 6.80058C251.26 10.2534 248.657 14.7336 247.502 19.6694C245.726 18.2633 243.581 17.3998 241.325 17.183C239.068 16.9662 236.797 17.4055 234.786 18.4478C232.668 19.5784 231.005 21.4035 230.079 23.6152C229.152 25.8268 229.018 28.2897 229.699 30.5885C222.44 33.1454 218.189 39.9544 219.328 46.4225C220.267 51.5931 224.385 55.8452 229.965 57.5119Z" fill="#E1F9FF"/>
<path d="M437.137 344.437H182.319C179.269 344.437 176.797 346.905 176.797 349.949V355.64C176.797 358.684 179.269 361.152 182.319 361.152H437.137C440.188 361.152 442.66 358.684 442.66 355.64V349.949C442.66 346.905 440.188 344.437 437.137 344.437Z" fill="#E8A010"/>
<path d="M437.137 359.864H182.319C179.269 359.864 176.797 362.331 176.797 365.375V371.067C176.797 374.111 179.269 376.579 182.319 376.579H437.137C440.188 376.579 442.66 374.111 442.66 371.067V365.375C442.66 362.331 440.188 359.864 437.137 359.864Z" fill="#CE8A11"/>
<path d="M437.137 375.877H182.319C179.269 375.877 176.797 378.345 176.797 381.389V387.081C176.797 390.125 179.269 392.592 182.319 392.592H437.137C440.188 392.592 442.66 390.125 442.66 387.081V381.389C442.66 378.345 440.188 375.877 437.137 375.877Z" fill="#E8A010"/>
<path d="M437.137 392.592H182.319C179.269 392.592 176.797 395.06 176.797 398.104V403.795C176.797 406.839 179.269 409.307 182.319 409.307H437.137C440.188 409.307 442.66 406.839 442.66 403.795V398.104C442.66 395.06 440.188 392.592 437.137 392.592Z" fill="#CE8A11"/>
<path d="M437.137 409.307H182.319C179.269 409.307 176.797 411.775 176.797 414.819V420.51C176.797 423.554 179.269 426.022 182.319 426.022H437.137C440.188 426.022 442.66 423.554 442.66 420.51V414.819C442.66 411.775 440.188 409.307 437.137 409.307Z" fill="#E8A010"/>
<path d="M437.137 426.021H182.319C179.269 426.021 176.797 428.489 176.797 431.533V437.225C176.797 440.269 179.269 442.736 182.319 442.736H437.137C440.188 442.736 442.66 440.269 442.66 437.225V431.533C442.66 428.489 440.188 426.021 437.137 426.021Z" fill="#CE8A11"/>
<path d="M438.504 442.13H183.686C180.636 442.13 178.163 444.598 178.163 447.642V453.334C178.163 456.377 180.636 458.845 183.686 458.845H438.504C441.554 458.845 444.027 456.377 444.027 453.334V447.642C444.027 444.598 441.554 442.13 438.504 442.13Z" fill="#E8A010"/>
<path d="M469.458 342.827H214.64C211.59 342.827 209.117 345.294 209.117 348.338V354.03C209.117 357.074 211.59 359.541 214.64 359.541H469.458C472.508 359.541 474.981 357.074 474.981 354.03V348.338C474.981 345.294 472.508 342.827 469.458 342.827Z" fill="#E8A010"/>
<path d="M469.458 358.254H214.64C211.59 358.254 209.117 360.722 209.117 363.766V369.457C209.117 372.501 211.59 374.969 214.64 374.969H469.458C472.508 374.969 474.981 372.501 474.981 369.457V363.766C474.981 360.722 472.508 358.254 469.458 358.254Z" fill="#CE8A11"/>
<path d="M469.458 327.75H214.64C211.59 327.75 209.117 330.218 209.117 333.262V338.954C209.117 341.998 211.59 344.465 214.64 344.465H469.458C472.508 344.465 474.981 341.998 474.981 338.954V333.262C474.981 330.218 472.508 327.75 469.458 327.75Z" fill="#CE8A11"/>
<path d="M469.458 374.277H214.64C211.59 374.277 209.117 376.745 209.117 379.789V385.48C209.117 388.524 211.59 390.992 214.64 390.992H469.458C472.508 390.992 474.981 388.524 474.981 385.48V379.789C474.981 376.745 472.508 374.277 469.458 374.277Z" fill="#E8A010"/>
<path d="M470.141 311.244H215.323C212.273 311.244 209.801 313.712 209.801 316.756V322.447C209.801 325.491 212.273 327.959 215.323 327.959H470.141C473.192 327.959 475.664 325.491 475.664 322.447V316.756C475.664 313.712 473.192 311.244 470.141 311.244Z" fill="#E8A010"/>
<path d="M469.458 390.982H214.64C211.59 390.982 209.117 393.45 209.117 396.494V402.186C209.117 405.23 211.59 407.697 214.64 407.697H469.458C472.508 407.697 474.981 405.23 474.981 402.186V396.494C474.981 393.45 472.508 390.982 469.458 390.982Z" fill="#CE8A11"/>
<path d="M469.458 407.697H214.64C211.59 407.697 209.117 410.165 209.117 413.209V418.9C209.117 421.944 211.59 424.412 214.64 424.412H469.458C472.508 424.412 474.981 421.944 474.981 418.9V413.209C474.981 410.165 472.508 407.697 469.458 407.697Z" fill="#E8A010"/>
<path d="M469.458 424.412H214.64C211.59 424.412 209.117 426.88 209.117 429.924V435.615C209.117 438.659 211.59 441.127 214.64 441.127H469.458C472.508 441.127 474.981 438.659 474.981 435.615V429.924C474.981 426.88 472.508 424.412 469.458 424.412Z" fill="#CE8A11"/>
<path d="M470.824 440.521H216.006C212.956 440.521 210.484 442.988 210.484 446.032V451.724C210.484 454.768 212.956 457.235 216.006 457.235H470.824C473.875 457.235 476.347 454.768 476.347 451.724V446.032C476.347 442.988 473.875 440.521 470.824 440.521Z" fill="#E8A010"/>
<path d="M146.384 509.572C190.056 508.21 224.225 467.711 222.703 419.115C221.181 370.519 184.545 332.228 140.874 333.59C97.2021 334.952 63.033 375.451 64.5548 424.047C66.0766 472.643 102.713 510.934 146.384 509.572Z" fill="#E8A010"/>
<path d="M145.811 491.266C180.399 490.187 207.462 458.113 206.256 419.627C205.051 381.142 176.035 350.817 141.447 351.896C106.858 352.975 79.7958 385.048 81.001 423.534C82.2062 462.02 111.223 492.344 145.811 491.266Z" fill="#FFDF99"/>
<path d="M113.597 388.852L165.627 382.128" stroke="white" stroke-width="4.6969" stroke-miterlimit="10"/>
<path d="M115.989 410.567L168.028 403.853" stroke="white" stroke-width="4.6969" stroke-miterlimit="10"/>
<path d="M139.902 388.17C143.136 391.094 145.585 394.779 147.025 398.89C148.466 403 148.852 407.405 148.148 411.703C146.601 421.296 139.826 429.109 130.896 431.59L163.511 468.609" stroke="white" stroke-width="4.6969" stroke-miterlimit="10"/>
<path d="M232.347 512.9C259.16 512.9 280.895 489.373 280.895 460.351C280.895 431.329 259.16 407.801 232.347 407.801C205.535 407.801 183.8 431.329 183.8 460.351C183.8 489.373 205.535 512.9 232.347 512.9Z" fill="#E8A010"/>
<path d="M232.347 501.972C253.583 501.972 270.798 483.337 270.798 460.351C270.798 437.364 253.583 418.729 232.347 418.729C211.111 418.729 193.896 437.364 193.896 460.351C193.896 483.337 211.111 501.972 232.347 501.972Z" fill="#FFDF99"/>
<path d="M223.085 434.393L253.746 444.933" stroke="white" stroke-width="4.6969" stroke-miterlimit="10"/>
<path d="M219.432 446.837L250.092 457.377" stroke="white" stroke-width="4.6969" stroke-miterlimit="10"/>
<path d="M237.955 441.193C239.097 443.562 239.623 446.179 239.484 448.804C239.344 451.43 238.544 453.977 237.158 456.212C235.676 458.541 233.525 460.368 230.985 461.454C228.445 462.541 225.635 462.836 222.924 462.302C226.169 471.968 229.418 481.63 232.669 491.29" stroke="white" stroke-width="4.6969" stroke-miterlimit="10"/>
<path d="M459.257 171.938L459.01 236.695L429.897 236.013L430.144 171.266L459.257 171.938Z" fill="#FFD4A9"/>
<path d="M308.699 267.095C308.699 267.095 388.409 325.734 410.14 290.344C431.871 254.954 411.582 235.313 411.582 235.313L303.214 219.962C301.411 220.578 292.159 223.94 289.397 232.804C286.057 243.515 292.804 260.504 308.699 267.095Z" fill="#749ED1"/>
<path d="M382.782 109.909C382.782 109.909 363.319 101.064 357.436 109.313C351.553 117.561 352.018 122.741 352.018 122.741C352.018 122.741 342.082 175.414 352.018 220.16C361.953 264.907 431.88 232.983 431.88 232.983L431.054 197.479L458.953 198.133C458.953 198.133 462.626 116.283 440.05 110.591C417.475 104.9 396.285 109.578 396.285 109.578" fill="white"/>
<path d="M261.261 379.258L254.106 402.65L213.625 376.351C210.379 374.23 208.462 371.01 209.364 369.144L211.717 364.258C212.609 362.364 215.969 362.601 219.223 364.722L236.522 375.972L252.721 373.737" fill="black"/>
<path d="M366.147 76.2911C366.147 76.2911 342.68 62.3133 366.214 57.2752C366.214 57.2752 357.721 15.7867 391.835 35.2856C391.835 35.2856 417.836 28.7891 408.071 65.9877C408.071 65.9877 411.06 102.627 398.25 87.9109" fill="black"/>
<path d="M366.147 76.2911C366.147 76.2911 342.68 62.3133 366.214 57.2752C366.214 57.2752 357.721 15.7867 391.835 35.2856C391.835 35.2856 417.836 28.7891 408.071 65.9877C408.071 65.9877 411.06 102.627 398.25 87.9109" stroke="black" stroke-width="0.782816" stroke-miterlimit="10"/>
<path d="M400.455 80.5325C403.84 80.4641 406.509 76.7249 406.417 72.1808C406.325 67.6367 403.506 64.0084 400.121 64.0768C396.736 64.1452 394.067 67.8844 394.159 72.4285C394.252 76.9726 397.07 80.6009 400.455 80.5325Z" fill="#FFD4A9"/>
<path d="M383.039 123.462L396.267 123.774L396.4 89.3694L383.171 89.0664L383.039 123.462Z" fill="#FFD4A9"/>
<path d="M366.147 76.2914C366.1 88.9434 373.739 99.37 383.124 99.5878C392.509 99.8056 400.205 89.7389 400.29 77.0869C400.376 64.4348 389.064 43.8658 383.304 53.7904C376.282 65.8837 366.195 63.6488 366.147 76.2914Z" fill="#FFD4A9"/>
<path d="M428.948 155.016L432.999 197.375" stroke="black" stroke-width="0.782816" stroke-miterlimit="10"/>
<path d="M366.404 153.709C366.404 153.709 359.343 179.989 359.761 195.52" stroke="black" stroke-width="0.782816" stroke-miterlimit="10"/>
<path d="M362.19 168.823L358.802 191.267L345.697 189.383L348.022 166.787L362.19 168.823Z" fill="#FFD4A9"/>
<path d="M281.284 243.694L245.481 370.148L266.281 382.696L331.435 273.032C339.283 259.774 334.975 240.768 321.538 231.136L320.523 230.436C319.403 229.683 318.24 228.997 317.04 228.381C302.151 220.7 285.744 227.945 281.284 243.694Z" fill="#749ED1"/>
<path d="M281.768 252.899C282.205 252.739 282.625 252.536 283.021 252.293C289.578 248.306 348.051 212.622 360.596 201.268C361.951 200.071 363.176 198.734 364.25 197.281C368.918 190.784 362.722 181.333 355.538 184.023L335.744 191.333C335.059 191.585 334.419 191.943 333.846 192.394L280.563 233.902C280.563 233.902 234.501 270.049 281.768 252.899Z" fill="#FFD4A9"/>
<path d="M388.742 70.7221C386.768 70.0024 384.158 70.58 382.612 71.063C382.462 71.1066 382.305 71.1153 382.152 71.0886C381.999 71.0619 381.854 71.0004 381.728 70.9089C381.602 70.8174 381.499 70.6983 381.427 70.5608C381.355 70.4234 381.316 70.2712 381.312 70.116V69.9171C381.309 69.7173 381.365 69.5212 381.473 69.3529C381.581 69.1846 381.736 69.0515 381.919 68.9701C383.333 68.364 386.882 67.1613 389.615 68.9133C389.762 69.0086 389.882 69.1392 389.965 69.2931C390.048 69.447 390.091 69.6193 390.089 69.794C390.087 69.9538 390.046 70.1107 389.97 70.2516C389.895 70.3925 389.787 70.5134 389.655 70.6041C389.523 70.6949 389.371 70.753 389.213 70.7735C389.054 70.794 388.892 70.7764 388.742 70.7221Z" fill="#1A1A1A"/>
<path d="M386.588 75.4098C387.4 75.4098 388.058 74.4473 388.058 73.2601C388.058 72.0728 387.4 71.1104 386.588 71.1104C385.775 71.1104 385.117 72.0728 385.117 73.2601C385.117 74.4473 385.775 75.4098 386.588 75.4098Z" fill="#1A1A1A"/>
<path d="M386.132 74.1791C386.3 74.1791 386.435 73.8145 386.435 73.3647C386.435 72.9149 386.3 72.5503 386.132 72.5503C385.964 72.5503 385.828 72.9149 385.828 73.3647C385.828 73.8145 385.964 74.1791 386.132 74.1791Z" fill="white"/>
<path d="M375.713 70.7221C373.729 70.0024 371.12 70.58 369.582 71.063C369.432 71.1083 369.274 71.1184 369.12 71.0925C368.965 71.0666 368.819 71.0055 368.692 70.9138C368.565 70.8221 368.462 70.7023 368.389 70.5639C368.316 70.4256 368.276 70.2722 368.273 70.116V69.9171C368.27 69.716 368.327 69.5185 368.437 69.3499C368.547 69.1812 368.704 69.049 368.89 68.9701C370.294 68.364 373.843 67.1613 376.586 68.9133C376.732 69.0086 376.853 69.1392 376.936 69.2931C377.019 69.447 377.061 69.6193 377.06 69.794C377.055 69.953 377.013 70.1088 376.937 70.2486C376.861 70.3883 376.753 70.5083 376.622 70.5986C376.491 70.689 376.34 70.7473 376.182 70.7687C376.024 70.7902 375.863 70.7742 375.713 70.7221Z" fill="#1A1A1A"/>
<path d="M372.097 75.505C372.904 75.505 373.558 74.5425 373.558 73.3553C373.558 72.168 372.904 71.2056 372.097 71.2056C371.29 71.2056 370.636 72.168 370.636 73.3553C370.636 74.5425 371.29 75.505 372.097 75.505Z" fill="#1A1A1A"/>
<path d="M371.651 74.2832C371.814 74.2832 371.945 73.9185 371.945 73.4687C371.945 73.0189 371.814 72.6543 371.651 72.6543C371.489 72.6543 371.357 73.0189 371.357 73.4687C371.357 73.9185 371.489 74.2832 371.651 74.2832Z" fill="white"/>
<path d="M379.148 72.5503C379.148 72.5503 372.126 87.0206 382.156 82.5696" stroke="black" stroke-width="0.391408" stroke-miterlimit="10"/>
<path d="M380.799 87.4465C380.799 87.4465 383.797 87.2287 384.3 84.9653" stroke="black" stroke-width="0.391408" stroke-miterlimit="10"/>
<path d="M388.846 408.843L401.239 429.895L357.199 450.568C353.659 452.226 350.158 451.97 349.379 450L347.32 444.811C346.533 442.841 348.763 439.896 352.302 438.182L371.148 429.45L379.584 413.247" fill="black"/>
<path d="M339.653 296.67C339.653 296.67 433.901 327.751 446.608 286.65C459.314 245.55 434.139 233.04 434.139 233.04L322.269 252.927C320.627 254.102 312.257 260.304 311.745 269.746C311.128 281.158 322.145 295.391 339.653 296.67Z" fill="#AACCFB"/>
<path d="M305.671 295.306L367.836 417.47L391.559 408.076L362.142 272.019C361.346 268.144 359.743 264.478 357.436 261.261C355.129 258.044 352.17 255.347 348.751 253.345C345.332 251.343 341.529 250.081 337.59 249.64C333.65 249.199 329.662 249.59 325.883 250.787L324.669 251.175C323.326 251.636 322.011 252.173 320.731 252.785C304.665 260.409 297.89 280.097 305.671 295.306Z" fill="#AACCFB"/>
<path d="M325.349 214.588C351.995 208.639 368.494 181.059 362.201 152.987C355.909 124.915 329.206 106.98 302.56 112.929C275.914 118.878 259.415 146.458 265.707 174.53C272 202.602 298.702 220.537 325.349 214.588Z" fill="#E8A010"/>
<path d="M322.978 204.015C344.081 199.304 357.147 177.461 352.163 155.228C347.179 132.995 326.032 118.791 304.93 123.502C283.828 128.213 270.762 150.056 275.746 172.289C280.729 194.522 301.876 208.726 322.978 204.015Z" fill="#FFDF99"/>
<path d="M304.191 138.036L335.62 148.813" stroke="white" stroke-width="4.6969" stroke-miterlimit="10"/>
<path d="M300.604 150.3L332.033 161.067" stroke="white" stroke-width="4.6969" stroke-miterlimit="10"/>
<path d="M319.459 144.94C320.65 147.256 321.217 149.841 321.102 152.442C320.987 155.042 320.195 157.568 318.804 159.77C317.263 162.082 315.06 163.877 312.483 164.922C309.905 165.968 307.072 166.215 304.352 165.632C307.781 175.222 311.21 184.812 314.639 194.402" stroke="white" stroke-width="4.6969" stroke-miterlimit="10"/>
<path d="M345.717 195.804C346.15 196.163 346.617 196.48 347.112 196.751C355.045 200.937 425.987 238.211 444.34 243.723C446.265 244.335 448.255 244.716 450.271 244.859C459.02 245.389 462.73 232.548 455.48 226.79L435.553 210.965C434.883 210.427 434.134 209.996 433.332 209.687L361.07 181.779C361.07 181.779 298.308 157.81 345.717 195.804Z" fill="#FFD4A9"/>
</g>
<defs>
<linearGradient id="paint0_linear" x1="328" y1="544.057" x2="328.43" y2="440.738" gradientUnits="userSpaceOnUse">
<stop stop-color="white"/>
<stop offset="1" stop-color="#C2FFE1"/>
</linearGradient>
<clipPath id="clip0">
<rect width="656" height="544.057" fill="white"/>
</clipPath>
</defs>
</svg>
