<svg width="776" height="619" viewBox="0 0 776 619" fill="none" xmlns="http://www.w3.org/2000/svg">
<g clip-path="url(#clip0)">
<path opacity="0.45" d="M75.4688 474.09H559.327C559.327 474.09 612.164 390.551 603.82 314.362C595.475 238.173 530.126 344.078 530.126 344.078C530.126 344.078 545.425 128.631 470.343 102.629C395.26 76.6265 295.152 102.629 295.152 102.629C295.152 102.629 257.615 108.203 252.049 139.78C246.483 171.357 231.192 271.645 257.615 321.789C257.615 321.789 270.127 52.5022 164.453 123.066C58.7799 193.629 106.059 312.51 106.059 312.51L47.6654 232.65C47.6654 232.65 18.4641 223.319 18.4641 271.645C18.4641 319.971 75.4688 474.09 75.4688 474.09Z" fill="#FFE4A9" fill-opacity="0.45"/>
<path opacity="0.45" d="M776 502.391C776 538.608 596.384 481.809 392.584 567.963C156.006 667.985 9.16772 538.608 9.16772 502.391C9.16772 466.175 180.834 436.862 392.584 436.862C604.334 436.862 776 466.175 776 502.391Z" fill="#FFFAEE"/>
<path d="M698.567 212.574H475.325C465.303 212.574 457.178 220.698 457.178 230.721V451.861C457.178 461.884 465.303 470.008 475.325 470.008H698.567C708.59 470.008 716.714 461.884 716.714 451.861V230.721C716.714 220.698 708.59 212.574 698.567 212.574Z" fill="#FCD3CD"/>
<path d="M701.054 440.301L661.519 385.329L629.813 396.315L610.286 307.115L577.388 322.681L536.892 252.958L530.769 261.26L573.838 336.411L606.735 320.846L624.325 405.98L659.692 397.026L694.382 446.055L701.054 440.301Z" fill="#FF795A"/>
<path d="M517.065 221.098L549.379 247.444L524.011 277.417L517.065 221.098Z" fill="#FF795A"/>
<path d="M455.051 285.924C430.181 328.924 395.062 358.194 361.787 367.654C359.875 334.567 369.377 295.358 390.474 258.841C415.345 215.841 450.455 186.571 483.73 177.112C485.668 210.155 476.174 249.339 455.051 285.924Z" fill="#006837"/>
<path d="M455.051 285.924C430.181 328.924 395.062 358.194 361.787 367.654C359.875 334.567 369.377 295.358 390.474 258.841C415.345 215.841 450.455 186.571 483.73 177.112C485.668 210.155 476.174 249.339 455.051 285.924Z" fill="#006837"/>
<path d="M361.787 367.611C361.787 367.611 397.687 270.041 457.17 212.856" stroke="black" stroke-width="0.857601" stroke-miterlimit="10"/>
<path d="M439.529 231.698C439.529 231.698 434.383 226.081 436.956 213.465" stroke="black" stroke-width="0.857601" stroke-miterlimit="10"/>
<path d="M417.163 261.183C417.163 261.183 440.764 270.522 447.007 255.617" stroke="black" stroke-width="0.857601" stroke-miterlimit="10"/>
<path d="M391.195 278.206C391.195 278.206 382.619 299.397 392.584 301.558" stroke="black" stroke-width="0.857601" stroke-miterlimit="10"/>
<path d="M379.368 327.243C379.368 327.243 394.196 337.174 412.66 315.237" stroke="black" stroke-width="0.857601" stroke-miterlimit="10"/>
<path d="M468.516 370.183C443.645 413.183 408.484 442.453 375.252 451.921C373.322 418.852 382.824 379.685 403.947 343.151C428.817 300.143 463.928 270.881 497.203 261.414C499.115 294.5 489.613 333.649 468.516 370.183Z" fill="#006837"/>
<path d="M468.516 370.183C443.645 413.183 408.484 442.453 375.252 451.921C373.322 418.852 382.824 379.685 403.947 343.151C428.817 300.143 463.928 270.881 497.203 261.414C499.115 294.5 489.613 333.649 468.516 370.183Z" fill="#094728"/>
<path d="M375.235 451.921C375.235 451.921 411.134 354.344 470.617 297.159" stroke="black" stroke-width="0.857601" stroke-miterlimit="10"/>
<path d="M452.968 316C452.968 316 447.822 310.383 450.395 297.768" stroke="black" stroke-width="0.857601" stroke-miterlimit="10"/>
<path d="M430.601 345.484C430.601 345.484 454.211 354.824 460.446 339.918" stroke="black" stroke-width="0.857601" stroke-miterlimit="10"/>
<path d="M404.642 362.491C404.642 362.491 396.066 383.682 406.031 385.843" stroke="black" stroke-width="0.857601" stroke-miterlimit="10"/>
<path d="M392.815 411.554C392.815 411.554 407.643 421.485 426.107 399.548" stroke="black" stroke-width="0.857601" stroke-miterlimit="10"/>
<path d="M152.464 226.595C175.945 270.487 183.226 317.398 175.096 353.126C147.001 339.121 119.309 311.464 99.353 274.226C75.8719 230.352 68.5994 183.415 76.7295 147.688C104.824 161.666 132.516 189.315 152.464 226.595Z" fill="#006837"/>
<path d="M152.464 226.595C175.945 270.487 183.226 317.398 175.096 353.126C147.001 339.121 119.309 311.464 99.353 274.226C75.8719 230.352 68.5994 183.415 76.7295 147.688C104.824 161.666 132.516 189.315 152.464 226.595Z" fill="#006837"/>
<path d="M175.096 353.125C175.096 353.125 112.003 272.803 93.4098 189.675" stroke="black" stroke-width="0.857601" stroke-miterlimit="10"/>
<path d="M100.476 215.232C100.476 215.232 93.3927 217.376 84.2335 208.954" stroke="black" stroke-width="0.857601" stroke-miterlimit="10"/>
<path d="M114.027 250.308C114.027 250.308 132.997 232.641 123.726 219.657" stroke="black" stroke-width="0.857601" stroke-miterlimit="10"/>
<path d="M115.596 282.786C115.596 282.786 128.915 300.993 135.467 292.648" stroke="black" stroke-width="0.857601" stroke-miterlimit="10"/>
<path d="M150.295 317.338C150.295 317.338 165.56 308.222 156.349 280.384" stroke="black" stroke-width="0.857601" stroke-miterlimit="10"/>
<path d="M153.279 327.784C176.76 371.684 180.251 420.902 166.332 460.154C133.872 448.817 103.444 422.832 83.4875 385.543C60.0063 341.668 56.5159 292.434 70.4348 253.181C102.904 264.484 133.331 290.504 153.279 327.784Z" fill="#006837"/>
<path d="M147.16 316.829C176.934 364.488 181.359 417.919 163.71 460.532C122.551 448.224 83.969 420.014 58.6645 379.533C28.8906 331.903 24.4648 278.453 42.1138 235.84C83.2839 248.111 121.866 276.358 147.16 316.829Z" fill="#094728"/>
<path d="M166.332 460.154C166.332 460.154 98.9757 382.43 85.8887 295.949" stroke="black" stroke-width="0.857601" stroke-miterlimit="10"/>
<path d="M91.5403 322.372C91.5403 322.372 82.7156 325.571 72.5616 317.758" stroke="black" stroke-width="0.857601" stroke-miterlimit="10"/>
<path d="M104.036 358.117C104.036 358.117 129.043 336.771 119.267 324.087" stroke="black" stroke-width="0.857601" stroke-miterlimit="10"/>
<path d="M102.2 392.644C102.2 392.644 116.273 410.387 125.175 400.619" stroke="black" stroke-width="0.857601" stroke-miterlimit="10"/>
<path d="M140.346 425.096C140.346 425.096 159.882 413.338 151.89 384.789" stroke="black" stroke-width="0.857601" stroke-miterlimit="10"/>
<path d="M105.562 388.51C145.2 416.168 169.265 458.302 173.604 500.05C139.858 505.718 101.694 497.365 68.0335 473.859C28.4295 446.201 4.33946 404.041 0 362.371C33.7123 356.65 71.9098 365.003 105.562 388.51Z" fill="#006837"/>
<path d="M105.562 388.51C145.2 416.168 169.265 458.302 173.604 500.05C139.858 505.718 101.694 497.365 68.0335 473.859C28.4295 446.201 4.33946 404.041 0 362.371C33.7123 356.65 71.9098 365.003 105.562 388.51Z" fill="#006837"/>
<path d="M173.604 500.05C173.604 500.05 80.5031 463.559 31.9972 392.91" stroke="black" stroke-width="0.857601" stroke-miterlimit="10"/>
<path d="M48.2915 413.707C48.2915 413.707 41.7909 420.85 29.4243 418.852" stroke="black" stroke-width="0.857601" stroke-miterlimit="10"/>
<path d="M74.6026 439.435C74.6026 439.435 87.7668 408.278 73.6678 401.7" stroke="black" stroke-width="0.857601" stroke-miterlimit="10"/>
<path d="M87.7412 471.08C87.7412 471.08 107.835 480.05 111.591 467.023" stroke="black" stroke-width="0.857601" stroke-miterlimit="10"/>
<path d="M135.518 481.457C135.518 481.457 147.902 461.492 128.657 439.958" stroke="black" stroke-width="0.857601" stroke-miterlimit="10"/>
<path d="M539.542 425.207C518.471 470.454 477.521 498.523 432.256 504.321C417.746 466.406 417.737 423.209 435.687 384.763C456.724 339.516 497.674 311.446 542.938 305.649C557.449 343.563 557.458 386.761 539.542 425.207Z" fill="#006837"/>
<path d="M539.542 425.207C518.471 470.454 477.521 498.523 432.256 504.321C417.746 466.406 417.737 423.209 435.687 384.763C456.724 339.516 497.674 311.446 542.938 305.649C557.449 343.563 557.458 386.761 539.542 425.207Z" fill="#006837"/>
<path d="M432.257 504.321C432.257 504.321 450.12 398.587 516.765 342.372" stroke="black" stroke-width="0.857601" stroke-miterlimit="10"/>
<path d="M497.674 361.187C494.605 358.552 492.108 355.316 490.338 351.679C488.568 348.042 487.562 344.08 487.383 340.039" stroke="black" stroke-width="0.857601" stroke-miterlimit="10"/>
<path d="M475.428 391.409C475.428 391.409 513.231 405.576 517.065 389.531" stroke="black" stroke-width="0.857601" stroke-miterlimit="10"/>
<path d="M443.525 406.889C443.525 406.889 438.457 429.735 453.817 433.689" stroke="black" stroke-width="0.857601" stroke-miterlimit="10"/>
<path d="M443.646 460.986C443.646 460.986 468.833 474.511 488.052 452.325" stroke="black" stroke-width="0.857601" stroke-miterlimit="10"/>
<path d="M106.128 281.396C106.091 278.824 106.834 276.301 108.257 274.158C109.68 272.015 111.719 270.353 114.104 269.39L310.186 195.456C316.986 192.883 325.485 196.099 325.485 201.228V392.576C325.485 394.96 323.547 397.155 320.391 398.347L106.128 479.133V281.396Z" fill="#D6A329"/>
<path d="M112.74 288.994L282.416 225.223C290.432 222.204 299.272 222.204 307.287 225.223L352.86 242.375L178.767 307.784C168.761 312.992 157.286 314.658 146.212 312.51C125.75 308.385 114.927 292.373 112.74 288.994Z" fill="white"/>
<path d="M188.389 303.376C183.432 305.177 158.45 313.668 133.065 299.577C119.121 291.859 110.253 286.061 106.274 279.406C106 278.952 106.274 282.391 106.274 282.923L106.137 479.133C107.595 483.224 112.346 493.995 127.654 502.288C153.065 516.01 185.019 510.753 188.398 510.161L188.389 303.376Z" fill="#F4900B"/>
<path d="M188.389 303.376L392.447 226.441C399.247 223.868 407.746 227.075 407.746 232.212V423.594C407.746 425.979 405.808 428.174 402.652 429.366L188.389 510.152V303.376Z" fill="#F7BF15"/>
<path d="M446.132 491.834L438.131 494.441L343.889 216.416L351.891 213.809L446.132 491.834Z" fill="#754C24"/>
<path d="M480.239 475.265L472.461 477.804L380.766 207.316L388.553 204.778L480.239 475.265Z" fill="#754C24"/>
<path d="M360.621 239.579L390.791 232.916" stroke="#936A18" stroke-width="0.857601" stroke-miterlimit="10"/>
<path d="M368.485 263.841L398.647 257.169" stroke="#936A18" stroke-width="0.857601" stroke-miterlimit="10"/>
<path d="M378.485 292.356L408.655 285.692" stroke="#936A18" stroke-width="0.857601" stroke-miterlimit="10"/>
<path d="M387.85 321.206L418.02 314.542" stroke="#936A18" stroke-width="0.857601" stroke-miterlimit="10"/>
<path d="M397.258 348.22L427.428 341.557" stroke="#936A18" stroke-width="0.857601" stroke-miterlimit="10"/>
<path d="M405.731 374.352L435.901 367.688" stroke="#936A18" stroke-width="0.857601" stroke-miterlimit="10"/>
<path d="M416.211 401.7L446.381 395.037" stroke="#936A18" stroke-width="0.857601" stroke-miterlimit="10"/>
<path d="M424.572 426.125L454.734 419.461" stroke="#936A18" stroke-width="0.857601" stroke-miterlimit="10"/>
<path d="M432.128 453.928L462.298 447.256" stroke="#936A18" stroke-width="0.857601" stroke-miterlimit="10"/>
<path d="M565.648 564.456L405.551 485.882L301.533 536.481C297.845 538.273 297.836 542.776 301.533 544.577L450.592 617.73C451.456 618.143 452.401 618.357 453.358 618.357C454.315 618.357 455.26 618.143 456.124 617.73L565.648 564.456Z" fill="#D6A329"/>
<path d="M565.716 533.127L408.372 455.943C407.51 455.532 406.566 455.319 405.611 455.319C404.655 455.319 403.712 455.532 402.849 455.943L301.601 505.17C297.913 506.962 297.905 511.464 301.601 513.265L453.396 587.774L565.716 533.127Z" fill="#F7BF15"/>
<path d="M565.648 564.456C568.892 559.88 570.64 554.412 570.652 548.802C570.664 543.193 568.94 537.718 565.716 533.127L533.625 548.736L565.648 564.456Z" fill="#BA6D19"/>
<path d="M453.405 587.8L452.719 611.289L556.12 559.833C556.609 559.499 563.418 554.688 562.457 547.261C561.728 541.686 557.115 538.47 556.163 537.827L453.405 587.8Z" fill="white"/>
<path d="M317.321 520.992C318.359 522.021 322.844 526.687 322.466 533.565C322.132 537.716 320.286 541.601 317.278 544.482L452.727 611.263L453.414 587.774L317.321 520.992Z" fill="white"/>
<path d="M318.084 253.335C318.084 253.335 257.898 292.425 241.646 267.717C225.395 243.01 240.728 229.777 240.728 229.777L322.346 220.952C323.71 221.398 330.665 223.868 332.715 230.017C335.202 237.452 330.073 249.047 318.084 253.335Z" fill="#939393"/>
<path d="M275.393 121.067C275.393 121.067 293.085 111.822 275.393 107.963C275.393 107.963 281.911 79.5424 256.2 92.4236C256.2 92.4236 236.646 87.5352 243.893 113.289C243.893 113.289 241.535 138.468 251.217 128.546" fill="black"/>
<path d="M275.393 121.067C275.393 121.067 293.085 111.822 275.393 107.963C275.393 107.963 281.911 79.5424 256.2 92.4236C256.2 92.4236 236.646 87.5352 243.893 113.289C243.893 113.289 241.535 138.468 251.217 128.546" stroke="black" stroke-width="0.857601" stroke-miterlimit="10"/>
<path d="M249.69 123.392C252.239 123.392 254.304 120.857 254.304 117.731C254.304 114.605 252.239 112.071 249.69 112.071C247.142 112.071 245.077 114.605 245.077 117.731C245.077 120.857 247.142 123.392 249.69 123.392Z" fill="#FFDDBB" stroke="black" stroke-width="0.857601" stroke-miterlimit="10"/>
<path d="M262.537 129.583H252.581V153.262H262.537V129.583Z" fill="#FFD4A9"/>
<path d="M275.393 121.068C275.393 129.772 269.638 136.83 262.529 136.83C255.419 136.83 249.665 129.772 249.665 121.068C249.665 112.363 258.241 98.3756 262.529 105.296C267.786 113.735 275.393 112.355 275.393 121.068Z" fill="#FFD4A9"/>
<path d="M262.537 136.83C256.706 137.088 252.581 131.059 252.581 131.059V146.495L262.537 136.83Z" fill="#F2C397"/>
<path d="M266.062 117.834C266.062 117.834 271.139 126.796 263.892 124.044" stroke="black" stroke-width="0.4288" stroke-miterlimit="10"/>
<path d="M294.697 273.189C294.697 273.189 223.654 293.068 214.211 264.613C204.769 236.157 223.748 227.907 223.748 227.907L307.913 243.344C309.148 244.202 315.425 248.584 315.786 255.085C316.214 262.966 307.887 272.588 294.697 273.189Z" fill="#B3B3B3"/>
<path d="M275.238 115.51C273.103 114.653 270.299 115.339 268.643 115.93C268.466 115.976 268.279 115.978 268.1 115.936C267.922 115.893 267.756 115.808 267.618 115.687C267.479 115.567 267.372 115.414 267.306 115.243C267.24 115.071 267.216 114.887 267.237 114.704V114.455C267.229 114.217 267.286 113.98 267.403 113.772C267.519 113.563 267.69 113.39 267.897 113.272C269.415 112.526 273.223 111.025 276.173 113.203C276.336 113.335 276.466 113.503 276.554 113.693C276.641 113.884 276.684 114.092 276.679 114.301C276.679 115.184 275.942 115.802 275.238 115.51Z" fill="#1A1A1A"/>
<path d="M261.903 115.51C259.776 114.653 256.971 115.339 255.308 115.93C254.613 116.179 253.91 115.57 253.91 114.704V114.455C253.902 114.217 253.959 113.98 254.075 113.772C254.192 113.563 254.363 113.39 254.57 113.272C256.08 112.526 259.896 111.025 262.837 113.203C263.001 113.335 263.132 113.502 263.222 113.693C263.311 113.883 263.355 114.091 263.352 114.301C263.352 115.184 262.614 115.802 261.903 115.51Z" fill="#1A1A1A"/>
<path d="M259.57 119.747C260.086 119.747 260.505 119.194 260.505 118.512C260.505 117.83 260.086 117.277 259.57 117.277C259.054 117.277 258.635 117.83 258.635 118.512C258.635 119.194 259.054 119.747 259.57 119.747Z" fill="#1A1A1A"/>
<path d="M259.278 119.052C259.382 119.052 259.467 118.841 259.467 118.581C259.467 118.32 259.382 118.109 259.278 118.109C259.174 118.109 259.09 118.32 259.09 118.581C259.09 118.841 259.174 119.052 259.278 119.052Z" fill="white"/>
<path d="M270.161 119.755C270.716 119.755 271.165 119.153 271.165 118.409C271.165 117.665 270.716 117.062 270.161 117.062C269.607 117.062 269.158 117.665 269.158 118.409C269.158 119.153 269.607 119.755 270.161 119.755Z" fill="#1A1A1A"/>
<path d="M269.853 118.984C269.966 118.984 270.058 118.757 270.058 118.478C270.058 118.198 269.966 117.972 269.853 117.972C269.739 117.972 269.647 118.198 269.647 118.478C269.647 118.757 269.739 118.984 269.853 118.984Z" fill="white"/>
<path d="M232.315 531.129L397.472 460.455L497.889 516.019C501.448 517.991 501.156 522.485 497.357 524.106L343.589 589.909C342.71 590.283 341.757 590.453 340.803 590.409C339.848 590.364 338.916 590.106 338.075 589.652L232.315 531.129Z" fill="#D6A329"/>
<path d="M234.391 499.853L396.7 430.387C397.581 430.016 398.533 429.847 399.488 429.893C400.442 429.939 401.374 430.198 402.215 430.653L499.981 484.742C503.54 486.706 503.249 491.2 499.45 492.829L342.792 559.85L234.391 499.853Z" fill="#F7BF15"/>
<path d="M232.315 531.129C229.03 525.652 227.73 519.211 228.636 512.888C229.423 508.131 231.393 503.649 234.365 499.853L265.342 517.005L232.315 531.129Z" fill="#BA6D19"/>
<path d="M342.792 559.851L341.934 583.34L242.152 526.91C241.68 526.55 235.206 521.422 236.672 514.046C237.77 508.515 242.598 505.53 243.593 504.938L342.792 559.851Z" fill="white"/>
<path d="M483.172 499.775C482.066 500.753 477.28 505.195 477.169 512.082C477.21 516.22 478.79 520.195 481.603 523.231L341.891 583.34L342.749 559.85L483.172 499.775Z" fill="white"/>
<path d="M257.34 349.61L247.95 363.906L281.044 378.837C283.703 380.038 286.344 379.917 286.936 378.571L288.506 375.038C289.097 373.691 287.425 371.607 284.766 370.432L270.625 364.052L264.321 352.766" fill="black"/>
<path d="M353.477 331.317L358.794 347.534L389.342 330.048C391.803 328.65 393.244 326.455 392.575 325.16L390.817 321.729C390.148 320.426 387.618 320.52 385.166 321.926L372.113 329.388L359.926 327.595" fill="black"/>
<path d="M338.795 237.658L365.381 325.271L349.678 333.581L300.941 257.049C295.075 247.829 298.368 234.751 308.513 228.362L309.285 227.899C310.134 227.397 311.011 226.942 311.909 226.535C323.144 221.492 335.485 226.749 338.795 237.658Z" fill="#939393"/>
<path d="M320.314 272.794L273.146 355.861L255.325 349.001L277.828 255.814C280.538 244.588 292.879 238.087 305.186 241.775L306.103 242.066C307.109 242.407 308.097 242.799 309.062 243.241C321.146 248.781 326.154 262.443 320.314 272.794Z" fill="#B3B3B3"/>
<path d="M226.938 186.074H205.018V230.652H226.938V186.074Z" fill="#F4C092"/>
<path d="M228.525 185.414H207.051V228.062H228.525V185.414Z" fill="#FFD4A9"/>
<path d="M285.572 220.326C282.271 233.611 270.59 236.775 258.404 236.183C242.366 235.326 225.437 227.916 225.437 227.916L226.158 203.492H205.147C205.147 203.492 202.617 147.087 219.631 143.537C236.646 139.986 252.58 143.537 252.58 143.537L256.268 143.7L262.769 143.983L263.626 143.665L264.433 143.391L265.539 143.039C268.464 142.113 271.496 141.571 274.561 141.427C276.185 141.338 277.81 141.58 279.338 142.139C280.325 142.514 281.19 143.152 281.842 143.983C286.241 149.754 285.881 153.305 285.881 153.305C285.881 153.305 286.85 158.107 287.716 165.697C288.145 169.531 288.574 174.076 288.806 179.067C288.891 180.714 288.951 182.412 288.994 184.144C289.277 195.362 288.574 208.286 285.572 220.326Z" fill="white"/>
<path d="M289.003 184.101L277.854 184.821C277.865 177.35 276.592 169.932 274.089 162.893C271.605 155.968 268.068 149.468 263.601 143.622L263.112 142.996C266.837 141.981 270.675 141.439 274.535 141.384C276.155 141.369 277.767 141.609 279.312 142.096C280.299 142.471 281.165 143.109 281.816 143.94C286.216 149.711 285.856 153.262 285.856 153.262C285.856 153.262 286.825 158.064 287.691 165.654C288.12 169.488 288.548 174.033 288.78 179.024C288.9 180.671 288.96 182.369 289.003 184.101Z" fill="#F2F2F2"/>
<path d="M278.18 184.822L280.624 200.327L290.315 199.238L288.66 183.647L278.18 184.822Z" fill="#F4C092"/>
<path d="M337.397 243.987C337.078 243.866 336.768 243.72 336.471 243.55C331.643 240.694 288.505 215.198 279.261 207.179C278.27 206.341 277.371 205.401 276.576 204.375C273.146 199.83 277.751 193.423 283.051 195.361L297.63 200.713C298.134 200.897 298.608 201.154 299.037 201.476L338.306 230.9C338.306 230.9 372.293 256.543 337.397 243.987Z" fill="#F4C092"/>
<path d="M279.329 184.822L281.645 200.327L290.83 199.238L289.252 183.647L279.329 184.822Z" fill="#FFD4A9"/>
<path d="M338.958 242.967C338.66 242.851 338.373 242.707 338.1 242.538C333.469 239.7 292.09 214.315 283.034 206.356C282.056 205.517 281.163 204.583 280.367 203.569C276.885 199.067 280.607 192.755 285.607 194.693L299.371 200.044C299.854 200.23 300.308 200.484 300.718 200.799L338.855 230.043C338.855 230.043 371.813 255.531 338.958 242.967Z" fill="#FFD4A9"/>
<path d="M306.772 185.876L293.437 212.325L293.145 212.899L290.512 211.621L288.12 210.447L288.411 209.889L301.755 183.432L303.711 184.384L306.223 185.619L306.232 185.628L306.772 185.876Z" fill="#F2C60F"/>
<path d="M297.347 223.576L287.108 218.645L276.868 213.697C278.695 210.052 283.523 208.594 288.403 209.881C289.262 210.114 290.1 210.421 290.907 210.798L291.001 210.85C291.859 211.261 292.675 211.755 293.437 212.325C297.425 215.318 299.166 219.949 297.347 223.576Z" fill="#F2C60F"/>
<path d="M321.815 180.122L324.833 177.446C336.625 187.909 346.977 166.255 346.977 166.255L336.3 160.62L337.706 157.85L351.059 164.376C351.059 164.376 338.238 192.737 321.815 180.122Z" fill="#F2C60F"/>
<path d="M297.536 168.279C277.391 163.047 292.596 135.801 292.596 135.801L305.958 142.319L304.56 145.089L293.565 140.132C293.565 140.132 282.296 161.341 297.905 164.231L297.536 168.279Z" fill="#F2C60F"/>
<path d="M324.859 177.42C323.906 178.371 322.898 179.265 321.84 180.096C317.458 183.569 312.261 185.842 306.258 185.602L303.736 184.376L301.79 183.415L301.687 183.372C293.419 171.417 299.56 154.557 304.371 144.969C304.868 143.965 305.357 143.039 305.803 142.207C307.407 139.283 308.59 137.525 308.59 137.525L323.024 144.566L339.644 152.679C339.644 152.679 334.73 167.67 324.859 177.42Z" fill="#F2C60F"/>
<path opacity="0.09" d="M321.815 180.122C317.432 183.595 312.235 185.868 306.232 185.628L306.764 185.876L293.437 212.325C297.425 215.318 299.165 219.949 297.347 223.577L287.108 218.645L322.99 144.583L339.61 152.696C339.61 152.696 334.704 167.67 324.859 177.421C336.651 187.883 347.002 166.229 347.002 166.229L336.325 160.594L337.732 157.824L351.085 164.351C351.085 164.351 338.238 192.737 321.815 180.122Z" fill="black"/>
<path d="M303.23 159.574C302.913 155.38 306.361 149.617 308.067 147.044C308.164 146.895 308.222 146.725 308.235 146.548C308.249 146.371 308.218 146.193 308.146 146.031C308.073 145.869 307.961 145.728 307.82 145.62C307.679 145.513 307.514 145.442 307.338 145.415C307.117 145.372 306.888 145.397 306.681 145.488C306.474 145.578 306.3 145.729 306.181 145.921C304.843 148.133 300.675 155.534 301.352 160.577L301.918 160.689C302.081 160.723 302.249 160.719 302.41 160.678C302.571 160.637 302.721 160.56 302.848 160.453C302.974 160.345 303.075 160.21 303.141 160.058C303.207 159.905 303.238 159.74 303.23 159.574Z" fill="white"/>
<path d="M234.605 273.738C219.383 273.66 216.458 259.158 216.038 256.44C216.018 256.304 216.027 256.165 216.065 256.034C216.104 255.902 216.171 255.78 216.261 255.677C216.38 255.535 216.537 255.432 216.714 255.378C216.891 255.325 217.079 255.324 217.257 255.376C217.434 255.427 217.592 255.53 217.712 255.67C217.833 255.81 217.909 255.982 217.933 256.165C218.534 260.35 221.364 269.072 234.734 271.276C234.967 271.301 235.184 271.411 235.342 271.585C235.5 271.759 235.589 271.985 235.591 272.22V272.777C235.593 272.906 235.568 273.033 235.518 273.152C235.469 273.271 235.396 273.379 235.304 273.468C235.212 273.558 235.102 273.628 234.982 273.675C234.862 273.721 234.734 273.742 234.605 273.738Z" fill="#B3B3B3"/>
<path d="M290.418 204.315C290.09 204.552 289.74 204.756 289.372 204.924C283.368 207.677 229.871 232.195 216.038 235.703C214.58 236.089 213.085 236.319 211.579 236.389C204.984 236.603 202.231 227.702 207.702 223.868L222.779 213.285C223.305 212.915 223.883 212.626 224.494 212.428L278.969 194.375C278.969 194.375 326.223 178.921 290.418 204.315Z" fill="#F4C092"/>
<path d="M290.692 202.865C290.373 203.094 290.031 203.29 289.672 203.449C283.806 206.081 231.355 229.545 217.839 232.89C216.408 233.261 214.942 233.482 213.465 233.55C207.016 233.765 204.315 225.24 209.675 221.544L224.443 211.424C224.951 211.08 225.505 210.808 226.089 210.618L279.449 193.346C279.449 193.346 325.768 178.57 290.692 202.865Z" fill="#FFD4A9"/>
<path d="M226.149 203.449C226.149 203.449 224.597 185.551 232.821 169.822" stroke="black" stroke-width="0.643201" stroke-miterlimit="10"/>
<path d="M261.705 124.892C261.705 124.892 262.22 126.53 263.369 126.307" stroke="black" stroke-width="0.4288" stroke-miterlimit="10"/>
</g>
<defs>
<clipPath id="clip0">
<rect width="776" height="618.382" fill="white"/>
</clipPath>
</defs>
</svg>
