<svg width="773" height="728" viewBox="0 0 773 728" fill="none" xmlns="http://www.w3.org/2000/svg">
<g clip-path="url(#clip0)">
<ellipse cx="426" cy="338.5" rx="303" ry="291.5" fill="url(#paint0_radial)"/>
<path d="M663.014 600.552H132.845L196.031 415.806H599.828L663.014 600.552Z" fill="#8DB3CE"/>
<path d="M399.488 583.77C399.804 583.77 400.107 583.641 400.331 583.411C400.555 583.181 400.68 582.87 400.68 582.545C400.68 582.22 400.555 581.908 400.331 581.679C400.107 581.449 399.804 581.32 399.488 581.32C399.171 581.32 398.868 581.449 398.644 581.679C398.421 581.908 398.295 582.22 398.295 582.545C398.295 582.87 398.421 583.181 398.644 583.411C398.868 583.641 399.171 583.77 399.488 583.77Z" fill="black"/>
<path d="M652.599 593.513H144.302L204.881 415.806H592.021L652.599 593.513Z" fill="#F7FDFF"/>
<path d="M643.526 566.889C596.528 564.439 537.914 552.598 478.321 557.498C449.698 559.85 422.887 563.1 397.929 566.889V491.756L615.841 481.801L643.526 566.889Z" fill="#DEE3E8"/>
<path d="M399.496 582.553L378.664 593.512V600.552H424.493V593.512L399.496 582.553Z" fill="#B7CCDF"/>
<path d="M173.657 504.929L148.031 582.512C189.622 573.064 253.858 551.406 325.051 556.681C349.528 558.493 373.869 561.892 397.929 566.857V491.724L173.657 504.929Z" fill="#DEE3E8"/>
<path d="M397.93 404.062C237.002 366.495 180.757 404.062 180.757 404.062L132.845 544.194C132.845 544.194 202.63 512.875 397.93 566.889" fill="url(#paint1_linear)"/>
<path d="M397.929 566.889C452.787 555.964 508.308 548.902 564.104 545.754C599.589 543.745 632.721 543.435 663.054 544.194L615.102 404.062C615.102 404.062 535.083 384.985 457.585 392.67C437.419 394.651 417.464 398.464 397.953 404.062" fill="url(#paint2_linear)"/>
<path d="M189.821 412.155C252.328 399.859 316.645 401.102 378.656 415.806" stroke="#B3CCCE" stroke-width="0.66295" stroke-miterlimit="10"/>
<path d="M189.821 418.174C252.328 405.877 316.645 407.121 378.656 421.825" stroke="#B3CCCE" stroke-width="0.66295" stroke-miterlimit="10"/>
<path d="M189.821 423C251.26 411.529 314.312 412.789 375.269 426.708" stroke="#B3CCCE" stroke-width="0.66295" stroke-miterlimit="10"/>
<path d="M167.058 488.881C199.625 483.664 232.614 481.749 265.546 483.164C299.761 484.571 333.739 489.642 366.929 498.297" stroke="#B3CCCE" stroke-width="0.66295" stroke-miterlimit="10"/>
<path d="M162.74 498.264C196.981 493.072 231.634 491.324 266.206 493.046C300.171 494.69 333.897 499.759 366.897 508.179" stroke="#B3CCCE" stroke-width="0.66295" stroke-miterlimit="10"/>
<path d="M159.273 508.179C194.784 501.731 230.915 499.639 266.906 501.948C300.812 504.042 334.367 510.173 366.897 520.216" stroke="#B3CCCE" stroke-width="0.66295" stroke-miterlimit="10"/>
<path d="M415.501 456.517C447.929 447.34 481.217 441.742 514.801 439.816C545.852 437.991 577.002 439.213 607.827 443.466" stroke="#B3CCCE" stroke-width="0.66295" stroke-miterlimit="10"/>
<path d="M415.501 463.295C448.651 454.354 482.641 449.106 516.884 447.64C547.283 446.303 577.736 447.875 607.851 452.336" stroke="#B3CCCE" stroke-width="0.66295" stroke-miterlimit="10"/>
<path d="M414.412 470.678C450.227 462.965 486.641 458.557 523.221 457.505C551.475 456.684 579.751 457.846 607.851 460.984" stroke="#B3CCCE" stroke-width="0.66295" stroke-miterlimit="10"/>
<path d="M480.007 198.042C478.99 196.91 478.028 195.747 477.121 194.555C501.883 179.936 525.483 163.333 547.702 144.902C570.254 126.223 591.263 105.66 610.514 83.4229C610.864 83.7495 611.254 84.117 611.667 84.5335L612.78 85.6768C639.257 113.795 631.56 162.28 595.606 193.42C558.563 225.49 506.46 227.418 480.007 198.042Z" fill="#00BFFC"/>
<path d="M548.375 144.131C585.889 112.884 614.86 85.7303 613.085 83.4812C611.309 81.2322 579.458 104.74 541.944 135.986C504.431 167.233 475.459 194.387 477.235 196.636C479.01 198.885 510.861 175.378 548.375 144.131Z" fill="#C2EEFF"/>
<path d="M476.962 198.271C475.372 218.385 463.541 236.229 445.619 248.43C436.038 254.964 430.385 264.486 430.385 274.612V352.392C430.385 364.405 418.34 374.156 403.495 374.156H374.029C359.169 374.156 347.131 364.405 347.131 352.392V274.612C347.131 264.502 341.51 254.972 331.945 248.479C313.991 236.262 302.12 218.401 300.53 198.271L388.786 204.51L476.962 198.271Z" fill="#00BFFC"/>
<path d="M430.385 352.392L405.483 357.398C394.639 359.555 383.495 359.569 372.646 357.439L347.203 352.432V321.081C374.148 330.794 403.511 330.794 430.457 321.081L430.385 352.392Z" fill="#DCF8FF"/>
<path d="M400.339 367.394H377.186C375.816 367.394 374.705 368.535 374.705 369.942V378.378C374.705 379.785 375.816 380.926 377.186 380.926H400.339C401.709 380.926 402.82 379.785 402.82 378.378V369.942C402.82 368.535 401.709 367.394 400.339 367.394Z" fill="#123959"/>
<path d="M388.762 208.675C437.473 208.675 476.962 204.017 476.962 198.271C476.962 192.524 437.473 187.866 388.762 187.866C340.05 187.866 300.562 192.524 300.562 198.271C300.562 204.017 340.05 208.675 388.762 208.675Z" fill="url(#paint3_linear)"/>
<path d="M347.131 352.392C347.131 352.392 376 362.5 430.385 352.392C430.385 352.392 428.99 372.811 403.495 374.156C378 375.5 362 371.5 362 371.5C362 371.5 347.131 364.968 347.131 352.392Z" fill="#123959"/>
<path d="M368.599 326.683V256.752C368.597 256.019 368.672 255.288 368.821 254.571C369.704 250.488 372.073 234.351 353.349 240.941C331.945 248.463 361.379 260.713 361.379 260.713L377.337 266.854C379.24 267.604 381.302 267.827 383.316 267.499C387.872 266.731 394.932 263.416 396.888 250.308C398.478 239.692 393.302 237.331 388.142 237.405C382.155 237.495 377.345 242.264 377.241 248.022C377.178 251.615 378.291 255.437 382.513 257.585C389.207 260.982 396.499 264.551 400.251 266.372C402.038 267.243 404.01 267.637 405.984 267.515C410.898 267.221 419.882 265.956 421.441 260.704C422.824 256.041 422.435 250.529 421.981 247.164C421.801 245.784 421.351 244.456 420.658 243.258C419.965 242.061 419.044 241.02 417.95 240.198C415.151 238.124 411.089 237.364 407.383 245.098C400.895 258.63 402.796 327.581 402.796 327.581" stroke="white" stroke-width="0.66295" stroke-miterlimit="10"/>
<path d="M339.895 151.026L362.404 170.569L374.116 202.656L351.599 183.113L339.895 151.026Z" fill="#123959"/>
<path d="M347.441 185.767L369.704 205.098C369.855 205.228 369.998 205.277 370.077 205.22C370.26 205.114 370.077 204.624 369.759 204.338L348.005 185.408L347.441 185.767Z" fill="#123959"/>
<path d="M370.364 199.397C369.892 199.269 369.399 199.251 368.921 199.344C368.442 199.438 367.99 199.64 367.597 199.936C367.122 200.394 366.799 200.994 366.674 201.651L348.005 185.407C347.97 185.012 348.012 184.614 348.131 184.236C348.25 183.858 348.443 183.509 348.697 183.211C349.627 182.345 351.13 182.908 351.599 183.113L370.364 199.397Z" fill="#D2EDFF"/>
<path d="M339.895 151.026C339.331 150.798 337.868 150.316 336.818 151.026C336.449 151.346 336.159 151.751 335.971 152.208C335.783 152.665 335.703 153.161 335.737 153.656C339.633 164.354 343.534 175.053 347.441 185.751L348.005 185.392C348.005 184.902 348.005 183.554 348.991 182.982C349.408 182.807 349.857 182.727 350.307 182.746C350.758 182.766 351.198 182.886 351.599 183.097C347.698 172.409 343.797 161.719 339.895 151.026Z" fill="#123959"/>
<path d="M481.057 115.403L461.251 137.478L428.119 149.515L447.917 127.433L481.057 115.403Z" fill="#123959"/>
<path d="M445.047 123.505L425.456 145.351C425.329 145.498 425.281 145.637 425.336 145.718C425.464 145.882 425.965 145.718 426.251 145.383L445.437 124.036L445.047 123.505Z" fill="#123959"/>
<path d="M431.411 145.832C431.534 145.374 431.541 144.891 431.431 144.429C431.321 143.967 431.098 143.542 430.783 143.194C430.269 142.746 429.639 142.462 428.97 142.377L445.437 124.06C446.251 123.969 447.069 124.19 447.734 124.68C448.657 125.546 448.108 127 447.917 127.457L431.411 145.832Z" fill="#D2EDFF"/>
<path d="M481.016 115.395C481.239 114.856 481.708 113.443 480.921 112.447C480.134 111.451 478.766 111.467 478.154 111.475L445.046 123.505L445.436 124.036C445.937 124.036 447.344 124.036 447.972 124.926C448.16 125.317 448.253 125.75 448.244 126.186C448.234 126.623 448.122 127.051 447.917 127.433L481.016 115.395Z" fill="#123959"/>
<path d="M328.78 134.382L301.906 120.825L282.251 92.5361L309.117 106.101L328.78 134.382Z" fill="#123959"/>
<path d="M312.457 102.541L285.877 89.1227C285.702 89.0329 285.551 89.0247 285.479 89.1227C285.336 89.2779 285.638 89.7107 286.02 89.8985L312.011 103.047L312.457 102.541Z" fill="#123959"/>
<path d="M286.727 94.7988C287.21 94.8121 287.689 94.7124 288.128 94.5072C288.568 94.302 288.956 93.9968 289.263 93.6147C289.608 93.0553 289.764 92.3956 289.709 91.7363L312.011 103.014C312.147 103.384 312.207 103.779 312.188 104.174C312.168 104.569 312.07 104.955 311.9 105.309C311.224 106.363 309.626 106.175 309.117 106.126L286.727 94.7988Z" fill="#D2EDFF"/>
<path d="M328.772 134.383C329.376 134.465 330.919 134.587 331.754 133.632C332.024 133.225 332.199 132.76 332.262 132.272C332.326 131.784 332.277 131.287 332.119 130.822L312.457 102.541L312.011 103.015C312.147 103.488 312.465 104.795 311.669 105.587C310.874 106.379 309.626 106.183 309.117 106.102L328.772 134.383Z" fill="#123959"/>
<path d="M368.137 97.5019L365.601 98.3349L354.748 74.4801L357.284 73.6553L368.137 97.5019Z" stroke="black" stroke-width="1.98885" stroke-miterlimit="10"/>
<path d="M352.808 77.8611C358.938 77.8611 363.907 73.6454 363.907 68.445C363.907 63.2446 358.938 59.0288 352.808 59.0288C346.677 59.0288 341.708 63.2446 341.708 68.445C341.708 73.6454 346.677 77.8611 352.808 77.8611Z" fill="#DCF8FF" stroke="#193E59" stroke-width="1.98885" stroke-miterlimit="10"/>
<path d="M544.219 71.3687L543.225 68.837L565.543 55.9092L566.545 58.4408L544.219 71.3687Z" stroke="black" stroke-width="1.98885" stroke-miterlimit="10"/>
<path d="M572.112 64.8149C577.16 64.4187 580.874 59.008 580.407 52.7299C579.94 46.4518 575.468 41.6836 570.42 42.0799C565.372 42.4761 561.658 47.8868 562.125 54.1649C562.592 60.443 567.063 65.2112 572.112 64.8149Z" fill="#DCF8FF" stroke="#193E59" stroke-width="1.98885" stroke-miterlimit="10"/>
<path d="M254.773 42.0422L252.371 43.2182L238.505 21.0783L240.914 19.9023L254.773 42.0422Z" stroke="black" stroke-width="1.98885" stroke-miterlimit="10"/>
<path d="M237.027 24.6658C243.102 23.8221 247.476 18.9605 246.798 13.807C246.12 8.65344 240.645 5.1596 234.57 6.00323C228.495 6.84686 224.121 11.7085 224.799 16.862C225.477 22.0155 230.952 25.5094 237.027 24.6658Z" fill="#DCF8FF" stroke="#193E59" stroke-width="1.98885" stroke-miterlimit="10"/>
<path d="M358.191 134.137C358.392 134.592 358.433 135.105 358.307 135.588C358.181 136.07 357.895 136.493 357.499 136.783C356.999 137.06 356.419 137.145 355.864 137.023C355.309 136.9 354.814 136.577 354.47 136.114L338.234 107.963L341.955 105.987L358.191 134.137Z" fill="#123959"/>
<path d="M338.234 107.963L337.637 102.974L341.955 105.987L338.234 107.963Z" fill="#D2EDFF"/>
<path d="M337.637 102.974L337.717 103.668L338.218 103.398L337.637 102.974Z" fill="#123959"/>
<path d="M290.282 173.787C289.88 174.107 289.392 174.292 288.884 174.317C288.376 174.342 287.873 174.205 287.443 173.926C287.236 173.746 287.066 173.526 286.943 173.279C286.82 173.031 286.745 172.761 286.725 172.483C286.704 172.206 286.737 171.927 286.822 171.663C286.907 171.399 287.043 171.155 287.221 170.945L310.533 147.817L313.586 150.659L290.282 173.787Z" fill="#123959"/>
<path d="M310.533 147.817L315.335 145.816L313.594 150.659L310.533 147.817Z" fill="#D2EDFF"/>
<path d="M315.335 145.816L314.667 146.094L315.08 146.469L315.335 145.816Z" fill="#123959"/>
<path d="M433.741 170.569C434.188 170.322 434.699 170.223 435.203 170.286C435.707 170.348 436.179 170.57 436.556 170.92C436.726 171.136 436.853 171.384 436.929 171.651C437.005 171.917 437.028 172.197 436.998 172.473C436.968 172.749 436.884 173.016 436.752 173.258C436.62 173.501 436.443 173.714 436.23 173.885L409.013 192.668L406.533 189.361L433.741 170.569Z" fill="#123959"/>
<path d="M409.013 192.684L403.924 193.844L406.532 189.376L409.013 192.684Z" fill="#D2EDFF"/>
<path d="M403.924 193.844L404.624 193.681L404.29 193.24L403.924 193.844Z" fill="#123959"/>
<path d="M398.74 92.806L397.961 91.8097L407.176 86.8198L407.947 87.8162L398.74 92.806Z" fill="#123959"/>
<path d="M419.445 105.864L420.701 106.191L422.188 96.1377L420.94 95.811L419.445 105.864Z" fill="#123959"/>
<path d="M427.062 74.0801C426.939 74.0033 426.832 73.9011 426.75 73.78C426.667 73.6589 426.609 73.5214 426.581 73.3764C426.553 73.2313 426.554 73.0818 426.585 72.9373C426.615 72.7927 426.675 72.6563 426.76 72.5366L429.749 68.3389C429.933 68.0985 430.197 67.9358 430.49 67.8816C430.783 67.8274 431.085 67.8855 431.339 68.0449C431.462 68.1217 431.569 68.2239 431.652 68.345C431.734 68.4661 431.792 68.6035 431.82 68.7486C431.848 68.8936 431.847 69.0432 431.816 69.1877C431.786 69.3323 431.726 69.4687 431.641 69.5884L428.652 73.7942C428.468 74.0348 428.204 74.1971 427.91 74.2499C427.617 74.3026 427.314 74.2422 427.062 74.0801V74.0801Z" fill="#123959"/>
<path d="M436.828 91.179C440.304 83.7772 435.859 74.179 426.901 69.7408C417.942 65.3025 407.862 67.7049 404.386 75.1067C400.911 82.5084 405.355 92.1067 414.313 96.5449C423.272 100.983 433.352 98.5807 436.828 91.179Z" fill="#123959"/>
<path d="M434.471 90.0119C437.443 83.6826 433.645 75.4765 425.988 71.6829C418.331 67.8893 409.714 69.9449 406.742 76.2742C403.77 82.6035 407.568 90.8097 415.225 94.6032C422.882 98.3968 431.499 96.3412 434.471 90.0119Z" fill="#DCF8FF"/>
<path d="M430.053 87.8227C432.077 83.5124 429.489 77.9231 424.272 75.3385C419.055 72.754 413.185 74.1529 411.161 78.4631C409.137 82.7734 411.725 88.3628 416.942 90.9473C422.159 93.5319 428.029 92.1329 430.053 87.8227Z" fill="#C2EEFF"/>
<path d="M414.42 81.1765L419.604 84.5738L424.208 78.0977" stroke="#112D59" stroke-width="0.66295" stroke-miterlimit="10"/>
<path d="M426.513 69.1142L411.406 68.0444C411.024 64.2877 414.101 61.5111 418.284 61.7724C422.466 62.0337 426.155 65.3412 426.513 69.1142Z" fill="#123959"/>
<path d="M438.877 85.9377L431.944 72.92C433.89 72.4234 435.94 72.5897 437.785 73.3939C439.631 74.1982 441.172 75.5968 442.177 77.379C444.053 80.9723 442.582 84.8107 438.877 85.9377Z" fill="#123959"/>
<path d="M632.618 252.277C642.612 248.283 653.242 253.093 656.272 261.26C658.562 267.426 656.32 275.045 650.563 280.002H533.915C527.713 275.919 524.803 268.569 526.576 262.077C528.754 254.106 537.707 248.708 546.962 250.864C549.878 241.452 555.669 233.256 563.476 227.491C571.284 221.727 580.693 218.7 590.307 218.861C599.922 219.021 609.23 222.36 616.851 228.382C624.473 234.404 630.001 242.789 632.618 252.293V252.277Z" fill="white"/>
<path d="M704.017 272.979C714.02 268.978 724.69 273.796 727.679 281.963C729.969 288.128 727.727 295.748 721.963 300.705H605.322C599.12 296.622 596.21 289.272 597.975 282.779C600.162 274.809 609.107 269.41 618.37 271.575C621.283 262.162 627.072 253.964 634.88 248.198C642.687 242.432 652.096 239.404 661.711 239.565C671.326 239.725 680.634 243.065 688.255 249.088C695.876 255.112 701.403 263.499 704.017 273.004V272.979Z" fill="white"/>
<path d="M284.672 258.508C294.666 254.506 305.344 259.325 308.326 267.491C310.624 273.649 308.381 281.268 302.617 286.226H185.976C179.775 282.142 176.865 274.792 178.63 268.3C180.816 260.329 189.761 254.939 199.024 257.095C201.937 247.682 207.727 239.484 215.534 233.718C223.341 227.952 232.75 224.925 242.365 225.085C251.98 225.246 261.289 228.585 268.909 234.609C276.53 240.633 282.058 249.019 284.672 258.524V258.508Z" fill="white"/>
<path d="M587.934 508.187L608.232 510.686C608.232 510.686 642.565 526.488 603.08 528.187L584.904 518.616" fill="black"/>
<path d="M489.358 524.08L469.655 524.717C469.655 524.717 435.569 538.281 473.583 544.121L491.695 535.644" fill="black"/>
<path d="M489.358 524.08L469.655 524.717C469.655 524.717 435.569 538.281 473.583 544.121L491.695 535.644" stroke="black" stroke-width="0.66295" stroke-miterlimit="10"/>
<path d="M566.426 438.248H505.617C504.385 438.566 498.135 440.061 492.395 437.864C485.915 435.414 482.663 429.183 485.461 423C480.129 418.483 476.211 412.453 474.195 405.663C470.649 392.988 485.461 389.035 485.461 389.035C485.461 389.035 503.383 380.542 494.645 369.656C485.907 358.77 501.546 349.378 501.546 349.378C515.739 346.699 515.508 335.715 514.506 330.399C514.306 329.207 514.412 327.982 514.814 326.845C515.215 325.707 515.899 324.698 516.796 323.914C527.832 313.151 537.612 325.295 537.612 325.295C537.612 325.295 553.553 315.111 556.551 329.541L559.556 343.98C559.556 343.98 579.672 341.881 571.737 355.683C563.802 369.484 583.393 382.821 583.393 382.821C583.393 382.821 610.188 387.549 599.2 405.638C588.212 423.727 597.101 450.498 566.426 438.248Z" fill="black"/>
<path d="M490.454 436.565L469.965 495.382L480.206 501.915L509.306 443.05L490.454 436.565Z" fill="#FFD4A9"/>
<path d="M469.965 495.415C469.965 495.415 451.932 501.082 450.294 510.809C448.656 520.535 475.698 510.809 475.698 510.809L480.222 501.948L469.965 495.415Z" fill="#FFD4A9"/>
<path d="M563.396 443.05L572.564 463.769L579.783 470.212C579.783 470.212 590.74 480.388 589.15 469.281L589.309 458.795L582.248 436.606L563.396 443.05Z" fill="#FFD4A9"/>
<path d="M548.64 404.968C548.64 404.968 537.985 425.328 524.055 404.968C524.055 404.968 498.739 401.865 495.821 414.017C492.903 426.169 490.455 438.06 490.455 438.06L509.298 444.846L514.22 432.964C514.22 432.964 501.109 484.716 508.479 485.557C508.479 485.557 562.148 496.623 564.216 485.557C565.623 478.019 558.475 432.964 558.475 432.964L563.397 444.846L582.248 438.06C582.248 438.06 579.784 426.177 576.874 414.017C573.963 401.857 548.64 404.968 548.64 404.968C534.71 425.328 524.055 404.968 524.055 404.968" fill="#88D795"/>
<path d="M548.64 409.967C547.371 412.153 545.571 413.963 543.416 415.22C541.261 416.477 538.826 417.138 536.348 417.138C533.87 417.138 531.434 416.477 529.28 415.22C527.125 413.963 525.325 412.153 524.056 409.967V374.328H548.64V409.967Z" fill="#FFD4A9"/>
<path d="M558.475 366.438C558.475 382.135 548.568 394.858 536.348 394.858C524.127 394.858 514.22 382.135 514.22 366.438C514.22 350.742 524.127 352.727 536.348 352.727C548.568 352.727 558.475 350.734 558.475 366.438Z" fill="#FFD4A9"/>
<path d="M585.175 517.685L486.583 512.965C471.77 511.217 461.458 500.461 461.871 490.915C462.348 479.971 476.978 469.951 494.152 473.928L589.039 497.726C589.039 497.726 596.926 511.699 585.175 517.685Z" fill="#417B84"/>
<path d="M488.777 519.857L576.237 474.385C589.913 468.448 604.328 472.532 608.836 480.919C614.044 490.58 606.538 506.578 589.706 511.764L495.678 538.967C495.678 538.967 481.685 530.94 488.777 519.857Z" fill="#4C8F9E"/>
<path d="M548.894 406.022H534.042C533.129 406.022 532.388 406.782 532.388 407.721V445.01C532.388 445.948 533.129 446.708 534.042 446.708H548.894C549.808 446.708 550.548 445.948 550.548 445.01V407.721C550.548 406.782 549.808 406.022 548.894 406.022Z" fill="black"/>
<path d="M549.061 444.896L577.478 473.667C582.249 479.383 590.319 479.514 593.459 476.501C596.306 473.781 596.163 467.517 591.241 463.132L554.834 439.22C554.834 439.22 529.081 420.984 549.061 444.896Z" fill="#FFD4A9"/>
<path d="M527.657 365.916C525.431 365.295 522.513 365.801 520.779 366.21C520.048 366.389 519.316 365.965 519.316 365.393V365.221C519.33 365.028 519.404 364.844 519.527 364.697C519.65 364.55 519.816 364.448 520 364.405C521.59 363.882 525.566 362.837 528.635 364.356C528.784 364.418 528.913 364.523 529.008 364.657C529.102 364.791 529.157 364.95 529.168 365.115V365.115C529.168 365.695 528.396 366.12 527.657 365.916Z" fill="#1A1A1A"/>
<path d="M546.485 365.916C544.283 365.295 541.38 365.801 539.663 366.21C538.94 366.389 538.208 365.965 538.208 365.393V365.221C538.223 365.028 538.298 364.845 538.42 364.699C538.543 364.552 538.708 364.449 538.892 364.405C540.482 363.882 544.402 362.837 547.455 364.356C547.603 364.419 547.731 364.523 547.824 364.658C547.917 364.792 547.971 364.951 547.98 365.115C547.98 365.695 547.216 366.12 546.485 365.916Z" fill="#1A1A1A"/>
<path d="M544.076 369.983C544.98 369.983 545.714 369.149 545.714 368.121C545.714 367.092 544.98 366.259 544.076 366.259C543.171 366.259 542.438 367.092 542.438 368.121C542.438 369.149 543.171 369.983 544.076 369.983Z" fill="#1A1A1A"/>
<path d="M543.575 368.921C543.76 368.921 543.909 368.603 543.909 368.21C543.909 367.818 543.76 367.5 543.575 367.5C543.391 367.5 543.241 367.818 543.241 368.21C543.241 368.603 543.391 368.921 543.575 368.921Z" fill="white"/>
<path d="M523.594 370.064C524.499 370.064 525.232 369.231 525.232 368.202C525.232 367.174 524.499 366.34 523.594 366.34C522.69 366.34 521.957 367.174 521.957 368.202C521.957 369.231 522.69 370.064 523.594 370.064Z" fill="#1A1A1A"/>
<path d="M523.094 369.011C523.278 369.011 523.428 368.693 523.428 368.3C523.428 367.908 523.278 367.59 523.094 367.59C522.909 367.59 522.76 367.908 522.76 368.3C522.76 368.693 522.909 369.011 523.094 369.011Z" fill="white"/>
<path d="M533.04 367.508C533.04 367.508 526.353 378.411 535.903 375.054" stroke="black" stroke-width="0.66295" stroke-miterlimit="10"/>
<path d="M535.593 379.742C535.593 379.742 538.535 379.162 538.773 377.153" stroke="black" stroke-width="0.66295" stroke-miterlimit="10"/>
<path d="M448.537 72.9119L468.653 104.329L494.136 42.1235L448.537 72.9119Z" fill="#C2EEFF"/>
<path d="M456.242 75.1579L467.278 92.4059L483.076 55.3374L456.242 75.1579Z" fill="white"/>
<path d="M452.91 69.9639L454.421 72.324" stroke="black" stroke-width="0.66295" stroke-miterlimit="10"/>
<path d="M456.13 67.7915L457.641 70.1517" stroke="black" stroke-width="0.66295" stroke-miterlimit="10"/>
<path d="M458.89 65.9214L460.4 68.2897" stroke="black" stroke-width="0.66295" stroke-miterlimit="10"/>
<path d="M461.704 64.0186L463.223 66.3869" stroke="black" stroke-width="0.66295" stroke-miterlimit="10"/>
<path d="M464.352 62.2378L465.863 64.598" stroke="black" stroke-width="0.66295" stroke-miterlimit="10"/>
<path d="M467.15 60.6865L468.51 62.8099" stroke="black" stroke-width="0.66295" stroke-miterlimit="10"/>
<path d="M469.623 59.0205L470.983 61.1438" stroke="black" stroke-width="0.66295" stroke-miterlimit="10"/>
<path d="M472.088 57.3462L473.455 59.4695" stroke="black" stroke-width="0.66295" stroke-miterlimit="10"/>
<path d="M252.713 102.434L282.974 81.2665L221.999 56.105L252.713 102.434Z" fill="#C2EEFF"/>
<path d="M254.781 94.4883L271.382 82.8753L235.054 67.2524L254.781 94.4883Z" fill="white"/>
<path d="M249.771 97.9919L252.045 96.3994" stroke="black" stroke-width="0.66295" stroke-miterlimit="10"/>
<path d="M247.601 94.7253L249.883 93.1328" stroke="black" stroke-width="0.66295" stroke-miterlimit="10"/>
<path d="M245.748 91.9158L248.022 90.3232" stroke="black" stroke-width="0.66295" stroke-miterlimit="10"/>
<path d="M243.848 89.0573L246.122 87.4648" stroke="black" stroke-width="0.66295" stroke-miterlimit="10"/>
<path d="M242.067 86.3708L244.341 84.7783" stroke="black" stroke-width="0.66295" stroke-miterlimit="10"/>
<path d="M240.508 83.5205L242.56 82.0913" stroke="black" stroke-width="0.66295" stroke-miterlimit="10"/>
<path d="M238.847 81.013L240.89 79.5757" stroke="black" stroke-width="0.66295" stroke-miterlimit="10"/>
<path d="M237.185 78.4985L239.228 77.0693" stroke="black" stroke-width="0.66295" stroke-miterlimit="10"/>
<path d="M281.925 24.835L274.332 54.9536L301.628 49.531" fill="#123959"/>
<path d="M287.975 52.242L301.627 49.5306L306.819 36.513L312.17 23.1196L281.925 24.8346" fill="#123959"/>
<path d="M287.522 58.0895L307.837 56.987L311.956 37.5259L328.009 57.6567L303.575 78.2204L287.522 58.0895Z" fill="#C2EEFF"/>
<path d="M312.17 23.1196L321.608 34.945L319.859 36.4231L310.914 25.2103L312.17 23.1196Z" fill="#123959"/>
<path d="M325.68 38.5466C326.801 39.9512 326.992 41.6907 326.117 42.4339C325.242 43.1771 323.612 42.6299 322.491 41.2252C321.37 39.8206 318.325 34.5041 319.2 33.7691C320.074 33.0341 324.551 37.1337 325.68 38.5466Z" fill="#123959"/>
<path d="M392.427 111.549L386.56 127.106L369.171 141.104L403.813 154.897L400.156 132.521L406.024 116.971" fill="white"/>
<path d="M392.427 111.549L386.56 127.106L369.171 141.104L403.813 154.897L400.156 132.521L406.024 116.971" stroke="#25535E" stroke-width="0.66295" stroke-miterlimit="10"/>
<path d="M392.904 125.465C394.595 125.465 395.965 124.057 395.965 122.32C395.965 120.584 394.595 119.176 392.904 119.176C391.214 119.176 389.843 120.584 389.843 122.32C389.843 124.057 391.214 125.465 392.904 125.465Z" fill="#123959"/>
<path d="M392.857 133.574C394.17 133.574 395.234 132.481 395.234 131.132C395.234 129.784 394.17 128.69 392.857 128.69C391.544 128.69 390.479 129.784 390.479 131.132C390.479 132.481 391.544 133.574 392.857 133.574Z" fill="#123959"/>
<path d="M387.156 139.969C388.623 139.969 389.812 138.747 389.812 137.241C389.812 135.734 388.623 134.513 387.156 134.513C385.689 134.513 384.5 135.734 384.5 137.241C384.5 138.747 385.689 139.969 387.156 139.969Z" fill="#123959"/>
<path d="M390.734 145.432C391.762 145.432 392.595 144.577 392.595 143.521C392.595 142.466 391.762 141.61 390.734 141.61C389.707 141.61 388.874 142.466 388.874 143.521C388.874 144.577 389.707 145.432 390.734 145.432Z" fill="#123959"/>
<path d="M450.612 7.9544L459.009 22.2379L459.176 44.9249L490.971 25.1861L471.499 14.4877L463.103 0.212402" fill="white"/>
<path d="M450.612 7.9544L459.009 22.2379L459.176 44.9249L490.971 25.1861L471.499 14.4877L463.103 0.212402" stroke="#25535E" stroke-width="0.66295" stroke-miterlimit="10"/>
<path d="M459.199 17.2971C460.89 17.2971 462.26 15.8894 462.26 14.153C462.26 12.4165 460.89 11.0088 459.199 11.0088C457.509 11.0088 456.138 12.4165 456.138 14.153C456.138 15.8894 457.509 17.2971 459.199 17.2971Z" fill="#123959"/>
<path d="M465.966 22.0092C467.279 22.0092 468.343 20.9159 468.343 19.5673C468.343 18.2187 467.279 17.1255 465.966 17.1255C464.653 17.1255 463.588 18.2187 463.588 19.5673C463.588 20.9159 464.653 22.0092 465.966 22.0092Z" fill="#123959"/>
<path d="M467.19 30.6741C468.657 30.6741 469.846 29.4529 469.846 27.9464C469.846 26.44 468.657 25.2188 467.19 25.2188C465.724 25.2188 464.535 26.44 464.535 27.9464C464.535 29.4529 465.724 30.6741 467.19 30.6741Z" fill="#123959"/>
<path d="M474.211 30.78C475.239 30.78 476.072 29.9244 476.072 28.869C476.072 27.8136 475.239 26.958 474.211 26.958C473.184 26.958 472.351 27.8136 472.351 28.869C472.351 29.9244 473.184 30.78 474.211 30.78Z" fill="#123959"/>
<path d="M396.106 30.8319C406.262 20.3998 412.344 9.7323 409.689 7.00546C407.034 4.27863 396.648 10.525 386.492 20.9572C376.335 31.3893 370.254 42.0567 372.909 44.7836C375.563 47.5104 385.949 41.264 396.106 30.8319Z" stroke="#25535E" stroke-width="0.66295" stroke-miterlimit="10"/>
<path d="M405.311 48.4026C408.474 46.3255 404.767 34.5649 397.031 22.1346C389.294 9.70428 380.458 1.31137 377.295 3.38848C374.131 5.46559 377.839 17.2262 385.575 29.6565C393.312 42.0868 402.148 50.4797 405.311 48.4026Z" stroke="#25535E" stroke-width="0.66295" stroke-miterlimit="10"/>
<path d="M391.329 32.8243C405.692 32.7728 417.326 29.6049 417.313 25.7486C417.299 21.8923 405.645 18.8079 391.281 18.8594C376.918 18.9109 365.285 22.0788 365.298 25.9351C365.311 29.7914 376.965 32.8758 391.329 32.8243Z" stroke="#25535E" stroke-width="0.66295" stroke-miterlimit="10"/>
<path d="M377.289 6.56624C379.01 6.56624 380.405 5.13295 380.405 3.36491C380.405 1.59686 379.01 0.163574 377.289 0.163574C375.567 0.163574 374.172 1.59686 374.172 3.36491C374.172 5.13295 375.567 6.56624 377.289 6.56624Z" fill="#C2EEFF"/>
<path d="M372.82 48.0775C374.542 48.0775 375.937 46.6442 375.937 44.8761C375.937 43.1081 374.542 41.6748 372.82 41.6748C371.099 41.6748 369.704 43.1081 369.704 44.8761C369.704 46.6442 371.099 48.0775 372.82 48.0775Z" fill="#C2EEFF"/>
<path d="M391.211 29.9312C393.433 29.9312 395.234 28.0811 395.234 25.7988C395.234 23.5166 393.433 21.6665 391.211 21.6665C388.989 21.6665 387.188 23.5166 387.188 25.7988C387.188 28.0811 388.989 29.9312 391.211 29.9312Z" fill="#C2EEFF"/>
<path d="M417.385 29.0003C419.107 29.0003 420.502 27.567 420.502 25.799C420.502 24.0309 419.107 22.5977 417.385 22.5977C415.664 22.5977 414.269 24.0309 414.269 25.799C414.269 27.567 415.664 29.0003 417.385 29.0003Z" fill="#C2EEFF"/>
<path d="M499.79 139.721L533.405 79.3594L529.347 76.9751L495.732 137.337L499.79 139.721Z" fill="#C2EEFF"/>
<path d="M532.301 81.3076L530.265 80.1152" stroke="black" stroke-width="0.66295" stroke-miterlimit="10"/>
<path d="M530.297 84.9086L528.261 83.7163" stroke="black" stroke-width="0.66295" stroke-miterlimit="10"/>
<path d="M528.428 88.2651L526.393 87.0728" stroke="black" stroke-width="0.66295" stroke-miterlimit="10"/>
<path d="M526.56 91.6137L524.525 90.4214" stroke="black" stroke-width="0.66295" stroke-miterlimit="10"/>
<path d="M524.827 94.7255L522.8 93.5332" stroke="black" stroke-width="0.66295" stroke-miterlimit="10"/>
<path d="M522.871 98.2446L520.835 97.0522" stroke="black" stroke-width="0.66295" stroke-miterlimit="10"/>
<path d="M520.955 101.675L518.927 100.483" stroke="black" stroke-width="0.66295" stroke-miterlimit="10"/>
<path d="M518.999 105.195L516.963 104.002" stroke="black" stroke-width="0.66295" stroke-miterlimit="10"/>
<path d="M516.812 109.123L514.776 107.931" stroke="black" stroke-width="0.66295" stroke-miterlimit="10"/>
<path d="M514.665 112.961L512.638 111.769" stroke="black" stroke-width="0.66295" stroke-miterlimit="10"/>
<path d="M512.391 117.053L510.364 115.861" stroke="black" stroke-width="0.66295" stroke-miterlimit="10"/>
<path d="M510.07 121.227L508.034 120.034" stroke="black" stroke-width="0.66295" stroke-miterlimit="10"/>
<path d="M507.931 125.072L505.896 123.88" stroke="black" stroke-width="0.66295" stroke-miterlimit="10"/>
<path d="M544.53 37.9139L518.108 23.1172L497.38 62.1661L523.802 76.9628L544.53 37.9139Z" fill="#123959"/>
<path d="M540.467 39.244L518.562 26.9766L512.891 37.6602L534.796 49.9276L540.467 39.244Z" fill="#DCF8FF"/>
<path d="M515.357 44.8117L510.526 42.1064L508.962 45.0534L513.793 47.7587L515.357 44.8117Z" fill="#C2EEFF"/>
<path d="M512.897 49.4601L508.066 46.7549L506.502 49.7018L511.332 52.4071L512.897 49.4601Z" fill="#C2EEFF"/>
<path d="M510.226 54.4914L505.395 51.7861L503.831 54.7331L508.661 57.4383L510.226 54.4914Z" fill="#C2EEFF"/>
<path d="M507.38 59.4162L502.549 56.7109L500.985 59.6579L505.815 62.3631L507.38 59.4162Z" fill="#C2EEFF"/>
<path d="M521.484 48.2297L516.653 45.5244L515.089 48.4714L519.919 51.1766L521.484 48.2297Z" fill="#C2EEFF"/>
<path d="M519.018 52.8932L514.188 50.188L512.623 53.1349L517.454 55.8402L519.018 52.8932Z" fill="#C2EEFF"/>
<path d="M516.348 57.9157L511.517 55.2104L509.953 58.1574L514.784 60.8626L516.348 57.9157Z" fill="#C2EEFF"/>
<path d="M513.68 62.9431L508.85 60.2378L507.285 63.1847L512.116 65.89L513.68 62.9431Z" fill="#C2EEFF"/>
<path d="M527.441 51.5676L522.61 48.8623L521.046 51.8093L525.877 54.5145L527.441 51.5676Z" fill="#C2EEFF"/>
<path d="M524.969 56.2194L520.139 53.5142L518.574 56.4611L523.405 59.1663L524.969 56.2194Z" fill="#C2EEFF"/>
<path d="M522.298 61.2541L517.467 58.5488L515.903 61.4958L520.734 64.201L522.298 61.2541Z" fill="#C2EEFF"/>
<path d="M519.631 66.2692L514.8 63.564L513.236 66.5109L518.067 69.2162L519.631 66.2692Z" fill="#C2EEFF"/>
<path d="M533.631 55.0387L528.8 52.3335L527.236 55.2804L532.067 57.9857L533.631 55.0387Z" fill="#C2EEFF"/>
<path d="M531.159 59.6906L526.328 56.9854L524.764 59.9323L529.595 62.6375L531.159 59.6906Z" fill="#C2EEFF"/>
<path d="M528.385 66.1503L524.218 63.8164L519.243 73.1879L523.411 75.5217L528.385 66.1503Z" fill="#C2EEFF"/>
<path d="M256.063 113.658L236.122 136.809L268.552 166.28L288.493 143.129L256.063 113.658Z" fill="#123959"/>
<path d="M256.408 118.015L239.875 137.208L248.748 145.271L265.281 126.077L256.408 118.015Z" fill="#DCF8FF"/>
<path d="M256.086 144.399L252.44 148.631L254.888 150.855L258.534 146.623L256.086 144.399Z" fill="#C2EEFF"/>
<path d="M259.957 147.915L256.311 152.147L258.759 154.372L262.404 150.139L259.957 147.915Z" fill="#C2EEFF"/>
<path d="M264.126 151.706L260.48 155.939L262.928 158.163L266.574 153.93L264.126 151.706Z" fill="#C2EEFF"/>
<path d="M268.166 155.653L264.521 159.886L266.968 162.11L270.614 157.877L268.166 155.653Z" fill="#C2EEFF"/>
<path d="M260.711 139.035L257.065 143.267L259.513 145.491L263.159 141.259L260.711 139.035Z" fill="#C2EEFF"/>
<path d="M264.576 142.546L260.93 146.778L263.378 149.002L267.023 144.77L264.576 142.546Z" fill="#C2EEFF"/>
<path d="M268.745 146.337L265.1 150.57L267.547 152.794L271.193 148.561L268.745 146.337Z" fill="#C2EEFF"/>
<path d="M272.928 150.134L269.283 154.366L271.73 156.59L275.376 152.358L272.928 150.134Z" fill="#C2EEFF"/>
<path d="M265.202 133.82L261.556 138.052L264.004 140.276L267.649 136.044L265.202 133.82Z" fill="#C2EEFF"/>
<path d="M269.067 137.33L265.421 141.563L267.868 143.787L271.514 139.554L269.067 137.33Z" fill="#C2EEFF"/>
<path d="M273.242 141.128L269.596 145.36L272.044 147.584L275.689 143.352L273.242 141.128Z" fill="#C2EEFF"/>
<path d="M277.411 144.919L273.766 149.151L276.213 151.375L279.859 147.143L277.411 144.919Z" fill="#C2EEFF"/>
<path d="M269.88 128.394L266.234 132.626L268.681 134.851L272.327 130.618L269.88 128.394Z" fill="#C2EEFF"/>
<path d="M273.744 131.905L270.099 136.138L272.546 138.362L276.192 134.129L273.744 131.905Z" fill="#C2EEFF"/>
<path d="M279.252 136.125L276.107 139.777L283.89 146.85L287.035 143.198L279.252 136.125Z" fill="#C2EEFF"/>
<path d="M289.089 467.166C289.089 467.166 311.057 493.806 285.304 509.126C259.551 524.447 220.559 494.941 220.559 494.941L205.031 581.279H197.804C197.804 581.279 189.503 448.734 199.354 459.481" fill="#2D3E42"/>
<path d="M205.031 581.279L207.671 596.795H173.426C170.675 596.795 168.441 595.701 168.441 594.345V590.793C168.441 589.445 170.675 588.343 173.426 588.343H188.056L197.804 581.279" fill="black"/>
<path d="M226.881 595.766L229.521 611.283H195.276C192.525 611.283 190.291 610.189 190.291 608.833V605.281C190.291 603.933 192.525 602.831 195.276 602.831H209.89L219.637 595.758" fill="black"/>
<path d="M240.445 352.498C240.445 352.498 220.862 342.183 240.445 337.879C240.445 337.879 233.233 306.152 261.682 320.525C261.682 320.525 283.316 315.07 275.31 343.825C275.31 343.825 277.918 371.926 267.192 360.852" fill="black"/>
<path d="M240.445 352.498C240.445 352.498 220.862 342.183 240.445 337.879C240.445 337.879 233.233 306.152 261.682 320.525C261.682 320.525 283.316 315.07 275.31 343.825C275.31 343.825 277.918 371.926 267.192 360.852" stroke="black" stroke-width="0.66295" stroke-miterlimit="10"/>
<path d="M254.415 378.019C254.415 378.019 238.171 371.575 233.297 378.019C228.423 384.462 228.829 388.431 228.829 388.431C228.829 388.431 220.719 429.085 229.178 463.295C237.638 497.505 295.76 471.731 295.76 471.731L294.965 444.463H318.181C318.181 444.463 320.98 381.506 302.152 377.496C283.324 373.486 265.689 377.496 265.689 377.496" fill="#CADEFD"/>
<path d="M254.669 388.431H265.689V361.996H254.669V388.431Z" fill="#FFD4A9"/>
<path d="M240.444 352.498C240.444 362.224 246.805 370.097 254.669 370.097C262.532 370.097 268.893 362.224 268.893 352.498C268.893 342.771 259.439 327.181 254.669 334.898C248.849 344.331 240.444 342.763 240.444 352.498Z" fill="#FFD4A9"/>
<path d="M240.477 411.135C240.477 411.135 234.68 431.453 235.094 443.377" stroke="white" stroke-width="0.66295" stroke-miterlimit="10"/>
<path d="M310.787 482.16C310.787 482.16 332.747 508.792 307.002 524.12C281.257 539.449 242.25 509.927 242.25 509.927L226.729 596.265H219.502C219.502 596.265 211.201 463.728 221.092 474.451" fill="#456C77"/>
<path d="M318.182 444.446C319.783 457.611 319.831 470.927 318.325 484.104C315.772 504.929 223.621 457.333 223.621 457.333C223.621 457.333 192.763 435.022 223.621 441C254.478 446.978 295.497 463.352 295.497 463.352L294.941 444.471" fill="#FFD4A9"/>
<path d="M268.83 362.943C271.653 362.943 273.942 360.113 273.942 356.622C273.942 353.131 271.653 350.301 268.83 350.301C266.006 350.301 263.717 353.131 263.717 356.622C263.717 360.113 266.006 362.943 268.83 362.943Z" fill="#FFD4A9"/>
<path d="M295.585 444.079L292.079 411.6" stroke="white" stroke-width="0.66295" stroke-miterlimit="10"/>
<path d="M248.054 344.797C246.464 344.241 244.365 344.691 243.124 345.066C243.005 345.108 242.878 345.119 242.754 345.1C242.629 345.082 242.511 345.033 242.409 344.958C242.306 344.883 242.222 344.784 242.164 344.669C242.106 344.555 242.076 344.428 242.075 344.299V344.135C242.079 343.977 242.127 343.823 242.215 343.692C242.302 343.562 242.425 343.46 242.568 343.4C243.697 342.927 246.543 341.987 248.754 343.359C248.868 343.431 248.964 343.532 249.03 343.652C249.097 343.772 249.133 343.907 249.135 344.045C249.133 344.177 249.101 344.307 249.04 344.422C248.979 344.538 248.892 344.637 248.786 344.711C248.679 344.785 248.557 344.831 248.43 344.846C248.303 344.861 248.173 344.844 248.054 344.797Z" fill="#1A1A1A"/>
<path d="M259.981 344.821C258.391 344.266 256.323 344.715 255.091 345.091C254.972 345.13 254.846 345.141 254.723 345.121C254.599 345.102 254.482 345.053 254.381 344.978C254.279 344.903 254.197 344.805 254.139 344.691C254.081 344.577 254.051 344.451 254.049 344.323V344.168C254.052 344.008 254.1 343.852 254.187 343.72C254.275 343.588 254.398 343.485 254.542 343.425C255.663 342.959 258.518 342.02 260.672 343.384C260.787 343.456 260.883 343.556 260.949 343.676C261.016 343.796 261.052 343.932 261.054 344.07C261.052 344.201 261.019 344.329 260.959 344.444C260.899 344.559 260.812 344.657 260.707 344.731C260.602 344.805 260.481 344.851 260.354 344.867C260.228 344.883 260.1 344.867 259.981 344.821Z" fill="#1A1A1A"/>
<path d="M258.215 348.48C258.861 348.48 259.384 347.731 259.384 346.806C259.384 345.881 258.861 345.132 258.215 345.132C257.57 345.132 257.046 345.881 257.046 346.806C257.046 347.731 257.57 348.48 258.215 348.48Z" fill="#1A1A1A"/>
<path d="M257.857 347.524C257.989 347.524 258.096 347.239 258.096 346.887C258.096 346.536 257.989 346.25 257.857 346.25C257.725 346.25 257.619 346.536 257.619 346.887C257.619 347.239 257.725 347.524 257.857 347.524Z" fill="white"/>
<path d="M245.16 348.529C245.805 348.529 246.328 347.779 246.328 346.854C246.328 345.93 245.805 345.18 245.16 345.18C244.514 345.18 243.991 345.93 243.991 346.854C243.991 347.779 244.514 348.529 245.16 348.529Z" fill="#1A1A1A"/>
<path d="M244.802 347.573C244.934 347.573 245.041 347.288 245.041 346.936C245.041 346.585 244.934 346.299 244.802 346.299C244.67 346.299 244.563 346.585 244.563 346.936C244.563 347.288 244.67 347.573 244.802 347.573Z" fill="white"/>
<path d="M249.85 347.598C249.85 347.598 245.08 357.398 251.902 354.392" stroke="black" stroke-width="0.66295" stroke-miterlimit="10"/>
<path d="M251.902 357.814C251.902 357.814 254.025 358.247 254.669 356.622" stroke="black" stroke-width="0.66295" stroke-miterlimit="10"/>
<path d="M181.695 477.391L257.913 480.282L239.371 425.565C238.942 424.454 240.437 425.565 239.371 425.565L169.403 422.919C167.328 422.837 165.881 425.295 166.731 427.468L181.695 477.391Z" fill="#4D4D4D"/>
<path d="M187.652 473.274L187.498 477.264L284.017 481.211L284.172 477.221L187.652 473.274Z" fill="#4D4D4D"/>
<path d="M210.66 460.33C215.407 460.33 219.255 456.425 219.255 451.608C219.255 446.791 215.407 442.886 210.66 442.886C205.914 442.886 202.065 446.791 202.065 451.608C202.065 456.425 205.914 460.33 210.66 460.33Z" fill="white"/>
<ellipse cx="413.5" cy="648" rx="274.5" ry="18" fill="url(#paint4_radial)"/>
</g>
<defs>
<radialGradient id="paint0_radial" cx="0" cy="0" r="1" gradientUnits="userSpaceOnUse" gradientTransform="translate(426 338.5) rotate(90) scale(291.5 303)">
<stop stop-color="#00A8FE" stop-opacity="0.16"/>
<stop offset="1" stop-color="#DFDFDF" stop-opacity="0"/>
</radialGradient>
<linearGradient id="paint1_linear" x1="265.387" y1="387.366" x2="265.387" y2="566.889" gradientUnits="userSpaceOnUse">
<stop stop-color="white"/>
<stop offset="1" stop-color="#F8F8F8"/>
</linearGradient>
<linearGradient id="paint2_linear" x1="530.492" y1="390.845" x2="530.492" y2="566.889" gradientUnits="userSpaceOnUse">
<stop stop-color="white"/>
<stop offset="1" stop-color="#F8F8F8"/>
</linearGradient>
<linearGradient id="paint3_linear" x1="309" y1="198" x2="471" y2="198" gradientUnits="userSpaceOnUse">
<stop stop-color="#C2EEFF"/>
<stop offset="1" stop-color="#7ADAFF"/>
</linearGradient>
<radialGradient id="paint4_radial" cx="0" cy="0" r="1" gradientUnits="userSpaceOnUse" gradientTransform="translate(413.5 648) rotate(90) scale(18 274.5)">
<stop stop-color="#EEEEEE"/>
<stop offset="1" stop-color="#DFDFDF" stop-opacity="0"/>
</radialGradient>
<clipPath id="clip0">
<rect width="773" height="727.919" fill="white"/>
</clipPath>
</defs>
</svg>
