<svg width="564" height="517" viewBox="0 0 564 517" fill="none" xmlns="http://www.w3.org/2000/svg">
<g clip-path="url(#clip0)">
<path d="M377.366 131.912C432.981 275.443 575.728 243.619 563.219 349.137C552.954 435.85 430.913 501.407 332.112 514.005C231.36 526.843 86.6231 494.014 26.6169 385.844C-60.3775 229.013 84.4765 10.6827 193.971 5.3586C231.263 3.55041 313.066 -33.9798 377.366 131.912Z" fill="#CCE1FF"/>
<path d="M398.031 422.007H306.08L318.452 355.485H385.659L398.031 422.007Z" fill="white"/>
<path d="M537.558 144.107H166.553V357.273H537.558V144.107Z" fill="#273F7C"/>
<path d="M527.568 155.559H176.546V345.821H527.568V155.559Z" fill="#F2F2F2"/>
<path d="M166.553 357.273H537.558V364.828C537.558 368.515 536.135 372.051 533.602 374.659C531.07 377.266 527.635 378.731 524.054 378.731H180.057C176.476 378.731 173.041 377.266 170.508 374.659C167.976 372.051 166.553 368.515 166.553 364.828V357.273Z" fill="white"/>
<path d="M456.496 422.831H247.616C245.008 422.831 242.894 425.007 242.894 427.693V427.974C242.894 430.659 245.008 432.836 247.616 432.836H456.496C459.104 432.836 461.219 430.659 461.219 427.974V427.693C461.219 425.007 459.104 422.831 456.496 422.831Z" fill="white"/>
<path d="M257.822 63.7224H441.744C443.415 63.7224 445.019 64.4061 446.201 65.6231C447.383 66.8401 448.047 68.4907 448.047 70.2118V124.759H251.539V70.2118C251.539 68.4942 252.2 66.8466 253.378 65.6302C254.556 64.4138 256.154 63.7277 257.822 63.7224Z" fill="#F2F2F2"/>
<path d="M395.514 78.228H303.407V80.0362H395.514V78.228Z" fill="#999999"/>
<path d="M395.514 89.4189H303.407V91.2271H395.514V89.4189Z" fill="#999999"/>
<path d="M395.847 101.494H303.74V103.302H395.847V101.494Z" fill="#999999"/>
<path d="M210.012 345.821V142.58C210.012 132.735 218.579 124.759 229.136 124.759H469.785C480.362 124.759 488.929 132.796 488.929 142.58V345.821H210.012Z" fill="white"/>
<path d="M415.146 149.552H275.971C275.001 149.552 274.214 150.361 274.214 151.36C274.214 152.358 275.001 153.168 275.971 153.168H415.146C416.116 153.168 416.902 152.358 416.902 151.36C416.902 150.361 416.116 149.552 415.146 149.552Z" fill="#999999"/>
<path d="M459.736 165.343H236.903C235.933 165.343 235.146 166.153 235.146 167.151C235.146 168.15 235.933 168.96 236.903 168.96H459.736C460.706 168.96 461.492 168.15 461.492 167.151C461.492 166.153 460.706 165.343 459.736 165.343Z" fill="#999999"/>
<path d="M459.736 181.135H236.903C235.933 181.135 235.146 181.944 235.146 182.943C235.146 183.942 235.933 184.751 236.903 184.751H459.736C460.706 184.751 461.492 183.942 461.492 182.943C461.492 181.944 460.706 181.135 459.736 181.135Z" fill="#999999"/>
<path d="M459.736 196.947H236.903C235.933 196.947 235.146 197.756 235.146 198.755C235.146 199.753 235.933 200.563 236.903 200.563H459.736C460.706 200.563 461.492 199.753 461.492 198.755C461.492 197.756 460.706 196.947 459.736 196.947Z" fill="#999999"/>
<path d="M459.736 212.738H236.903C235.933 212.738 235.146 213.548 235.146 214.546C235.146 215.545 235.933 216.354 236.903 216.354H459.736C460.706 216.354 461.492 215.545 461.492 214.546C461.492 213.548 460.706 212.738 459.736 212.738Z" fill="#999999"/>
<path d="M459.736 228.55H236.903C235.933 228.55 235.146 229.359 235.146 230.358C235.146 231.357 235.933 232.166 236.903 232.166H459.736C460.706 232.166 461.492 231.357 461.492 230.358C461.492 229.359 460.706 228.55 459.736 228.55Z" fill="#999999"/>
<path d="M459.736 244.341H236.903C235.933 244.341 235.146 245.151 235.146 246.149C235.146 247.148 235.933 247.958 236.903 247.958H459.736C460.706 247.958 461.492 247.148 461.492 246.149C461.492 245.151 460.706 244.341 459.736 244.341Z" fill="#999999"/>
<path d="M459.736 261.62H236.903C235.933 261.62 235.146 262.429 235.146 263.428C235.146 264.426 235.933 265.236 236.903 265.236H459.736C460.706 265.236 461.492 264.426 461.492 263.428C461.492 262.429 460.706 261.62 459.736 261.62Z" fill="#999999"/>
<path d="M459.736 278.898H236.903C235.933 278.898 235.146 279.707 235.146 280.706C235.146 281.705 235.933 282.514 236.903 282.514H459.736C460.706 282.514 461.492 281.705 461.492 280.706C461.492 279.707 460.706 278.898 459.736 278.898Z" fill="#999999"/>
<path d="M459.736 295.333H236.903C235.933 295.333 235.146 296.142 235.146 297.141C235.146 298.139 235.933 298.949 236.903 298.949H459.736C460.706 298.949 461.492 298.139 461.492 297.141C461.492 296.142 460.706 295.333 459.736 295.333Z" fill="#999999"/>
<path d="M284.791 311.767H236.903C235.933 311.767 235.146 312.576 235.146 313.575C235.146 314.573 235.933 315.383 236.903 315.383H284.791C285.761 315.383 286.547 314.573 286.547 313.575C286.547 312.576 285.761 311.767 284.791 311.767Z" fill="#999999"/>
<path d="M131.779 190.316C131.779 190.316 139.234 211.01 138.687 223.145" stroke="#F2A36D" stroke-width="0.938436" stroke-miterlimit="10"/>
<path d="M61.0405 223.868L65.5483 190.798" stroke="#F2A36D" stroke-width="0.938436" stroke-miterlimit="10"/>
<path d="M31.8477 220.152V251.594H56.0843C55.1477 244.964 59.2652 237.732 59.8701 229.996C60.1239 226.694 60.5473 223.408 61.1386 220.152H31.8477Z" fill="#FFD4A9"/>
<path d="M193.015 269.174C192.687 269.075 192.372 268.933 192.079 268.752C187.298 265.999 144.6 241.368 135.819 233.512C134.883 232.701 134.044 231.776 133.321 230.76C130.277 226.259 136.112 219.669 141.537 221.498L156.446 226.52C156.946 226.688 157.42 226.932 157.851 227.244L195.864 255.954C195.864 255.954 228.687 280.967 193.015 269.174Z" fill="#FFD4A9"/>
<path d="M43.1846 393.538L25.2119 408.485L62.8354 440.028C65.8406 442.56 69.3727 443.404 70.6411 441.877L74.095 437.858C75.4025 436.352 74.0951 433.057 70.9923 430.525L54.9321 417.044L51.0293 400.188" fill="black"/>
<path d="M132.95 412.303L130.238 436.794L179.648 434.463C183.551 434.262 186.77 432.454 186.673 430.284L186.439 424.719C186.439 422.589 183.063 421.022 179.082 421.223L157.968 422.207L143.429 411.8" fill="black"/>
<path d="M131.818 257.441L80.6909 256.235L125.964 417.486L151.235 414.774L131.818 257.441Z" fill="#192D5B"/>
<path d="M62.9534 246.551C60.5973 255.557 60.0265 264.959 61.2751 274.197C61.8955 278.094 62.7361 281.952 63.7925 285.749C66.4527 296.795 68.1441 308.064 68.8466 319.422L38.0142 394.984L59.3042 413.227C59.3042 413.227 99.1132 337.664 107.504 326.594C115.895 315.524 107.504 256.878 107.504 256.878L62.9534 246.551Z" fill="#273F7C"/>
<path d="M113.885 156.563C113.885 156.563 134.745 150.074 140.99 156.563C147.234 163.053 146.727 167.031 146.727 167.031C146.727 167.031 157.148 207.956 146.278 242.372C135.409 276.788 60.845 250.871 60.845 250.871L61.8598 223.427H32.042C32.042 223.427 28.4319 160.059 52.61 156.061C68.1376 153.707 83.9164 153.707 99.4441 156.061" fill="white"/>
<path d="M131.818 130.606C131.818 130.606 156.952 120.098 131.818 115.718C131.818 115.718 141.068 83.412 104.498 98.0383C104.498 98.0383 76.7293 92.4932 86.9352 121.766C86.9352 121.766 83.5788 150.376 97.3363 139.104" fill="black"/>
<path d="M131.818 130.606C131.818 130.606 156.952 120.098 131.818 115.718C131.818 115.718 141.068 83.412 104.498 98.0383C104.498 98.0383 76.7293 92.4932 86.9352 121.766C86.9352 121.766 83.5788 150.376 97.3363 139.104" stroke="black" stroke-width="0.938436" stroke-miterlimit="10"/>
<path d="M113.572 140.29H99.4243V167.212H113.572V140.29Z" fill="#FFD4A9"/>
<path d="M131.818 130.606C131.554 135.407 129.515 139.921 126.121 143.224C122.726 146.526 118.233 148.367 113.562 148.367C108.892 148.367 104.399 146.526 101.004 143.224C97.6093 139.921 95.5708 135.407 95.3066 130.606C95.3066 120.701 107.445 104.809 113.553 112.685C121.007 122.268 131.818 120.701 131.818 130.606Z" fill="#FFD4A9"/>
<path d="M96.1268 135.97C99.2954 135.97 101.864 133.325 101.864 130.063C101.864 126.801 99.2954 124.156 96.1268 124.156C92.9583 124.156 90.3896 126.801 90.3896 130.063C90.3896 133.325 92.9583 135.97 96.1268 135.97Z" fill="#FFD4A9"/>
<path d="M120.481 125.704C120.481 125.704 126.531 135.408 117.905 132.434" stroke="black" stroke-width="0.938436" stroke-miterlimit="10"/>
<path d="M122.823 124.197C124.651 123.693 126.589 123.813 128.346 124.538C128.489 124.58 128.641 124.586 128.787 124.555C128.934 124.525 129.071 124.458 129.187 124.362C129.304 124.266 129.396 124.142 129.457 124.001C129.518 123.861 129.545 123.707 129.536 123.554V123.353C129.542 123.155 129.492 122.961 129.391 122.793C129.291 122.625 129.144 122.491 128.97 122.408C127.906 121.818 126.715 121.508 125.506 121.508C124.297 121.508 123.107 121.818 122.042 122.408C121.906 122.508 121.795 122.641 121.72 122.795C121.645 122.949 121.608 123.12 121.613 123.292C121.612 123.443 121.645 123.592 121.711 123.726C121.777 123.861 121.873 123.977 121.992 124.066C122.11 124.154 122.247 124.212 122.392 124.235C122.537 124.258 122.684 124.245 122.823 124.197Z" fill="#1A1A1A"/>
<path d="M109.513 124.217C111.33 123.734 113.249 123.853 114.997 124.558C115.139 124.601 115.29 124.608 115.436 124.577C115.582 124.547 115.718 124.48 115.834 124.383C115.949 124.286 116.039 124.162 116.098 124.021C116.156 123.88 116.18 123.727 116.167 123.574V123.373C116.171 123.179 116.121 122.988 116.025 122.821C115.928 122.654 115.788 122.518 115.621 122.429C114.353 121.826 111.172 120.62 108.733 122.429C108.598 122.53 108.489 122.664 108.414 122.817C108.34 122.971 108.302 123.141 108.303 123.313C108.302 123.463 108.335 123.612 108.401 123.747C108.467 123.881 108.563 123.998 108.682 124.086C108.8 124.175 108.937 124.233 109.082 124.255C109.227 124.278 109.374 124.265 109.513 124.217Z" fill="#1A1A1A"/>
<path d="M112.246 127.873C112.903 127.873 113.436 127.145 113.436 126.246C113.436 125.347 112.903 124.619 112.246 124.619C111.588 124.619 111.055 125.347 111.055 126.246C111.055 127.145 111.588 127.873 112.246 127.873Z" fill="#1A1A1A"/>
<path d="M112.616 126.949C112.757 126.949 112.87 126.67 112.87 126.326C112.87 125.982 112.757 125.704 112.616 125.704C112.476 125.704 112.363 125.982 112.363 126.326C112.363 126.67 112.476 126.949 112.616 126.949Z" fill="white"/>
<path d="M125.575 127.913C126.232 127.913 126.765 127.185 126.765 126.286C126.765 125.387 126.232 124.659 125.575 124.659C124.917 124.659 124.384 125.387 124.384 126.286C124.384 127.185 124.917 127.913 125.575 127.913Z" fill="#1A1A1A"/>
<path d="M125.945 126.989C126.085 126.989 126.199 126.71 126.199 126.366C126.199 126.022 126.085 125.744 125.945 125.744C125.805 125.744 125.691 126.022 125.691 126.366C125.691 126.71 125.805 126.989 125.945 126.989Z" fill="white"/>
<path d="M119.193 135.89C118.897 135.976 118.586 135.998 118.281 135.955C117.976 135.911 117.683 135.803 117.42 135.637C117.158 135.47 116.932 135.25 116.757 134.989C116.582 134.728 116.461 134.433 116.402 134.122" stroke="black" stroke-width="0.938436" stroke-miterlimit="10"/>
<path d="M135.8 201.547C136.717 205.304 137.595 209.584 138.317 214.285C139.054 219.151 139.543 224.053 139.781 228.971L153.909 227.364L150.982 199.819L135.8 201.547Z" fill="#FFD4A9"/>
<path d="M206.169 252.237L197.856 268.049C164.331 253.997 131.623 237.965 99.8942 220.031C74.3501 205.606 51.9282 191.361 32.7652 178.282C25.4278 174.264 21.2518 167.433 23.535 163.093C25.8182 158.753 33.6824 158.432 41.0978 162.45C63.6562 172.958 87.932 184.912 113.437 198.514C147.958 216.917 179.024 235.14 206.169 252.237Z" fill="#18205B"/>
<path d="M197.854 268.069L206.168 252.257L230.892 275.864L197.854 268.069Z" fill="#778AED"/>
<path d="M120.696 236.707C120.327 236.923 119.934 237.092 119.525 237.209C113.066 239.218 55.3624 256.999 41.3122 258.023C39.8456 258.154 38.3687 258.08 36.9215 257.802C30.6769 256.476 30.794 244.643 37.1167 241.147L54.4843 231.543C55.0579 231.228 55.6774 231.011 56.3186 230.9L112.91 221.458C112.91 221.458 162.047 213.602 120.696 236.707Z" fill="#FFD4A9"/>
</g>
<defs>
<clipPath id="clip0">
<rect width="564" height="516.14" fill="white" transform="translate(0 0.495605)"/>
</clipPath>
</defs>
</svg>
