<svg width="642" height="481" viewBox="0 0 642 481" fill="none" xmlns="http://www.w3.org/2000/svg">
<g clip-path="url(#clip0)">
<path d="M2.43381 390.805C6.49676 410.236 19.3242 429.516 48.0606 444.449C140.038 492.246 194.293 469.833 194.293 469.833C194.293 469.833 284.469 478.948 359.767 461.623C370.472 459.142 381.555 459.496 392.102 462.655C422.548 471.829 489.27 482.205 505.24 404.024C526.112 301.836 580.742 280.533 580.742 280.533C580.742 280.533 699.407 176.355 601.216 136.229C537.376 110.157 514.759 71.9114 506.77 48.3379C503.322 38.2979 497.699 29.342 490.389 22.2483C483.078 15.1547 474.302 10.1379 464.823 7.63387C434.124 -0.776422 389.369 4.10792 349.066 73.9452C297.017 164.113 217.895 147.803 180.789 133.45C172.036 130.167 162.777 128.818 153.543 129.479C144.309 130.14 135.28 132.799 126.972 137.303C97.1658 153.329 62.0426 184.884 90.5559 238.52C117.263 288.688 90.403 302.63 63.8638 305.618C23.6355 310.166 -5.93501 350.522 2.40802 390.805" fill="#D0FFF1"/>
<path d="M237.023 151.948L102.145 150.542C93.0508 150.447 85.5938 158.512 85.4891 168.555L82.956 411.538C82.8513 421.581 90.1385 429.799 99.2325 429.894L234.111 431.3C243.205 431.395 250.662 423.33 250.766 413.287L253.3 170.304C253.404 160.261 246.117 152.043 237.023 151.948Z" fill="#131344"/>
<path d="M222.224 163.858L115.907 162.749C106.791 162.654 99.3165 170.717 99.2118 180.757L96.9218 400.419C96.8171 410.459 104.122 418.676 113.238 418.771L219.555 419.879C228.671 419.974 236.146 411.912 236.251 401.872L238.541 182.21C238.646 172.169 231.341 163.953 222.224 163.858Z" fill="white" stroke="black" stroke-miterlimit="10"/>
<path d="M224.001 175.16L105.598 173.926L103.409 383.88L221.812 385.115L224.001 175.16Z" fill="#E6E6FF"/>
<path d="M184.886 267.023C184.886 267.023 205.722 259.803 211.868 267.305C218.014 274.806 217.451 279.371 217.451 279.371C217.451 279.371 227.27 326.382 216.099 365.738C204.929 405.093 130.955 374.587 130.955 374.587L132.301 343.134L102.664 342.825C102.664 342.825 99.7884 270.096 123.893 265.82C139.355 263.286 155.079 263.45 170.486 266.306" fill="white"/>
<path d="M135.154 305.551L130.279 342.985" stroke="black" stroke-miterlimit="10"/>
<path d="M201.705 306.373C201.705 306.373 208.857 329.895 208.185 343.656" stroke="black" stroke-miterlimit="10"/>
<path d="M133.676 319.914L102.674 319.591L102.076 376.997L133.078 377.32L133.676 319.914Z" fill="#FFD4A9"/>
<path d="M206.023 319.902L209.333 339.92L223.302 338.661L221.128 318.555L206.023 319.902Z" fill="#FFD4A9"/>
<path d="M274.621 383.02C274.232 382.917 273.851 382.777 273.483 382.601C267.739 379.772 216.447 354.451 205.627 346.255C204.497 345.425 203.456 344.446 202.525 343.336C198.608 338.558 204.698 331.182 211.082 332.928L228.68 337.861C229.263 338.031 229.825 338.284 230.353 338.614L276.625 368.475C276.625 368.475 316.637 394.585 274.621 383.02Z" fill="#FFD4A9"/>
<path d="M223.178 344.351C222.706 344.652 222.212 344.908 221.701 345.116C213.185 348.576 137.193 379.364 117.586 383.673C115.505 384.157 113.389 384.429 111.263 384.487C101.944 384.674 98.1595 373.166 105.955 368.308L127.41 354.906C128.163 354.438 128.968 354.079 129.805 353.838L207.076 331.395C207.076 331.395 274.145 312.167 223.178 344.351Z" fill="#FFD4A9"/>
<path d="M203.039 237.747C203.039 237.747 228.186 226.101 203.215 220.873C203.215 220.873 212.809 184.368 176.287 200.565C176.287 200.565 148.713 193.99 158.599 227.278C158.599 227.278 154.936 259.671 168.767 247.027" fill="black"/>
<path d="M203.039 237.747C203.039 237.747 228.186 226.101 203.215 220.873C203.215 220.873 212.809 184.368 176.287 200.565C176.287 200.565 148.713 193.99 158.599 227.278C158.599 227.278 154.936 259.671 168.767 247.027" stroke="black" stroke-miterlimit="10"/>
<path d="M166.658 240.377C170.266 240.414 173.225 237.179 173.267 233.15C173.309 229.122 170.418 225.825 166.81 225.788C163.202 225.75 160.243 228.985 160.201 233.014C160.159 237.043 163.05 240.339 166.658 240.377Z" fill="#FFD4A9"/>
<path d="M184.756 248.528L170.672 248.381L170.354 278.88L184.438 279.027L184.756 248.528Z" fill="#FFD4A9"/>
<path d="M203.039 237.747C203.076 240.422 202.626 243.078 201.716 245.56C200.805 248.041 199.453 250.298 197.739 252.197C196.025 254.095 193.984 255.597 191.736 256.614C189.488 257.63 187.078 258.141 184.65 258.116C182.222 258.09 179.824 257.529 177.597 256.466C175.371 255.403 173.361 253.859 171.687 251.925C170.013 249.991 168.708 247.707 167.85 245.207C166.992 242.706 166.597 240.041 166.69 237.368C166.807 226.157 179.081 208.273 185.083 217.249C192.391 228.198 203.156 226.536 203.039 237.747Z" fill="#FFD4A9"/>
<path d="M183.779 239.746C183.779 239.746 182.58 245.922 186.755 244.788" stroke="black" stroke-width="0.5" stroke-miterlimit="10"/>
<path d="M191.603 232.093C191.603 232.093 198.66 243.705 188.453 240.051" stroke="black" stroke-width="0.5" stroke-miterlimit="10"/>
<path d="M195.165 229.106C196.347 228.822 197.578 228.903 198.719 229.342C198.804 229.374 198.895 229.383 198.984 229.37C199.073 229.357 199.158 229.321 199.232 229.265C199.306 229.21 199.368 229.136 199.412 229.049C199.456 228.963 199.481 228.867 199.486 228.768L199.487 228.64C199.486 228.517 199.451 228.397 199.388 228.295C199.325 228.194 199.236 228.115 199.132 228.069C198.437 227.708 197.678 227.516 196.908 227.508C196.139 227.5 195.377 227.676 194.674 228.023C194.591 228.077 194.523 228.153 194.475 228.245C194.426 228.336 194.4 228.439 194.398 228.545C194.403 228.643 194.429 228.738 194.474 228.823C194.519 228.908 194.58 228.981 194.655 229.035C194.729 229.089 194.814 229.124 194.902 229.136C194.991 229.149 195.081 229.139 195.165 229.106Z" fill="#1A1A1A"/>
<path d="M182.975 229.093C184.298 228.761 185.679 228.854 186.954 229.361C187.051 229.395 187.154 229.404 187.255 229.387C187.356 229.369 187.451 229.326 187.535 229.261C187.618 229.196 187.686 229.11 187.734 229.011C187.782 228.912 187.809 228.801 187.811 228.689L187.813 228.561C187.816 228.419 187.78 228.279 187.71 228.159C187.64 228.039 187.539 227.946 187.42 227.89C186.509 227.469 184.212 226.608 182.421 227.838C182.325 227.901 182.246 227.99 182.19 228.096C182.135 228.202 182.106 228.323 182.105 228.445C182.11 228.557 182.138 228.666 182.188 228.764C182.238 228.862 182.308 228.946 182.392 229.008C182.477 229.071 182.573 229.112 182.674 229.126C182.775 229.141 182.878 229.129 182.975 229.093Z" fill="#1A1A1A"/>
<path d="M184.674 234.206C185.506 234.215 186.19 233.396 186.201 232.377C186.211 231.358 185.545 230.525 184.712 230.516C183.88 230.508 183.196 231.327 183.185 232.345C183.175 233.364 183.841 234.197 184.674 234.206Z" fill="#1A1A1A"/>
<path d="M185.149 233.161C185.32 233.162 185.461 232.853 185.465 232.468C185.469 232.084 185.334 231.772 185.163 231.77C184.992 231.768 184.851 232.078 184.847 232.462C184.843 232.846 184.978 233.159 185.149 233.161Z" fill="white"/>
<path d="M196.503 234.273C197.201 234.28 197.774 233.53 197.784 232.597C197.794 231.664 197.236 230.902 196.539 230.895C195.841 230.888 195.268 231.638 195.258 232.571C195.249 233.503 195.806 234.265 196.503 234.273Z" fill="#1A1A1A"/>
<path d="M196.9 233.312C197.042 233.313 197.161 233.028 197.165 232.676C197.168 232.323 197.056 232.036 196.913 232.034C196.771 232.033 196.653 232.318 196.649 232.67C196.645 233.023 196.758 233.31 196.9 233.312Z" fill="white"/>
<path d="M118.391 184.342L122.693 184.387L122.683 185.366L117.177 185.309L117.272 176.231L118.475 176.243L118.391 184.342ZM125.332 185.394L124.135 185.381L124.23 176.303L125.427 176.316L125.332 185.394ZM130.549 183.858L133.221 176.397L134.53 176.411L131.069 185.453L130.009 185.442L126.743 176.329L128.046 176.343L130.549 183.858ZM140.833 181.359L136.898 181.318L136.865 184.535L141.435 184.583L141.425 185.561L135.657 185.501L135.752 176.423L141.457 176.483L141.447 177.468L136.939 177.421L136.909 180.339L140.843 180.38L140.833 181.359Z" fill="white"/>
<path d="M118.391 184.342L117.952 184.338L117.947 184.777L118.386 184.781L118.391 184.342ZM122.693 184.387L123.132 184.392L123.136 183.953L122.697 183.948L122.693 184.387ZM122.683 185.366L122.678 185.805L123.117 185.81L123.121 185.371L122.683 185.366ZM117.177 185.309L116.738 185.304L116.734 185.743L117.173 185.748L117.177 185.309ZM117.272 176.231L117.276 175.792L116.837 175.787L116.833 176.226L117.272 176.231ZM118.475 176.243L118.914 176.248L118.919 175.809L118.48 175.804L118.475 176.243ZM118.386 184.781L122.688 184.826L122.697 183.948L118.395 183.903L118.386 184.781ZM122.254 184.383L122.244 185.361L123.121 185.371L123.132 184.392L122.254 184.383ZM122.687 184.927L117.182 184.87L117.173 185.748L122.678 185.805L122.687 184.927ZM117.616 185.313L117.711 176.235L116.833 176.226L116.738 185.304L117.616 185.313ZM117.267 176.67L118.471 176.682L118.48 175.804L117.276 175.792L117.267 176.67ZM118.036 176.239L117.952 184.338L118.83 184.347L118.914 176.248L118.036 176.239ZM125.332 185.394L125.328 185.833L125.767 185.837L125.771 185.398L125.332 185.394ZM124.135 185.381L123.696 185.377L123.692 185.816L124.131 185.82L124.135 185.381ZM124.23 176.303L124.235 175.864L123.796 175.86L123.791 176.299L124.23 176.303ZM125.427 176.316L125.866 176.32L125.871 175.881L125.432 175.877L125.427 176.316ZM125.337 184.955L124.14 184.942L124.131 185.82L125.328 185.833L125.337 184.955ZM124.574 185.386L124.669 176.308L123.791 176.299L123.696 185.377L124.574 185.386ZM124.225 176.742L125.422 176.755L125.432 175.877L124.235 175.864L124.225 176.742ZM124.988 176.311L124.894 185.389L125.771 185.398L125.866 176.32L124.988 176.311ZM130.549 183.858L130.133 183.997L130.534 185.202L130.962 184.006L130.549 183.858ZM133.221 176.397L133.225 175.958L132.913 175.955L132.807 176.249L133.221 176.397ZM134.53 176.411L134.94 176.567L135.166 175.978L134.535 175.972L134.53 176.411ZM131.069 185.453L131.064 185.892L131.369 185.896L131.478 185.61L131.069 185.453ZM130.009 185.442L129.595 185.591L129.699 185.878L130.004 185.881L130.009 185.442ZM126.743 176.329L126.747 175.89L126.117 175.884L126.329 176.477L126.743 176.329ZM128.046 176.343L128.462 176.204L128.363 175.907L128.05 175.904L128.046 176.343ZM130.962 184.006L133.634 176.545L132.807 176.249L130.136 183.71L130.962 184.006ZM133.216 176.836L134.525 176.849L134.535 175.972L133.225 175.958L133.216 176.836ZM134.12 176.254L130.659 185.297L131.478 185.61L134.94 176.567L134.12 176.254ZM131.073 185.015L130.013 185.004L130.004 185.881L131.064 185.892L131.073 185.015ZM130.422 185.294L127.156 176.181L126.329 176.477L129.595 185.591L130.422 185.294ZM126.738 176.768L128.041 176.782L128.05 175.904L126.747 175.89L126.738 176.768ZM127.629 176.482L130.133 183.997L130.965 183.719L128.462 176.204L127.629 176.482ZM140.833 181.359L140.828 181.798L141.267 181.802L141.271 181.363L140.833 181.359ZM136.898 181.318L136.903 180.879L136.464 180.874L136.459 181.313L136.898 181.318ZM136.865 184.535L136.426 184.53L136.421 184.969L136.86 184.974L136.865 184.535ZM141.435 184.583L141.874 184.587L141.878 184.148L141.44 184.144L141.435 184.583ZM141.425 185.561L141.42 186L141.859 186.005L141.864 185.566L141.425 185.561ZM135.657 185.501L135.219 185.497L135.214 185.936L135.653 185.94L135.657 185.501ZM135.752 176.423L135.757 175.984L135.318 175.98L135.313 176.419L135.752 176.423ZM141.457 176.483L141.896 176.487L141.901 176.048L141.462 176.044L141.457 176.483ZM141.447 177.468L141.442 177.907L141.881 177.911L141.886 177.472L141.447 177.468ZM136.939 177.421L136.944 176.982L136.505 176.977L136.5 177.416L136.939 177.421ZM136.909 180.339L136.47 180.334L136.465 180.773L136.904 180.778L136.909 180.339ZM140.843 180.38L141.282 180.384L141.286 179.946L140.847 179.941L140.843 180.38ZM140.837 180.92L136.903 180.879L136.894 181.757L140.828 181.798L140.837 180.92ZM136.459 181.313L136.426 184.53L137.304 184.54L137.337 181.322L136.459 181.313ZM136.86 184.974L141.43 185.021L141.44 184.144L136.869 184.096L136.86 184.974ZM140.996 184.578L140.986 185.557L141.864 185.566L141.874 184.587L140.996 184.578ZM141.429 185.123L135.662 185.062L135.653 185.94L141.42 186L141.429 185.123ZM136.096 185.506L136.191 176.428L135.313 176.419L135.219 185.497L136.096 185.506ZM135.748 176.862L141.452 176.922L141.462 176.044L135.757 175.984L135.748 176.862ZM141.018 176.478L141.008 177.463L141.886 177.472L141.896 176.487L141.018 176.478ZM141.451 177.029L136.944 176.982L136.934 177.86L141.442 177.907L141.451 177.029ZM136.5 177.416L136.47 180.334L137.347 180.343L137.378 177.425L136.5 177.416ZM136.904 180.778L140.838 180.819L140.847 179.941L136.913 179.9L136.904 180.778ZM140.404 180.375L140.394 181.354L141.271 181.363L141.282 180.384L140.404 180.375Z" fill="white"/>
<path d="M110.49 190.441C113.28 190.47 115.565 188.25 115.593 185.484C115.622 182.717 113.384 180.45 110.595 180.421C107.805 180.392 105.52 182.612 105.491 185.378C105.462 188.145 107.7 190.412 110.49 190.441Z" fill="#FF0000"/>
<path d="M172.273 422.424L157.262 422.267C155.825 422.252 154.646 423.523 154.629 425.107C154.613 426.69 155.765 427.986 157.202 428.001L172.214 428.157C173.651 428.172 174.83 426.901 174.846 425.317C174.863 423.734 173.711 422.439 172.273 422.424Z" fill="#E6E6FF"/>
<path d="M318.33 407.751L418.337 377.568L534.013 415.422L434.006 445.619L318.33 407.751Z" fill="#9292FF"/>
<path d="M433.724 466.495L532.722 436.628C533.382 436.422 533.798 436.057 533.802 435.631C533.812 434.737 532.052 434.194 530.617 434.59L433.831 463.686L433.724 466.495Z" fill="#6D6DBC"/>
<path d="M517.336 420.457C515.666 422.441 513.01 426.331 513.602 431.333C514.003 434.085 515.117 436.65 516.811 438.718L433.766 463.685C432.181 462.419 429.259 459.678 428.693 455.896C427.962 450.581 432.486 446.767 433.954 445.619L517.336 420.457Z" fill="#E6E7E8"/>
<path d="M318.33 407.752C316.602 409.153 312.373 413.012 312.471 418.449C312.573 423.517 316.336 427.162 318.048 428.627L433.724 466.495L433.754 463.656C432.322 462.506 428.466 459.102 428.696 454.321C428.872 449.838 432.538 446.725 434.032 445.591L318.33 407.752Z" fill="#6D6DBC"/>
<path d="M346.149 408.042L379.257 419.018L444.933 398.71L412.081 387.936L346.149 408.042Z" fill="#C0C0FF"/>
<path d="M462.647 333.775L399.329 333.115C394.769 334.224 390.032 334.042 385.558 332.588C378.832 330.02 375.508 323.755 378.485 317.569C373.107 313.149 369.08 307.028 366.941 300.019C363.376 287.208 378.841 283.438 378.841 283.438C378.841 283.438 397.601 275.117 388.618 264.052C379.635 252.987 396.02 243.747 396.02 243.747C410.828 241.205 410.698 230.175 409.71 224.814C409.534 223.601 409.667 222.357 410.095 221.221C410.523 220.085 411.23 219.102 412.136 218.381C423.742 207.687 433.807 220.027 433.807 220.027C433.807 220.027 450.51 209.953 453.477 224.49L456.457 239.026C456.457 239.026 477.457 237.102 469.052 250.896C460.648 264.689 480.906 278.327 480.906 278.327C480.906 278.327 508.753 283.358 497.121 301.419C485.49 319.479 494.5 346.442 462.647 333.775Z" fill="black"/>
<path d="M383.548 331.29L361.594 390.177L372.194 396.859L403.117 338.009L383.548 331.29Z" fill="#FFD4A9"/>
<path d="M361.594 390.177C361.594 390.177 342.747 395.658 340.945 405.433C339.142 415.207 367.398 405.708 367.398 405.708L372.194 396.859L361.594 390.177Z" fill="#FFD4A9"/>
<path d="M459.439 338.596L468.783 359.515L476.227 366.079C476.227 366.079 487.511 376.416 485.992 365.202L486.269 354.659L479.145 332.244L459.439 338.596Z" fill="#FFD4A9"/>
<path d="M444.479 300.146C444.479 300.146 433.181 319.587 418.876 299.88C418.876 299.88 392.53 296.624 389.381 308.258C386.231 319.893 383.548 331.248 383.548 331.248L403.105 337.966L408.377 326.667C408.377 326.667 394.201 376.196 401.872 377.113C401.872 377.113 457.658 388.326 459.856 377.718C461.387 370.495 454.404 327.146 454.404 327.146L459.44 338.554L479.145 332.244C479.145 332.244 476.686 320.864 473.793 309.096C470.9 297.328 444.479 300.104 444.479 300.104C429.767 319.509 418.876 299.837 418.876 299.837" fill="white"/>
<path d="M444.427 305.185C442.944 307.408 441.003 309.212 438.764 310.447C436.525 311.681 434.052 312.312 431.55 312.286C429.048 312.26 426.588 311.578 424.376 310.297C422.163 309.015 420.259 307.171 418.824 304.918L419.196 269.168L444.799 269.435L444.427 305.185Z" fill="#FFD4A9"/>
<path d="M455.127 261.538C454.962 277.319 444.52 289.999 431.777 289.866C419.033 289.733 408.871 276.853 409.036 261.057C409.2 245.262 419.488 247.384 432.218 247.517C444.949 247.65 455.291 245.756 455.127 261.538Z" fill="#FFD4A9"/>
<path d="M484.308 404.33L505.388 407.062C505.388 407.062 540.98 423.315 499.832 424.589L481.004 414.77" fill="black"/>
<path d="M481.31 413.851L378.676 408.026C363.232 406.119 352.65 395.193 353.136 385.632C353.753 374.639 369.127 364.721 386.932 368.952L485.487 393.853C485.487 393.853 493.64 407.947 481.31 413.851Z" fill="#35356D"/>
<path d="M381.484 419.225L360.964 419.664C360.964 419.664 325.323 432.918 364.845 439.207L383.798 430.888" fill="black"/>
<path d="M381.484 419.225L360.964 419.664C360.964 419.664 325.323 432.918 364.845 439.207L383.798 430.888" stroke="black" stroke-miterlimit="10"/>
<path d="M380.885 414.961L472.473 370.199C486.71 364.372 501.755 368.645 506.383 377.138C511.707 386.916 503.718 402.914 486.139 407.94L387.926 434.238C387.926 434.238 373.424 426.039 380.885 414.961Z" fill="#434389"/>
<path d="M430.286 373.478L472.451 373.534C480.177 374.154 486.344 368.513 486.544 364.143C486.714 360.185 482.094 355.85 475.221 356.275L430.539 365.348C430.539 365.348 397.942 370.827 430.286 373.478Z" fill="#FFD4A9"/>
<path d="M423.034 260.692C420.657 260.238 418.22 260.314 415.867 260.915C415.105 261.092 414.336 260.658 414.343 260.048L414.344 259.878C414.369 259.671 414.453 259.479 414.585 259.329C414.716 259.18 414.888 259.081 415.075 259.048C416.73 258.54 420.877 257.533 424.094 259.142C424.243 259.199 424.373 259.303 424.47 259.44C424.567 259.576 424.626 259.741 424.641 259.914C424.609 260.481 423.793 260.899 423.034 260.692Z" fill="#1A1A1A"/>
<path d="M442.646 260.897C440.286 260.441 437.865 260.517 435.53 261.12C434.781 261.297 434.025 260.863 434.032 260.253L434.033 260.083C434.055 259.878 434.137 259.686 434.266 259.536C434.396 259.386 434.566 259.287 434.751 259.253C436.38 258.745 440.514 257.738 443.668 259.346C443.816 259.404 443.947 259.507 444.043 259.644C444.14 259.781 444.199 259.945 444.214 260.118C444.208 260.686 443.404 261.103 442.646 260.897Z" fill="#1A1A1A"/>
<path d="M440.091 264.944C441.03 264.953 441.801 264.123 441.811 263.088C441.822 262.053 441.069 261.207 440.13 261.197C439.191 261.187 438.42 262.018 438.41 263.052C438.399 264.087 439.152 264.934 440.091 264.944Z" fill="#1A1A1A"/>
<path d="M439.587 263.874C439.779 263.876 439.938 263.56 439.942 263.168C439.946 262.776 439.793 262.457 439.601 262.455C439.409 262.453 439.25 262.769 439.246 263.161C439.242 263.552 439.394 263.872 439.587 263.874Z" fill="white"/>
<path d="M418.764 264.806C419.704 264.816 420.474 263.985 420.485 262.951C420.495 261.916 419.743 261.07 418.803 261.06C417.864 261.05 417.094 261.881 417.083 262.915C417.072 263.95 417.825 264.797 418.764 264.806Z" fill="#1A1A1A"/>
<path d="M418.248 263.736C418.44 263.738 418.599 263.422 418.603 263.03C418.607 262.638 418.455 262.319 418.262 262.317C418.07 262.315 417.911 262.631 417.907 263.023C417.903 263.415 418.055 263.734 418.248 263.736Z" fill="white"/>
<path d="M428.623 262.34C428.623 262.34 421.538 273.223 431.52 269.964" stroke="black" stroke-width="0.5" stroke-miterlimit="10"/>
<path d="M431.15 274.658C431.15 274.658 434.222 274.122 434.501 272.095" stroke="black" stroke-width="0.5" stroke-miterlimit="10"/>
<path d="M383.061 380.48L365.106 369.747L499.693 371.15L480.771 381.498L383.061 380.48Z" fill="#131344"/>
<path d="M481.37 322.729L383.673 321.711L383.061 380.48L480.757 381.498L481.37 322.729Z" fill="#35358E"/>
<path d="M432.129 361.149C437.787 361.208 442.418 356.979 442.473 351.704C442.528 346.429 437.986 342.105 432.328 342.046C426.671 341.988 422.04 346.216 421.985 351.491C421.93 356.766 426.472 361.09 432.129 361.149Z" fill="white"/>
<path d="M534.908 192.339L482.001 191.787C477.048 191.736 472.987 196.116 472.93 201.571L472.747 219.084C472.69 224.539 476.659 229.004 481.612 229.055L534.52 229.607C539.473 229.658 543.534 225.278 543.591 219.823L543.773 202.31C543.83 196.855 539.861 192.391 534.908 192.339Z" fill="#B5B5F4"/>
<path d="M476.651 229.004L472.556 237.392L486.212 229.103L476.651 229.004Z" fill="#B5B5F4"/>
<path d="M483.85 213.395C485.11 213.408 486.145 212.097 486.162 210.467C486.179 208.836 485.172 207.504 483.912 207.491C482.652 207.478 481.618 208.789 481.601 210.419C481.584 212.049 482.591 213.382 483.85 213.395Z" fill="#131344"/>
<path d="M524.014 213.814C525.274 213.827 526.309 212.516 526.326 210.885C526.343 209.255 525.335 207.923 524.076 207.91C522.816 207.897 521.781 209.208 521.764 210.838C521.747 212.468 522.754 213.8 524.014 213.814Z" fill="#131344"/>
<path d="M504.132 213.606C505.391 213.619 506.426 212.308 506.443 210.678C506.46 209.048 505.453 207.716 504.193 207.702C502.934 207.689 501.899 209 501.882 210.631C501.865 212.261 502.872 213.593 504.132 213.606Z" fill="#131344"/>
<path d="M428.424 53.9216L273.491 52.3064C268.538 52.2548 264.477 56.6352 264.42 62.0904L263.69 132.071C263.634 137.526 267.603 141.99 272.556 142.042L427.489 143.657C432.442 143.709 436.503 139.328 436.56 133.873L437.29 63.8927C437.347 58.4374 433.377 53.9732 428.424 53.9216Z" fill="#B5B5F4"/>
<path d="M273.355 142.05L263.363 162.271L296.703 142.294L273.355 142.05Z" fill="#B5B5F4"/>
<path d="M377.715 60.1492L426.963 60.6626L414.859 90.5981" fill="#B5B5F4"/>
<path d="M377.715 60.1492L426.963 60.6626L414.859 90.5981" stroke="black" stroke-miterlimit="21" stroke-dasharray="6 6"/>
<path d="M363.954 64.9448L374.629 60.7555L362.526 90.691L411.773 91.2044L403.785 86.125" fill="#B5B5F4"/>
<path d="M363.954 64.9448L374.629 60.7555L362.526 90.691L411.773 91.2044L403.785 86.125" stroke="black" stroke-miterlimit="21"/>
<path d="M350.636 91.3621L273.711 90.5601C272.622 90.5488 271.729 91.5117 271.717 92.7109L271.716 92.7251C271.704 93.9243 272.576 94.9057 273.665 94.917L350.591 95.719C351.68 95.7303 352.572 94.7674 352.585 93.5682L352.585 93.554C352.598 92.3548 351.725 91.3734 350.636 91.3621Z" fill="#131344"/>
<path d="M342.283 106.462L271.736 105.726C270.647 105.715 269.754 106.678 269.742 107.877L269.741 107.891C269.729 109.091 270.601 110.072 271.69 110.083L342.237 110.819C343.326 110.83 344.219 109.867 344.232 108.668L344.232 108.654C344.244 107.455 343.372 106.473 342.283 106.462Z" fill="#131344"/>
<path d="M333.921 122.399L273.386 121.768C272.297 121.757 271.404 122.719 271.391 123.919L271.391 123.933C271.379 125.132 272.251 126.113 273.34 126.125L333.875 126.756C334.964 126.767 335.857 125.804 335.87 124.605L335.87 124.591C335.882 123.392 335.01 122.41 333.921 122.399Z" fill="#131344"/>
<path d="M374.628 60.7556L377.627 68.5507L374.628 60.7556Z" fill="white" stroke="black" stroke-miterlimit="21"/>
<path d="M411.773 91.2045L405.937 97.261L411.773 91.2045Z" fill="white" stroke="black" stroke-miterlimit="21"/>
</g>
<defs>
<clipPath id="clip0">
<rect width="637.073" height="473.481" fill="white" transform="translate(4.93555) rotate(0.597302)"/>
</clipPath>
</defs>
</svg>
