<svg width="691" height="501" viewBox="0 0 691 501" fill="none" xmlns="http://www.w3.org/2000/svg">
<g clip-path="url(#clip0)">
<path d="M74.8112 463.722C7.90925 371.551 79.4971 263.955 143.257 147.12C180.338 79.1609 220.993 27.2486 283.982 7.27466C394.681 -27.8703 493.179 74.9938 519.533 102.525C620.902 208.384 670.158 393.093 605.734 456.8C572.947 489.29 507.358 501.579 385.54 480.913C164.831 443.423 141.713 555.879 74.8112 463.722Z" fill="#FFD5C7"/>
<path d="M427.387 216.774C427.387 216.774 481.491 131.539 540.173 132.952C598.854 134.365 427.387 216.774 427.387 216.774Z" fill="#FFB79E"/>
<path d="M501.914 65.5296C470.508 73.892 449.571 95.0666 437.03 107.511C427.919 116.413 419.746 126.305 412.653 137.02C412.653 137.02 375.762 195.656 388.275 268.969C389.968 278.857 392.338 287.488 395.711 287.714C406.017 288.392 405.191 213.441 450.018 158.11C463.326 141.868 479.43 128.367 497.499 118.304C500.686 115.893 503.882 113.383 507.087 110.775C517.898 102.001 528.259 92.642 538.128 82.7348C539.726 77.9603 540.836 71.8862 537.992 67.5495C531.695 57.7886 509.864 63.4107 501.914 65.5296Z" fill="#FFB79E"/>
<path d="M689.131 463.213H1.86892C0.836745 463.213 0 464.086 0 465.163V465.177C0 466.253 0.836745 467.126 1.86892 467.126H689.131C690.163 467.126 691 466.253 691 465.177V465.163C691 464.086 690.163 463.213 689.131 463.213Z" fill="#0B2F6D"/>
<path d="M535.893 263.658L534.119 281.626" stroke="black" stroke-miterlimit="10"/>
<path d="M124.649 290.836C124.374 290.213 123.983 289.652 123.5 289.186C123.016 288.721 122.45 288.359 121.832 288.121C121.215 287.884 120.558 287.776 119.901 287.803C119.243 287.83 118.597 287.992 118 288.279L116.794 288.83C115.714 289.342 114.496 289.439 113.354 289.106C112.212 288.773 111.22 288.03 110.551 287.008C108.046 283.115 104.938 279.683 101.355 276.852C100.471 276.16 99.8404 275.172 99.5693 274.054C99.2982 272.936 99.4028 271.754 99.8656 270.707L100.136 270.071C100.411 269.456 100.564 268.788 100.585 268.11C100.607 267.431 100.496 266.755 100.261 266.122C100.026 265.488 99.6706 264.911 99.2163 264.425C98.762 263.938 98.2182 263.553 97.6175 263.291C96.3825 262.758 94.9976 262.744 93.7529 263.252C92.5083 263.76 91.5005 264.751 90.9408 266.017C90.4388 267.137 89.5851 268.044 88.5211 268.589C87.4571 269.134 86.2467 269.283 85.0903 269.012C79.01 267.596 72.7078 267.572 66.6178 268.941C65.5083 269.206 64.3451 269.063 63.3255 268.535C62.306 268.007 61.493 267.127 61.0245 266.045L60.3339 264.449C60.0596 263.826 59.6703 263.266 59.1882 262.8C58.7061 262.335 58.1406 261.973 57.5243 261.735C56.9079 261.498 56.2526 261.389 55.5961 261.416C54.9395 261.443 54.2944 261.605 53.6978 261.892C53.0936 262.162 52.5462 262.553 52.0871 263.043C51.6279 263.533 51.266 264.113 51.0219 264.75C50.7779 265.386 50.6566 266.066 50.6649 266.752C50.6733 267.437 50.8111 268.114 51.0705 268.743L51.7612 270.34C52.2113 271.433 52.2875 272.654 51.9768 273.798C51.6661 274.943 50.9874 275.941 50.0548 276.626C45.004 280.424 40.8038 285.321 37.7443 290.977C37.1688 292.058 36.2537 292.898 35.1533 293.356C34.0529 293.814 32.8346 293.862 31.7041 293.492C30.4267 293.079 29.0459 293.197 27.8497 293.821C26.6536 294.445 25.7347 295.526 25.2848 296.84C25.0681 297.481 24.9779 298.161 25.0197 298.839C25.0614 299.518 25.2342 300.18 25.5277 300.787C25.8212 301.394 26.2293 301.933 26.7275 302.371C27.2257 302.809 27.8037 303.138 28.4268 303.338L29.0498 303.549C30.1057 303.893 31.0172 304.603 31.633 305.561C32.2489 306.52 32.532 307.669 32.4355 308.818C32.0508 313.491 32.4123 318.197 33.5054 322.746C33.7886 323.949 33.6543 325.218 33.1262 326.327C32.5982 327.436 31.7105 328.315 30.6207 328.806L29.4154 329.371C28.8112 329.641 28.2638 330.032 27.8047 330.522C27.3455 331.012 26.9835 331.592 26.7395 332.229C26.4955 332.865 26.3741 333.545 26.3825 334.231C26.3908 334.916 26.5286 335.593 26.7881 336.222C27.3448 337.478 28.3558 338.452 29.5996 338.931C30.8435 339.41 32.2187 339.356 33.4241 338.779L35.4691 337.833C36.4755 337.354 37.605 337.232 38.6839 337.487C39.7629 337.743 40.7317 338.36 41.4415 339.245C44.095 342.645 47.2383 345.595 50.759 347.989C51.7176 348.654 52.4156 349.656 52.7262 350.812C53.0369 351.968 52.9396 353.202 52.4519 354.289L51.2872 356.959C51.0149 357.576 50.8644 358.244 50.8449 358.922C50.8253 359.601 50.9371 360.277 51.1734 360.91C51.4098 361.543 51.7659 362.12 52.2206 362.606C52.6752 363.092 53.2191 363.477 53.8197 363.739C55.0547 364.273 56.4396 364.287 57.6843 363.778C58.9289 363.27 59.9367 362.279 60.4964 361.013L61.959 357.665C62.4286 356.619 63.2098 355.76 64.1861 355.215C65.1624 354.67 66.2814 354.469 67.3762 354.642C72.5912 355.496 77.9124 355.338 83.0724 354.176C84.1777 353.904 85.3391 354.037 86.3622 354.551C87.3852 355.065 88.208 355.93 88.6927 357.001L89.3834 358.626C89.659 359.249 90.0497 359.81 90.533 360.276C91.0164 360.742 91.583 361.103 92.2005 361.341C92.818 361.578 93.4742 361.687 94.1318 361.659C94.7894 361.632 95.4354 361.47 96.033 361.183C96.636 360.912 97.182 360.52 97.6398 360.029C98.0975 359.538 98.458 358.958 98.7008 358.322C98.9435 357.686 99.0636 357.006 99.0544 356.321C99.0451 355.637 98.9066 354.961 98.6468 354.332L97.9561 352.707C97.507 351.614 97.4342 350.392 97.7501 349.249C98.0661 348.106 98.7513 347.112 99.6896 346.435C103.966 343.209 107.638 339.192 110.524 334.584C111.133 333.61 112.028 332.868 113.076 332.471C114.124 332.073 115.267 332.041 116.334 332.38L119.692 333.496C120.97 333.909 122.351 333.791 123.547 333.167C124.743 332.543 125.662 331.462 126.112 330.148C126.329 329.506 126.419 328.825 126.377 328.146C126.336 327.466 126.163 326.803 125.87 326.195C125.576 325.587 125.168 325.047 124.67 324.607C124.172 324.167 123.593 323.837 122.97 323.636L120.261 322.76C119.158 322.411 118.212 321.66 117.595 320.643C116.978 319.627 116.733 318.413 116.903 317.223C117.552 312.889 117.552 308.477 116.903 304.143C116.745 303.001 116.951 301.836 117.489 300.828C118.028 299.82 118.868 299.025 119.882 298.563L121.927 297.617C123.143 297.085 124.11 296.076 124.619 294.808C125.128 293.539 125.139 292.113 124.649 290.836ZM86.8103 337.169C72.1975 344.514 54.8625 337.833 48.8901 322.577C43.4729 308.762 49.7027 292.602 62.9341 285.949C77.5334 278.603 94.8818 285.271 100.854 300.526C106.231 314.37 100.028 330.53 86.8103 337.169Z" fill="#2058A8"/>
<path d="M106.244 404.323C106.175 403.529 105.81 402.796 105.227 402.281C104.645 401.765 103.891 401.51 103.129 401.568H102.317C101.63 401.608 100.95 401.4 100.391 400.982C99.8319 400.563 99.4267 399.958 99.2425 399.266C98.7634 396.758 97.8452 394.364 96.5339 392.203C96.2058 391.668 96.0902 391.021 96.2115 390.399C96.3329 389.777 96.6817 389.228 97.184 388.869L97.482 388.629C97.7793 388.419 98.0262 388.14 98.2036 387.814C98.381 387.488 98.4841 387.124 98.5051 386.75C98.526 386.375 98.4642 386.001 98.3243 385.656C98.1845 385.311 97.9704 385.004 97.6987 384.759C97.0927 384.21 96.3261 383.891 95.5243 383.855C94.7224 383.819 93.9325 384.068 93.2836 384.561C92.6989 385.01 91.997 385.263 91.2712 385.285C90.5455 385.308 89.8303 385.1 89.2208 384.688C86.0591 382.587 82.5356 381.148 78.8469 380.45C78.2015 380.37 77.6027 380.059 77.1531 379.569C76.7035 379.08 76.4309 378.442 76.3821 377.766V376.834C76.3563 376.435 76.2552 376.045 76.0846 375.687C75.9139 375.328 75.677 375.009 75.3876 374.746C75.0981 374.484 74.7618 374.284 74.3979 374.157C74.0341 374.03 73.6498 373.98 73.2672 374.009C72.5053 373.946 71.7502 374.198 71.1649 374.711C70.5796 375.224 70.2111 375.956 70.1388 376.749V377.682C70.1055 378.362 69.8377 379.006 69.3848 379.497C68.9319 379.988 68.3244 380.291 67.674 380.351C63.9742 381.039 60.4401 382.479 57.2731 384.589C56.6609 384.997 55.9442 385.2 55.2184 385.172C54.4926 385.145 53.7921 384.887 53.2102 384.434C52.5628 383.939 51.7738 383.688 50.9719 383.721C50.1701 383.755 49.4027 384.071 48.7952 384.617C48.5227 384.862 48.3077 385.168 48.1667 385.512C48.0258 385.857 47.9626 386.231 47.9823 386.605C48.0019 386.979 48.1037 387.343 48.2799 387.67C48.4561 387.996 48.7019 388.276 48.9983 388.488L49.2963 388.728C49.7937 389.091 50.1375 389.641 50.2561 390.262C50.3747 390.883 50.2589 391.528 49.9328 392.062C48.6179 394.22 47.6994 396.616 47.2242 399.125C47.04 399.816 46.6349 400.422 46.0758 400.841C45.5167 401.259 44.8372 401.466 44.15 401.427H43.3374C42.9594 401.392 42.5785 401.435 42.2165 401.554C41.8545 401.673 41.5186 401.866 41.228 402.12C40.9374 402.375 40.6977 402.687 40.5229 403.038C40.348 403.389 40.2414 403.773 40.209 404.168C40.2779 404.96 40.6436 405.692 41.2267 406.205C41.8099 406.718 42.5634 406.971 43.3239 406.908H44.6782C45.3215 406.88 45.9571 407.062 46.4962 407.429C47.0353 407.797 47.4508 408.33 47.6847 408.956C48.3777 411.25 49.4402 413.405 50.8266 415.327C51.0121 415.591 51.1447 415.892 51.2166 416.211C51.2885 416.53 51.2982 416.86 51.2451 417.183C51.1921 417.506 51.0773 417.814 50.9077 418.09C50.7381 418.366 50.5171 418.603 50.2578 418.788L48.9036 419.819C48.6071 420.031 48.3613 420.31 48.1852 420.637C48.009 420.964 47.9071 421.328 47.8875 421.702C47.8679 422.076 47.931 422.45 48.0719 422.794C48.2129 423.139 48.4279 423.445 48.7004 423.689C49.3057 424.241 50.0737 424.56 50.8768 424.593C51.68 424.627 52.4699 424.373 53.1154 423.873L54.7405 422.588C55.2872 422.174 55.9357 421.932 56.6098 421.889C57.2839 421.847 57.9556 422.006 58.5461 422.347C61.3284 423.969 64.3485 425.101 67.4844 425.695C68.1321 425.766 68.7353 426.073 69.1883 426.561C69.6414 427.049 69.9155 427.688 69.9628 428.365V429.311C70.0183 430.116 70.3772 430.865 70.961 431.395C71.5448 431.924 72.3058 432.191 73.0776 432.137C73.8395 432.2 74.5946 431.947 75.1799 431.435C75.7652 430.922 76.1338 430.19 76.2061 429.396V428.45C76.2564 427.771 76.5333 427.132 76.9886 426.644C77.4439 426.157 78.0488 425.851 78.698 425.78C81.8371 425.204 84.8623 424.087 87.6498 422.475C88.2425 422.138 88.9144 421.983 89.5878 422.028C90.2612 422.073 90.9087 422.316 91.4553 422.729L93.0805 424.028C93.7264 424.525 94.5145 424.779 95.3164 424.748C96.1182 424.717 96.8864 424.404 97.4955 423.859C97.7682 423.613 97.9832 423.306 98.1241 422.96C98.2651 422.615 98.3282 422.24 98.3086 421.865C98.2889 421.49 98.1871 421.124 98.011 420.796C97.8348 420.469 97.589 420.187 97.2923 419.974L96.0058 418.943C95.746 418.759 95.5248 418.521 95.3554 418.245C95.186 417.969 95.0719 417.66 95.02 417.336C94.9682 417.013 94.9795 416.682 95.0535 416.363C95.1275 416.045 95.2626 415.745 95.4505 415.482C96.844 413.568 97.9114 411.418 98.606 409.126C98.8411 408.499 99.2592 407.965 99.8013 407.6C100.343 407.235 100.982 407.057 101.626 407.092H102.98C103.37 407.143 103.766 407.111 104.144 406.998C104.522 406.885 104.874 406.693 105.179 406.434C105.484 406.176 105.736 405.855 105.919 405.492C106.102 405.129 106.213 404.732 106.244 404.323ZM73.7412 418.279C63.7466 418.548 55.5938 411.358 55.9323 402.585C56.2303 394.633 63.6111 388.177 72.6578 387.951C82.6525 387.683 90.8053 394.873 90.4667 403.645C90.2094 411.598 82.8285 418.053 73.7819 418.279H73.7412Z" fill="#2058A8"/>
<path d="M149.703 360.929C149.491 360.306 149.052 359.796 148.481 359.51C147.91 359.224 147.254 359.186 146.656 359.403L145.992 359.558C145.448 359.738 144.861 359.718 144.33 359.502C143.798 359.286 143.352 358.888 143.067 358.372C142.205 356.49 141.005 354.797 139.532 353.385C139.345 353.208 139.194 352.993 139.088 352.753C138.983 352.514 138.924 352.254 138.916 351.991C138.909 351.727 138.952 351.464 139.044 351.219C139.136 350.973 139.274 350.749 139.451 350.56L139.654 350.306C139.856 350.081 140.003 349.81 140.086 349.515C140.168 349.22 140.183 348.908 140.129 348.606C140.075 348.303 139.954 348.018 139.775 347.774C139.596 347.529 139.364 347.332 139.099 347.198C138.498 346.89 137.816 346.797 137.16 346.935C136.503 347.073 135.909 347.434 135.47 347.961C135.077 348.43 134.561 348.768 133.985 348.934C133.41 349.1 132.801 349.086 132.233 348.893C129.259 347.89 126.129 347.487 123.01 347.707C122.478 347.788 121.934 347.672 121.476 347.377C121.018 347.083 120.674 346.629 120.505 346.096L120.342 345.362C120.125 344.744 119.684 344.239 119.115 343.954C118.546 343.669 117.893 343.627 117.295 343.836C116.666 343.931 116.098 344.281 115.715 344.81C115.332 345.339 115.165 346.004 115.25 346.661L115.426 347.41C115.507 347.964 115.399 348.53 115.122 349.009C114.845 349.489 114.416 349.853 113.909 350.038C111.039 351.337 108.436 353.203 106.244 355.532C105.822 355.973 105.286 356.276 104.701 356.404C104.117 356.532 103.509 356.479 102.953 356.253C102.33 355.997 101.644 355.962 101 356.153C100.356 356.345 99.7909 356.752 99.3912 357.312C99.2153 357.559 99.0972 357.845 99.0467 358.148C98.9961 358.451 99.0143 358.761 99.1 359.056C99.1856 359.35 99.3362 359.619 99.5397 359.841C99.7432 360.063 99.9938 360.232 100.272 360.335L100.569 360.462C101.037 360.638 101.419 361 101.632 361.468C101.845 361.936 101.872 362.474 101.707 362.963C101.024 364.926 100.703 367.006 100.759 369.093C100.734 369.688 100.514 370.256 100.138 370.702C99.7608 371.149 99.2491 371.449 98.687 371.551L98.0234 371.721C97.3952 371.815 96.8285 372.166 96.4477 372.695C96.0669 373.225 95.903 373.89 95.9919 374.546C96.2036 375.168 96.6429 375.678 97.2139 375.964C97.7848 376.25 98.441 376.288 99.0391 376.071L100.15 375.789C100.665 375.631 101.215 375.642 101.723 375.822C102.232 376.001 102.676 376.34 102.994 376.792C103.985 378.472 105.25 379.959 106.731 381.185C106.929 381.353 107.09 381.562 107.207 381.798C107.323 382.034 107.392 382.293 107.408 382.558C107.425 382.823 107.389 383.088 107.303 383.338C107.217 383.588 107.082 383.817 106.908 384.01L106.054 385.098C105.853 385.322 105.704 385.592 105.62 385.886C105.537 386.181 105.521 386.492 105.574 386.794C105.626 387.096 105.746 387.382 105.924 387.627C106.101 387.872 106.332 388.07 106.596 388.205C107.197 388.514 107.879 388.607 108.535 388.469C109.192 388.331 109.786 387.97 110.226 387.443L111.309 386.03C111.682 385.591 112.164 385.268 112.701 385.096C113.239 384.924 113.811 384.91 114.356 385.055C116.929 385.765 119.596 386.033 122.252 385.846C122.783 385.761 123.326 385.875 123.784 386.167C124.243 386.459 124.587 386.911 124.757 387.443L124.933 388.191C125.151 388.809 125.591 389.315 126.16 389.599C126.729 389.884 127.382 389.926 127.98 389.717C128.609 389.622 129.177 389.272 129.56 388.743C129.943 388.214 130.11 387.549 130.025 386.892L129.849 386.129C129.769 385.577 129.877 385.014 130.154 384.536C130.432 384.059 130.86 383.698 131.366 383.516C133.809 382.409 136.064 380.897 138.043 379.038C138.463 378.645 138.979 378.382 139.533 378.278C140.088 378.173 140.66 378.231 141.185 378.444L142.742 379.137C143.365 379.393 144.051 379.428 144.695 379.236C145.339 379.045 145.904 378.637 146.304 378.077C146.48 377.831 146.598 377.545 146.648 377.242C146.699 376.939 146.681 376.628 146.595 376.334C146.51 376.04 146.359 375.771 146.155 375.549C145.952 375.326 145.701 375.157 145.424 375.054L144.178 374.503C143.935 374.415 143.713 374.276 143.526 374.093C143.338 373.911 143.188 373.69 143.087 373.445C142.985 373.199 142.933 372.934 142.934 372.667C142.935 372.399 142.99 372.135 143.094 371.89C143.849 370.1 144.307 368.19 144.448 366.24C144.527 365.687 144.768 365.174 145.14 364.771C145.511 364.368 145.994 364.097 146.521 363.994L147.645 363.711C148.27 363.623 148.836 363.282 149.222 362.761C149.607 362.24 149.78 361.582 149.703 360.929ZM125.895 378.727C117.769 381.001 109.846 377.018 108.492 370.011C107.26 363.655 112.067 357.016 119.326 354.939C127.452 352.665 135.375 356.648 136.729 363.655C138.016 370.011 133.194 376.721 125.895 378.727Z" fill="#2058A8"/>
<path d="M533.022 193.241H127.046V463.199H533.022V193.241Z" fill="#0B2F6D"/>
<path d="M330.041 201.561C286.392 179.779 255.555 181.375 234.875 187.534C221.657 191.475 203.144 200.12 173.932 202.409C161.745 203.35 149.5 203.066 137.366 201.561V463.213H330.041V201.561Z" fill="white"/>
<path d="M330.041 201.561C341.659 195.268 354.154 190.921 367.067 188.678C404.608 182.322 425.302 198.468 473.962 202.409C490.203 203.693 506.524 203.41 522.716 201.561V463.213H330.041V201.561Z" fill="white"/>
<path d="M293.462 275.609H161.256C160.223 275.609 159.387 276.481 159.387 277.558V278.236C159.387 279.313 160.223 280.185 161.256 280.185H293.462C294.494 280.185 295.33 279.313 295.33 278.236V277.558C295.33 276.481 294.494 275.609 293.462 275.609Z" fill="#145AAD"/>
<path d="M293.462 404.704H161.256C160.223 404.704 159.387 405.577 159.387 406.654V407.332C159.387 408.408 160.223 409.281 161.256 409.281H293.462C294.494 409.281 295.33 408.408 295.33 407.332V406.654C295.33 405.577 294.494 404.704 293.462 404.704Z" fill="#145AAD"/>
<path d="M231.828 297.348H161.256C160.223 297.348 159.387 298.221 159.387 299.298V299.976C159.387 301.052 160.223 301.925 161.256 301.925H231.828C232.86 301.925 233.697 301.052 233.697 299.976V299.298C233.697 298.221 232.86 297.348 231.828 297.348Z" fill="#145AAD"/>
<path d="M204.864 322.916H161.256C160.223 322.916 159.387 323.789 159.387 324.865V325.543C159.387 326.62 160.223 327.493 161.256 327.493H204.864C205.896 327.493 206.733 326.62 206.733 325.543V324.865C206.733 323.789 205.896 322.916 204.864 322.916Z" fill="#145AAD"/>
<path d="M231.828 345.899H161.256C160.223 345.899 159.387 346.771 159.387 347.848V348.526C159.387 349.603 160.223 350.475 161.256 350.475H231.828C232.86 350.475 233.697 349.603 233.697 348.526V347.848C233.697 346.771 232.86 345.899 231.828 345.899Z" fill="#145AAD"/>
<path d="M194.666 368.429H161.256C160.223 368.429 159.387 369.302 159.387 370.379V371.057C159.387 372.133 160.223 373.006 161.256 373.006H194.666C195.698 373.006 196.535 372.133 196.535 371.057V370.379C196.535 369.302 195.698 368.429 194.666 368.429Z" fill="#145AAD"/>
<path d="M225.49 386.567H161.256C160.223 386.567 159.387 387.44 159.387 388.516V389.194C159.387 390.271 160.223 391.144 161.256 391.144H225.49C226.522 391.144 227.359 390.271 227.359 389.194V388.516C227.359 387.44 226.522 386.567 225.49 386.567Z" fill="#145AAD"/>
<path d="M293.475 386.567H235.971C234.939 386.567 234.103 387.44 234.103 388.516V389.194C234.103 390.271 234.939 391.144 235.971 391.144H293.475C294.507 391.144 295.344 390.271 295.344 389.194V388.516C295.344 387.44 294.507 386.567 293.475 386.567Z" fill="#145AAD"/>
<path d="M259.211 368.429H208.601C207.569 368.429 206.732 369.302 206.732 370.379V371.057C206.732 372.133 207.569 373.006 208.601 373.006H259.211C260.243 373.006 261.08 372.133 261.08 371.057V370.379C261.08 369.302 260.243 368.429 259.211 368.429Z" fill="#145AAD"/>
<path d="M293.475 368.429H270.032C269 368.429 268.163 369.302 268.163 370.379V371.057C268.163 372.133 269 373.006 270.032 373.006H293.475C294.507 373.006 295.344 372.133 295.344 371.057V370.379C295.344 369.302 294.507 368.429 293.475 368.429Z" fill="#145AAD"/>
<path d="M293.475 345.899H242.716C241.684 345.899 240.847 346.771 240.847 347.848V348.526C240.847 349.603 241.684 350.475 242.716 350.475H293.475C294.507 350.475 295.344 349.603 295.344 348.526V347.848C295.344 346.771 294.507 345.899 293.475 345.899Z" fill="#145AAD"/>
<path d="M259.211 323.368H215.603C214.571 323.368 213.734 324.241 213.734 325.317V325.995C213.734 327.072 214.571 327.945 215.603 327.945H259.211C260.244 327.945 261.08 327.072 261.08 325.995V325.317C261.08 324.241 260.244 323.368 259.211 323.368Z" fill="#145AAD"/>
<path d="M293.475 322.916H269.965C268.932 322.916 268.096 323.789 268.096 324.865V325.543C268.096 326.62 268.932 327.493 269.965 327.493H293.475C294.507 327.493 295.344 326.62 295.344 325.543V324.865C295.344 323.789 294.507 322.916 293.475 322.916Z" fill="#145AAD"/>
<path d="M293.475 297.348H242.716C241.684 297.348 240.847 298.221 240.847 299.298V299.976C240.847 301.052 241.684 301.925 242.716 301.925H293.475C294.507 301.925 295.344 301.052 295.344 299.976V299.298C295.344 298.221 294.507 297.348 293.475 297.348Z" fill="#145AAD"/>
<path d="M154.24 193.255C155.525 191.805 157.083 190.648 158.817 189.857C160.551 189.065 162.423 188.657 164.316 188.657C166.209 188.657 168.081 189.065 169.815 189.857C171.549 190.648 173.108 191.805 174.392 193.255V240.153L164.343 233.288L154.267 240.153L154.24 193.255Z" fill="#E0A000"/>
<path d="M426.385 275.609H355.813C354.781 275.609 353.944 276.481 353.944 277.558V278.236C353.944 279.313 354.781 280.185 355.813 280.185H426.385C427.417 280.185 428.254 279.313 428.254 278.236V277.558C428.254 276.481 427.417 275.609 426.385 275.609Z" fill="#145AAD"/>
<path d="M488.019 275.609H437.26C436.228 275.609 435.391 276.481 435.391 277.558V278.236C435.391 279.313 436.228 280.185 437.26 280.185H488.019C489.051 280.185 489.888 279.313 489.888 278.236V277.558C489.888 276.481 489.051 275.609 488.019 275.609Z" fill="#145AAD"/>
<path d="M399.421 299.411H355.813C354.781 299.411 353.944 300.283 353.944 301.36V302.038C353.944 303.115 354.781 303.987 355.813 303.987H399.421C400.453 303.987 401.29 303.115 401.29 302.038V301.36C401.29 300.283 400.453 299.411 399.421 299.411Z" fill="#145AAD"/>
<path d="M453.769 299.849H410.16C409.128 299.849 408.292 300.721 408.292 301.798V302.476C408.292 303.553 409.128 304.425 410.16 304.425H453.769C454.801 304.425 455.638 303.553 455.638 302.476V301.798C455.638 300.721 454.801 299.849 453.769 299.849Z" fill="#145AAD"/>
<path d="M488.019 299.411H464.508C463.476 299.411 462.639 300.283 462.639 301.36V302.038C462.639 303.115 463.476 303.987 464.508 303.987H488.019C489.051 303.987 489.888 303.115 489.888 302.038V301.36C489.888 300.283 489.051 299.411 488.019 299.411Z" fill="#145AAD"/>
<path d="M426.385 322.916H355.813C354.781 322.916 353.944 323.789 353.944 324.865V325.543C353.944 326.62 354.781 327.493 355.813 327.493H426.385C427.417 327.493 428.254 326.62 428.254 325.543V324.865C428.254 323.789 427.417 322.916 426.385 322.916Z" fill="#145AAD"/>
<path d="M488.019 322.916H437.26C436.228 322.916 435.391 323.789 435.391 324.865V325.543C435.391 326.62 436.228 327.493 437.26 327.493H488.019C489.051 327.493 489.888 326.62 489.888 325.543V324.865C489.888 323.789 489.051 322.916 488.019 322.916Z" fill="#145AAD"/>
<path d="M488.019 341.322H355.813C354.781 341.322 353.944 342.195 353.944 343.271V343.949C353.944 345.026 354.781 345.898 355.813 345.898H488.019C489.051 345.898 489.888 345.026 489.888 343.949V343.271C489.888 342.195 489.051 341.322 488.019 341.322Z" fill="#145AAD"/>
<path d="M389.223 363.853H355.813C354.781 363.853 353.944 364.725 353.944 365.802V366.48C353.944 367.557 354.781 368.429 355.813 368.429H389.223C390.255 368.429 391.092 367.557 391.092 366.48V365.802C391.092 364.725 390.255 363.853 389.223 363.853Z" fill="#145AAD"/>
<path d="M453.769 363.853H403.159C402.127 363.853 401.29 364.725 401.29 365.802V366.48C401.29 367.557 402.127 368.429 403.159 368.429H453.769C454.801 368.429 455.638 367.557 455.638 366.48V365.802C455.638 364.725 454.801 363.853 453.769 363.853Z" fill="#145AAD"/>
<path d="M488.019 363.853H464.576C463.544 363.853 462.707 364.725 462.707 365.802V366.48C462.707 367.557 463.544 368.429 464.576 368.429H488.019C489.051 368.429 489.888 367.557 489.888 366.48V365.802C489.888 364.725 489.051 363.853 488.019 363.853Z" fill="#145AAD"/>
<path d="M426.385 384.279H355.813C354.781 384.279 353.944 385.151 353.944 386.228V386.906C353.944 387.983 354.781 388.855 355.813 388.855H426.385C427.417 388.855 428.254 387.983 428.254 386.906V386.228C428.254 385.151 427.417 384.279 426.385 384.279Z" fill="#145AAD"/>
<path d="M488.019 384.279H437.26C436.228 384.279 435.391 385.151 435.391 386.228V386.906C435.391 387.983 436.228 388.855 437.26 388.855H488.019C489.051 388.855 489.888 387.983 489.888 386.906V386.228C489.888 385.151 489.051 384.279 488.019 384.279Z" fill="#145AAD"/>
<path d="M488.019 406.993H355.813C354.781 406.993 353.944 407.865 353.944 408.942V409.62C353.944 410.697 354.781 411.569 355.813 411.569H488.019C489.051 411.569 489.888 410.697 489.888 409.62V408.942C489.888 407.865 489.051 406.993 488.019 406.993Z" fill="#145AAD"/>
<path d="M606.262 432.885L618.356 444.355L593.031 468.609C590.999 470.559 588.629 471.194 587.749 470.022L585.419 466.971C584.539 465.798 585.419 463.284 587.505 461.321L598.339 450.952L600.926 437.985" fill="black"/>
<path d="M545.82 447.35L547.675 466.18L514.4 464.301C511.692 464.146 509.62 462.719 509.674 461.08L509.836 456.843C509.836 455.218 512.112 454.017 514.793 454.159L529 454.921L538.791 446.912" fill="black"/>
<path d="M546.565 328.213L580.991 327.281L550.52 451.291L533.496 449.201L546.565 328.213Z" fill="#49677F"/>
<path d="M592.936 319.851C594.521 326.787 594.907 333.962 594.074 341.039C593.663 344.035 593.098 347.006 592.381 349.939C590.584 358.46 589.447 367.119 588.981 375.831L609.743 433.945L595.401 447.972C595.401 447.972 568.599 389.858 562.898 381.34C557.196 372.822 562.898 327.733 562.898 327.733L592.936 319.851Z" fill="#58798C"/>
<path d="M535.04 273.08C532.198 281.216 530.174 289.638 529 298.21C527.28 310.584 526.901 307.985 527.51 315.698C528.258 315.218 529.156 315.058 530.014 315.253C530.873 315.448 531.625 315.982 532.115 316.743C532.534 317.506 535.013 319.229 535.812 317.901C536.096 317.421 542.583 311.347 538.9 315.443C538.9 315.443 538.141 316.121 538.033 316.065C537.925 316.008 540.741 312.915 541.838 310.867C544.682 305.697 539.766 300.004 537.613 296.317C534.674 291.317 532.832 283.152 538.006 269.478C537.204 269.52 536.434 269.815 535.798 270.326C535.407 270.64 535.122 271.077 534.985 271.573C534.849 272.069 534.868 272.597 535.04 273.08Z" fill="#EFBB8B"/>
<path d="M532.832 328.355L503.783 342.155C491.919 345.743 489.319 344.684 488.696 343.568C487.22 341.025 494.695 334.146 501.169 328.835L530.3 312.223C534.132 311.87 537.802 313.452 539.197 316.093C541.134 319.794 539.116 326.25 532.832 328.355Z" fill="#EFBB8B"/>
<path d="M534.187 272.19C531.347 280.322 529.322 288.739 528.147 297.306C526.427 309.694 526.048 307.081 526.657 314.808C527.404 314.324 528.303 314.163 529.162 314.358C530.022 314.553 530.775 315.089 531.262 315.853C531.681 316.616 534.16 318.339 534.959 317.011C535.243 316.531 541.73 310.443 538.033 314.553C538.033 314.553 537.288 315.232 537.18 315.161C537.071 315.09 539.888 312.011 540.972 309.977C543.829 304.793 538.913 299.114 536.746 295.427C533.821 290.413 531.979 282.262 537.153 268.588C536.351 268.642 535.583 268.941 534.945 269.45C534.556 269.763 534.273 270.198 534.137 270.691C534 271.183 534.018 271.709 534.187 272.19Z" fill="#FFD4A9"/>
<path d="M531.979 327.38L502.916 341.195C491.052 344.769 488.452 343.723 487.829 342.607C486.353 340.051 493.829 333.185 500.289 327.874L529.433 311.262C533.266 310.909 536.936 312.491 538.331 315.119C540.267 318.805 538.263 325.289 531.979 327.38Z" fill="#FFD4A9"/>
<path d="M629.041 385.013C628.147 387.513 623.624 387.471 618.789 384.928L505.029 324.343L508.225 315.316L621.985 375.888C626.766 378.43 629.921 382.513 629.041 385.013Z" fill="#EA804B"/>
<path d="M502.442 251.326C477.401 220.094 433.156 213.582 403.579 236.791C374.001 260 370.385 304.143 395.453 335.389C420.521 366.635 464.752 373.147 494.316 349.925C523.88 326.702 527.483 282.573 502.442 251.326ZM484.836 337.338C462.206 355.109 428.322 350.122 409.158 326.193C389.995 302.264 392.785 268.475 415.402 250.705C438.018 232.935 471.903 237.921 491.079 261.85C510.256 285.779 507.48 319.568 484.863 337.338H484.836Z" fill="#EA804B"/>
<path opacity="0.6" d="M497.467 323.204C511.442 297.875 501.572 264.616 475.42 248.919C449.269 233.221 416.74 241.029 402.765 266.359C388.79 291.688 398.66 324.947 424.811 340.644C450.963 356.342 483.491 348.534 497.467 323.204Z" fill="#FFE1DC"/>
<path d="M613.819 301.332C613.819 302.123 613.819 302.547 613.819 302.547H593.654V302.871L594.331 323.891C594.331 323.891 593.437 324.244 591.866 324.809L590.444 325.317C582.616 328.035 574.536 329.891 566.338 330.855C556.953 331.787 547.378 330.925 541.568 325.444C539.263 323.26 537.608 320.431 536.801 317.294C534.902 310.048 533.821 302.596 533.577 295.088C533.577 294.25 533.55 293.431 533.496 292.63C533.285 281.249 534.289 269.878 536.489 258.728C536.489 258.728 536.151 255.635 540.362 250.578C541.866 248.784 544.615 248.261 547.54 248.346C551.306 248.582 555.026 249.333 558.605 250.578L565.065 250.323L568.356 250.196C578.787 248.37 589.438 248.37 599.87 250.196C614.672 252.951 614.049 293.76 613.819 301.332Z" fill="white"/>
<path d="M557.25 337.593H557.643C557.512 337.602 557.381 337.602 557.25 337.593Z" fill="#E6E6E6"/>
<path d="M546.578 230.632C546.578 230.632 529.636 222.538 546.578 219.176C546.578 219.176 540.335 194.329 564.929 205.587C564.929 205.587 583.645 201.349 576.711 223.838C576.711 223.838 578.973 245.846 569.696 237.172" fill="black"/>
<path d="M546.578 230.632C546.578 230.632 529.636 222.538 546.578 219.176C546.578 219.176 540.335 194.329 564.929 205.587C564.929 205.587 583.645 201.349 576.711 223.838C576.711 223.838 578.973 245.846 569.696 237.172" stroke="black" stroke-miterlimit="10"/>
<path d="M558.862 258.771H568.382V238.062H558.862V258.771Z" fill="#FFD4A9"/>
<path d="M546.578 230.632C546.578 238.246 552.077 244.405 558.875 244.405C565.674 244.405 571.172 238.246 571.172 230.632C571.172 223.018 563.046 210.856 558.875 216.845C553.851 224.162 546.578 223.018 546.578 230.632Z" fill="#FFD4A9"/>
<path d="M568.491 239.192C567.455 240.603 566.12 241.744 564.591 242.526C562.833 243.563 560.886 244.203 558.875 244.405L568.491 253.445V239.192Z" fill="#F4C295"/>
<path d="M570.617 234.757C572.756 234.757 574.49 232.72 574.49 230.208C574.49 227.696 572.756 225.66 570.617 225.66C568.478 225.66 566.744 227.696 566.744 230.208C566.744 232.72 568.478 234.757 570.617 234.757Z" fill="#FFD4A9"/>
<path d="M554.271 226.861C554.271 226.861 550.208 234.333 556.018 232.031" stroke="black" stroke-width="0.25" stroke-miterlimit="10"/>
<path d="M552.632 225.702C551.402 225.316 550.08 225.407 548.908 225.956C548.515 226.112 548.109 225.744 548.109 225.208V225.052C548.103 224.906 548.136 224.76 548.202 224.631C548.269 224.502 548.368 224.394 548.488 224.318C549.341 223.852 551.495 222.905 553.161 224.318C553.253 224.402 553.326 224.507 553.375 224.624C553.424 224.741 553.448 224.868 553.445 224.996C553.445 225.575 553.025 225.886 552.632 225.702Z" fill="#1A1A1A"/>
<path d="M561.598 225.73C560.376 225.345 559.063 225.436 557.9 225.985C557.508 226.14 557.115 225.759 557.115 225.236V225.081C557.109 224.936 557.14 224.791 557.204 224.663C557.268 224.534 557.364 224.425 557.481 224.346C558.334 223.88 560.473 222.933 562.126 224.346C562.218 224.431 562.291 224.535 562.34 224.652C562.389 224.769 562.413 224.896 562.41 225.024C562.41 225.575 561.99 225.914 561.598 225.73Z" fill="#1A1A1A"/>
<path d="M559.756 228.499C560.205 228.499 560.568 227.943 560.568 227.256C560.568 226.569 560.205 226.013 559.756 226.013C559.307 226.013 558.943 226.569 558.943 227.256C558.943 227.943 559.307 228.499 559.756 228.499Z" fill="#1A1A1A"/>
<path d="M559.512 227.793C559.602 227.793 559.675 227.584 559.675 227.327C559.675 227.069 559.602 226.861 559.512 226.861C559.422 226.861 559.35 227.069 559.35 227.327C559.35 227.584 559.422 227.793 559.512 227.793Z" fill="white"/>
<path d="M550.776 228.541C551.225 228.541 551.589 227.985 551.589 227.298C551.589 226.612 551.225 226.055 550.776 226.055C550.328 226.055 549.964 226.612 549.964 227.298C549.964 227.985 550.328 228.541 550.776 228.541Z" fill="#1A1A1A"/>
<path d="M550.533 227.821C550.623 227.821 550.696 227.612 550.696 227.355C550.696 227.097 550.623 226.889 550.533 226.889C550.443 226.889 550.371 227.097 550.371 227.355C550.371 227.612 550.443 227.821 550.533 227.821Z" fill="white"/>
<path d="M555.07 234.686C555.07 234.686 556.519 235.181 556.952 233.344" stroke="black" stroke-width="0.25" stroke-miterlimit="10"/>
<path d="M548.379 345.461C548.678 345.52 548.983 345.544 549.287 345.532C554.23 345.334 598.434 343.497 608.876 340.503C609.995 340.179 611.07 339.704 612.072 339.09C616.5 336.378 615.092 327.267 610.094 326.278L596.308 323.552C595.86 323.468 595.401 323.468 594.954 323.552L552.469 331.561C552.469 331.561 515.538 338.723 548.379 345.461Z" fill="#EFBB8B"/>
<path d="M613.765 301.643H594.547V329.753H613.765V301.643Z" fill="#EFBB8B"/>
<path d="M548.434 344.557C548.73 344.599 549.031 344.599 549.328 344.557C554.203 344.373 597.757 342.565 608.009 339.641C609.105 339.335 610.16 338.889 611.151 338.313C615.512 335.657 614.13 326.73 609.201 325.755L595.658 323.085C595.21 323.006 594.752 323.006 594.303 323.085L552.429 330.925C552.429 330.925 516.08 337.96 548.434 344.557Z" fill="#FFD4A9"/>
<path d="M612.871 301.643H594.507V329.174H612.871V301.643Z" fill="#FFD4A9"/>
<path d="M536.53 258.813L529.271 278.674L533.496 281.626L536.53 258.813Z" fill="#E6E6E6"/>
<path d="M588.345 272.656C591.952 281.886 594.035 291.687 594.507 301.642" stroke="black" stroke-miterlimit="10"/>
</g>
<defs>
<clipPath id="clip0">
<rect width="691" height="501" fill="white"/>
</clipPath>
</defs>
</svg>
