<svg width="60" height="260" viewBox="0 0 60 260" fill="none" xmlns="http://www.w3.org/2000/svg">
<path fill-rule="evenodd" clip-rule="evenodd" d="M0 30C0 22.0435 3.16071 14.4129 8.7868 8.7868C14.4129 3.16071 22.0435 0 30 0C37.9565 0 45.5871 3.16071 51.2132 8.7868C56.8393 14.4129 60 22.0435 60 30C60 37.9565 56.8393 45.5871 51.2132 51.2132C45.5871 56.8393 37.9565 60 30 60C22.0435 60 14.4129 56.8393 8.7868 51.2132C3.16071 45.5871 0 37.9565 0 30H0ZM28.288 42.84L45.56 21.248L42.44 18.752L27.712 37.156L17.28 28.464L14.72 31.536L28.288 42.844V42.84Z" fill="#00BEFC"/>
<g filter="url(#filter0_d_801:2)">
<rect x="25" y="60" width="10" height="179" rx="5" fill="white"/>
</g>
<defs>
<filter id="filter0_d_801:2" x="5" y="41" width="50" height="219" filterUnits="userSpaceOnUse" color-interpolation-filters="sRGB">
<feFlood flood-opacity="0" result="BackgroundImageFix"/>
<feColorMatrix in="SourceAlpha" type="matrix" values="0 0 0 0 0 0 0 0 0 0 0 0 0 0 0 0 0 0 127 0" result="hardAlpha"/>
<feOffset dy="1"/>
<feGaussianBlur stdDeviation="10"/>
<feColorMatrix type="matrix" values="0 0 0 0 0.219608 0 0 0 0 0.717647 0 0 0 0 1 0 0 0 0.1 0"/>
<feBlend mode="normal" in2="BackgroundImageFix" result="effect1_dropShadow_801:2"/>
<feBlend mode="normal" in="SourceGraphic" in2="effect1_dropShadow_801:2" result="shape"/>
</filter>
</defs>
</svg>
