<svg width="473" height="528" viewBox="0 0 473 528" fill="none" xmlns="http://www.w3.org/2000/svg">
<g clip-path="url(#clip0_548:1994)">
<path opacity="0.54" d="M248.42 527.493C372.452 527.493 473 522.879 473 517.186C473 511.494 372.452 506.879 248.42 506.879C124.387 506.879 23.8391 511.494 23.8391 517.186C23.8391 522.879 124.387 527.493 248.42 527.493Z" fill="#EBEBEB"/>
<path d="M101.838 64.0219C289.771 -93.6142 249.528 136.982 321.742 156.956C329.753 159.177 334.221 154.082 344.957 156.619C364.445 161.224 368.649 176.526 397.144 198.132C410.034 207.91 411.46 206.517 414.713 210.248C440.217 239.587 391.469 371.051 290.432 411.363C186.695 452.751 22.8172 384.556 47.3034 318.77C107.045 158.219 30.0763 124.209 101.838 64.0219Z" fill="#E1F4FF"/>
<path d="M308.49 462.295L330.831 480.03L284.098 517.564C280.336 520.543 275.97 521.536 274.341 519.768L270.056 515.042C268.416 513.244 270.136 509.342 273.898 506.333L293.865 490.297L298.633 470.219" fill="black"/>
<path d="M196.979 484.647L200.419 513.79L139.061 511.02C134.133 510.792 130.22 508.567 130.33 506.055L130.632 499.432C130.743 496.92 134.837 495.053 139.765 495.271L165.998 496.463L184.104 484.071" fill="black"/>
<path d="M198.378 300.332L261.898 298.883L205.66 490.763L174.257 487.536L198.378 300.332Z" fill="#49677F"/>
<path d="M283.927 287.374C286.853 298.09 287.568 309.277 286.029 320.271C285.259 324.913 284.211 329.505 282.891 334.024C279.588 347.166 277.49 360.576 276.624 374.09C289.399 404.071 302.167 434.045 314.928 464.013L288.463 485.719C288.463 485.719 239.005 395.796 228.594 382.62C218.183 369.443 228.594 299.667 228.594 299.667L283.927 287.374Z" fill="#58798C"/>
<path d="M198.378 149.402C198.378 149.402 167.145 136.9 198.378 131.687C198.378 131.687 186.88 93.2495 232.245 110.666C232.245 110.666 266.757 104.053 253.972 138.896C253.972 138.896 258.136 172.945 241.036 159.52" fill="black"/>
<path d="M198.378 149.402C198.378 149.402 167.145 136.9 198.378 131.687C198.378 131.687 186.88 93.2495 232.245 110.666C232.245 110.666 266.757 104.053 253.972 138.896C253.972 138.896 258.136 172.945 241.036 159.52" stroke="black" stroke-width="0.726574" stroke-miterlimit="10"/>
<path d="M220.658 180.342C220.658 180.342 194.747 172.528 186.981 180.342C179.216 188.157 179.85 192.953 179.85 192.953C179.85 192.953 166.914 242.204 180.413 283.651C193.912 325.097 286.562 293.858 286.562 293.858L285.275 260.822H322.341C322.341 260.822 326.817 184.543 296.782 179.737C266.747 174.931 238.633 179.737 238.633 179.737" fill="white"/>
<path d="M221.06 192.953H238.633V160.92H221.06V192.953Z" fill="#FFD4A9"/>
<path d="M198.377 149.402C198.377 161.178 208.537 170.731 221.07 170.731C233.603 170.731 243.752 161.178 243.752 149.402C243.752 137.625 228.664 118.719 221.07 128.083C211.846 139.492 198.377 137.625 198.377 149.402Z" fill="#FFD4A9"/>
<path d="M198.428 220.458C198.428 220.458 189.174 245.084 189.848 259.532" stroke="black" stroke-width="0.726574" stroke-miterlimit="10"/>
<path d="M242.736 155.806C246.681 155.806 249.878 152.65 249.878 148.756C249.878 144.863 246.681 141.706 242.736 141.706C238.792 141.706 235.595 144.863 235.595 148.756C235.595 152.65 238.792 155.806 242.736 155.806Z" fill="#FFD4A9"/>
<path d="M286.321 260.385L280.718 221.024" stroke="#F2A36D" stroke-width="0.726574" stroke-miterlimit="10"/>
<path d="M212.58 143.583C212.58 143.583 205.067 155.141 215.799 151.586" stroke="black" stroke-width="0.363287" stroke-miterlimit="10"/>
<path d="M209.553 141.776C207.33 140.932 204.413 141.617 202.683 142.183C202.506 142.233 202.32 142.24 202.14 142.203C201.96 142.167 201.791 142.089 201.648 141.975C201.505 141.861 201.392 141.715 201.318 141.549C201.245 141.383 201.212 141.202 201.224 141.021V140.773C201.217 140.541 201.278 140.312 201.399 140.113C201.521 139.914 201.697 139.753 201.908 139.651C203.487 138.936 207.461 137.496 210.528 139.581C210.696 139.702 210.832 139.86 210.925 140.044C211.017 140.227 211.064 140.429 211.062 140.634C211.075 140.82 211.042 141.006 210.965 141.176C210.888 141.346 210.769 141.494 210.62 141.607C210.47 141.72 210.294 141.795 210.108 141.825C209.922 141.854 209.731 141.837 209.553 141.776Z" fill="#1A1A1A"/>
<path d="M226.099 141.825C223.896 140.971 220.999 141.657 219.279 142.223C219.108 142.263 218.93 142.263 218.759 142.224C218.587 142.184 218.428 142.106 218.292 141.995C218.157 141.885 218.049 141.745 217.978 141.586C217.906 141.427 217.873 141.254 217.881 141.081V140.842C217.874 140.609 217.934 140.378 218.055 140.178C218.176 139.977 218.353 139.815 218.565 139.71C220.124 138.995 224.067 137.566 227.115 139.641C227.28 139.764 227.413 139.923 227.504 140.106C227.594 140.289 227.641 140.49 227.638 140.693C227.652 140.882 227.618 141.071 227.539 141.243C227.459 141.415 227.337 141.564 227.184 141.677C227.03 141.79 226.85 141.863 226.661 141.889C226.471 141.915 226.278 141.893 226.099 141.825Z" fill="#1A1A1A"/>
<path d="M222.709 146.135C223.532 146.135 224.198 145.272 224.198 144.208C224.198 143.145 223.532 142.282 222.709 142.282C221.887 142.282 221.221 143.145 221.221 144.208C221.221 145.272 221.887 146.135 222.709 146.135Z" fill="#1A1A1A"/>
<path d="M222.257 145.043C222.424 145.043 222.559 144.714 222.559 144.308C222.559 143.902 222.424 143.573 222.257 143.573C222.09 143.573 221.955 143.902 221.955 144.308C221.955 144.714 222.09 145.043 222.257 145.043Z" fill="white"/>
<path d="M206.143 146.185C206.965 146.185 207.632 145.322 207.632 144.258C207.632 143.194 206.965 142.332 206.143 142.332C205.321 142.332 204.654 143.194 204.654 144.258C204.654 145.322 205.321 146.185 206.143 146.185Z" fill="#1A1A1A"/>
<path d="M205.68 145.092C205.847 145.092 205.982 144.763 205.982 144.357C205.982 143.952 205.847 143.623 205.68 143.623C205.513 143.623 205.378 143.952 205.378 144.357C205.378 144.763 205.513 145.092 205.68 145.092Z" fill="white"/>
<path d="M215.799 155.687C216.166 155.792 216.551 155.821 216.93 155.772C217.308 155.723 217.673 155.597 218 155.402C218.327 155.207 218.609 154.947 218.829 154.639C219.05 154.331 219.203 153.981 219.28 153.612" stroke="black" stroke-width="0.363287" stroke-miterlimit="10"/>
<path d="M347.065 324.69V324.561L308.551 142.649L286.14 36.9583C286.014 36.3579 285.77 35.7878 285.42 35.281C285.071 34.7741 284.623 34.3403 284.104 34.0045C283.584 33.6687 283.003 33.4375 282.392 33.3241C281.782 33.2107 281.155 33.2174 280.547 33.3438L235.223 42.777L218.123 46.3219L116.289 67.3629C115.681 67.4892 115.104 67.7325 114.592 68.0789C114.08 68.4252 113.641 68.8679 113.302 69.3815C112.963 69.8951 112.73 70.4696 112.616 71.0723C112.502 71.6749 112.509 72.2938 112.637 72.8937L128.731 149.104L161.834 305.446L173.513 360.625C173.769 361.837 174.502 362.898 175.551 363.576C176.6 364.253 177.878 364.492 179.105 364.24L343.354 330.221C343.966 330.1 344.548 329.861 345.067 329.517C345.585 329.173 346.03 328.731 346.375 328.217C346.72 327.703 346.958 327.127 347.077 326.522C347.195 325.916 347.191 325.294 347.065 324.69ZM148.849 165.001C148.426 163.015 148.084 161.029 147.843 159.043C145.632 141.27 150.258 123.326 160.806 108.758C171.354 94.1899 187.055 84.0597 204.805 80.3707L205.208 80.2913C223.933 76.5232 243.407 80.2403 259.36 90.6273C275.313 101.014 286.441 117.223 290.304 135.699C290.676 137.426 290.968 139.154 291.209 140.882C293.757 159.219 288.986 177.816 277.905 192.747C266.825 207.677 250.3 217.773 231.821 220.903C213.342 224.033 194.353 219.952 178.865 209.522C163.376 199.091 152.599 183.128 148.808 165.001H148.849Z" fill="#A9ECFC" fill-opacity="0.8"/>
<path d="M286.14 36.9583L308.52 142.65C302.81 141.676 297.04 141.086 291.25 140.882C291.008 139.154 290.716 137.427 290.344 135.699C286.482 117.211 275.345 100.991 259.378 90.6029C243.412 80.2143 223.921 76.5056 205.187 80.2913L218.123 46.2723L280.547 33.3637C281.153 33.2371 281.779 33.2296 282.388 33.3417C282.998 33.4538 283.578 33.6833 284.098 34.0171C284.617 34.3509 285.065 34.7825 285.415 35.2872C285.766 35.7918 286.012 36.3597 286.14 36.9583Z" fill="#3FACE8"/>
<path d="M235.223 42.7771C229.643 54.262 225.68 66.4459 223.444 78.9906C217.325 78.6696 211.19 79.1234 205.187 80.341L204.785 80.4204C187.046 84.1134 171.356 94.2394 160.813 108.798C150.27 123.357 145.642 141.29 147.843 159.053C141.005 156.707 134.562 153.36 128.731 149.124L112.637 72.9136C112.509 72.3138 112.502 71.6949 112.616 71.0922C112.73 70.4896 112.963 69.915 113.302 69.4014C113.641 68.8878 114.08 68.4452 114.592 68.0988C115.104 67.7524 115.681 67.5091 116.289 67.3828L235.223 42.7771Z" fill="#7CC3F2"/>
<path d="M276.872 232.3L191.787 249.923C190.51 250.188 189.691 251.425 189.959 252.686C190.227 253.947 191.48 254.755 192.758 254.491L277.843 236.867C279.12 236.602 279.939 235.365 279.671 234.104C279.403 232.843 278.149 232.035 276.872 232.3Z" fill="#0A6191"/>
<path d="M294.47 247.039L182.993 270.129C181.715 270.394 180.897 271.631 181.165 272.892C181.433 274.153 182.686 274.961 183.964 274.697L295.441 251.606C296.718 251.342 297.537 250.105 297.269 248.844C297.001 247.582 295.748 246.774 294.47 247.039Z" fill="#0A6191"/>
<path d="M203.558 28.7465L184.074 32.7978L177.355 4.06135L196.839 0.00012207L203.558 28.7465Z" fill="#1482B2"/>
<path d="M165.264 56.2019C160.316 55.1494 156.694 51.4357 156.212 47.0567C155.648 41.4663 160.587 37.8718 160.889 37.6633L224.349 24.4469C226.546 24.4512 228.687 25.1317 230.474 26.3935C232.26 27.6554 233.604 29.4359 234.317 31.487C235.655 35.8958 233.311 40.7613 228.674 42.9855L165.264 56.2019Z" stroke="#0D6991" stroke-width="2.17972" stroke-miterlimit="10"/>
<path d="M343.404 330.221L179.156 364.24C177.928 364.492 176.65 364.253 175.601 363.576C174.552 362.898 173.819 361.837 173.563 360.625L161.885 305.446C191.729 317.65 263.83 341.124 347.035 324.561V324.69C347.292 325.898 347.054 327.158 346.374 328.194C345.694 329.23 344.626 329.959 343.404 330.221Z" fill="#3FACE8"/>
<path d="M150.699 233.287C154.21 233.565 156.302 229.415 155.095 224.192L154.944 223.576C154.621 222.404 154.197 221.261 153.677 220.16C151.424 215.454 147.34 213.289 144.624 215.245L136.336 221.302C136.119 221.454 135.891 221.586 135.652 221.7C134.268 222.45 133.196 223.657 132.624 225.11C132.052 226.562 132.016 228.167 132.523 229.643C133.096 230.824 134.07 231.769 135.276 232.313C136.482 232.857 137.843 232.967 139.122 232.622C139.56 232.502 140.017 232.462 140.47 232.503L150.699 233.287Z" fill="#FFD4A9"/>
<path d="M305.744 173.908C302.254 173.471 299.97 177.532 300.946 182.795L301.067 183.411C301.33 184.599 301.701 185.762 302.173 186.886C304.185 191.692 308.208 194.035 310.955 192.199L319.504 186.519C319.727 186.375 319.963 186.252 320.208 186.151C321.619 185.463 322.741 184.308 323.379 182.887C324.017 181.467 324.13 179.871 323.699 178.376C323.175 177.177 322.243 176.195 321.064 175.602C319.884 175.009 318.532 174.842 317.241 175.129C316.796 175.228 316.337 175.252 315.883 175.199L305.744 173.908Z" fill="#FFD4A9"/>
<path d="M308.52 319.894C314.57 319.894 319.474 315.053 319.474 309.08C319.474 303.108 314.57 298.267 308.52 298.267C302.471 298.267 297.566 303.108 297.566 309.08C297.566 315.053 302.471 319.894 308.52 319.894Z" fill="#0A6191"/>
<path d="M322.582 315.962C328.632 315.962 333.536 311.12 333.536 305.148C333.536 299.176 328.632 294.335 322.582 294.335C316.533 294.335 311.628 299.176 311.628 305.148C311.628 311.12 316.533 315.962 322.582 315.962Z" stroke="#205C8E" stroke-width="0.726574" stroke-miterlimit="10"/>
</g>
<defs>
<clipPath id="clip0_548:1994">
<rect width="473" height="527.493" fill="white"/>
</clipPath>
</defs>
</svg>
