<svg width="690" height="286" viewBox="0 0 690 286" fill="none" xmlns="http://www.w3.org/2000/svg">
<path d="M316.695 138.1V146.62H330.435V154.54H316.695V163.78H332.235V172H306.435V129.88H332.235V138.1H316.695ZM336.856 155.2C336.856 151.76 337.496 148.74 338.776 146.14C340.096 143.54 341.876 141.54 344.116 140.14C346.356 138.74 348.856 138.04 351.616 138.04C353.816 138.04 355.816 138.5 357.616 139.42C359.456 140.34 360.896 141.58 361.936 143.14V127.6H372.196V172H361.936V167.2C360.976 168.8 359.596 170.08 357.796 171.04C356.036 172 353.976 172.48 351.616 172.48C348.856 172.48 346.356 171.78 344.116 170.38C341.876 168.94 340.096 166.92 338.776 164.32C337.496 161.68 336.856 158.64 336.856 155.2ZM361.936 155.26C361.936 152.7 361.216 150.68 359.776 149.2C358.376 147.72 356.656 146.98 354.616 146.98C352.576 146.98 350.836 147.72 349.396 149.2C347.996 150.64 347.296 152.64 347.296 155.2C347.296 157.76 347.996 159.8 349.396 161.32C350.836 162.8 352.576 163.54 354.616 163.54C356.656 163.54 358.376 162.8 359.776 161.32C361.216 159.84 361.936 157.82 361.936 155.26ZM412.678 138.52V172H402.418V167.44C401.378 168.92 399.958 170.12 398.158 171.04C396.398 171.92 394.438 172.36 392.278 172.36C389.718 172.36 387.458 171.8 385.498 170.68C383.538 169.52 382.018 167.86 380.938 165.7C379.858 163.54 379.318 161 379.318 158.08V138.52H389.518V156.7C389.518 158.94 390.098 160.68 391.258 161.92C392.418 163.16 393.978 163.78 395.938 163.78C397.938 163.78 399.518 163.16 400.678 161.92C401.838 160.68 402.418 158.94 402.418 156.7V138.52H412.678ZM436.848 147.04H431.328V172H421.068V147.04H417.348V138.52H421.068V137.56C421.068 133.44 422.248 130.32 424.608 128.2C426.968 126.04 430.428 124.96 434.988 124.96C435.748 124.96 436.308 124.98 436.668 125.02V133.72C434.708 133.6 433.328 133.88 432.528 134.56C431.728 135.24 431.328 136.46 431.328 138.22V138.52H436.848V147.04ZM473.229 154.72C473.229 155.68 473.169 156.68 473.049 157.72H449.829C449.989 159.8 450.649 161.4 451.809 162.52C453.009 163.6 454.469 164.14 456.189 164.14C458.749 164.14 460.529 163.06 461.529 160.9H472.449C471.889 163.1 470.869 165.08 469.389 166.84C467.949 168.6 466.129 169.98 463.929 170.98C461.729 171.98 459.269 172.48 456.549 172.48C453.269 172.48 450.349 171.78 447.789 170.38C445.229 168.98 443.229 166.98 441.789 164.38C440.349 161.78 439.629 158.74 439.629 155.26C439.629 151.78 440.329 148.74 441.729 146.14C443.169 143.54 445.169 141.54 447.729 140.14C450.289 138.74 453.229 138.04 456.549 138.04C459.789 138.04 462.669 138.72 465.189 140.08C467.709 141.44 469.669 143.38 471.069 145.9C472.509 148.42 473.229 151.36 473.229 154.72ZM462.729 152.02C462.729 150.26 462.129 148.86 460.929 147.82C459.729 146.78 458.229 146.26 456.429 146.26C454.709 146.26 453.249 146.76 452.049 147.76C450.889 148.76 450.169 150.18 449.889 152.02H462.729ZM476.602 155.2C476.602 151.76 477.242 148.74 478.522 146.14C479.842 143.54 481.622 141.54 483.862 140.14C486.102 138.74 488.602 138.04 491.362 138.04C493.722 138.04 495.782 138.52 497.542 139.48C499.342 140.44 500.722 141.7 501.682 143.26V138.52H511.942V172H501.682V167.26C500.682 168.82 499.282 170.08 497.482 171.04C495.722 172 493.662 172.48 491.302 172.48C488.582 172.48 486.102 171.78 483.862 170.38C481.622 168.94 479.842 166.92 478.522 164.32C477.242 161.68 476.602 158.64 476.602 155.2ZM501.682 155.26C501.682 152.7 500.962 150.68 499.522 149.2C498.122 147.72 496.402 146.98 494.362 146.98C492.322 146.98 490.582 147.72 489.142 149.2C487.742 150.64 487.042 152.64 487.042 155.2C487.042 157.76 487.742 159.8 489.142 161.32C490.582 162.8 492.322 163.54 494.362 163.54C496.402 163.54 498.122 162.8 499.522 161.32C500.962 159.84 501.682 157.82 501.682 155.26ZM538.025 163.3V172H532.805C529.085 172 526.185 171.1 524.105 169.3C522.025 167.46 520.985 164.48 520.985 160.36V147.04H516.905V138.52H520.985V130.36H531.245V138.52H537.965V147.04H531.245V160.48C531.245 161.48 531.485 162.2 531.965 162.64C532.445 163.08 533.245 163.3 534.365 163.3H538.025ZM548.9 135.04C547.1 135.04 545.62 134.52 544.46 133.48C543.34 132.4 542.78 131.08 542.78 129.52C542.78 127.92 543.34 126.6 544.46 125.56C545.62 124.48 547.1 123.94 548.9 123.94C550.66 123.94 552.1 124.48 553.22 125.56C554.38 126.6 554.96 127.92 554.96 129.52C554.96 131.08 554.38 132.4 553.22 133.48C552.1 134.52 550.66 135.04 548.9 135.04ZM554 138.52V172H543.74V138.52H554ZM559.395 155.2C559.395 151.76 560.035 148.74 561.315 146.14C562.635 143.54 564.415 141.54 566.655 140.14C568.895 138.74 571.395 138.04 574.155 138.04C576.515 138.04 578.575 138.52 580.335 139.48C582.135 140.44 583.515 141.7 584.475 143.26V138.52H594.735V172H584.475V167.26C583.475 168.82 582.075 170.08 580.275 171.04C578.515 172 576.455 172.48 574.095 172.48C571.375 172.48 568.895 171.78 566.655 170.38C564.415 168.94 562.635 166.92 561.315 164.32C560.035 161.68 559.395 158.64 559.395 155.2ZM584.475 155.26C584.475 152.7 583.755 150.68 582.315 149.2C580.915 147.72 579.195 146.98 577.155 146.98C575.115 146.98 573.375 147.72 571.935 149.2C570.535 150.64 569.835 152.64 569.835 155.2C569.835 157.76 570.535 159.8 571.935 161.32C573.375 162.8 575.115 163.54 577.155 163.54C579.195 163.54 580.915 162.8 582.315 161.32C583.755 159.84 584.475 157.82 584.475 155.26ZM622.558 138.16C626.478 138.16 629.598 139.44 631.918 142C634.278 144.52 635.458 148 635.458 152.44V172H625.258V153.82C625.258 151.58 624.678 149.84 623.518 148.6C622.358 147.36 620.798 146.74 618.838 146.74C616.878 146.74 615.318 147.36 614.158 148.6C612.998 149.84 612.418 151.58 612.418 153.82V172H602.158V138.52H612.418V142.96C613.458 141.48 614.858 140.32 616.618 139.48C618.378 138.6 620.358 138.16 622.558 138.16ZM656.207 172.48C653.287 172.48 650.687 171.98 648.407 170.98C646.127 169.98 644.327 168.62 643.007 166.9C641.687 165.14 640.947 163.18 640.787 161.02H650.927C651.047 162.18 651.587 163.12 652.547 163.84C653.507 164.56 654.687 164.92 656.087 164.92C657.367 164.92 658.347 164.68 659.027 164.2C659.747 163.68 660.107 163.02 660.107 162.22C660.107 161.26 659.607 160.56 658.607 160.12C657.607 159.64 655.987 159.12 653.747 158.56C651.347 158 649.347 157.42 647.747 156.82C646.147 156.18 644.767 155.2 643.607 153.88C642.447 152.52 641.867 150.7 641.867 148.42C641.867 146.5 642.387 144.76 643.427 143.2C644.507 141.6 646.067 140.34 648.107 139.42C650.187 138.5 652.647 138.04 655.487 138.04C659.687 138.04 662.987 139.08 665.387 141.16C667.827 143.24 669.227 146 669.587 149.44H660.107C659.947 148.28 659.427 147.36 658.547 146.68C657.707 146 656.587 145.66 655.187 145.66C653.987 145.66 653.067 145.9 652.427 146.38C651.787 146.82 651.467 147.44 651.467 148.24C651.467 149.2 651.967 149.92 652.967 150.4C654.007 150.88 655.607 151.36 657.767 151.84C660.247 152.48 662.267 153.12 663.827 153.76C665.387 154.36 666.747 155.36 667.907 156.76C669.107 158.12 669.727 159.96 669.767 162.28C669.767 164.24 669.207 166 668.087 167.56C667.007 169.08 665.427 170.28 663.347 171.16C661.307 172.04 658.927 172.48 656.207 172.48ZM680.844 172.48C679.044 172.48 677.564 171.96 676.404 170.92C675.284 169.84 674.724 168.52 674.724 166.96C674.724 165.36 675.284 164.02 676.404 162.94C677.564 161.86 679.044 161.32 680.844 161.32C682.604 161.32 684.044 161.86 685.164 162.94C686.324 164.02 686.904 165.36 686.904 166.96C686.904 168.52 686.324 169.84 685.164 170.92C684.044 171.96 682.604 172.48 680.844 172.48Z" fill="#273468" fill-opacity="0.9"/>
<path d="M349.09 83.59L340.315 115H332.89L326.995 92.635L320.83 115L313.45 115.045L304.99 83.59H311.74L317.275 107.98L323.665 83.59H330.685L336.715 107.845L342.295 83.59H349.09ZM376.379 101.995C376.379 102.895 376.319 103.705 376.199 104.425H357.974C358.124 106.225 358.754 107.635 359.864 108.655C360.974 109.675 362.339 110.185 363.959 110.185C366.299 110.185 367.964 109.18 368.954 107.17H375.749C375.029 109.57 373.649 111.55 371.609 113.11C369.569 114.64 367.064 115.405 364.094 115.405C361.694 115.405 359.534 114.88 357.614 113.83C355.724 112.75 354.239 111.235 353.159 109.285C352.109 107.335 351.584 105.085 351.584 102.535C351.584 99.955 352.109 97.69 353.159 95.74C354.209 93.79 355.679 92.29 357.569 91.24C359.459 90.19 361.634 89.665 364.094 89.665C366.464 89.665 368.579 90.175 370.439 91.195C372.329 92.215 373.784 93.67 374.804 95.56C375.854 97.42 376.379 99.565 376.379 101.995ZM369.854 100.195C369.824 98.575 369.239 97.285 368.099 96.325C366.959 95.335 365.564 94.84 363.914 94.84C362.354 94.84 361.034 95.32 359.954 96.28C358.904 97.21 358.259 98.515 358.019 100.195H369.854ZM390.08 102.445C390.08 99.925 390.575 97.69 391.565 95.74C392.585 93.79 393.95 92.29 395.66 91.24C397.4 90.19 399.335 89.665 401.465 89.665C403.325 89.665 404.945 90.04 406.325 90.79C407.735 91.54 408.86 92.485 409.7 93.625V90.07H416.045V115H409.7V111.355C408.89 112.525 407.765 113.5 406.325 114.28C404.915 115.03 403.28 115.405 401.42 115.405C399.32 115.405 397.4 114.865 395.66 113.785C393.95 112.705 392.585 111.19 391.565 109.24C390.575 107.26 390.08 104.995 390.08 102.445ZM409.7 102.535C409.7 101.005 409.4 99.7 408.8 98.62C408.2 97.51 407.39 96.67 406.37 96.1C405.35 95.5 404.255 95.2 403.085 95.2C401.915 95.2 400.835 95.485 399.845 96.055C398.855 96.625 398.045 97.465 397.415 98.575C396.815 99.655 396.515 100.945 396.515 102.445C396.515 103.945 396.815 105.265 397.415 106.405C398.045 107.515 398.855 108.37 399.845 108.97C400.865 109.57 401.945 109.87 403.085 109.87C404.255 109.87 405.35 109.585 406.37 109.015C407.39 108.415 408.2 107.575 408.8 106.495C409.4 105.385 409.7 104.065 409.7 102.535ZM428.498 93.94C429.308 92.62 430.358 91.585 431.648 90.835C432.968 90.085 434.468 89.71 436.148 89.71V96.325H434.483C432.503 96.325 431.003 96.79 429.983 97.72C428.993 98.65 428.498 100.27 428.498 102.58V115H422.198V90.07H428.498V93.94ZM463.566 101.995C463.566 102.895 463.506 103.705 463.386 104.425H445.161C445.311 106.225 445.941 107.635 447.051 108.655C448.161 109.675 449.526 110.185 451.146 110.185C453.486 110.185 455.151 109.18 456.141 107.17H462.936C462.216 109.57 460.836 111.55 458.796 113.11C456.756 114.64 454.251 115.405 451.281 115.405C448.881 115.405 446.721 114.88 444.801 113.83C442.911 112.75 441.426 111.235 440.346 109.285C439.296 107.335 438.771 105.085 438.771 102.535C438.771 99.955 439.296 97.69 440.346 95.74C441.396 93.79 442.866 92.29 444.756 91.24C446.646 90.19 448.821 89.665 451.281 89.665C453.651 89.665 455.766 90.175 457.626 91.195C459.516 92.215 460.971 93.67 461.991 95.56C463.041 97.42 463.566 99.565 463.566 101.995ZM457.041 100.195C457.011 98.575 456.426 97.285 455.286 96.325C454.146 95.335 452.751 94.84 451.101 94.84C449.541 94.84 448.221 95.32 447.141 96.28C446.091 97.21 445.446 98.515 445.206 100.195H457.041Z" fill="#DBDBE4"/>
<path d="M271.8 85.8002V185.9C271.8 201.63 258.21 214.5 241.6 214.5H181.2V257.4L120.8 214.5H60.4C43.7749 214.5 30.2 201.63 30.2 185.9V85.8002C30.2 70.0702 43.7749 57.2002 60.4 57.2002H241.6C258.21 57.2002 271.8 70.0702 271.8 85.8002Z" fill="#273468"/>
<path d="M92.88 122.12V164H84.48V146.18H66.54V164H58.14V122.12H66.54V139.34H84.48V122.12H92.88ZM132.048 146.66C132.048 147.86 131.968 148.94 131.808 149.9H107.508C107.708 152.3 108.548 154.18 110.028 155.54C111.508 156.9 113.328 157.58 115.488 157.58C118.608 157.58 120.828 156.24 122.148 153.56H131.208C130.248 156.76 128.408 159.4 125.688 161.48C122.968 163.52 119.628 164.54 115.668 164.54C112.468 164.54 109.588 163.84 107.028 162.44C104.508 161 102.528 158.98 101.088 156.38C99.6878 153.78 98.9878 150.78 98.9878 147.38C98.9878 143.94 99.6878 140.92 101.088 138.32C102.488 135.72 104.448 133.72 106.968 132.32C109.488 130.92 112.388 130.22 115.668 130.22C118.828 130.22 121.648 130.9 124.128 132.26C126.648 133.62 128.588 135.56 129.948 138.08C131.348 140.56 132.048 143.42 132.048 146.66ZM123.348 144.26C123.308 142.1 122.528 140.38 121.008 139.1C119.488 137.78 117.628 137.12 115.428 137.12C113.348 137.12 111.588 137.76 110.148 139.04C108.748 140.28 107.888 142.02 107.568 144.26H123.348ZM146.579 119.6V164H138.179V119.6H146.579ZM163.278 119.6V164H154.878V119.6H163.278ZM186.338 164.54C183.138 164.54 180.258 163.84 177.698 162.44C175.138 161 173.118 158.98 171.638 156.38C170.198 153.78 169.478 150.78 169.478 147.38C169.478 143.98 170.218 140.98 171.698 138.38C173.218 135.78 175.278 133.78 177.878 132.38C180.478 130.94 183.378 130.22 186.578 130.22C189.778 130.22 192.678 130.94 195.278 132.38C197.878 133.78 199.918 135.78 201.398 138.38C202.918 140.98 203.678 143.98 203.678 147.38C203.678 150.78 202.898 153.78 201.337 156.38C199.818 158.98 197.738 161 195.098 162.44C192.498 163.84 189.578 164.54 186.338 164.54ZM186.338 157.22C187.858 157.22 189.278 156.86 190.598 156.14C191.958 155.38 193.038 154.26 193.838 152.78C194.638 151.3 195.038 149.5 195.038 147.38C195.038 144.22 194.198 141.8 192.518 140.12C190.878 138.4 188.858 137.54 186.458 137.54C184.058 137.54 182.038 138.4 180.398 140.12C178.798 141.8 177.998 144.22 177.998 147.38C177.998 150.54 178.778 152.98 180.338 154.7C181.938 156.38 183.938 157.22 186.338 157.22ZM220.699 121.4L219.739 150.38H212.659L211.639 121.4H220.699ZM216.379 164.42C214.859 164.42 213.599 163.96 212.599 163.04C211.639 162.08 211.159 160.9 211.159 159.5C211.159 158.1 211.639 156.94 212.599 156.02C213.599 155.06 214.859 154.58 216.379 154.58C217.859 154.58 219.079 155.06 220.039 156.02C220.999 156.94 221.479 158.1 221.479 159.5C221.479 160.9 220.999 162.08 220.039 163.04C219.079 163.96 217.859 164.42 216.379 164.42ZM241.91 121.4L240.95 150.38H233.87L232.85 121.4H241.91ZM237.59 164.42C236.07 164.42 234.81 163.96 233.81 163.04C232.85 162.08 232.37 160.9 232.37 159.5C232.37 158.1 232.85 156.94 233.81 156.02C234.81 155.06 236.07 154.58 237.59 154.58C239.07 154.58 240.29 155.06 241.25 156.02C242.21 156.94 242.69 158.1 242.69 159.5C242.69 160.9 242.21 162.08 241.25 163.04C240.29 163.96 239.07 164.42 237.59 164.42Z" fill="white"/>
</svg>
