<svg width="302" height="286" viewBox="0 0 302 286" fill="none" xmlns="http://www.w3.org/2000/svg">
<path d="M271.8 85.8002V185.9C271.8 201.63 258.21 214.5 241.6 214.5H181.2V257.4L120.8 214.5H60.4C43.7749 214.5 30.2 201.63 30.2 185.9V85.8002C30.2 70.0702 43.7749 57.2002 60.4 57.2002H241.6C258.21 57.2002 271.8 70.0702 271.8 85.8002Z" fill="#273468"/>
<path d="M92.88 122.12V164H84.48V146.18H66.54V164H58.14V122.12H66.54V139.34H84.48V122.12H92.88ZM132.048 146.66C132.048 147.86 131.968 148.94 131.808 149.9H107.508C107.708 152.3 108.548 154.18 110.028 155.54C111.508 156.9 113.328 157.58 115.488 157.58C118.608 157.58 120.828 156.24 122.148 153.56H131.208C130.248 156.76 128.408 159.4 125.688 161.48C122.968 163.52 119.628 164.54 115.668 164.54C112.468 164.54 109.588 163.84 107.028 162.44C104.508 161 102.528 158.98 101.088 156.38C99.6878 153.78 98.9878 150.78 98.9878 147.38C98.9878 143.94 99.6878 140.92 101.088 138.32C102.488 135.72 104.448 133.72 106.968 132.32C109.488 130.92 112.388 130.22 115.668 130.22C118.828 130.22 121.648 130.9 124.128 132.26C126.648 133.62 128.588 135.56 129.948 138.08C131.348 140.56 132.048 143.42 132.048 146.66ZM123.348 144.26C123.308 142.1 122.528 140.38 121.008 139.1C119.488 137.78 117.628 137.12 115.428 137.12C113.348 137.12 111.588 137.76 110.148 139.04C108.748 140.28 107.888 142.02 107.568 144.26H123.348ZM146.579 119.6V164H138.179V119.6H146.579ZM163.278 119.6V164H154.878V119.6H163.278ZM186.338 164.54C183.138 164.54 180.258 163.84 177.698 162.44C175.138 161 173.118 158.98 171.638 156.38C170.198 153.78 169.478 150.78 169.478 147.38C169.478 143.98 170.218 140.98 171.698 138.38C173.218 135.78 175.278 133.78 177.878 132.38C180.478 130.94 183.378 130.22 186.578 130.22C189.778 130.22 192.678 130.94 195.278 132.38C197.878 133.78 199.918 135.78 201.398 138.38C202.918 140.98 203.678 143.98 203.678 147.38C203.678 150.78 202.898 153.78 201.337 156.38C199.818 158.98 197.738 161 195.098 162.44C192.498 163.84 189.578 164.54 186.338 164.54ZM186.338 157.22C187.858 157.22 189.278 156.86 190.598 156.14C191.958 155.38 193.038 154.26 193.838 152.78C194.638 151.3 195.038 149.5 195.038 147.38C195.038 144.22 194.198 141.8 192.518 140.12C190.878 138.4 188.858 137.54 186.458 137.54C184.058 137.54 182.038 138.4 180.398 140.12C178.798 141.8 177.998 144.22 177.998 147.38C177.998 150.54 178.778 152.98 180.338 154.7C181.938 156.38 183.938 157.22 186.338 157.22ZM220.699 121.4L219.739 150.38H212.659L211.639 121.4H220.699ZM216.379 164.42C214.859 164.42 213.599 163.96 212.599 163.04C211.639 162.08 211.159 160.9 211.159 159.5C211.159 158.1 211.639 156.94 212.599 156.02C213.599 155.06 214.859 154.58 216.379 154.58C217.859 154.58 219.079 155.06 220.039 156.02C220.999 156.94 221.479 158.1 221.479 159.5C221.479 160.9 220.999 162.08 220.039 163.04C219.079 163.96 217.859 164.42 216.379 164.42ZM241.91 121.4L240.95 150.38H233.87L232.85 121.4H241.91ZM237.59 164.42C236.07 164.42 234.81 163.96 233.81 163.04C232.85 162.08 232.37 160.9 232.37 159.5C232.37 158.1 232.85 156.94 233.81 156.02C234.81 155.06 236.07 154.58 237.59 154.58C239.07 154.58 240.29 155.06 241.25 156.02C242.21 156.94 242.69 158.1 242.69 159.5C242.69 160.9 242.21 162.08 241.25 163.04C240.29 163.96 239.07 164.42 237.59 164.42Z" fill="white"/>
</svg>
