<svg width="400" height="131" viewBox="0 0 400 131" fill="none" xmlns="http://www.w3.org/2000/svg">
<path d="M26.6948 73.1V81.62H40.4348V89.54H26.6948V98.78H42.2348V107H16.4348V64.88H42.2348V73.1H26.6948ZM46.8558 90.2C46.8558 86.76 47.4958 83.74 48.7758 81.14C50.0958 78.54 51.8758 76.54 54.1158 75.14C56.3558 73.74 58.8558 73.04 61.6158 73.04C63.8158 73.04 65.8158 73.5 67.6158 74.42C69.4558 75.34 70.8958 76.58 71.9358 78.14V62.6H82.1958V107H71.9358V102.2C70.9758 103.8 69.5958 105.08 67.7958 106.04C66.0358 107 63.9758 107.48 61.6158 107.48C58.8558 107.48 56.3558 106.78 54.1158 105.38C51.8758 103.94 50.0958 101.92 48.7758 99.32C47.4958 96.68 46.8558 93.64 46.8558 90.2ZM71.9358 90.26C71.9358 87.7 71.2158 85.68 69.7758 84.2C68.3758 82.72 66.6558 81.98 64.6158 81.98C62.5758 81.98 60.8358 82.72 59.3958 84.2C57.9958 85.64 57.2958 87.64 57.2958 90.2C57.2958 92.76 57.9958 94.8 59.3958 96.32C60.8358 97.8 62.5758 98.54 64.6158 98.54C66.6558 98.54 68.3758 97.8 69.7758 96.32C71.2158 94.84 71.9358 92.82 71.9358 90.26ZM122.678 73.52V107H112.418V102.44C111.378 103.92 109.958 105.12 108.158 106.04C106.398 106.92 104.438 107.36 102.278 107.36C99.7184 107.36 97.4584 106.8 95.4984 105.68C93.5384 104.52 92.0184 102.86 90.9384 100.7C89.8584 98.54 89.3184 96 89.3184 93.08V73.52H99.5184V91.7C99.5184 93.94 100.098 95.68 101.258 96.92C102.418 98.16 103.978 98.78 105.938 98.78C107.938 98.78 109.518 98.16 110.678 96.92C111.838 95.68 112.418 93.94 112.418 91.7V73.52H122.678ZM146.848 82.04H141.328V107H131.068V82.04H127.348V73.52H131.068V72.56C131.068 68.44 132.248 65.32 134.608 63.2C136.968 61.04 140.428 59.96 144.988 59.96C145.748 59.96 146.308 59.98 146.668 60.02V68.72C144.708 68.6 143.328 68.88 142.528 69.56C141.728 70.24 141.328 71.46 141.328 73.22V73.52H146.848V82.04ZM183.229 89.72C183.229 90.68 183.169 91.68 183.049 92.72H159.829C159.989 94.8 160.649 96.4 161.809 97.52C163.009 98.6 164.469 99.14 166.189 99.14C168.749 99.14 170.529 98.06 171.529 95.9H182.449C181.889 98.1 180.869 100.08 179.389 101.84C177.949 103.6 176.129 104.98 173.929 105.98C171.729 106.98 169.269 107.48 166.549 107.48C163.269 107.48 160.349 106.78 157.789 105.38C155.229 103.98 153.229 101.98 151.789 99.38C150.349 96.78 149.629 93.74 149.629 90.26C149.629 86.78 150.329 83.74 151.729 81.14C153.169 78.54 155.169 76.54 157.729 75.14C160.289 73.74 163.229 73.04 166.549 73.04C169.789 73.04 172.669 73.72 175.189 75.08C177.709 76.44 179.669 78.38 181.069 80.9C182.509 83.42 183.229 86.36 183.229 89.72ZM172.729 87.02C172.729 85.26 172.129 83.86 170.929 82.82C169.729 81.78 168.229 81.26 166.429 81.26C164.709 81.26 163.249 81.76 162.049 82.76C160.889 83.76 160.169 85.18 159.889 87.02H172.729ZM186.602 90.2C186.602 86.76 187.242 83.74 188.522 81.14C189.842 78.54 191.622 76.54 193.862 75.14C196.102 73.74 198.602 73.04 201.362 73.04C203.722 73.04 205.782 73.52 207.542 74.48C209.342 75.44 210.722 76.7 211.682 78.26V73.52H221.942V107H211.682V102.26C210.682 103.82 209.282 105.08 207.482 106.04C205.722 107 203.662 107.48 201.302 107.48C198.582 107.48 196.102 106.78 193.862 105.38C191.622 103.94 189.842 101.92 188.522 99.32C187.242 96.68 186.602 93.64 186.602 90.2ZM211.682 90.26C211.682 87.7 210.962 85.68 209.522 84.2C208.122 82.72 206.402 81.98 204.362 81.98C202.322 81.98 200.582 82.72 199.142 84.2C197.742 85.64 197.042 87.64 197.042 90.2C197.042 92.76 197.742 94.8 199.142 96.32C200.582 97.8 202.322 98.54 204.362 98.54C206.402 98.54 208.122 97.8 209.522 96.32C210.962 94.84 211.682 92.82 211.682 90.26ZM248.025 98.3V107H242.805C239.085 107 236.185 106.1 234.105 104.3C232.025 102.46 230.985 99.48 230.985 95.36V82.04H226.905V73.52H230.985V65.36H241.245V73.52H247.965V82.04H241.245V95.48C241.245 96.48 241.485 97.2 241.965 97.64C242.445 98.08 243.245 98.3 244.365 98.3H248.025ZM258.9 70.04C257.1 70.04 255.62 69.52 254.46 68.48C253.34 67.4 252.78 66.08 252.78 64.52C252.78 62.92 253.34 61.6 254.46 60.56C255.62 59.48 257.1 58.94 258.9 58.94C260.66 58.94 262.1 59.48 263.22 60.56C264.38 61.6 264.96 62.92 264.96 64.52C264.96 66.08 264.38 67.4 263.22 68.48C262.1 69.52 260.66 70.04 258.9 70.04ZM264 73.52V107H253.74V73.52H264ZM269.395 90.2C269.395 86.76 270.035 83.74 271.315 81.14C272.635 78.54 274.415 76.54 276.655 75.14C278.895 73.74 281.395 73.04 284.155 73.04C286.515 73.04 288.575 73.52 290.335 74.48C292.135 75.44 293.515 76.7 294.475 78.26V73.52H304.735V107H294.475V102.26C293.475 103.82 292.075 105.08 290.275 106.04C288.515 107 286.455 107.48 284.095 107.48C281.375 107.48 278.895 106.78 276.655 105.38C274.415 103.94 272.635 101.92 271.315 99.32C270.035 96.68 269.395 93.64 269.395 90.2ZM294.475 90.26C294.475 87.7 293.755 85.68 292.315 84.2C290.915 82.72 289.195 81.98 287.155 81.98C285.115 81.98 283.375 82.72 281.935 84.2C280.535 85.64 279.835 87.64 279.835 90.2C279.835 92.76 280.535 94.8 281.935 96.32C283.375 97.8 285.115 98.54 287.155 98.54C289.195 98.54 290.915 97.8 292.315 96.32C293.755 94.84 294.475 92.82 294.475 90.26ZM332.558 73.16C336.478 73.16 339.598 74.44 341.918 77C344.278 79.52 345.458 83 345.458 87.44V107H335.258V88.82C335.258 86.58 334.678 84.84 333.518 83.6C332.358 82.36 330.798 81.74 328.838 81.74C326.878 81.74 325.318 82.36 324.158 83.6C322.998 84.84 322.418 86.58 322.418 88.82V107H312.158V73.52H322.418V77.96C323.458 76.48 324.858 75.32 326.618 74.48C328.378 73.6 330.358 73.16 332.558 73.16ZM366.207 107.48C363.287 107.48 360.687 106.98 358.407 105.98C356.127 104.98 354.327 103.62 353.007 101.9C351.687 100.14 350.947 98.18 350.787 96.02H360.927C361.047 97.18 361.587 98.12 362.547 98.84C363.507 99.56 364.687 99.92 366.087 99.92C367.367 99.92 368.347 99.68 369.027 99.2C369.747 98.68 370.107 98.02 370.107 97.22C370.107 96.26 369.607 95.56 368.607 95.12C367.607 94.64 365.987 94.12 363.747 93.56C361.347 93 359.347 92.42 357.747 91.82C356.147 91.18 354.767 90.2 353.607 88.88C352.447 87.52 351.867 85.7 351.867 83.42C351.867 81.5 352.387 79.76 353.427 78.2C354.507 76.6 356.067 75.34 358.107 74.42C360.187 73.5 362.647 73.04 365.487 73.04C369.687 73.04 372.987 74.08 375.387 76.16C377.827 78.24 379.227 81 379.587 84.44H370.107C369.947 83.28 369.427 82.36 368.547 81.68C367.707 81 366.587 80.66 365.187 80.66C363.987 80.66 363.067 80.9 362.427 81.38C361.787 81.82 361.467 82.44 361.467 83.24C361.467 84.2 361.967 84.92 362.967 85.4C364.007 85.88 365.607 86.36 367.767 86.84C370.247 87.48 372.267 88.12 373.827 88.76C375.387 89.36 376.747 90.36 377.907 91.76C379.107 93.12 379.727 94.96 379.767 97.28C379.767 99.24 379.207 101 378.087 102.56C377.007 104.08 375.427 105.28 373.347 106.16C371.307 107.04 368.927 107.48 366.207 107.48ZM390.844 107.48C389.044 107.48 387.564 106.96 386.404 105.92C385.284 104.84 384.724 103.52 384.724 101.96C384.724 100.36 385.284 99.02 386.404 97.94C387.564 96.86 389.044 96.32 390.844 96.32C392.604 96.32 394.044 96.86 395.164 97.94C396.324 99.02 396.904 100.36 396.904 101.96C396.904 103.52 396.324 104.84 395.164 105.92C394.044 106.96 392.604 107.48 390.844 107.48Z" fill="#273468" fill-opacity="0.9"/>
<path d="M59.09 18.59L50.315 50H42.89L36.995 27.635L30.83 50L23.45 50.045L14.99 18.59H21.74L27.275 42.98L33.665 18.59H40.685L46.715 42.845L52.295 18.59H59.09ZM86.3786 36.995C86.3786 37.895 86.3186 38.705 86.1986 39.425H67.9736C68.1236 41.225 68.7536 42.635 69.8636 43.655C70.9736 44.675 72.3386 45.185 73.9586 45.185C76.2986 45.185 77.9636 44.18 78.9536 42.17H85.7486C85.0286 44.57 83.6486 46.55 81.6086 48.11C79.5686 49.64 77.0636 50.405 74.0936 50.405C71.6936 50.405 69.5336 49.88 67.6136 48.83C65.7236 47.75 64.2386 46.235 63.1586 44.285C62.1086 42.335 61.5836 40.085 61.5836 37.535C61.5836 34.955 62.1086 32.69 63.1586 30.74C64.2086 28.79 65.6786 27.29 67.5686 26.24C69.4586 25.19 71.6336 24.665 74.0936 24.665C76.4636 24.665 78.5786 25.175 80.4386 26.195C82.3286 27.215 83.7836 28.67 84.8036 30.56C85.8536 32.42 86.3786 34.565 86.3786 36.995ZM79.8536 35.195C79.8236 33.575 79.2386 32.285 78.0986 31.325C76.9586 30.335 75.5636 29.84 73.9136 29.84C72.3536 29.84 71.0336 30.32 69.9536 31.28C68.9036 32.21 68.2586 33.515 68.0186 35.195H79.8536ZM100.08 37.445C100.08 34.925 100.575 32.69 101.565 30.74C102.585 28.79 103.95 27.29 105.66 26.24C107.4 25.19 109.335 24.665 111.465 24.665C113.325 24.665 114.945 25.04 116.325 25.79C117.735 26.54 118.86 27.485 119.7 28.625V25.07H126.045V50H119.7V46.355C118.89 47.525 117.765 48.5 116.325 49.28C114.915 50.03 113.28 50.405 111.42 50.405C109.32 50.405 107.4 49.865 105.66 48.785C103.95 47.705 102.585 46.19 101.565 44.24C100.575 42.26 100.08 39.995 100.08 37.445ZM119.7 37.535C119.7 36.005 119.4 34.7 118.8 33.62C118.2 32.51 117.39 31.67 116.37 31.1C115.35 30.5 114.255 30.2 113.085 30.2C111.915 30.2 110.835 30.485 109.845 31.055C108.855 31.625 108.045 32.465 107.415 33.575C106.815 34.655 106.515 35.945 106.515 37.445C106.515 38.945 106.815 40.265 107.415 41.405C108.045 42.515 108.855 43.37 109.845 43.97C110.865 44.57 111.945 44.87 113.085 44.87C114.255 44.87 115.35 44.585 116.37 44.015C117.39 43.415 118.2 42.575 118.8 41.495C119.4 40.385 119.7 39.065 119.7 37.535ZM138.498 28.94C139.308 27.62 140.358 26.585 141.648 25.835C142.968 25.085 144.468 24.71 146.148 24.71V31.325H144.483C142.503 31.325 141.003 31.79 139.983 32.72C138.993 33.65 138.498 35.27 138.498 37.58V50H132.198V25.07H138.498V28.94ZM173.566 36.995C173.566 37.895 173.506 38.705 173.386 39.425H155.161C155.311 41.225 155.941 42.635 157.051 43.655C158.161 44.675 159.526 45.185 161.146 45.185C163.486 45.185 165.151 44.18 166.141 42.17H172.936C172.216 44.57 170.836 46.55 168.796 48.11C166.756 49.64 164.251 50.405 161.281 50.405C158.881 50.405 156.721 49.88 154.801 48.83C152.911 47.75 151.426 46.235 150.346 44.285C149.296 42.335 148.771 40.085 148.771 37.535C148.771 34.955 149.296 32.69 150.346 30.74C151.396 28.79 152.866 27.29 154.756 26.24C156.646 25.19 158.821 24.665 161.281 24.665C163.651 24.665 165.766 25.175 167.626 26.195C169.516 27.215 170.971 28.67 171.991 30.56C173.041 32.42 173.566 34.565 173.566 36.995ZM167.041 35.195C167.011 33.575 166.426 32.285 165.286 31.325C164.146 30.335 162.751 29.84 161.101 29.84C159.541 29.84 158.221 30.32 157.141 31.28C156.091 32.21 155.446 33.515 155.206 35.195H167.041Z" fill="#DBDBE4"/>
</svg>
