<svg width="588" height="443" viewBox="0 0 588 443" fill="none" xmlns="http://www.w3.org/2000/svg">
<g clip-path="url(#clip0)">
<path d="M65.7954 296.458C65.7954 296.458 90.643 268.033 75.3919 236.6" stroke="black" stroke-width="0.751664" stroke-miterlimit="10"/>
<path d="M434.598 187.93C434.598 187.93 429.868 213.769 450.44 217.781" stroke="black" stroke-width="0.751664" stroke-miterlimit="10"/>
<path d="M175.844 138.163C175.844 138.163 211.94 129.513 216.776 94.6953" stroke="black" stroke-width="0.751664" stroke-miterlimit="10"/>
<path d="M271.034 70.7834C271.034 70.7834 281.646 94.711 300.657 85.701" stroke="black" stroke-width="0.751664" stroke-miterlimit="10"/>
<path d="M308.92 117.667C308.92 117.667 345.016 109.017 349.853 74.1995" stroke="black" stroke-width="0.751664" stroke-miterlimit="10"/>
<path d="M100.133 179.218C100.133 179.218 132.455 160.414 127.695 125.628" stroke="black" stroke-width="0.751664" stroke-miterlimit="10"/>
<path d="M587.034 352.712C586.064 362.678 525.802 346.271 430.793 370.559C360.343 388.564 339.726 411.3 293.517 427.754C155.377 476.909 0 394.847 0 352.712C0 311.265 131.409 277.654 293.517 277.654C455.322 277.685 588.505 337.81 587.034 352.712Z" fill="#B0C3FF"/>
<path d="M36.4453 260.934L228.631 184.498L452.412 274.206L260.225 350.659L36.4453 260.934Z" fill="#0044DD"/>
<path d="M260.088 401.774L450.228 326.074C450.77 325.929 451.257 325.618 451.625 325.182C451.993 324.745 452.225 324.204 452.29 323.629C452.29 321.435 448.879 320.072 446.226 321.153L260.195 394.801L260.088 401.774Z" fill="#0740A5"/>
<path d="M420.378 286.899C415.069 294.696 412.589 304.178 413.374 313.678C414.098 320.109 416.268 326.275 419.711 331.683L260.119 394.878C257.087 391.823 251.356 385.21 250.265 375.981C248.749 362.975 257.39 353.495 260.225 350.659L420.378 286.899Z" fill="white"/>
<path d="M36.4449 260.935C33.14 264.429 25.0747 273.956 25.3779 287.275C25.6508 299.654 32.958 308.508 36.3085 312.049L260.089 401.773V394.879C257.299 392.121 249.795 383.91 250.083 372.189C250.34 361.22 257.345 353.464 260.195 350.659L36.4449 260.935Z" fill="#0740A5"/>
<path d="M103.271 260.934L167.323 286.962L293.532 235.565L229.981 210.039L103.271 260.934Z" fill="#97BDFF"/>
<path d="M50.438 196.94L242.624 120.488L466.404 210.212L274.218 286.648L50.438 196.94Z" fill="#4249A5"/>
<path d="M274.097 337.763L464.236 262.141C464.777 261.99 465.261 261.675 465.626 261.237C465.991 260.798 466.22 260.256 466.283 259.681C466.283 257.503 462.887 256.124 460.219 257.205L274.188 330.852L274.097 337.763Z" fill="#2B3899"/>
<path d="M434.386 222.951C429.093 230.739 426.614 240.2 427.382 249.684C428.103 256.112 430.279 262.275 433.734 267.673L274.112 330.884C271.08 327.75 265.349 321.216 264.273 311.971C262.757 298.965 271.383 289.5 274.218 286.649L434.386 222.951Z" fill="white"/>
<path d="M50.4382 196.924C47.1333 200.418 39.0833 209.946 39.3713 223.28C39.6593 235.659 46.9515 244.497 50.317 248.038L274.097 337.763V330.884C271.308 328.11 263.803 319.915 264.091 308.179C264.349 297.21 271.353 289.469 274.203 286.649L50.4382 196.924Z" fill="#2B3899"/>
<path d="M117.264 196.94L181.316 222.951L307.525 171.555L243.988 146.029L117.264 196.94Z" fill="#A5AFF9"/>
<path d="M76.938 128.761L269.124 52.3086L492.904 142.033L300.718 218.485L76.938 128.761Z" fill="#2289DD"/>
<path d="M300.598 269.662L490.692 193.962C491.236 193.817 491.725 193.503 492.093 193.064C492.461 192.625 492.692 192.08 492.754 191.502C492.754 189.324 489.342 187.961 486.689 189.042L300.658 262.689L300.598 269.662Z" fill="#1281CC"/>
<path d="M460.87 154.772C455.577 162.559 453.103 172.022 453.882 181.505C454.606 187.93 456.776 194.091 460.219 199.494L300.612 262.705C297.58 259.649 291.849 253.037 290.758 243.792C289.242 230.786 297.883 221.321 300.718 218.47L460.87 154.772Z" fill="white"/>
<path d="M76.9381 128.761C73.6331 132.24 65.5679 141.783 65.8711 155.102C66.144 167.481 73.4512 176.334 76.8016 179.876L300.597 269.663V262.784C297.807 260.01 290.303 251.815 290.591 240.078C290.849 229.11 297.853 221.369 300.703 218.548L76.9381 128.761Z" fill="#1281CC"/>
<path d="M143.764 128.761L207.816 154.773L334.025 103.376L270.473 77.8662L143.764 128.761Z" fill="#8CC2F4"/>
<path d="M317.622 148.521C317.622 148.521 298.111 169.643 320.988 181.803C343.864 193.963 378.505 170.552 378.505 170.552L392.301 239.013H398.714C398.714 239.013 406.097 133.901 397.35 142.409" fill="#2D3E42"/>
<path d="M392.301 239.013L389.951 251.329H420.378C422.819 251.329 424.805 250.452 424.805 249.386V246.566C424.805 245.485 422.819 244.623 420.378 244.623H407.385L398.714 239.013" fill="black"/>
<path d="M372.896 250.498L370.546 262.815H400.973C403.414 262.815 405.4 261.937 405.4 260.872V258.051C405.4 256.986 403.414 256.108 400.973 256.108H387.965L379.309 250.498" fill="black"/>
<path d="M360.829 57.5738C360.829 57.5738 378.233 49.3943 360.829 45.9783C360.829 45.9783 367.242 20.8129 341.97 32.2204C341.97 32.2204 322.746 27.8956 329.841 50.6949C329.841 50.6949 327.522 72.9771 337.043 64.2021" fill="black"/>
<path d="M360.829 57.5738C360.829 57.5738 378.233 49.3943 360.829 45.9783C360.829 45.9783 367.242 20.8129 341.97 32.2204C341.97 32.2204 322.746 27.8956 329.841 50.6949C329.841 50.6949 327.522 72.9771 337.043 64.2021" stroke="black" stroke-width="0.751664" stroke-miterlimit="10"/>
<path d="M348.427 77.8192C348.427 77.8192 362.86 72.7109 367.181 77.8192C371.501 82.9275 371.153 86.0771 371.153 86.0771C371.153 86.0771 378.369 118.31 370.849 145.434C363.33 172.558 311.725 152.125 311.725 152.125L312.437 130.501H291.774C291.774 130.501 289.287 80.577 306.009 77.4274C316.734 75.5763 327.682 75.5763 338.407 77.4274" fill="white"/>
<path d="M348.2 65.1113H338.407V86.0773H348.2V65.1113Z" fill="#FFD4A9"/>
<path d="M360.828 57.5739C360.828 65.2834 355.173 71.5356 348.2 71.5356C341.226 71.5356 335.556 65.2677 335.556 57.5739C335.556 49.8801 343.97 37.4855 348.2 43.6123C353.354 51.0867 360.828 49.8645 360.828 57.5739Z" fill="#FFD4A9"/>
<path d="M360.813 104.081C360.813 104.081 365.968 120.19 365.589 129.654" stroke="black" stroke-width="0.751664" stroke-miterlimit="10"/>
<path d="M298.338 160.414C298.338 160.414 278.827 181.537 301.703 193.681C324.58 205.825 359.236 182.43 359.236 182.43L373.017 250.906H379.445C379.445 250.906 386.813 145.794 378.065 154.303" fill="#456C77"/>
<path d="M291.774 130.501C290.352 140.929 290.311 151.51 291.653 161.95C293.912 178.466 375.792 140.717 375.792 140.717C375.792 140.717 403.202 123.026 375.792 127.743C348.382 132.459 311.937 145.481 311.937 145.481L312.422 130.501" fill="#FFD4A9"/>
<path d="M413.692 158.643L345.986 160.931L364.27 119.046C364.464 118.612 364.771 118.244 365.156 117.981C365.542 117.718 365.991 117.571 366.453 117.557L428.61 115.457C429.032 115.439 429.451 115.532 429.829 115.728C430.207 115.923 430.53 116.215 430.768 116.576C431.006 116.937 431.152 117.354 431.19 117.789C431.229 118.224 431.16 118.662 430.99 119.061L413.692 158.643Z" fill="black"/>
<path d="M335.556 61.7734C338.059 61.7734 340.089 59.5285 340.089 56.7592C340.089 53.9898 338.059 51.7449 335.556 51.7449C333.052 51.7449 331.023 53.9898 331.023 56.7592C331.023 59.5285 333.052 61.7734 335.556 61.7734Z" fill="#FFD4A9"/>
<path d="M322.806 161.668L408.553 158.534L408.416 155.368L322.67 158.502L322.806 161.668Z" fill="black"/>
<path d="M311.846 130.218L314.969 104.457" stroke="black" stroke-width="0.751664" stroke-miterlimit="10"/>
<path d="M354.067 51.4784C355.522 51.176 357.026 51.2459 358.449 51.6821C358.547 51.7182 358.653 51.7307 358.757 51.719C358.861 51.7072 358.961 51.6714 359.05 51.6142C359.139 51.557 359.214 51.4799 359.27 51.3886C359.326 51.2973 359.361 51.1941 359.374 51.0867V50.9613C359.37 50.827 359.325 50.6973 359.246 50.5905C359.167 50.4837 359.058 50.4051 358.934 50.3659C357.175 49.6222 355.204 49.6222 353.446 50.3659C353.346 50.4177 353.262 50.4957 353.201 50.5919C353.14 50.6882 353.104 50.7993 353.097 50.9143C353.117 51.022 353.159 51.1239 353.221 51.2129C353.283 51.3019 353.363 51.3759 353.455 51.4297C353.548 51.4834 353.65 51.5156 353.756 51.524C353.862 51.5324 353.968 51.5169 354.067 51.4784Z" fill="#1A1A1A"/>
<path d="M343.515 51.4939C344.96 51.19 346.456 51.2654 347.866 51.7133C347.966 51.7464 348.072 51.7563 348.176 51.7423C348.28 51.7283 348.379 51.6908 348.468 51.6324C348.556 51.5741 348.631 51.4963 348.687 51.4046C348.742 51.313 348.778 51.2097 348.791 51.1021V50.9768C348.784 50.8452 348.738 50.719 348.659 50.6153C348.581 50.5116 348.473 50.4354 348.351 50.397C346.603 49.6535 344.642 49.6535 342.894 50.397C342.798 50.4521 342.717 50.5312 342.659 50.6271C342.601 50.7229 342.567 50.8324 342.56 50.9455C342.577 51.0526 342.618 51.1543 342.678 51.2431C342.739 51.3319 342.818 51.4054 342.909 51.4581C343.001 51.5108 343.103 51.5415 343.208 51.5477C343.313 51.5539 343.418 51.5354 343.515 51.4939Z" fill="#1A1A1A"/>
<path d="M345.047 54.4087C345.624 54.4087 346.093 53.8124 346.093 53.0768C346.093 52.3412 345.624 51.7449 345.047 51.7449C344.469 51.7449 344 52.3412 344 53.0768C344 53.8124 344.469 54.4087 345.047 54.4087Z" fill="#1A1A1A"/>
<path d="M345.365 53.641C345.482 53.641 345.577 53.4165 345.577 53.1396C345.577 52.8627 345.482 52.6382 345.365 52.6382C345.248 52.6382 345.153 52.8627 345.153 53.1396C345.153 53.4165 345.248 53.641 345.365 53.641Z" fill="white"/>
<path d="M356.659 54.4405C357.237 54.4405 357.705 53.8441 357.705 53.1085C357.705 52.3729 357.237 51.7766 356.659 51.7766C356.082 51.7766 355.613 52.3729 355.613 53.1085C355.613 53.8441 356.082 54.4405 356.659 54.4405Z" fill="#1A1A1A"/>
<path d="M356.978 53.6877C357.096 53.6877 357.191 53.4632 357.191 53.1862C357.191 52.9093 357.096 52.6848 356.978 52.6848C356.861 52.6848 356.766 52.9093 356.766 53.1862C356.766 53.4632 356.861 53.6877 356.978 53.6877Z" fill="white"/>
<path d="M352.49 53.688C352.49 53.688 356.735 61.5228 350.656 59.0627" stroke="black" stroke-width="0.375832" stroke-miterlimit="10"/>
<path d="M350.656 61.8045C350.656 61.8045 348.776 62.1492 348.2 60.8643" stroke="black" stroke-width="0.375832" stroke-miterlimit="10"/>
<path d="M140.839 53.7976H148.237V37.8459H140.839V53.7976Z" fill="#FFD4A9"/>
<path d="M149.706 37.8457C149.706 37.8457 157.65 37.5793 162.668 32.6433C164.077 31.353 165.031 29.6162 165.383 27.705C165.734 25.7938 165.462 23.8162 164.609 22.082C166.004 17.0991 159.879 13.2757 159.879 13.2757C159.879 7.69728 151.147 6.71008 151.147 6.71008C145.75 -3.78857 138.852 2.11889 138.852 2.11889C138.852 2.11889 129.574 -2.14328 126.921 5.08043C126.921 5.08043 120.083 8.35541 122.024 14.2629C122.024 14.2629 119.34 20.5307 123.252 24.1504C127.163 27.7701 149.706 37.8457 149.706 37.8457Z" fill="black" stroke="black" stroke-width="0.187916" stroke-miterlimit="10"/>
<path d="M130.09 29.5098C131.97 36.4828 135.32 42.735 141.763 42.735C148.206 42.735 153.437 36.8118 153.437 29.5098C153.545 26.1669 152.385 22.9127 150.204 20.4418C148.023 17.9709 144.994 16.479 141.763 16.2846C125.512 15.8929 127.71 20.6564 130.09 29.5098Z" fill="#FFD4A9"/>
<path d="M153.437 33.4743C155.756 33.4743 157.637 31.3486 157.637 28.7264C157.637 26.1042 155.756 23.9785 153.437 23.9785C151.118 23.9785 149.238 26.1042 149.238 28.7264C149.238 31.3486 151.118 33.4743 153.437 33.4743Z" fill="#FFD4A9"/>
<path d="M136.351 23.7275C135.007 23.4424 133.615 23.5124 132.304 23.9312C132.21 23.9651 132.11 23.9762 132.011 23.9639C131.912 23.9516 131.817 23.9161 131.734 23.8602C131.651 23.8042 131.581 23.7293 131.53 23.6411C131.479 23.553 131.448 23.4539 131.439 23.3515V23.2418C131.443 23.1156 131.484 22.9936 131.557 22.8926C131.631 22.7915 131.732 22.7165 131.849 22.6777C133.475 21.9821 135.301 21.9821 136.927 22.6777C137.018 22.7281 137.094 22.8026 137.147 22.8935C137.201 22.9844 137.229 23.0885 137.231 23.1948C137.217 23.2949 137.181 23.3906 137.126 23.4746C137.072 23.5586 137 23.6288 136.915 23.68C136.831 23.7311 136.736 23.762 136.638 23.7702C136.541 23.7785 136.443 23.7639 136.351 23.7275Z" fill="#1A1A1A"/>
<path d="M146.099 23.7589C144.767 23.4608 143.383 23.5256 142.082 23.947C141.989 23.9806 141.89 23.9922 141.793 23.9807C141.695 23.9693 141.601 23.9351 141.518 23.8809C141.435 23.8266 141.365 23.7536 141.313 23.6674C141.261 23.5812 141.228 23.4839 141.218 23.3828V23.2575C141.224 23.134 141.267 23.0155 141.34 22.9175C141.413 22.8196 141.513 22.7469 141.627 22.709C142.423 22.3608 143.279 22.1814 144.144 22.1814C145.008 22.1814 145.864 22.3608 146.66 22.709C146.752 22.7599 146.829 22.8341 146.885 22.9246C146.941 23.0152 146.973 23.119 146.979 23.2262C146.962 23.325 146.925 23.4189 146.87 23.5014C146.814 23.5838 146.742 23.6528 146.659 23.7036C146.575 23.7543 146.482 23.7855 146.385 23.7951C146.288 23.8046 146.191 23.7923 146.099 23.7589Z" fill="#1A1A1A"/>
<path d="M144.674 26.501C145.201 26.501 145.629 25.9398 145.629 25.2475C145.629 24.5551 145.201 23.9939 144.674 23.9939C144.146 23.9939 143.719 24.5551 143.719 25.2475C143.719 25.9398 144.146 26.501 144.674 26.501Z" fill="#1A1A1A"/>
<path d="M144.386 25.7803C144.495 25.7803 144.583 25.5698 144.583 25.3102C144.583 25.0506 144.495 24.8401 144.386 24.8401C144.277 24.8401 144.189 25.0506 144.189 25.3102C144.189 25.5698 144.277 25.7803 144.386 25.7803Z" fill="white"/>
<path d="M133.957 26.5323C134.484 26.5323 134.912 25.971 134.912 25.2787C134.912 24.5864 134.484 24.0251 133.957 24.0251C133.429 24.0251 133.001 24.5864 133.001 25.2787C133.001 25.971 133.429 26.5323 133.957 26.5323Z" fill="#1A1A1A"/>
<path d="M133.668 25.8113C133.777 25.8113 133.865 25.6008 133.865 25.3412C133.865 25.0816 133.777 24.8711 133.668 24.8711C133.559 24.8711 133.471 25.0816 133.471 25.3412C133.471 25.6008 133.559 25.8113 133.668 25.8113Z" fill="white"/>
<path d="M137.806 25.8115C137.806 25.8115 133.88 33.1919 139.489 30.9198" stroke="black" stroke-width="0.375832" stroke-miterlimit="10"/>
<path d="M139.489 33.5057C139.489 33.5057 141.233 33.8348 141.763 32.6125" stroke="black" stroke-width="0.375832" stroke-miterlimit="10"/>
<path d="M120.069 128.369C120.069 128.369 153.421 157.734 164.337 135.844C175.252 113.953 166.944 103.721 166.944 103.721L119.265 101.245C116.116 103.039 113.751 106.01 112.655 109.55C110.836 115.99 113.201 125.502 120.069 128.369Z" fill="#0C8996"/>
<path d="M152.936 204.493L158.924 216.84L137.806 229.736C136.108 230.771 134.426 230.661 134.047 229.501L133.046 226.367C132.667 225.208 133.728 223.422 135.426 222.387L144.522 216.887L148.555 207.141" fill="black"/>
<path d="M92.9783 192.114L89.7189 205.417L70.996 191.126C69.4799 189.967 68.6006 188.18 69.01 187.131L70.0864 184.341C70.4957 183.291 72.042 183.354 73.558 184.498L81.5475 190.609L89.0215 189.136" fill="black"/>
<path d="M101.983 115.552L85.6704 187.162L95.2971 193.963L125.178 131.394C128.771 123.872 126.694 113.201 120.539 107.889L120.069 107.513C119.552 107.107 119.01 106.735 118.447 106.401C111.564 102.342 104.014 106.699 101.983 115.552Z" fill="#2D3E42"/>
<path d="M127.24 139.15C127.24 139.15 170.128 165.522 178.785 142.456C187.441 119.391 176.374 109.832 176.374 109.832L121.797 111.885C120.241 112.867 118.899 114.172 117.855 115.717C116.811 117.263 116.089 119.015 115.733 120.864C114.718 127.57 118.978 136.894 127.24 139.15Z" fill="#456C77"/>
<path d="M114.005 138.633L144.098 210.338L155.468 204.43L141.111 123.935C139.383 114.251 131.515 108.626 123.647 111.822L123.07 112.073C122.416 112.36 121.783 112.695 121.175 113.076C113.474 117.918 110.26 129.702 114.005 138.633Z" fill="#456C77"/>
<path d="M141.628 47.6396C141.628 47.6396 130.182 43.8319 126.74 47.6396C123.299 51.4473 123.602 53.7977 123.602 53.7977C123.602 53.7977 117.887 77.835 123.845 98.0488C129.803 118.263 170.811 103.032 170.811 103.032L170.235 86.9077H186.623C186.623 86.9077 188.594 49.6923 175.329 47.3575C166.791 45.9675 158.095 45.9675 149.556 47.3575" fill="#F0EDED"/>
<path d="M131.803 67.2266C131.803 67.2266 127.725 79.2295 128.013 86.2809" stroke="black" stroke-width="0.751664" stroke-miterlimit="10"/>
<path d="M186.562 86.9077C187.691 94.6968 187.722 102.614 186.653 110.412C184.864 122.713 119.948 94.5858 119.948 94.5858C119.948 94.5858 98.2085 81.392 119.948 84.9177C141.688 88.4433 170.583 98.1272 170.583 98.1272L170.189 86.9547" fill="#FFD4A9"/>
<path d="M170.644 86.7039L168.173 67.5085" stroke="black" stroke-width="0.375832" stroke-miterlimit="10"/>
<path d="M149.373 113.483H96.3883L81.501 64.9072H134.501L149.373 113.483Z" fill="black"/>
<path d="M165.535 109.895H110.427V113.483H165.535V109.895Z" fill="black"/>
<path d="M249.021 345.692C249.021 345.692 219.989 324.538 223.476 308.476C226.963 292.415 235.923 288.623 240.456 283.405C244.989 278.187 237.742 267.986 237.742 267.986C237.742 267.986 230.162 261.217 237.742 246.863C242.353 238.264 249.932 231.778 258.966 228.702C258.966 228.702 289.423 223.218 289.044 249.856C288.771 268.503 293.38 275.147 296.17 277.45C298.148 279.058 299.71 281.147 300.718 283.53C303.553 290.362 306.524 302.898 295.502 311.595C279.66 324.13 299.823 342.025 299.823 342.025C299.823 342.025 279.872 370.669 249.021 345.692Z" fill="black" stroke="black" stroke-width="0.751664" stroke-miterlimit="10"/>
<path d="M308.147 389.598L325.611 391.886C325.611 391.886 355.189 406.506 321.154 408.041L305.494 399.188" fill="black"/>
<path d="M223.158 404.187L206.163 404.751C206.163 404.751 176.768 417.286 209.529 422.677L225.159 414.842" fill="black"/>
<path d="M223.158 404.187L206.163 404.751C206.163 404.751 176.768 417.286 209.529 422.677L225.159 414.842" stroke="black" stroke-width="0.751664" stroke-miterlimit="10"/>
<path d="M224.174 323.394L206.452 377.674L215.291 383.722L240.411 329.395L224.174 323.394Z" fill="#FFD4A9"/>
<path d="M206.452 377.674C206.452 377.674 190.913 382.892 189.488 391.87C188.062 400.849 211.394 391.87 211.394 391.87L215.275 383.691L206.452 377.674Z" fill="#FFD4A9"/>
<path d="M287.043 329.443L294.942 348.575L301.158 354.545C301.158 354.545 310.572 363.947 309.223 353.652L309.375 343.968L303.31 323.472L287.043 329.443Z" fill="#FFD4A9"/>
<path d="M274.355 294.264C274.355 294.264 265.152 312.206 253.13 294.264C253.13 294.264 231.315 291.506 228.783 302.224C226.251 312.942 224.144 323.425 224.144 323.425L240.381 329.427L244.626 318.959C244.626 318.959 233.286 364.589 239.638 365.341C239.638 365.341 285.907 375.15 287.696 365.341C288.909 358.697 282.784 318.944 282.784 318.944L287.014 329.427L303.265 323.456C303.265 323.456 301.158 312.989 298.717 302.255C296.276 291.522 274.385 294.248 274.385 294.248C262.363 312.19 253.161 294.248 253.161 294.248" fill="white"/>
<path d="M274.355 298.887C273.345 300.894 271.821 302.577 269.95 303.751C268.079 304.925 265.932 305.546 263.743 305.546C261.553 305.546 259.406 304.925 257.535 303.751C255.664 302.577 254.14 300.894 253.13 298.887V265.981H274.355V298.887Z" fill="#FFD4A9"/>
<path d="M282.875 258.694C282.875 273.188 274.309 284.925 263.773 284.909C253.236 284.893 244.701 273.141 244.716 258.647C244.731 244.152 253.267 246.001 263.803 246.001C274.339 246.001 282.89 244.215 282.875 258.694Z" fill="#FFD4A9"/>
<path d="M305.736 398.373L220.748 393.923C207.983 392.356 199.114 382.359 199.523 373.552C199.933 363.445 212.591 354.216 227.358 357.883L309.223 379.946C309.223 379.946 315.893 392.857 305.736 398.373Z" fill="#2D3E42"/>
<path d="M222.658 400.285L298.156 358.384C309.951 352.915 322.412 356.707 326.278 364.464C330.826 373.396 324.277 388.156 309.754 392.936L228.631 418.007C228.631 418.007 216.533 410.517 222.658 400.285Z" fill="#456C77"/>
<path d="M256.299 258.192C254.33 257.8 252.299 257.891 250.371 258.459C250.239 258.509 250.097 258.528 249.957 258.515C249.816 258.501 249.68 258.455 249.56 258.38C249.439 258.305 249.336 258.202 249.258 258.08C249.181 257.958 249.131 257.82 249.113 257.675V257.518C249.122 257.343 249.184 257.175 249.29 257.037C249.396 256.899 249.54 256.799 249.704 256.751C251.068 256.281 254.495 255.309 257.148 256.751C257.279 256.814 257.39 256.913 257.471 257.037C257.551 257.162 257.597 257.306 257.602 257.456C257.602 257.989 256.935 258.38 256.299 258.192Z" fill="#1A1A1A"/>
<path d="M272.535 258.208C270.581 257.815 268.566 257.906 266.653 258.474C266.52 258.525 266.379 258.544 266.238 258.53C266.098 258.517 265.962 258.471 265.841 258.395C265.72 258.32 265.618 258.218 265.54 258.096C265.463 257.974 265.413 257.835 265.395 257.691V257.534C265.406 257.359 265.468 257.192 265.574 257.055C265.68 256.918 265.823 256.817 265.986 256.766C267.335 256.296 270.746 255.325 273.369 256.766C273.5 256.829 273.612 256.929 273.692 257.053C273.772 257.177 273.818 257.322 273.824 257.471C273.798 257.614 273.741 257.75 273.659 257.867C273.577 257.985 273.47 258.083 273.347 258.153C273.224 258.224 273.087 258.265 272.947 258.274C272.807 258.284 272.666 258.261 272.535 258.208Z" fill="#1A1A1A"/>
<path d="M270.458 261.968C271.237 261.968 271.868 261.197 271.868 260.245C271.868 259.293 271.237 258.521 270.458 258.521C269.68 258.521 269.048 259.293 269.048 260.245C269.048 261.197 269.68 261.968 270.458 261.968Z" fill="#1A1A1A"/>
<path d="M270.019 260.998C270.178 260.998 270.307 260.703 270.307 260.34C270.307 259.976 270.178 259.682 270.019 259.682C269.859 259.682 269.73 259.976 269.73 260.34C269.73 260.703 269.859 260.998 270.019 260.998Z" fill="white"/>
<path d="M252.797 262.031C253.575 262.031 254.206 261.26 254.206 260.308C254.206 259.356 253.575 258.584 252.797 258.584C252.018 258.584 251.387 259.356 251.387 260.308C251.387 261.26 252.018 262.031 252.797 262.031Z" fill="#1A1A1A"/>
<path d="M252.373 261.06C252.532 261.06 252.661 260.765 252.661 260.402C252.661 260.038 252.532 259.743 252.373 259.743C252.213 259.743 252.084 260.038 252.084 260.402C252.084 260.765 252.213 261.06 252.373 261.06Z" fill="white"/>
<path d="M260.938 259.665C260.938 259.665 255.162 269.741 263.41 266.638" stroke="black" stroke-width="0.375832" stroke-miterlimit="10"/>
<path d="M263.121 270.963C263.121 270.963 265.668 270.446 265.88 268.581" stroke="black" stroke-width="0.375832" stroke-miterlimit="10"/>
<path d="M246.611 229.329C252.296 218.015 268.063 215.633 281.813 224.001C295.563 232.369 302.113 248.352 296.427 259.665C290.742 270.979 281.267 254.4 267.623 246.017C253.979 237.633 240.941 240.626 246.611 229.329Z" fill="#F4AD31"/>
<path d="M269.852 293.276H258.542C256.801 293.276 255.389 294.736 255.389 296.536V328.549C255.389 330.349 256.801 331.808 258.542 331.808H269.852C271.594 331.808 273.005 330.349 273.005 328.549V296.536C273.005 294.736 271.594 293.276 269.852 293.276Z" fill="black"/>
<path d="M270.579 328.283L296.352 354.921C300.763 360.28 307.343 360.045 309.647 356.99C311.74 354.232 311.163 348.152 306.615 344.109L274.779 322.485C274.779 322.485 252.19 305.938 270.579 328.283Z" fill="#FFD4A9"/>
</g>
<defs>
<clipPath id="clip0">
<rect width="587.049" height="442.73" fill="white" transform="translate(0 0.27002)"/>
</clipPath>
</defs>
</svg>
