<svg width="776" height="525" viewBox="0 0 776 525" fill="none" xmlns="http://www.w3.org/2000/svg">
<g clip-path="url(#clip0)">
<path d="M395.655 196.391C395.655 196.391 459.066 96.596 531.937 63.3267" stroke="#6C6CFF" stroke-miterlimit="10"/>
<path d="M469.728 107.344C469.728 107.344 525.307 82.5852 558.427 100.086" stroke="#6C6CFF" stroke-miterlimit="10"/>
<path d="M434.803 144.293C434.803 144.293 493.389 125.478 514.085 138.616" stroke="#6C6CFF" stroke-miterlimit="10"/>
<path d="M500.716 132.622C500.716 132.622 513.961 109.722 527.207 114.097" stroke="#6C6CFF" stroke-miterlimit="10"/>
<path d="M453.872 123.088C453.872 123.088 456.25 79.3608 469.728 48.709C474.266 38.3906 480.062 29.5517 487.498 24.3672" stroke="#6C6CFF" stroke-miterlimit="10"/>
<path d="M469.728 48.709C469.728 48.709 498.816 43.183 500.702 34.4326" stroke="#6C6CFF" stroke-miterlimit="10"/>
<path d="M453.872 24.3672C453.872 24.3672 450.55 49.316 463.795 63.3268" stroke="#6C6CFF" stroke-miterlimit="10"/>
<path d="M453.489 27.3767C457.181 27.3767 460.174 24.6083 460.174 21.1932C460.174 17.7782 457.181 15.0098 453.489 15.0098C449.798 15.0098 446.805 17.7782 446.805 21.1932C446.805 24.6083 449.798 27.3767 453.489 27.3767Z" stroke="#6C6CFF" stroke-miterlimit="10"/>
<path d="M487.457 27.3767C491.148 27.3767 494.141 24.6083 494.141 21.1932C494.141 17.7782 491.148 15.0098 487.457 15.0098C483.765 15.0098 480.772 17.7782 480.772 21.1932C480.772 24.6083 483.765 27.3767 487.457 27.3767Z" stroke="#6C6CFF" stroke-miterlimit="10"/>
<path d="M500.703 40.6162C504.394 40.6162 507.387 37.8478 507.387 34.4327C507.387 31.0177 504.394 28.2493 500.703 28.2493C497.011 28.2493 494.019 31.0177 494.019 34.4327C494.019 37.8478 497.011 40.6162 500.703 40.6162Z" stroke="#6C6CFF" stroke-miterlimit="10"/>
<path d="M531.923 69.5102C535.615 69.5102 538.607 66.7418 538.607 63.3268C538.607 59.9117 535.615 57.1433 531.923 57.1433C528.231 57.1433 525.239 59.9117 525.239 63.3268C525.239 66.7418 528.231 69.5102 531.923 69.5102Z" stroke="#6C6CFF" stroke-miterlimit="10"/>
<path d="M565.112 106.194C568.804 106.194 571.796 103.425 571.796 100.01C571.796 96.5951 568.804 93.8267 565.112 93.8267C561.42 93.8267 558.428 96.5951 558.428 100.01C558.428 103.425 561.42 106.194 565.112 106.194Z" stroke="#6C6CFF" stroke-miterlimit="10"/>
<path d="M531.923 119.724C535.615 119.724 538.607 116.955 538.607 113.54C538.607 110.125 535.615 107.357 531.923 107.357C528.231 107.357 525.239 110.125 525.239 113.54C525.239 116.955 528.231 119.724 531.923 119.724Z" stroke="#6C6CFF" stroke-miterlimit="10"/>
<path d="M520.632 145.305C524.324 145.305 527.317 142.536 527.317 139.121C527.317 135.706 524.324 132.938 520.632 132.938C516.941 132.938 513.948 135.706 513.948 139.121C513.948 142.536 516.941 145.305 520.632 145.305Z" stroke="#6C6CFF" stroke-miterlimit="10"/>
<path d="M629.166 182.026H346.268V409.145H629.166V182.026Z" fill="#F2F2F2"/>
<path d="M365.815 193.622H608.676C612.189 193.622 615.558 194.913 618.042 197.211C620.526 199.509 621.921 202.625 621.921 205.875V262.235H352.638V205.875C352.638 202.636 354.024 199.529 356.493 197.233C358.963 194.937 362.314 193.639 365.815 193.622Z" fill="#FFCA42"/>
<path d="M435.976 232.151H426.587L424.478 238H421.431L429.989 215.59H432.574L441.147 238H438.115L435.976 232.151ZM427.48 229.719H435.099L431.282 219.238L427.48 229.719ZM459.663 215.59V230.828C459.653 232.941 458.986 234.67 457.663 236.014C456.349 237.359 454.564 238.113 452.306 238.277L451.521 238.308C449.069 238.308 447.114 237.646 445.657 236.322C444.2 234.999 443.461 233.177 443.441 230.858V215.59H446.365V230.766C446.365 232.387 446.812 233.649 447.704 234.552C448.597 235.445 449.869 235.891 451.521 235.891C453.194 235.891 454.471 235.445 455.354 234.552C456.247 233.66 456.693 232.403 456.693 230.781V215.59H459.663ZM480.873 235.06C480.114 236.148 479.052 236.964 477.687 237.507C476.332 238.041 474.752 238.308 472.946 238.308C471.12 238.308 469.499 237.882 468.083 237.03C466.667 236.168 465.569 234.947 464.789 233.367C464.019 231.787 463.624 229.955 463.604 227.872V225.918C463.604 222.542 464.389 219.925 465.959 218.068C467.539 216.211 469.755 215.282 472.608 215.282C474.947 215.282 476.83 215.882 478.256 217.083C479.683 218.273 480.555 219.966 480.873 222.162H477.918C477.364 219.197 475.599 217.714 472.623 217.714C470.643 217.714 469.139 218.412 468.113 219.807C467.098 221.192 466.584 223.204 466.574 225.841V227.672C466.574 230.186 467.149 232.187 468.298 233.675C469.447 235.153 471.002 235.891 472.962 235.891C474.07 235.891 475.04 235.768 475.871 235.522C476.702 235.276 477.389 234.86 477.933 234.275V229.242H472.746V226.841H480.873V235.06ZM501.59 215.59V230.828C501.58 232.941 500.913 234.67 499.589 236.014C498.276 237.359 496.49 238.113 494.233 238.277L493.448 238.308C490.995 238.308 489.041 237.646 487.584 236.322C486.127 234.999 485.388 233.177 485.367 230.858V215.59H488.292V230.766C488.292 232.387 488.738 233.649 489.631 234.552C490.523 235.445 491.796 235.891 493.448 235.891C495.12 235.891 496.398 235.445 497.28 234.552C498.173 233.66 498.619 232.403 498.619 230.781V215.59H501.59ZM512.856 228.011C510.322 227.282 508.475 226.39 507.316 225.333C506.166 224.266 505.592 222.952 505.592 221.393C505.592 219.628 506.295 218.171 507.7 217.021C509.116 215.862 510.953 215.282 513.21 215.282C514.75 215.282 516.119 215.58 517.32 216.175C518.531 216.77 519.465 217.591 520.121 218.637C520.788 219.684 521.122 220.828 521.122 222.07H518.151C518.151 220.715 517.72 219.653 516.858 218.884C515.996 218.104 514.78 217.714 513.21 217.714C511.753 217.714 510.614 218.037 509.794 218.684C508.983 219.32 508.578 220.207 508.578 221.346C508.578 222.26 508.962 223.034 509.732 223.671C510.512 224.296 511.83 224.871 513.688 225.394C515.555 225.918 517.012 226.497 518.059 227.134C519.116 227.76 519.896 228.493 520.398 229.335C520.911 230.176 521.168 231.166 521.168 232.305C521.168 234.121 520.46 235.578 519.044 236.676C517.628 237.764 515.735 238.308 513.364 238.308C511.825 238.308 510.389 238.015 509.055 237.431C507.721 236.835 506.69 236.025 505.961 234.999C505.243 233.973 504.884 232.808 504.884 231.505H507.854C507.854 232.859 508.352 233.932 509.347 234.722C510.353 235.501 511.692 235.891 513.364 235.891C514.924 235.891 516.119 235.573 516.951 234.937C517.782 234.301 518.197 233.434 518.197 232.336C518.197 231.238 517.813 230.391 517.043 229.796C516.273 229.191 514.878 228.596 512.856 228.011ZM540.453 218.022H533.25V238H530.31V218.022H523.123V215.59H540.453V218.022Z" fill="white"/>
<path d="M366.538 276.814H365.384V269.163L363.07 270.013V268.97L366.359 267.735H366.538V276.814Z" fill="black"/>
<path d="M403.625 276.814H397.704V275.989L400.832 272.514C401.295 271.988 401.614 271.562 401.788 271.235C401.966 270.904 402.055 270.563 402.055 270.211C402.055 269.74 401.912 269.353 401.626 269.051C401.341 268.749 400.96 268.598 400.485 268.598C399.914 268.598 399.469 268.761 399.15 269.088C398.836 269.411 398.679 269.862 398.679 270.441H397.531C397.531 269.609 397.798 268.937 398.331 268.424C398.869 267.911 399.587 267.655 400.485 267.655C401.324 267.655 401.988 267.876 402.477 268.319C402.965 268.757 403.209 269.342 403.209 270.075C403.209 270.964 402.642 272.023 401.508 273.252L399.088 275.877H403.625V276.814Z" fill="black"/>
<path d="M436.239 271.738H437.102C437.644 271.73 438.07 271.587 438.38 271.31C438.691 271.032 438.846 270.658 438.846 270.186C438.846 269.127 438.318 268.598 437.263 268.598C436.767 268.598 436.37 268.741 436.072 269.026C435.778 269.307 435.631 269.682 435.631 270.149H434.483C434.483 269.434 434.744 268.84 435.265 268.368C435.791 267.892 436.457 267.655 437.263 267.655C438.116 267.655 438.784 267.88 439.268 268.331C439.752 268.782 439.994 269.409 439.994 270.211C439.994 270.604 439.866 270.985 439.609 271.353C439.357 271.721 439.011 271.996 438.573 272.178C439.069 272.336 439.452 272.596 439.721 272.96C439.994 273.324 440.13 273.769 440.13 274.295C440.13 275.105 439.866 275.749 439.336 276.224C438.807 276.7 438.118 276.938 437.27 276.938C436.422 276.938 435.731 276.708 435.197 276.249C434.667 275.79 434.403 275.184 434.403 274.431H435.557C435.557 274.907 435.712 275.287 436.022 275.573C436.333 275.858 436.748 276.001 437.27 276.001C437.824 276.001 438.248 275.856 438.542 275.567C438.835 275.277 438.982 274.861 438.982 274.319C438.982 273.794 438.821 273.391 438.498 273.109C438.176 272.828 437.71 272.683 437.102 272.675H436.239V271.738Z" fill="black"/>
<path d="M481.08 273.779H482.333V274.716H481.08V276.814H479.926V274.716H475.811V274.04L479.857 267.779H481.08V273.779ZM477.114 273.779H479.926V269.349L479.789 269.597L477.114 273.779Z" fill="black"/>
<path d="M519.368 272.284L519.827 267.779H524.456V268.84H520.801L520.528 271.303C520.971 271.043 521.473 270.912 522.036 270.912C522.859 270.912 523.513 271.186 523.997 271.732C524.481 272.274 524.723 273.008 524.723 273.935C524.723 274.865 524.471 275.6 523.966 276.138C523.465 276.671 522.764 276.938 521.862 276.938C521.064 276.938 520.412 276.717 519.908 276.274C519.403 275.831 519.115 275.219 519.045 274.437H520.131C520.201 274.954 520.385 275.345 520.683 275.61C520.981 275.871 521.374 276.001 521.862 276.001C522.396 276.001 522.814 275.819 523.116 275.455C523.422 275.091 523.575 274.588 523.575 273.947C523.575 273.343 523.41 272.859 523.079 272.495C522.752 272.127 522.315 271.943 521.769 271.943C521.269 271.943 520.876 272.052 520.59 272.272L520.286 272.52L519.368 272.284Z" fill="black"/>
<path d="M564.996 267.772V268.747H564.785C563.891 268.763 563.18 269.028 562.65 269.541C562.121 270.054 561.814 270.776 561.732 271.707C562.207 271.161 562.857 270.888 563.68 270.888C564.466 270.888 565.093 271.165 565.561 271.719C566.032 272.274 566.268 272.989 566.268 273.866C566.268 274.797 566.014 275.542 565.505 276.1C565 276.659 564.322 276.938 563.469 276.938C562.605 276.938 561.903 276.607 561.366 275.945C560.828 275.279 560.559 274.423 560.559 273.376V272.936C560.559 271.272 560.913 270.002 561.62 269.125C562.332 268.244 563.389 267.793 564.791 267.772H564.996ZM563.488 271.843C563.095 271.843 562.733 271.961 562.402 272.197C562.071 272.433 561.841 272.729 561.713 273.084V273.506C561.713 274.251 561.881 274.851 562.216 275.306C562.551 275.761 562.969 275.989 563.469 275.989C563.986 275.989 564.392 275.798 564.686 275.418C564.983 275.037 565.132 274.539 565.132 273.922C565.132 273.302 564.981 272.801 564.679 272.42C564.381 272.036 563.984 271.843 563.488 271.843Z" fill="black"/>
<path d="M609.888 268.424L606.146 276.814H604.942L608.672 268.722H603.782V267.779H609.888V268.424Z" fill="black"/>
<path d="M368.245 300.093C368.245 300.544 368.125 300.946 367.885 301.297C367.649 301.649 367.329 301.924 366.923 302.123C367.395 302.325 367.767 302.621 368.04 303.01C368.317 303.399 368.456 303.839 368.456 304.332C368.456 305.114 368.191 305.736 367.662 306.2C367.136 306.663 366.443 306.895 365.583 306.895C364.714 306.895 364.017 306.663 363.492 306.2C362.97 305.732 362.71 305.109 362.71 304.332C362.71 303.844 362.842 303.403 363.107 303.01C363.376 302.617 363.746 302.319 364.218 302.116C363.816 301.918 363.5 301.643 363.268 301.291C363.036 300.939 362.921 300.54 362.921 300.093C362.921 299.332 363.165 298.728 363.653 298.281C364.141 297.835 364.784 297.611 365.583 297.611C366.377 297.611 367.018 297.835 367.507 298.281C367.999 298.728 368.245 299.332 368.245 300.093ZM367.308 304.307C367.308 303.802 367.147 303.391 366.824 303.072C366.505 302.753 366.088 302.594 365.57 302.594C365.053 302.594 364.638 302.751 364.323 303.066C364.013 303.38 363.858 303.794 363.858 304.307C363.858 304.82 364.009 305.223 364.311 305.517C364.617 305.811 365.041 305.958 365.583 305.958C366.121 305.958 366.543 305.811 366.849 305.517C367.155 305.219 367.308 304.816 367.308 304.307ZM365.583 298.554C365.132 298.554 364.766 298.695 364.484 298.976C364.207 299.254 364.069 299.632 364.069 300.112C364.069 300.571 364.205 300.944 364.478 301.229C364.755 301.51 365.124 301.651 365.583 301.651C366.042 301.651 366.408 301.51 366.681 301.229C366.958 300.944 367.097 300.571 367.097 300.112C367.097 299.653 366.954 299.278 366.669 298.989C366.383 298.699 366.021 298.554 365.583 298.554Z" fill="black"/>
<path d="M402.104 302.811C401.864 303.097 401.577 303.326 401.242 303.5C400.911 303.674 400.547 303.761 400.149 303.761C399.628 303.761 399.173 303.633 398.784 303.376C398.4 303.12 398.102 302.76 397.891 302.296C397.68 301.829 397.574 301.314 397.574 300.751C397.574 300.147 397.688 299.603 397.915 299.119C398.147 298.635 398.474 298.265 398.896 298.008C399.318 297.752 399.81 297.624 400.373 297.624C401.266 297.624 401.97 297.959 402.483 298.629C403 299.295 403.258 300.205 403.258 301.359V301.694C403.258 303.453 402.911 304.737 402.216 305.548C401.521 306.355 400.472 306.768 399.07 306.789H398.846V305.821H399.088C400.036 305.805 400.764 305.558 401.273 305.083C401.782 304.603 402.059 303.846 402.104 302.811ZM400.336 302.811C400.72 302.811 401.074 302.694 401.397 302.458C401.724 302.222 401.961 301.93 402.11 301.583V301.124C402.11 300.371 401.947 299.758 401.62 299.287C401.293 298.815 400.88 298.579 400.379 298.579C399.874 298.579 399.469 298.774 399.163 299.163C398.857 299.547 398.704 300.056 398.704 300.689C398.704 301.306 398.85 301.814 399.144 302.216C399.442 302.613 399.839 302.811 400.336 302.811Z" fill="black"/>
<path d="M438.343 306.771H437.189V299.119L434.874 299.969V298.927L438.163 297.692H438.343V306.771ZM447.372 302.917C447.372 304.261 447.143 305.26 446.683 305.914C446.224 306.568 445.506 306.895 444.53 306.895C443.566 306.895 442.853 306.576 442.389 305.939C441.926 305.298 441.686 304.342 441.669 303.072V301.539C441.669 300.211 441.899 299.225 442.358 298.579C442.817 297.934 443.537 297.611 444.518 297.611C445.49 297.611 446.206 297.923 446.665 298.548C447.124 299.169 447.36 300.129 447.372 301.428V302.917ZM446.224 301.347C446.224 300.375 446.088 299.667 445.815 299.225C445.542 298.778 445.109 298.554 444.518 298.554C443.93 298.554 443.502 298.776 443.233 299.218C442.964 299.661 442.826 300.342 442.817 301.26V303.097C442.817 304.073 442.958 304.795 443.239 305.263C443.525 305.726 443.955 305.958 444.53 305.958C445.097 305.958 445.517 305.738 445.79 305.3C446.067 304.861 446.212 304.17 446.224 303.227V301.347Z" fill="black"/>
<path d="M480.006 306.771H478.852V299.119L476.537 299.969V298.927L479.826 297.692H480.006V306.771ZM487.143 306.771H485.988V299.119L483.674 299.969V298.927L486.963 297.692H487.143V306.771Z" fill="black"/>
<path d="M522.613 306.783H521.459V299.132L519.144 299.982V298.939L522.433 297.704H522.613V306.783ZM531.897 306.783H525.977V305.958L529.104 302.483C529.568 301.957 529.886 301.531 530.06 301.204C530.238 300.873 530.327 300.532 530.327 300.18C530.327 299.709 530.184 299.322 529.899 299.02C529.613 298.718 529.232 298.567 528.757 298.567C528.186 298.567 527.741 298.73 527.422 299.057C527.108 299.38 526.951 299.831 526.951 300.41H525.803C525.803 299.578 526.07 298.906 526.603 298.393C527.141 297.88 527.859 297.624 528.757 297.624C529.597 297.624 530.26 297.845 530.749 298.288C531.237 298.726 531.481 299.311 531.481 300.044C531.481 300.933 530.914 301.992 529.781 303.221L527.36 305.846H531.897V306.783Z" fill="black"/>
<path d="M561.871 306.783H560.717V299.132L558.403 299.982V298.939L561.692 297.704H561.871V306.783ZM566.904 301.707H567.767C568.309 301.699 568.735 301.556 569.045 301.279C569.355 301.001 569.511 300.627 569.511 300.155C569.511 299.096 568.983 298.567 567.928 298.567C567.432 298.567 567.035 298.71 566.737 298.995C566.443 299.276 566.296 299.651 566.296 300.118H565.148C565.148 299.402 565.409 298.809 565.93 298.337C566.455 297.861 567.121 297.624 567.928 297.624C568.78 297.624 569.448 297.849 569.932 298.3C570.417 298.751 570.659 299.378 570.659 300.18C570.659 300.573 570.53 300.954 570.274 301.322C570.021 301.69 569.676 301.965 569.237 302.147C569.734 302.305 570.117 302.565 570.386 302.929C570.659 303.293 570.795 303.738 570.795 304.264C570.795 305.074 570.53 305.718 570.001 306.193C569.471 306.669 568.782 306.907 567.934 306.907C567.086 306.907 566.395 306.677 565.862 306.218C565.332 305.759 565.067 305.153 565.067 304.4H566.222C566.222 304.876 566.377 305.256 566.687 305.542C566.997 305.827 567.413 305.97 567.934 305.97C568.489 305.97 568.913 305.825 569.206 305.536C569.5 305.246 569.647 304.83 569.647 304.288C569.647 303.763 569.486 303.36 569.163 303.078C568.84 302.797 568.375 302.652 567.767 302.644H566.904V301.707Z" fill="black"/>
<path d="M597.302 306.783H596.148V299.132L593.833 299.982V298.939L597.122 297.704H597.302V306.783ZM605.512 303.748H606.766V304.685H605.512V306.783H604.358V304.685H600.244V304.009L604.29 297.748H605.512V303.748ZM601.547 303.748H604.358V299.318L604.221 299.566L601.547 303.748Z" fill="black"/>
<path d="M360.784 335.766H359.63V328.114L357.315 328.964V327.922L360.604 326.687H360.784V335.766ZM364.675 331.236L365.134 326.73H369.764V327.792H366.108L365.835 330.255C366.278 329.994 366.781 329.864 367.343 329.864C368.167 329.864 368.82 330.137 369.304 330.683C369.788 331.225 370.03 331.96 370.03 332.886C370.03 333.817 369.778 334.551 369.273 335.089C368.773 335.623 368.071 335.89 367.17 335.89C366.371 335.89 365.72 335.668 365.215 335.226C364.71 334.783 364.423 334.171 364.352 333.389H365.438C365.509 333.906 365.693 334.297 365.991 334.562C366.288 334.822 366.681 334.953 367.17 334.953C367.703 334.953 368.121 334.771 368.423 334.407C368.729 334.043 368.882 333.54 368.882 332.899C368.882 332.295 368.717 331.811 368.386 331.447C368.059 331.078 367.623 330.894 367.077 330.894C366.576 330.894 366.183 331.004 365.897 331.223L365.593 331.471L364.675 331.236Z" fill="black"/>
<path d="M401.477 335.766H400.323V328.114L398.009 328.964V327.922L401.297 326.687H401.477V335.766ZM409.346 326.724V327.698H409.135C408.241 327.715 407.53 327.98 407 328.493C406.471 329.006 406.165 329.728 406.082 330.658C406.558 330.112 407.207 329.839 408.031 329.839C408.817 329.839 409.443 330.117 409.911 330.671C410.382 331.225 410.618 331.941 410.618 332.818C410.618 333.749 410.364 334.493 409.855 335.052C409.35 335.61 408.672 335.89 407.82 335.89C406.955 335.89 406.254 335.559 405.716 334.897C405.178 334.231 404.909 333.374 404.909 332.328V331.887C404.909 330.224 405.263 328.954 405.97 328.077C406.682 327.196 407.739 326.745 409.141 326.724H409.346ZM407.838 330.795C407.445 330.795 407.083 330.913 406.752 331.149C406.421 331.385 406.192 331.68 406.063 332.036V332.458C406.063 333.203 406.231 333.803 406.566 334.258C406.901 334.713 407.319 334.94 407.82 334.94C408.337 334.94 408.742 334.75 409.036 334.369C409.334 333.989 409.483 333.49 409.483 332.874C409.483 332.253 409.332 331.753 409.03 331.372C408.732 330.987 408.335 330.795 407.838 330.795Z" fill="black"/>
<path d="M438.343 335.766H437.189V328.114L434.874 328.964V327.922L438.163 326.687H438.343V335.766ZM447.54 327.376L443.798 335.766H442.594L446.324 327.674H441.434V326.73H447.54V327.376Z" fill="black"/>
<path d="M480.006 335.766H478.852V328.114L476.537 328.964V327.922L479.826 326.687H480.006V335.766ZM488.849 329.088C488.849 329.539 488.729 329.941 488.489 330.292C488.253 330.644 487.933 330.919 487.527 331.118C487.999 331.32 488.371 331.616 488.644 332.005C488.922 332.394 489.06 332.835 489.06 333.327C489.06 334.109 488.795 334.731 488.266 335.195C487.74 335.658 487.047 335.89 486.187 335.89C485.318 335.89 484.621 335.658 484.096 335.195C483.574 334.727 483.314 334.105 483.314 333.327C483.314 332.839 483.446 332.398 483.711 332.005C483.98 331.612 484.35 331.314 484.822 331.111C484.42 330.913 484.104 330.638 483.872 330.286C483.641 329.934 483.525 329.535 483.525 329.088C483.525 328.327 483.769 327.723 484.257 327.276C484.745 326.83 485.389 326.606 486.187 326.606C486.981 326.606 487.623 326.83 488.111 327.276C488.603 327.723 488.849 328.327 488.849 329.088ZM487.912 333.302C487.912 332.797 487.751 332.386 487.428 332.067C487.11 331.749 486.692 331.589 486.175 331.589C485.657 331.589 485.242 331.747 484.927 332.061C484.617 332.375 484.462 332.789 484.462 333.302C484.462 333.815 484.613 334.218 484.915 334.512C485.221 334.806 485.645 334.953 486.187 334.953C486.725 334.953 487.147 334.806 487.453 334.512C487.759 334.214 487.912 333.811 487.912 333.302ZM486.187 327.549C485.736 327.549 485.37 327.69 485.089 327.971C484.811 328.249 484.673 328.627 484.673 329.107C484.673 329.566 484.809 329.939 485.082 330.224C485.36 330.505 485.728 330.646 486.187 330.646C486.646 330.646 487.012 330.505 487.285 330.224C487.563 329.939 487.701 329.566 487.701 329.107C487.701 328.648 487.558 328.273 487.273 327.984C486.987 327.694 486.626 327.549 486.187 327.549Z" fill="black"/>
<path d="M522.613 335.766H521.459V328.114L519.144 328.964V327.922L522.433 326.687H522.613V335.766ZM530.376 331.794C530.136 332.08 529.849 332.309 529.514 332.483C529.183 332.657 528.819 332.744 528.422 332.744C527.9 332.744 527.445 332.615 527.056 332.359C526.672 332.102 526.374 331.742 526.163 331.279C525.952 330.812 525.846 330.296 525.846 329.734C525.846 329.13 525.96 328.586 526.188 328.102C526.419 327.618 526.746 327.247 527.168 326.991C527.59 326.734 528.082 326.606 528.645 326.606C529.539 326.606 530.242 326.941 530.755 327.612C531.272 328.278 531.531 329.188 531.531 330.342V330.677C531.531 332.435 531.183 333.72 530.488 334.531C529.793 335.337 528.744 335.751 527.342 335.772H527.118V334.804H527.36C528.308 334.787 529.036 334.541 529.545 334.065C530.054 333.585 530.331 332.828 530.376 331.794ZM528.608 331.794C528.992 331.794 529.346 331.676 529.669 331.44C529.996 331.205 530.234 330.913 530.383 330.565V330.106C530.383 329.353 530.219 328.741 529.892 328.269C529.565 327.798 529.152 327.562 528.651 327.562C528.146 327.562 527.741 327.756 527.435 328.145C527.129 328.53 526.976 329.039 526.976 329.672C526.976 330.288 527.123 330.797 527.416 331.198C527.714 331.595 528.111 331.794 528.608 331.794Z" fill="black"/>
<path d="M566.889 335.766H560.969V334.94L564.097 331.465C564.56 330.94 564.879 330.514 565.052 330.187C565.23 329.856 565.319 329.515 565.319 329.163C565.319 328.691 565.176 328.304 564.891 328.002C564.606 327.7 564.225 327.549 563.749 327.549C563.178 327.549 562.734 327.713 562.415 328.04C562.101 328.362 561.943 328.813 561.943 329.393H560.795C560.795 328.561 561.062 327.889 561.596 327.376C562.134 326.863 562.851 326.606 563.749 326.606C564.589 326.606 565.253 326.828 565.741 327.27C566.229 327.709 566.473 328.294 566.473 329.026C566.473 329.916 565.907 330.975 564.773 332.204L562.353 334.829H566.889V335.766ZM573.771 331.912C573.771 333.257 573.542 334.256 573.082 334.909C572.623 335.563 571.905 335.89 570.929 335.89C569.965 335.89 569.251 335.571 568.788 334.934C568.325 334.293 568.085 333.337 568.068 332.067V330.534C568.068 329.206 568.298 328.22 568.757 327.574C569.216 326.929 569.936 326.606 570.917 326.606C571.889 326.606 572.605 326.919 573.064 327.543C573.523 328.164 573.759 329.124 573.771 330.423V331.912ZM572.623 330.342C572.623 329.37 572.487 328.662 572.214 328.22C571.941 327.773 571.508 327.549 570.917 327.549C570.329 327.549 569.901 327.771 569.632 328.213C569.363 328.656 569.225 329.337 569.216 330.255V332.092C569.216 333.068 569.357 333.79 569.638 334.258C569.924 334.721 570.354 334.953 570.929 334.953C571.496 334.953 571.916 334.733 572.189 334.295C572.466 333.856 572.611 333.166 572.623 332.222V330.342Z" fill="black"/>
<path d="M599.449 335.766H593.529V334.94L596.657 331.465C597.12 330.94 597.439 330.514 597.612 330.187C597.79 329.856 597.879 329.515 597.879 329.163C597.879 328.691 597.737 328.304 597.451 328.002C597.166 327.7 596.785 327.549 596.309 327.549C595.738 327.549 595.294 327.713 594.975 328.04C594.661 328.362 594.503 328.813 594.503 329.393H593.355C593.355 328.561 593.622 327.889 594.156 327.376C594.694 326.863 595.412 326.606 596.309 326.606C597.149 326.606 597.813 326.828 598.301 327.27C598.789 327.709 599.034 328.294 599.034 329.026C599.034 329.916 598.467 330.975 597.333 332.204L594.913 334.829H599.449V335.766ZM604.439 335.766H603.284V328.114L600.97 328.964V327.922L604.259 326.687H604.439V335.766Z" fill="black"/>
<path d="M362.931 361.865H357.011V361.04L360.139 357.565C360.602 357.039 360.921 356.613 361.094 356.286C361.272 355.955 361.361 355.614 361.361 355.262C361.361 354.791 361.218 354.404 360.933 354.102C360.648 353.8 360.267 353.649 359.791 353.649C359.22 353.649 358.776 353.812 358.457 354.139C358.143 354.462 357.985 354.913 357.985 355.492H356.837C356.837 354.66 357.104 353.988 357.638 353.475C358.176 352.962 358.893 352.706 359.791 352.706C360.631 352.706 361.295 352.927 361.783 353.37C362.271 353.808 362.515 354.394 362.515 355.126C362.515 356.015 361.949 357.074 360.815 358.303L358.395 360.928H362.931V361.865ZM370.068 361.865H364.147V361.04L367.275 357.565C367.738 357.039 368.057 356.613 368.231 356.286C368.409 355.955 368.498 355.614 368.498 355.262C368.498 354.791 368.355 354.404 368.069 354.102C367.784 353.8 367.403 353.649 366.928 353.649C366.357 353.649 365.912 353.812 365.593 354.139C365.279 354.462 365.122 354.913 365.122 355.492H363.974C363.974 354.66 364.241 353.988 364.774 353.475C365.312 352.962 366.03 352.706 366.928 352.706C367.767 352.706 368.431 352.927 368.92 353.37C369.408 353.808 369.652 354.394 369.652 355.126C369.652 356.015 369.085 357.074 367.951 358.303L365.531 360.928H370.068V361.865Z" fill="black"/>
<path d="M403.625 361.865H397.704V361.04L400.832 357.565C401.295 357.039 401.614 356.613 401.788 356.286C401.966 355.955 402.055 355.614 402.055 355.262C402.055 354.791 401.912 354.404 401.626 354.102C401.341 353.8 400.96 353.649 400.485 353.649C399.914 353.649 399.469 353.812 399.15 354.139C398.836 354.462 398.679 354.913 398.679 355.492H397.531C397.531 354.66 397.798 353.988 398.331 353.475C398.869 352.962 399.587 352.706 400.485 352.706C401.324 352.706 401.988 352.927 402.477 353.37C402.965 353.808 403.209 354.394 403.209 355.126C403.209 356.015 402.642 357.074 401.508 358.303L399.088 360.928H403.625V361.865ZM406.51 356.789H407.373C407.915 356.781 408.341 356.638 408.651 356.361C408.961 356.083 409.116 355.709 409.116 355.237C409.116 354.178 408.589 353.649 407.534 353.649C407.038 353.649 406.64 353.792 406.343 354.077C406.049 354.358 405.902 354.733 405.902 355.2H404.754C404.754 354.485 405.015 353.891 405.536 353.419C406.061 352.943 406.727 352.706 407.534 352.706C408.386 352.706 409.054 352.931 409.538 353.382C410.022 353.833 410.265 354.46 410.265 355.262C410.265 355.655 410.136 356.036 409.88 356.404C409.627 356.772 409.282 357.047 408.843 357.229C409.34 357.387 409.723 357.647 409.991 358.011C410.265 358.375 410.401 358.82 410.401 359.346C410.401 360.156 410.136 360.8 409.607 361.275C409.077 361.751 408.388 361.989 407.54 361.989C406.692 361.989 406.001 361.759 405.468 361.3C404.938 360.841 404.673 360.235 404.673 359.482H405.828C405.828 359.958 405.983 360.338 406.293 360.624C406.603 360.909 407.019 361.052 407.54 361.052C408.095 361.052 408.519 360.907 408.812 360.618C409.106 360.328 409.253 359.912 409.253 359.37C409.253 358.845 409.092 358.442 408.769 358.16C408.446 357.879 407.981 357.734 407.373 357.726H406.51V356.789Z" fill="black"/>
<path d="M440.49 361.865H434.57V361.04L437.698 357.565C438.161 357.039 438.48 356.613 438.653 356.286C438.831 355.955 438.92 355.614 438.92 355.262C438.92 354.791 438.778 354.404 438.492 354.102C438.207 353.8 437.826 353.649 437.35 353.649C436.779 353.649 436.335 353.812 436.016 354.139C435.702 354.462 435.544 354.913 435.544 355.492H434.396C434.396 354.66 434.663 353.988 435.197 353.475C435.735 352.962 436.453 352.706 437.35 352.706C438.19 352.706 438.854 352.927 439.342 353.37C439.83 353.808 440.075 354.394 440.075 355.126C440.075 356.015 439.508 357.074 438.374 358.303L435.954 360.928H440.49V361.865ZM446.553 358.83H447.807V359.768H446.553V361.865H445.399V359.768H441.285V359.091L445.331 352.83H446.553V358.83ZM442.588 358.83H445.399V354.4L445.262 354.648L442.588 358.83Z" fill="black"/>
<path d="M482.153 361.865H476.233V361.04L479.361 357.565C479.824 357.039 480.143 356.613 480.317 356.286C480.494 355.955 480.583 355.614 480.583 355.262C480.583 354.791 480.441 354.404 480.155 354.102C479.87 353.8 479.489 353.649 479.013 353.649C478.442 353.649 477.998 353.812 477.679 354.139C477.365 354.462 477.208 354.913 477.208 355.492H476.06C476.06 354.66 476.326 353.988 476.86 353.475C477.398 352.962 478.116 352.706 479.013 352.706C479.853 352.706 480.517 352.927 481.005 353.37C481.494 353.808 481.738 354.394 481.738 355.126C481.738 356.015 481.171 357.074 480.037 358.303L477.617 360.928H482.153V361.865ZM483.897 357.335L484.356 352.83H488.986V353.891H485.331L485.058 356.354C485.5 356.094 486.003 355.964 486.566 355.964C487.389 355.964 488.042 356.237 488.526 356.783C489.011 357.325 489.253 358.059 489.253 358.986C489.253 359.916 489 360.651 488.495 361.189C487.995 361.722 487.294 361.989 486.392 361.989C485.593 361.989 484.942 361.768 484.437 361.325C483.932 360.882 483.645 360.27 483.574 359.488H484.66C484.731 360.005 484.915 360.396 485.213 360.661C485.511 360.922 485.904 361.052 486.392 361.052C486.925 361.052 487.343 360.87 487.645 360.506C487.951 360.142 488.104 359.639 488.104 358.998C488.104 358.394 487.939 357.91 487.608 357.546C487.281 357.178 486.845 356.994 486.299 356.994C485.798 356.994 485.405 357.103 485.12 357.323L484.816 357.571L483.897 357.335Z" fill="black"/>
<path d="M524.76 361.865H518.84V361.04L521.968 357.565C522.431 357.039 522.75 356.613 522.923 356.286C523.101 355.955 523.19 355.614 523.19 355.262C523.19 354.791 523.048 354.404 522.762 354.102C522.477 353.8 522.096 353.649 521.62 353.649C521.049 353.649 520.605 353.812 520.286 354.139C519.972 354.462 519.814 354.913 519.814 355.492H518.666C518.666 354.66 518.933 353.988 519.467 353.475C520.005 352.962 520.723 352.706 521.62 352.706C522.46 352.706 523.124 352.927 523.612 353.37C524.1 353.808 524.345 354.394 524.345 355.126C524.345 356.015 523.778 357.074 522.644 358.303L520.224 360.928H524.76V361.865ZM530.482 352.824V353.798H530.271C529.377 353.814 528.666 354.079 528.136 354.592C527.607 355.105 527.3 355.827 527.218 356.758C527.693 356.212 528.343 355.939 529.166 355.939C529.952 355.939 530.579 356.216 531.047 356.77C531.518 357.325 531.754 358.04 531.754 358.917C531.754 359.848 531.5 360.593 530.991 361.151C530.486 361.71 529.807 361.989 528.955 361.989C528.091 361.989 527.389 361.658 526.852 360.996C526.314 360.33 526.045 359.474 526.045 358.427V357.987C526.045 356.323 526.399 355.053 527.106 354.176C527.818 353.295 528.875 352.844 530.277 352.824H530.482ZM528.974 356.894C528.581 356.894 528.219 357.012 527.888 357.248C527.557 357.484 527.327 357.78 527.199 358.135V358.557C527.199 359.302 527.367 359.902 527.702 360.357C528.037 360.812 528.455 361.04 528.955 361.04C529.472 361.04 529.878 360.849 530.172 360.469C530.469 360.088 530.618 359.59 530.618 358.973C530.618 358.353 530.467 357.852 530.165 357.471C529.867 357.087 529.47 356.894 528.974 356.894Z" fill="black"/>
<path d="M566.411 361.865H560.491V361.04L563.618 357.565C564.082 357.039 564.4 356.613 564.574 356.286C564.752 355.955 564.841 355.614 564.841 355.262C564.841 354.791 564.698 354.404 564.413 354.102C564.127 353.8 563.746 353.649 563.271 353.649C562.7 353.649 562.255 353.812 561.937 354.139C561.622 354.462 561.465 354.913 561.465 355.492H560.317C560.317 354.66 560.584 353.988 561.117 353.475C561.655 352.962 562.373 352.706 563.271 352.706C564.111 352.706 564.775 352.927 565.263 353.37C565.751 353.808 565.995 354.394 565.995 355.126C565.995 356.015 565.428 357.074 564.295 358.303L561.874 360.928H566.411V361.865ZM573.46 353.475L569.718 361.865H568.514L572.244 353.773H567.354V352.83H573.46V353.475Z" fill="black"/>
<path d="M599.449 361.865H593.529V361.04L596.657 357.565C597.12 357.039 597.439 356.613 597.612 356.286C597.79 355.955 597.879 355.614 597.879 355.262C597.879 354.791 597.737 354.404 597.451 354.102C597.166 353.8 596.785 353.649 596.309 353.649C595.738 353.649 595.294 353.812 594.975 354.139C594.661 354.462 594.503 354.913 594.503 355.492H593.355C593.355 354.66 593.622 353.988 594.156 353.475C594.694 352.962 595.412 352.706 596.309 352.706C597.149 352.706 597.813 352.927 598.301 353.37C598.789 353.808 599.034 354.394 599.034 355.126C599.034 356.015 598.467 357.074 597.333 358.303L594.913 360.928H599.449V361.865ZM606.145 355.188C606.145 355.639 606.025 356.04 605.785 356.392C605.549 356.743 605.229 357.018 604.823 357.217C605.295 357.42 605.667 357.716 605.94 358.104C606.217 358.493 606.356 358.934 606.356 359.426C606.356 360.208 606.091 360.831 605.562 361.294C605.036 361.757 604.343 361.989 603.483 361.989C602.614 361.989 601.917 361.757 601.392 361.294C600.87 360.827 600.61 360.204 600.61 359.426C600.61 358.938 600.742 358.497 601.007 358.104C601.276 357.711 601.646 357.414 602.118 357.211C601.716 357.012 601.4 356.737 601.168 356.385C600.937 356.034 600.821 355.635 600.821 355.188C600.821 354.427 601.065 353.823 601.553 353.376C602.041 352.929 602.684 352.706 603.483 352.706C604.277 352.706 604.918 352.929 605.407 353.376C605.899 353.823 606.145 354.427 606.145 355.188ZM605.208 359.401C605.208 358.897 605.047 358.485 604.724 358.166C604.405 357.848 603.988 357.689 603.47 357.689C602.953 357.689 602.538 357.846 602.223 358.16C601.913 358.475 601.758 358.888 601.758 359.401C601.758 359.914 601.909 360.318 602.211 360.611C602.517 360.905 602.941 361.052 603.483 361.052C604.021 361.052 604.443 360.905 604.749 360.611C605.055 360.314 605.208 359.91 605.208 359.401ZM603.483 353.649C603.032 353.649 602.666 353.79 602.385 354.071C602.107 354.348 601.969 354.727 601.969 355.206C601.969 355.666 602.105 356.038 602.378 356.323C602.655 356.605 603.024 356.745 603.483 356.745C603.942 356.745 604.308 356.605 604.581 356.323C604.858 356.038 604.997 355.666 604.997 355.206C604.997 354.747 604.854 354.373 604.569 354.083C604.283 353.794 603.921 353.649 603.483 353.649Z" fill="black"/>
<path d="M362.931 386.991H357.011V386.166L360.139 382.691C360.602 382.165 360.921 381.739 361.094 381.412C361.272 381.081 361.361 380.74 361.361 380.388C361.361 379.917 361.218 379.53 360.933 379.228C360.648 378.926 360.267 378.775 359.791 378.775C359.22 378.775 358.776 378.938 358.457 379.265C358.143 379.588 357.985 380.039 357.985 380.618H356.837C356.837 379.786 357.104 379.114 357.638 378.601C358.176 378.088 358.893 377.832 359.791 377.832C360.631 377.832 361.295 378.053 361.783 378.496C362.271 378.934 362.515 379.519 362.515 380.252C362.515 381.141 361.949 382.2 360.815 383.429L358.395 386.054H362.931V386.991ZM368.547 383.019C368.307 383.305 368.02 383.534 367.685 383.708C367.354 383.882 366.99 383.969 366.592 383.969C366.071 383.969 365.616 383.841 365.227 383.584C364.843 383.328 364.545 382.968 364.334 382.504C364.123 382.037 364.017 381.522 364.017 380.959C364.017 380.355 364.131 379.811 364.358 379.327C364.59 378.843 364.917 378.473 365.339 378.216C365.761 377.96 366.253 377.832 366.816 377.832C367.709 377.832 368.413 378.167 368.926 378.837C369.443 379.503 369.701 380.413 369.701 381.567V381.902C369.701 383.661 369.354 384.945 368.659 385.756C367.964 386.563 366.915 386.976 365.513 386.997H365.289V386.029H365.531C366.479 386.013 367.207 385.766 367.716 385.291C368.225 384.811 368.502 384.054 368.547 383.019ZM366.779 383.019C367.163 383.019 367.517 382.902 367.84 382.666C368.167 382.43 368.405 382.138 368.553 381.791V381.332C368.553 380.579 368.39 379.966 368.063 379.495C367.736 379.023 367.323 378.787 366.822 378.787C366.317 378.787 365.912 378.982 365.606 379.371C365.3 379.755 365.147 380.264 365.147 380.897C365.147 381.514 365.293 382.022 365.587 382.424C365.885 382.821 366.282 383.019 366.779 383.019Z" fill="black"/>
<path d="M399.374 381.915H400.236C400.778 381.907 401.204 381.764 401.515 381.487C401.825 381.209 401.98 380.835 401.98 380.363C401.98 379.304 401.453 378.775 400.398 378.775C399.901 378.775 399.504 378.918 399.206 379.203C398.912 379.484 398.766 379.859 398.766 380.326H397.618C397.618 379.611 397.878 379.017 398.4 378.545C398.925 378.069 399.591 377.832 400.398 377.832C401.25 377.832 401.918 378.057 402.402 378.508C402.886 378.959 403.128 379.586 403.128 380.388C403.128 380.781 403 381.162 402.743 381.53C402.491 381.898 402.146 382.173 401.707 382.355C402.204 382.513 402.586 382.773 402.855 383.137C403.128 383.501 403.265 383.946 403.265 384.472C403.265 385.282 403 385.926 402.47 386.401C401.941 386.877 401.252 387.115 400.404 387.115C399.556 387.115 398.865 386.885 398.331 386.426C397.802 385.967 397.537 385.361 397.537 384.608H398.691C398.691 385.084 398.846 385.464 399.157 385.75C399.467 386.035 399.883 386.178 400.404 386.178C400.958 386.178 401.382 386.033 401.676 385.744C401.97 385.454 402.117 385.038 402.117 384.496C402.117 383.971 401.955 383.568 401.633 383.286C401.31 383.005 400.844 382.86 400.236 382.852H399.374V381.915ZM410.507 383.137C410.507 384.482 410.277 385.481 409.818 386.135C409.358 386.788 408.641 387.115 407.664 387.115C406.7 387.115 405.987 386.797 405.523 386.159C405.06 385.518 404.82 384.563 404.804 383.292V381.76C404.804 380.432 405.033 379.445 405.492 378.8C405.952 378.154 406.671 377.832 407.652 377.832C408.624 377.832 409.34 378.144 409.799 378.769C410.258 379.389 410.494 380.349 410.507 381.648V383.137ZM409.358 381.567C409.358 380.595 409.222 379.888 408.949 379.445C408.676 378.998 408.244 378.775 407.652 378.775C407.065 378.775 406.636 378.996 406.367 379.439C406.099 379.881 405.96 380.562 405.952 381.48V383.317C405.952 384.294 406.092 385.016 406.374 385.483C406.659 385.946 407.089 386.178 407.664 386.178C408.231 386.178 408.651 385.959 408.924 385.52C409.201 385.082 409.346 384.391 409.358 383.448V381.567Z" fill="black"/>
<path d="M436.239 381.915H437.102C437.644 381.907 438.07 381.764 438.38 381.487C438.691 381.209 438.846 380.835 438.846 380.363C438.846 379.304 438.318 378.775 437.263 378.775C436.767 378.775 436.37 378.918 436.072 379.203C435.778 379.484 435.631 379.859 435.631 380.326H434.483C434.483 379.611 434.744 379.017 435.265 378.545C435.791 378.069 436.457 377.832 437.263 377.832C438.116 377.832 438.784 378.057 439.268 378.508C439.752 378.959 439.994 379.586 439.994 380.388C439.994 380.781 439.866 381.162 439.609 381.53C439.357 381.898 439.011 382.173 438.573 382.355C439.069 382.513 439.452 382.773 439.721 383.137C439.994 383.501 440.13 383.946 440.13 384.472C440.13 385.282 439.866 385.926 439.336 386.401C438.807 386.877 438.118 387.115 437.27 387.115C436.422 387.115 435.731 386.885 435.197 386.426C434.667 385.967 434.403 385.361 434.403 384.608H435.557C435.557 385.084 435.712 385.464 436.022 385.75C436.333 386.035 436.748 386.178 437.27 386.178C437.824 386.178 438.248 386.033 438.542 385.744C438.835 385.454 438.982 385.038 438.982 384.496C438.982 383.971 438.821 383.568 438.498 383.286C438.176 383.005 437.71 382.86 437.102 382.852H436.239V381.915ZM445.48 386.991H444.325V379.34L442.011 380.19V379.147L445.3 377.912H445.48V386.991Z" fill="black"/>
<path d="M610.248 169.091H509.232C507.534 169.091 506.157 170.362 506.157 171.929C506.157 173.497 507.534 174.768 509.232 174.768H610.248C611.946 174.768 613.323 173.497 613.323 171.929C613.323 170.362 611.946 169.091 610.248 169.091Z" fill="#E6E6E6"/>
<path d="M455.717 169.091H354.702C353.003 169.091 351.626 170.362 351.626 171.929C351.626 173.497 353.003 174.768 354.702 174.768H455.717C457.416 174.768 458.793 173.497 458.793 171.929C458.793 170.362 457.416 169.091 455.717 169.091Z" fill="#E6E6E6"/>
<path d="M375.328 167.851C375.328 165.924 373.639 164.361 371.555 164.361C369.472 164.361 367.783 165.924 367.783 167.851V187.995C367.783 189.923 369.472 191.485 371.555 191.485C373.639 191.485 375.328 189.923 375.328 187.995V167.851Z" fill="#CCCCCC"/>
<path d="M421.216 167.851C421.216 165.924 419.527 164.361 417.444 164.361C415.36 164.361 413.671 165.924 413.671 167.851V187.995C413.671 189.923 415.36 191.485 417.444 191.485C419.527 191.485 421.216 189.923 421.216 187.995V167.851Z" fill="#CCCCCC"/>
<path d="M551.306 167.851C551.306 165.924 549.617 164.361 547.533 164.361C545.449 164.361 543.76 165.924 543.76 167.851V187.995C543.76 189.923 545.449 191.485 547.533 191.485C549.617 191.485 551.306 189.923 551.306 187.995V167.851Z" fill="#CCCCCC"/>
<path d="M598.642 167.851C598.642 165.924 596.953 164.361 594.869 164.361C592.786 164.361 591.097 165.924 591.097 167.851V187.995C591.097 189.923 592.786 191.485 594.869 191.485C596.953 191.485 598.642 189.923 598.642 187.995V167.851Z" fill="#CCCCCC"/>
<path d="M226.649 408.033C312.885 408.033 382.792 345.712 382.792 268.835C382.792 191.959 312.885 129.638 226.649 129.638C140.414 129.638 70.5059 191.959 70.5059 268.835C70.5059 345.712 140.414 408.033 226.649 408.033Z" fill="#FFCA42"/>
<path d="M226.649 395.337C305.569 395.337 369.546 338.7 369.546 268.835C369.546 198.97 305.569 142.333 226.649 142.333C147.728 142.333 83.751 198.97 83.751 268.835C83.751 338.7 147.728 395.337 226.649 395.337Z" fill="white"/>
<path d="M229.014 154.144C229.014 152.936 227.955 151.956 226.649 151.956C225.343 151.956 224.284 152.936 224.284 154.144V171.657C224.284 172.866 225.343 173.845 226.649 173.845C227.955 173.845 229.014 172.866 229.014 171.657V154.144Z" fill="#1192BF"/>
<path d="M361.031 271.01C362.337 271.01 363.396 270.031 363.396 268.823C363.396 267.614 362.337 266.635 361.031 266.635H342.099C340.793 266.635 339.734 267.614 339.734 268.823C339.734 270.031 340.793 271.01 342.099 271.01H361.031Z" fill="#1192BF"/>
<path d="M111.199 271.01C112.505 271.01 113.563 270.031 113.563 268.823C113.563 267.614 112.505 266.635 111.199 266.635H92.2669C90.9608 266.635 89.9021 267.614 89.9021 268.823C89.9021 270.031 90.9608 271.01 92.2669 271.01H111.199Z" fill="#1192BF"/>
<path d="M130.36 215.98C131.447 216.651 132.915 216.379 133.639 215.374C134.364 214.368 134.07 213.01 132.984 212.34L117.231 202.625C116.145 201.955 114.676 202.227 113.952 203.232C113.228 204.237 113.521 205.595 114.608 206.266L130.36 215.98Z" fill="#1192BF"/>
<path d="M166.728 185.585C167.381 186.631 168.827 186.989 169.958 186.385C171.089 185.781 171.477 184.443 170.823 183.397L161.358 168.23C160.705 167.184 159.258 166.825 158.127 167.429C156.996 168.033 156.609 169.371 157.262 170.417L166.728 185.585Z" fill="#1192BF"/>
<path d="M337.441 206.266C338.528 205.596 338.822 204.237 338.097 203.232C337.373 202.227 335.905 201.955 334.818 202.625L319.066 212.34C317.979 213.01 317.686 214.368 318.41 215.374C319.134 216.379 320.603 216.651 321.689 215.98L337.441 206.266Z" fill="#1192BF"/>
<path d="M132.976 326.893C134.063 326.223 134.357 324.865 133.632 323.86C132.908 322.854 131.439 322.583 130.353 323.253L114.6 332.968C113.514 333.638 113.22 334.996 113.945 336.001C114.669 337.006 116.137 337.278 117.224 336.608L132.976 326.893Z" fill="#1192BF"/>
<path d="M298.283 172.87C298.936 171.819 298.544 170.477 297.408 169.873C296.272 169.269 294.821 169.632 294.168 170.683L284.702 185.919C284.049 186.971 284.441 188.312 285.577 188.916C286.714 189.521 288.164 189.158 288.817 188.107L298.283 172.87Z" fill="#1192BF"/>
<path d="M170.819 357.642C171.472 356.595 171.085 355.257 169.954 354.653C168.823 354.049 167.376 354.408 166.723 355.454L157.257 370.621C156.604 371.668 156.992 373.006 158.123 373.61C159.254 374.214 160.7 373.855 161.353 372.809L170.819 357.642Z" fill="#1192BF"/>
<path d="M283.575 372.816C284.228 373.863 285.674 374.221 286.805 373.617C287.936 373.013 288.324 371.675 287.671 370.629L278.205 355.462C277.552 354.415 276.105 354.057 274.974 354.661C273.843 355.265 273.456 356.603 274.109 357.649L283.575 372.816Z" fill="#1192BF"/>
<path d="M332.104 340.386C333.19 341.057 334.659 340.785 335.383 339.78C336.108 338.774 335.814 337.416 334.727 336.746L318.975 327.031C317.888 326.361 316.42 326.633 315.696 327.638C314.971 328.643 315.265 330.002 316.351 330.672L332.104 340.386Z" fill="#1192BF"/>
<path d="M231.378 368.63C231.378 367.422 230.319 366.443 229.013 366.443C227.707 366.443 226.648 367.422 226.648 368.63V386.144C226.648 387.352 227.707 388.332 229.013 388.332C230.319 388.332 231.378 387.352 231.378 386.144V368.63Z" fill="#1192BF"/>
<path d="M226.649 268.646C229.525 268.646 231.857 266.489 231.857 263.828C231.857 261.167 229.525 259.01 226.649 259.01C223.773 259.01 221.441 261.167 221.441 263.828C221.441 266.489 223.773 268.646 226.649 268.646Z" fill="black"/>
<path d="M185.012 229.686L226.649 263.828V258.567L192.571 220.05L180.269 214.803L185.012 229.686Z" fill="black"/>
<path d="M229.602 329.165L229.014 263.828L223.628 269.088L213.281 333.136L218.407 347.602L229.602 329.165Z" fill="black"/>
<path d="M212.624 102.236C212.624 102.236 186.434 85.1649 189.578 72.2037C192.722 59.2424 200.8 56.1823 204.887 51.9083C208.975 47.6342 202.441 39.4781 202.441 39.4781C202.441 39.4781 195.606 34.0154 202.441 22.4198C206.593 15.4793 213.429 10.2483 221.577 7.77681C221.577 7.77681 249.039 3.33836 248.683 24.8351C248.451 39.8954 252.607 45.2443 255.122 47.1031C256.908 48.3983 258.317 50.0844 259.222 52.0094C261.779 57.5227 264.458 67.6388 254.534 74.6568C240.236 84.7729 258.416 99.2137 258.416 99.2137C258.416 99.2137 240.441 122.392 212.624 102.236Z" fill="black" stroke="black" stroke-miterlimit="10"/>
<path d="M265.92 137.667L281.667 139.552C281.667 139.552 308.35 151.349 277.649 152.589L263.528 145.444" fill="black"/>
<path d="M189.291 149.44L174.022 149.87C174.022 149.87 147.518 159.986 177.057 164.336L191.136 158.013" fill="black"/>
<path d="M189.291 149.44L174.022 149.87C174.022 149.87 147.518 159.986 177.057 164.336L191.136 158.013" stroke="black" stroke-miterlimit="10"/>
<path d="M246.907 89.1733L254.015 104.626L259.619 109.431C259.619 109.431 268.121 117.018 266.905 108.71L267.028 100.895L261.56 84.3555L246.907 89.1733Z" fill="#FFD4A9"/>
<path d="M235.534 60.7345C235.534 60.7345 227.236 75.2131 216.397 60.7345C216.397 60.7345 196.713 58.5089 194.444 67.1582C192.175 75.8074 190.248 84.267 190.248 84.267L204.901 89.1101L208.728 80.6631C208.728 80.6631 198.504 117.486 204.231 118.093C204.231 118.093 245.936 126.009 247.549 118.093C248.656 112.719 243.134 80.6379 243.134 80.6379L246.947 89.0975L261.505 84.3049C261.505 84.3049 259.605 75.858 257.404 67.1961C255.204 58.5342 235.534 60.7345 235.534 60.7345C224.68 75.2131 216.397 60.7345 216.397 60.7345H235.534Z" fill="white"/>
<path d="M208.688 80.6379L215.14 92.5243C216.101 94.2696 216.484 96.2385 216.24 98.1842C215.997 100.13 215.139 101.966 213.773 103.462L204.86 113.199L208.688 80.6379Z" fill="#E6E6E6"/>
<path d="M235.533 64.4647C234.623 66.0846 233.249 67.4423 231.562 68.3898C229.875 69.3374 227.939 69.8384 225.965 69.8384C223.991 69.8384 222.055 69.3374 220.368 68.3898C218.681 67.4423 217.307 66.0846 216.396 64.4647V37.9099H235.533V64.4647Z" fill="#FFD4A9"/>
<path d="M243.134 32.0427C243.134 43.7394 235.411 53.2106 225.911 53.198C216.411 53.1853 208.729 43.7015 208.729 32.0048C208.729 20.308 216.452 21.8002 225.952 21.8128C235.452 21.8255 243.148 20.346 243.134 32.0427Z" fill="#FFD4A9"/>
<path d="M263.747 144.812L187.118 141.221C175.608 139.956 167.598 131.889 167.981 124.782C168.364 116.639 179.777 109.178 193.091 112.137L266.823 129.929C266.823 129.929 272.919 140.298 263.747 144.812Z" fill="#2D3E42"/>
<path d="M188.84 146.291L256.871 112.478C267.506 108.065 278.742 111.125 282.228 117.385C286.329 124.592 280.423 136.504 267.342 140.361L194.198 160.593C194.198 160.593 183.318 154.549 188.84 146.291Z" fill="#456C77"/>
<path d="M219.131 31.6255C217.351 31.3091 215.516 31.3828 213.772 31.8405C213.653 31.8814 213.525 31.8969 213.399 31.8859C213.272 31.8748 213.149 31.8376 213.04 31.7768C212.932 31.7161 212.839 31.6335 212.769 31.535C212.699 31.4366 212.654 31.3249 212.638 31.2082V31.0818C212.648 30.9406 212.704 30.8056 212.8 30.6949C212.895 30.5842 213.024 30.503 213.171 30.4622C214.401 30.0828 217.504 29.2988 219.882 30.4622C220.002 30.5125 220.105 30.592 220.18 30.6923C220.254 30.7925 220.298 30.9097 220.306 31.0312C220.283 31.1481 220.232 31.2588 220.157 31.3551C220.082 31.4515 219.984 31.5311 219.872 31.5881C219.759 31.645 219.634 31.678 219.506 31.6845C219.377 31.6909 219.249 31.6708 219.131 31.6255Z" fill="#1A1A1A"/>
<path d="M233.811 31.6508C232.051 31.322 230.23 31.3958 228.508 31.8658C228.388 31.9044 228.261 31.9178 228.135 31.9049C228.009 31.8921 227.888 31.8533 227.78 31.7914C227.673 31.7296 227.582 31.6462 227.514 31.5475C227.445 31.4487 227.402 31.3371 227.387 31.2209V31.0944C227.395 30.956 227.449 30.8232 227.542 30.7145C227.635 30.6058 227.762 30.5265 227.906 30.4874C229.136 30.0954 232.198 29.3241 234.563 30.4874C234.681 30.5384 234.782 30.6184 234.854 30.7187C234.927 30.8191 234.968 30.936 234.973 31.0565C234.95 31.1718 234.899 31.2809 234.825 31.376C234.751 31.4712 234.654 31.5499 234.543 31.6067C234.432 31.6635 234.309 31.6969 234.183 31.7045C234.056 31.7121 233.929 31.6938 233.811 31.6508Z" fill="#1A1A1A"/>
<path d="M231.939 34.6728C232.641 34.6728 233.21 34.05 233.21 33.2818C233.21 32.5136 232.641 31.8909 231.939 31.8909C231.237 31.8909 230.667 32.5136 230.667 33.2818C230.667 34.05 231.237 34.6728 231.939 34.6728Z" fill="#1A1A1A"/>
<path d="M231.542 33.8888C231.686 33.8888 231.802 33.6511 231.802 33.3578C231.802 33.0644 231.686 32.8267 231.542 32.8267C231.399 32.8267 231.283 33.0644 231.283 33.3578C231.283 33.6511 231.399 33.8888 231.542 33.8888Z" fill="white"/>
<path d="M216.014 34.7236C216.716 34.7236 217.285 34.1008 217.285 33.3326C217.285 32.5644 216.716 31.9417 216.014 31.9417C215.312 31.9417 214.743 32.5644 214.743 33.3326C214.743 34.1008 215.312 34.7236 216.014 34.7236Z" fill="#1A1A1A"/>
<path d="M215.631 33.9269C215.775 33.9269 215.891 33.6892 215.891 33.3958C215.891 33.1025 215.775 32.8647 215.631 32.8647C215.488 32.8647 215.372 33.1025 215.372 33.3958C215.372 33.6892 215.488 33.9269 215.631 33.9269Z" fill="white"/>
<path d="M223.368 32.814C223.368 32.814 218.16 40.9448 225.583 38.4537" stroke="black" stroke-width="0.5" stroke-miterlimit="10"/>
<path d="M225.336 41.9311C225.336 41.9311 227.619 41.5138 227.824 40.009" stroke="black" stroke-width="0.5" stroke-miterlimit="10"/>
<path d="M210.465 8.33362C215.591 -0.796156 229.793 -2.71823 242.205 4.04691C254.616 10.812 260.508 23.6848 255.382 32.8146C250.256 41.9443 241.781 28.5658 229.41 21.8007C217.04 15.0355 205.339 17.4634 210.465 8.33362Z" fill="#F4AD31"/>
<path d="M231.392 59.9377H221.195C219.625 59.9377 218.352 61.1153 218.352 62.5679V88.4019C218.352 89.8545 219.625 91.0321 221.195 91.0321H231.392C232.963 91.0321 234.236 89.8545 234.236 88.4019V62.5679C234.236 61.1153 232.963 59.9377 231.392 59.9377Z" fill="black"/>
<path d="M232.048 88.187L255.218 109.684C259.209 114.008 265.141 113.819 267.219 111.353C269.092 109.127 268.504 104.221 264.485 100.971L235.78 83.5083C235.78 83.5083 215.481 70.2057 232.048 88.187Z" fill="#FFD4A9"/>
<path d="M190.207 84.2419L174.241 128.045L182.197 132.926L204.847 89.085L190.207 84.2419Z" fill="#FFD4A9"/>
<path d="M174.241 128.044C174.241 128.044 160.216 132.255 158.932 139.501C157.647 146.747 178.684 139.501 178.684 139.501L182.224 132.925L174.241 128.044Z" fill="#FFD4A9"/>
</g>
<defs>
<clipPath id="clip0">
<rect width="776" height="525" fill="white"/>
</clipPath>
</defs>
</svg>
