<svg width="669" height="534" viewBox="0 0 669 534" fill="none" xmlns="http://www.w3.org/2000/svg">
<g clip-path="url(#clip0)">
<path d="M174.29 123.165H510.357C512.759 123.165 515.064 124.119 516.762 125.818C518.461 127.517 519.416 129.821 519.416 132.223V382.516H165.322V132.178C165.334 129.799 166.281 127.52 167.959 125.833C169.637 124.147 171.911 123.188 174.29 123.165Z" fill="url(#paint0_linear)"/>
<path d="M174.29 123.165H510.357C512.759 123.165 515.064 124.119 516.762 125.818C518.461 127.517 519.416 129.821 519.416 132.223V176.283H165.322V132.178C165.334 129.799 166.281 127.52 167.959 125.833C169.637 124.147 171.911 123.188 174.29 123.165Z" fill="#6B9FD3"/>
<path d="M344.265 269.871C361.45 269.871 375.382 254.292 375.382 235.074C375.382 215.856 361.45 200.277 344.265 200.277C327.08 200.277 313.148 215.856 313.148 235.074C313.148 254.292 327.08 269.871 344.265 269.871Z" fill="#0DD14F"/>
<path d="M333.485 251.617L328.424 256.905L315.481 233.217L320.543 227.917L333.485 251.617Z" fill="white"/>
<path d="M329.183 256.905L324.483 248.028L365.825 206.097L370.513 214.975L329.183 256.905Z" fill="white"/>
<path d="M277.585 318.45C274.11 317.451 271.578 316.228 269.989 314.779C268.414 313.316 267.626 311.515 267.626 309.377C267.626 306.958 268.589 304.961 270.516 303.385C272.458 301.796 274.975 301.001 278.07 301.001C280.18 301.001 282.058 301.409 283.704 302.225C285.363 303.041 286.643 304.166 287.544 305.601C288.458 307.035 288.915 308.604 288.915 310.306H284.843C284.843 308.449 284.252 306.993 283.071 305.938C281.889 304.869 280.222 304.335 278.07 304.335C276.073 304.335 274.511 304.778 273.386 305.664C272.275 306.536 271.719 307.753 271.719 309.314C271.719 310.566 272.247 311.628 273.302 312.5C274.371 313.358 276.178 314.146 278.724 314.863C281.284 315.581 283.282 316.375 284.716 317.247C286.165 318.105 287.234 319.111 287.923 320.265C288.627 321.418 288.978 322.775 288.978 324.337C288.978 326.827 288.008 328.824 286.067 330.329C284.125 331.82 281.53 332.566 278.281 332.566C276.171 332.566 274.202 332.165 272.373 331.363C270.545 330.547 269.131 329.436 268.132 328.029C267.148 326.623 266.655 325.026 266.655 323.24H270.727C270.727 325.096 271.41 326.566 272.774 327.649C274.153 328.718 275.988 329.253 278.281 329.253C280.419 329.253 282.058 328.817 283.197 327.945C284.336 327.073 284.906 325.884 284.906 324.379C284.906 322.874 284.379 321.713 283.324 320.898C282.269 320.068 280.356 319.252 277.585 318.45ZM315.817 301.423V322.311C315.803 325.209 314.888 327.579 313.074 329.422C311.273 331.264 308.826 332.298 305.731 332.523L304.655 332.566C301.293 332.566 298.614 331.658 296.616 329.844C294.619 328.029 293.606 325.532 293.578 322.353V301.423H297.587V322.227C297.587 324.449 298.199 326.179 299.423 327.417C300.646 328.641 302.39 329.253 304.655 329.253C306.948 329.253 308.699 328.641 309.909 327.417C311.133 326.194 311.745 324.47 311.745 322.248V301.423H315.817ZM344.807 322.396C344.427 325.645 343.225 328.156 341.199 329.928C339.188 331.686 336.508 332.566 333.16 332.566C329.531 332.566 326.62 331.264 324.425 328.662C322.245 326.06 321.155 322.579 321.155 318.218V315.264C321.155 312.409 321.661 309.898 322.674 307.732C323.701 305.565 325.15 303.906 327.02 302.752C328.891 301.585 331.057 301.001 333.519 301.001C336.782 301.001 339.399 301.915 341.368 303.744C343.337 305.558 344.484 308.076 344.807 311.297H340.735C340.383 308.85 339.617 307.078 338.435 305.98C337.268 304.883 335.629 304.335 333.519 304.335C330.931 304.335 328.898 305.291 327.421 307.204C325.958 309.117 325.227 311.839 325.227 315.37V318.345C325.227 321.678 325.923 324.33 327.316 326.299C328.708 328.268 330.657 329.253 333.16 329.253C335.411 329.253 337.134 328.747 338.33 327.734C339.539 326.707 340.341 324.928 340.735 322.396H344.807ZM372.954 322.396C372.574 325.645 371.371 328.156 369.346 329.928C367.334 331.686 364.655 332.566 361.307 332.566C357.678 332.566 354.766 331.264 352.572 328.662C350.392 326.06 349.301 322.579 349.301 318.218V315.264C349.301 312.409 349.808 309.898 350.821 307.732C351.847 305.565 353.296 303.906 355.167 302.752C357.038 301.585 359.204 301.001 361.666 301.001C364.929 301.001 367.545 301.915 369.515 303.744C371.484 305.558 372.63 308.076 372.954 311.297H368.882C368.53 308.85 367.763 307.078 366.582 305.98C365.414 304.883 363.776 304.335 361.666 304.335C359.077 304.335 357.045 305.291 355.568 307.204C354.105 309.117 353.374 311.839 353.374 315.37V318.345C353.374 321.678 354.07 324.33 355.462 326.299C356.855 328.268 358.803 329.253 361.307 329.253C363.557 329.253 365.281 328.747 366.476 327.734C367.686 326.707 368.488 324.928 368.882 322.396H372.954ZM395.868 317.944H382.554V328.831H398.02V332.144H378.503V301.423H397.809V304.757H382.554V314.631H395.868V317.944ZM412.114 318.45C408.64 317.451 406.108 316.228 404.518 314.779C402.943 313.316 402.155 311.515 402.155 309.377C402.155 306.958 403.119 304.961 405.046 303.385C406.987 301.796 409.505 301.001 412.599 301.001C414.709 301.001 416.587 301.409 418.233 302.225C419.893 303.041 421.173 304.166 422.073 305.601C422.987 307.035 423.444 308.604 423.444 310.306H419.372C419.372 308.449 418.782 306.993 417.6 305.938C416.418 304.869 414.752 304.335 412.599 304.335C410.602 304.335 409.041 304.778 407.915 305.664C406.804 306.536 406.249 307.753 406.249 309.314C406.249 310.566 406.776 311.628 407.831 312.5C408.9 313.358 410.708 314.146 413.253 314.863C415.814 315.581 417.811 316.375 419.246 317.247C420.695 318.105 421.764 319.111 422.453 320.265C423.156 321.418 423.508 322.775 423.508 324.337C423.508 326.827 422.537 328.824 420.596 330.329C418.655 331.82 416.06 332.566 412.81 332.566C410.7 332.566 408.731 332.165 406.903 331.363C405.074 330.547 403.66 329.436 402.662 328.029C401.677 326.623 401.185 325.026 401.185 323.24H405.257C405.257 325.096 405.939 326.566 407.303 327.649C408.682 328.718 410.518 329.253 412.81 329.253C414.948 329.253 416.587 328.817 417.727 327.945C418.866 327.073 419.436 325.884 419.436 324.379C419.436 322.874 418.908 321.713 417.853 320.898C416.798 320.068 414.885 319.252 412.114 318.45ZM437.771 318.45C434.297 317.451 431.765 316.228 430.175 314.779C428.6 313.316 427.812 311.515 427.812 309.377C427.812 306.958 428.776 304.961 430.703 303.385C432.644 301.796 435.162 301.001 438.256 301.001C440.366 301.001 442.244 301.409 443.89 302.225C445.55 303.041 446.83 304.166 447.73 305.601C448.644 307.035 449.101 308.604 449.101 310.306H445.029C445.029 308.449 444.438 306.993 443.257 305.938C442.075 304.869 440.408 304.335 438.256 304.335C436.259 304.335 434.697 304.778 433.572 305.664C432.461 306.536 431.905 307.753 431.905 309.314C431.905 310.566 432.433 311.628 433.488 312.5C434.557 313.358 436.364 314.146 438.91 314.863C441.47 315.581 443.468 316.375 444.903 317.247C446.351 318.105 447.42 319.111 448.11 320.265C448.813 321.418 449.165 322.775 449.165 324.337C449.165 326.827 448.194 328.824 446.253 330.329C444.312 331.82 441.717 332.566 438.467 332.566C436.357 332.566 434.388 332.165 432.559 331.363C430.731 330.547 429.317 329.436 428.318 328.029C427.334 326.623 426.841 325.026 426.841 323.24H430.914C430.914 325.096 431.596 326.566 432.96 327.649C434.339 328.718 436.174 329.253 438.467 329.253C440.605 329.253 442.244 328.817 443.383 327.945C444.523 327.073 445.092 325.884 445.092 324.379C445.092 322.874 444.565 321.713 443.51 320.898C442.455 320.068 440.542 319.252 437.771 318.45Z" fill="black"/>
<path d="M97.6642 440.48L84.0762 451.894L112.588 476.069C114.853 478.006 117.548 478.651 118.545 477.485L121.16 474.45C122.157 473.318 121.104 470.77 118.816 468.788L106.632 458.462L103.722 445.53" fill="black"/>
<path d="M165.695 454.849L163.589 473.612L201.047 471.823C204.059 471.687 206.437 470.249 206.369 468.63L206.188 464.361C206.12 462.742 203.629 461.541 200.617 461.677L184.617 462.447L173.599 454.521" fill="black"/>
<path d="M164.835 336.169L126.086 335.24L160.396 458.813L179.544 456.741L164.835 336.169Z" fill="#2B3A31"/>
<path d="M112.645 327.824C110.861 334.738 110.427 341.931 111.365 349.01C111.833 351.996 112.472 354.952 113.279 357.865C115.295 366.356 116.576 375.005 117.106 383.716L93.7349 441.579L109.882 455.563C109.882 455.563 140.036 397.644 146.411 389.163C152.786 380.681 146.411 335.739 146.411 335.739L112.645 327.824Z" fill="#3B5647"/>
<path d="M210.694 346.19C210.447 346.108 210.208 346.002 209.981 345.873C206.358 343.767 173.995 324.88 167.326 318.867C166.616 318.235 165.985 317.521 165.446 316.738C163.182 313.341 167.552 308.246 171.663 309.65L182.986 313.5C183.368 313.633 183.726 313.824 184.051 314.066L212.846 336.056C212.846 336.056 237.723 355.226 210.694 346.19Z" fill="#F4C498"/>
<path d="M167.314 294.352C168.017 297.251 168.685 300.523 169.228 304.124C169.84 308.257 170.179 312.05 170.36 315.379L181.072 314.156L178.808 293.05L167.314 294.352Z" fill="#F4C498"/>
<path d="M211.227 345.216C210.978 345.138 210.738 345.032 210.513 344.899C206.89 342.793 174.528 323.906 167.858 317.893C167.149 317.265 166.518 316.554 165.978 315.775C163.714 312.322 168.096 307.283 172.195 308.676L183.518 312.526C183.9 312.659 184.259 312.85 184.583 313.092L213.378 335.025C213.378 335.025 238.256 354.196 211.227 345.216Z" fill="#FFD4A9"/>
<path d="M167.847 293.333C168.549 296.22 169.217 299.493 169.76 303.105C170.372 307.227 170.712 311.031 170.893 314.349L181.605 313.126L179.34 292.019L167.847 293.333Z" fill="#FFD4A9"/>
<path d="M89.0698 309.887V333.995H107.085C106.383 328.899 109.463 323.362 109.905 317.429C110.109 314.824 110.422 312.31 110.845 309.887H89.0698Z" fill="#F4C498"/>
<path d="M90.293 308.381V332.489H108.308C107.606 327.393 110.686 321.856 111.139 315.923C111.332 313.318 111.66 310.804 112.079 308.381H90.293Z" fill="#FFD4A9"/>
<path d="M172.218 311.994C171.827 318.465 170.749 324.876 169.002 331.119C163.34 350.765 133.039 344.775 117.922 340.438L116.846 340.11C112.26 338.762 109.328 337.63 109.328 337.63L110.041 316.602H89.1947C89.1947 316.602 86.6809 268.036 103.575 264.979C114.398 263.175 125.444 263.175 136.266 264.979H137.24L146.378 265.341C146.378 265.341 160.962 260.359 165.322 265.341C169.681 270.324 169.33 273.358 169.33 273.358C171.975 286.055 172.946 299.044 172.218 311.994Z" fill="white"/>
<path d="M165.446 326.318C165.446 326.318 162.593 335.727 154.757 338.649" stroke="#CCCCCC" stroke-width="1.13234" stroke-miterlimit="10"/>
<path d="M182.125 297.952V298.134L172.433 299.028C172.224 292.809 171.227 286.641 169.466 280.673C167.711 274.631 165.083 268.878 161.664 263.597L163.012 263.269C163.498 263.156 163.997 263.042 164.518 262.941C165.254 262.771 166.024 262.646 166.782 262.544C170.259 262.125 173.905 262.352 175.682 264.582C179.634 269.565 179.306 272.611 179.306 272.611C180.911 280.971 181.854 289.444 182.125 297.952Z" fill="#E2E2E2"/>
<path d="M164.835 239.637C164.835 239.637 183.892 231.394 164.835 227.951C164.835 227.951 171.855 202.598 144.17 214.08C144.17 214.08 123.119 209.732 130.921 232.707C130.921 232.707 128.385 255.161 138.848 246.295" fill="black"/>
<path d="M164.835 239.637C164.835 239.637 183.892 231.394 164.835 227.951C164.835 227.951 171.855 202.598 144.17 214.08C144.17 214.08 123.119 209.732 130.921 232.707C130.921 232.707 128.385 255.161 138.848 246.295" stroke="black" stroke-width="1.13234" stroke-miterlimit="10"/>
<path d="M150.997 247.235H140.274V268.365H150.997V247.235Z" fill="#FFD4A9"/>
<path d="M164.835 239.637C164.835 243.307 163.377 246.827 160.782 249.422C158.187 252.016 154.667 253.474 150.997 253.474C147.327 253.474 143.808 252.016 141.213 249.422C138.618 246.827 137.16 243.307 137.16 239.637C137.16 231.869 146.355 219.402 150.997 225.573C156.648 233.115 164.835 231.869 164.835 239.637Z" fill="#FFD4A9"/>
<path d="M140.229 248.537C140.229 248.537 144.758 254.199 150.952 253.701L140.229 263.144V248.537Z" fill="#EFC197"/>
<path d="M137.772 243.861C140.179 243.861 142.131 241.782 142.131 239.218C142.131 236.654 140.179 234.575 137.772 234.575C135.364 234.575 133.412 236.654 133.412 239.218C133.412 241.782 135.364 243.861 137.772 243.861Z" fill="#FFD4A9"/>
<path d="M156.172 235.798C156.172 235.798 160.702 243.419 154.213 241.075" stroke="black" stroke-width="0.849255" stroke-miterlimit="10"/>
<path d="M158.018 234.609C159.405 234.219 160.883 234.315 162.208 234.881C162.32 234.911 162.438 234.914 162.552 234.888C162.665 234.862 162.771 234.809 162.859 234.733C162.947 234.657 163.015 234.561 163.058 234.452C163.1 234.344 163.115 234.227 163.102 234.111V233.953C163.107 233.802 163.071 233.652 162.997 233.52C162.923 233.389 162.815 233.28 162.683 233.205C161.721 232.73 159.286 231.79 157.429 233.205C157.324 233.287 157.24 233.392 157.183 233.511C157.126 233.631 157.098 233.763 157.101 233.896C157.096 234.01 157.118 234.123 157.166 234.226C157.214 234.329 157.286 234.419 157.375 234.489C157.465 234.559 157.57 234.606 157.682 234.627C157.794 234.648 157.909 234.642 158.018 234.609Z" fill="#1A1A1A"/>
<path d="M147.929 234.632C149.305 234.247 150.771 234.343 152.085 234.904C152.526 235.062 152.968 234.677 152.968 234.134V233.975C152.976 233.824 152.94 233.673 152.866 233.541C152.792 233.409 152.682 233.3 152.549 233.228C151.598 232.752 149.152 231.812 147.34 233.228C147.236 233.31 147.152 233.415 147.095 233.535C147.038 233.655 147.01 233.786 147.012 233.919C147.023 234.439 147.487 234.824 147.929 234.632Z" fill="#1A1A1A"/>
<path d="M149.99 237.486C150.49 237.486 150.896 236.918 150.896 236.217C150.896 235.517 150.49 234.949 149.99 234.949C149.49 234.949 149.084 235.517 149.084 236.217C149.084 236.918 149.49 237.486 149.99 237.486Z" fill="#1A1A1A"/>
<path d="M150.272 236.761C150.373 236.761 150.454 236.543 150.454 236.274C150.454 236.005 150.373 235.787 150.272 235.787C150.172 235.787 150.091 236.005 150.091 236.274C150.091 236.543 150.172 236.761 150.272 236.761Z" fill="white"/>
<path d="M160.101 237.52C160.601 237.52 161.007 236.952 161.007 236.251C161.007 235.551 160.601 234.983 160.101 234.983C159.601 234.983 159.195 235.551 159.195 236.251C159.195 236.952 159.601 237.52 160.101 237.52Z" fill="#1A1A1A"/>
<path d="M160.374 236.806C160.474 236.806 160.555 236.588 160.555 236.319C160.555 236.05 160.474 235.832 160.374 235.832C160.274 235.832 160.192 236.05 160.192 236.319C160.192 236.588 160.274 236.806 160.374 236.806Z" fill="white"/>
<path d="M154.213 244.517C153.983 244.585 153.741 244.602 153.503 244.567C153.266 244.533 153.038 244.448 152.836 244.318C152.634 244.188 152.463 244.016 152.333 243.814C152.204 243.612 152.119 243.385 152.084 243.147" stroke="black" stroke-width="0.849255" stroke-miterlimit="10"/>
<path d="M252.92 328.662L137.308 347.979L129.03 269.395L244.642 250.089L252.92 328.662Z" fill="#005426"/>
<path d="M226.287 286.866C231.646 286.226 235.284 279.797 234.414 272.507C233.543 265.217 228.493 259.826 223.134 260.466C217.775 261.106 214.137 267.535 215.007 274.825C215.878 282.115 220.928 287.506 226.287 286.866Z" stroke="white" stroke-width="1.13234" stroke-miterlimit="10"/>
<path d="M216.782 289.313C222.14 288.673 225.779 282.244 224.908 274.954C224.038 267.664 218.988 262.273 213.629 262.913C208.27 263.553 204.632 269.981 205.502 277.271C206.373 284.561 211.423 289.952 216.782 289.313Z" fill="white"/>
<path d="M163.007 287.219L135.864 292.377L139.544 311.745L166.688 306.586L163.007 287.219Z" fill="#B7B200"/>
<path d="M164.171 315.215L143.157 319.208L143.861 322.912L164.875 318.919L164.171 315.215Z" fill="#069644"/>
<path d="M243.801 316.811L204.999 324.185L205.631 327.511L244.433 320.138L243.801 316.811Z" fill="#069644"/>
<path d="M192.258 309.885L171.244 313.878L171.948 317.582L192.962 313.589L192.258 309.885Z" fill="#069644"/>
<path d="M218.6 304.872L197.586 308.865L198.29 312.57L219.304 308.577L218.6 304.872Z" fill="#069644"/>
<path d="M246.335 299.128L225.321 303.121L226.025 306.826L247.039 302.832L246.335 299.128Z" fill="#069644"/>
<path d="M155.029 322.57C154.753 322.732 154.46 322.864 154.157 322.966C149.344 324.495 106.282 338.117 95.7961 338.909C94.6991 339.016 93.5923 338.959 92.5123 338.739C87.847 337.732 87.983 328.65 92.6482 325.978L105.625 318.618C106.049 318.374 106.513 318.206 106.995 318.12L149.288 310.895C149.288 310.895 185.885 304.815 155.029 322.57Z" fill="#F4C498"/>
<path d="M156.263 320.09C155.985 320.246 155.693 320.375 155.391 320.475C150.567 322.015 107.504 335.637 97.0299 336.429C95.9329 336.536 94.8261 336.479 93.7461 336.259C89.0695 335.24 89.2167 326.17 93.882 323.498L106.847 316.138C107.271 315.891 107.735 315.722 108.217 315.639L150.476 308.404C150.476 308.404 187.119 302.334 156.263 320.09Z" fill="#FFD4A9"/>
<path d="M114.491 285.112C114.491 285.112 107.697 303.037 108.218 315.685" stroke="black" stroke-width="1.13234" stroke-miterlimit="10"/>
<path d="M587.437 125.154C597.053 104.832 591.539 82.0609 575.123 74.294C558.707 66.5271 537.604 76.7053 527.989 97.0277C518.374 117.35 523.888 140.121 540.304 147.888C556.72 155.655 577.822 145.477 587.437 125.154Z" fill="#E8A010"/>
<path d="M581.255 122.229C588.87 106.135 584.502 88.1018 571.501 81.9503C558.499 75.7988 541.786 83.8587 534.172 99.9527C526.557 116.047 530.924 134.08 543.926 140.232C556.928 146.383 573.641 138.323 581.255 122.229Z" fill="#FFDF99"/>
<path d="M555.062 91.2439L574.753 100.552" stroke="white" stroke-width="3.39702" stroke-miterlimit="10"/>
<path d="M550.736 100.382L570.428 109.701" stroke="white" stroke-width="3.39702" stroke-miterlimit="10"/>
<path d="M564.369 97.0188C564.792 98.9695 564.767 100.991 564.297 102.93C563.826 104.87 562.922 106.678 561.652 108.218C558.832 111.615 554.62 113.189 550.917 112.124C551.778 119.5 552.631 126.879 553.476 134.261" stroke="white" stroke-width="3.39702" stroke-miterlimit="10"/>
<path d="M58.8555 239.522C73.7665 229.155 75.4501 205.787 62.616 187.328C49.7819 168.869 27.29 162.309 12.3791 172.676C-2.5319 183.043 -4.21552 206.412 8.6186 224.871C21.4527 243.33 43.9445 249.889 58.8555 239.522Z" fill="#E8A010"/>
<path d="M54.0201 232.568C65.8297 224.357 67.164 205.85 57.0002 191.232C46.8364 176.613 29.0235 171.419 17.2138 179.63C5.40418 187.841 4.06992 206.348 14.2337 220.966C24.3974 235.585 42.2104 240.779 54.0201 232.568Z" fill="#FFDF99"/>
<path d="M17.0757 198.511L34.9666 186.066" stroke="white" stroke-width="3.39702" stroke-miterlimit="10"/>
<path d="M22.8506 206.81L40.7416 194.377" stroke="white" stroke-width="3.39702" stroke-miterlimit="10"/>
<path d="M26.7344 193.313C28.6356 193.917 30.3752 194.944 31.8226 196.317C33.27 197.69 34.3874 199.373 35.091 201.239C36.665 205.395 35.895 209.811 33.1321 212.483L53.6048 221.293" stroke="white" stroke-width="3.39702" stroke-miterlimit="10"/>
<path d="M568.721 215.295C578.881 208.745 581 193.946 573.453 182.241C565.907 170.535 551.553 166.356 541.393 172.906C531.233 179.457 529.114 194.256 536.661 205.961C544.207 217.666 558.561 221.845 568.721 215.295Z" fill="#E8A010"/>
<path d="M565.88 210.889C573.927 205.701 575.605 193.979 569.627 184.707C563.65 175.435 552.281 172.125 544.234 177.313C536.187 182.501 534.509 194.223 540.486 203.494C546.464 212.766 557.833 216.077 565.88 210.889Z" fill="#FFDF99"/>
<path d="M543.319 189.304L555.514 181.446" stroke="white" stroke-width="3.39702" stroke-miterlimit="10"/>
<path d="M546.716 194.559L558.911 186.711" stroke="white" stroke-width="3.39702" stroke-miterlimit="10"/>
<path d="M549.842 186.021C551.032 186.39 552.116 187.04 553.001 187.918C553.886 188.795 554.546 189.873 554.926 191.06C555.358 192.288 555.421 193.616 555.107 194.88C554.793 196.143 554.116 197.287 553.16 198.171L566.102 203.776" stroke="white" stroke-width="3.39702" stroke-miterlimit="10"/>
<path d="M53.5668 330.047C59.8115 317.598 56.1144 303.113 45.3093 297.692C34.5041 292.272 20.6825 297.97 14.4378 310.418C8.19316 322.867 11.8901 337.352 22.6953 342.773C33.5005 348.193 47.3222 342.495 53.5668 330.047Z" fill="#E8A010"/>
<path d="M49.4985 328.006C54.4449 318.145 51.517 306.672 42.959 302.379C34.4009 298.086 23.4534 302.599 18.507 312.459C13.5606 322.32 16.4885 333.794 25.0465 338.087C33.6046 342.38 44.5522 337.866 49.4985 328.006Z" fill="#FFDF99"/>
<path d="M32.1924 307.713L45.1577 314.213" stroke="white" stroke-width="3.39702" stroke-miterlimit="10"/>
<path d="M29.3843 313.307L42.3496 319.807" stroke="white" stroke-width="3.39702" stroke-miterlimit="10"/>
<path d="M38.3187 311.643C38.6072 312.857 38.5983 314.123 38.2928 315.334C37.9872 316.544 37.394 317.663 36.5636 318.595C35.7211 319.589 34.6077 320.316 33.3591 320.688C32.1105 321.06 30.7807 321.061 29.5317 320.69C30.1206 325.355 30.7056 330.017 31.2869 334.674" stroke="white" stroke-width="3.39702" stroke-miterlimit="10"/>
<path d="M427.776 149.322L386.094 127.807C389.928 114.592 396.429 102.302 405.197 91.6971C411.957 83.4781 419.787 76.2006 428.478 70.0581L470.159 91.5726C458.776 97.3325 448.831 105.575 441.058 115.691C433.61 125.46 429.013 137.1 427.776 149.322Z" fill="#3B7252"/>
<path d="M431.417 114.091C439.359 109.23 442.648 100.144 438.763 93.7964C434.877 87.4491 425.29 86.2444 417.347 91.1056C409.405 95.9669 406.116 105.053 410.001 111.401C413.886 117.748 423.474 118.953 431.417 114.091Z" fill="#014221"/>
<path d="M424.718 92.999L434.898 98.9098" stroke="white" stroke-width="3.39702" stroke-miterlimit="10"/>
<path d="M421.457 96.9734L431.637 102.873" stroke="white" stroke-width="3.39702" stroke-miterlimit="10"/>
<path d="M429.406 96.4412C429.444 97.4327 429.229 98.4177 428.782 99.3033C428.334 100.189 427.668 100.946 426.847 101.503C425.952 102.184 424.903 102.633 423.792 102.809C422.681 102.985 421.544 102.882 420.483 102.511C420.279 106.043 420.075 109.588 419.883 113.121" stroke="white" stroke-width="3.39702" stroke-miterlimit="10"/>
<path d="M396.67 93.8369L339.521 110.494C329.143 94.6828 321.815 77.0701 317.915 58.5645C315.038 44.7971 314.021 30.7058 314.892 16.6679L372.053 -0.0454102C368.519 16.2677 368.782 33.1748 372.823 49.3699C376.97 65.9371 385.164 81.216 396.67 93.8369Z" fill="#3B7252"/>
<path d="M348.44 73.5024C358.246 72.0578 364.759 61.1315 362.986 49.0979C361.214 37.0642 351.827 28.4801 342.021 29.9246C332.214 31.3692 325.702 42.2955 327.474 54.3292C329.247 66.3628 338.634 74.947 348.44 73.5024Z" fill="#014221"/>
<path d="M335.592 42.225L350.222 38.76" stroke="white" stroke-width="3.39702" stroke-miterlimit="10"/>
<path d="M336.984 48.9848L351.614 45.5085" stroke="white" stroke-width="3.39702" stroke-miterlimit="10"/>
<path d="M343.076 41.3191C344.119 42.2008 344.944 43.3116 345.486 44.5649C346.028 45.8181 346.273 47.1798 346.202 48.5434C346.193 49.9507 345.786 51.3268 345.029 52.5129C344.272 53.6991 343.194 54.6468 341.921 55.2469L352.452 66.0154" stroke="white" stroke-width="3.39702" stroke-miterlimit="10"/>
<path d="M286.074 444.975L244.393 423.461C248.215 410.253 254.7 397.968 263.45 387.362C270.22 379.132 278.066 371.85 286.777 365.712L328.458 387.226C317.076 392.988 307.134 401.235 299.368 411.356C291.912 421.117 287.31 432.755 286.074 444.975Z" fill="#3B7252"/>
<path d="M289.707 409.715C297.649 404.853 300.938 395.767 297.053 389.42C293.168 383.072 283.58 381.868 275.637 386.729C267.695 391.59 264.406 400.677 268.291 407.024C272.177 413.371 281.764 414.576 289.707 409.715Z" fill="#014221"/>
<path d="M283.017 388.63L293.197 394.541" stroke="white" stroke-width="3.39702" stroke-miterlimit="10"/>
<path d="M279.756 392.605L289.936 398.504" stroke="white" stroke-width="3.39702" stroke-miterlimit="10"/>
<path d="M287.705 392.073C287.742 393.063 287.528 394.046 287.083 394.931C286.637 395.816 285.974 396.574 285.157 397.134C284.261 397.817 283.209 398.267 282.097 398.443C280.984 398.619 279.845 398.516 278.782 398.142C278.578 401.675 278.374 405.219 278.182 408.752" stroke="white" stroke-width="3.39702" stroke-miterlimit="10"/>
<path d="M106.542 151.337L158.969 118.68C150.966 84.5679 132.291 53.8974 105.659 31.1279L53.2314 63.7846C68.3697 73.1653 81.085 85.9804 90.347 101.192C99.609 116.403 105.157 133.582 106.542 151.337Z" fill="#3B7252"/>
<path d="M123.522 99.8482C132.151 94.2015 133.456 80.9276 126.436 70.2001C119.416 59.4727 106.73 55.3539 98.1008 61.0006C89.4718 66.6473 88.1673 79.9212 95.1871 90.6486C102.207 101.376 114.893 105.495 123.522 99.8482Z" fill="#014221"/>
<path d="M110.38 65.936L97.5737 74.8815" stroke="white" stroke-width="3.39702" stroke-miterlimit="10"/>
<path d="M114.491 71.949L101.684 80.8945" stroke="white" stroke-width="3.39702" stroke-miterlimit="10"/>
<path d="M104.492 71.1904C104.421 72.6291 104.672 74.0656 105.229 75.3942C105.785 76.7228 106.633 77.9097 107.708 78.8677C108.744 79.8821 110.057 80.5675 111.482 80.8375C112.906 81.1075 114.379 80.95 115.714 80.385C115.971 85.7523 116.223 91.1158 116.473 96.4756" stroke="white" stroke-width="3.39702" stroke-miterlimit="10"/>
<path d="M387.713 451.577H323.521L332.579 382.516H380.919L387.713 451.577Z" fill="#E4E4E4"/>
<path d="M421.457 451.577H288.112V454.476H421.457V451.577Z" fill="#E6E6E6"/>
<path d="M501.446 534L421.435 487.45C432.528 475.615 441.379 461.864 447.558 446.867C458.655 419.566 454.057 403.498 460.885 382.516C466.343 365.712 479.931 343.178 517.581 322.173L597.593 368.724C546.139 392.344 531.6 416.463 528.361 434.762C525.202 452.574 532.359 467.067 525.157 492.33C519.722 511.387 509.372 525.258 501.446 534Z" fill="#F2F2F2"/>
<path d="M567.478 369.083L509.741 335.493L506.923 340.338L564.659 373.928L567.478 369.083Z" fill="#CCCCCC"/>
<path d="M555.565 380.032L497.828 346.442L495.01 351.287L552.746 384.877L555.565 380.032Z" fill="#CCCCCC"/>
<path d="M539.835 393.956L482.099 360.366L479.28 365.211L537.017 398.801L539.835 393.956Z" fill="#CCCCCC"/>
<path d="M531.278 408.673L473.542 375.083L470.723 379.927L528.459 413.517L531.278 408.673Z" fill="#CCCCCC"/>
<path d="M525.289 423.109L467.552 389.519L464.734 394.364L522.47 427.954L525.289 423.109Z" fill="#CCCCCC"/>
<path d="M522.867 444.551L465.13 410.961L462.312 415.806L520.048 449.396L522.867 444.551Z" fill="#CCCCCC"/>
<path d="M518.775 465.743L461.038 432.153L458.219 436.998L515.956 470.588L518.775 465.743Z" fill="#CCCCCC"/>
<path d="M509.556 481.595L451.819 448.005L449.001 452.85L506.737 486.44L509.556 481.595Z" fill="#CCCCCC"/>
<path d="M503.859 499.399L446.123 465.809L443.304 470.654L501.041 504.244L503.859 499.399Z" fill="#CCCCCC"/>
</g>
<defs>
<linearGradient id="paint0_linear" x1="342.369" y1="123.165" x2="342.369" y2="382.516" gradientUnits="userSpaceOnUse">
<stop stop-color="#F2F2F2"/>
<stop offset="1" stop-color="white"/>
</linearGradient>
<clipPath id="clip0">
<rect width="668.035" height="534" fill="white"/>
</clipPath>
</defs>
</svg>
