<svg width="664" height="465" viewBox="0 0 664 465" fill="none" xmlns="http://www.w3.org/2000/svg">
<g clip-path="url(#clip0)">
<path d="M419.435 285.154C401.862 295.609 390.609 274.066 368.407 281.052L367.948 281.198C339.717 290.534 337.913 331.564 315.866 333.621C315.47 333.621 315.074 333.682 314.667 333.682C310.767 333.682 306.178 331.406 291.244 317.287C286.416 312.722 280.492 306.904 273.161 299.528L269.166 295.548L262.826 289.17C245.712 271.899 236.754 262.685 234.22 258.632C228.757 249.827 224.294 240.233 220.944 230.09C210.891 200.197 209.472 166.019 219.411 146.107C220.99 142.893 222.989 139.986 225.334 137.489C235.45 126.839 242.187 135.688 267.675 124.161C274.649 121.093 281.273 117.034 287.396 112.075C299.577 102.155 304.718 92.6007 320.038 88.085C334.732 83.7642 353.41 85.6508 368.271 94.9498C368.865 95.3149 369.439 95.6922 370.013 96.0817C374.089 98.8028 377.82 102.174 381.098 106.099C382.536 107.823 383.86 109.67 385.061 111.625C385.343 112.087 385.614 112.538 385.875 112.988C389.253 119.125 391.491 126.02 392.445 133.229C392.57 133.996 392.685 134.763 392.779 135.542C393.071 137.684 393.311 139.85 393.54 142.029C394.583 152.229 395.292 162.83 399.297 173.748C401.648 180.084 404.848 185.943 408.776 191.105C409.006 191.409 409.235 191.713 409.475 192.005C409.955 192.638 410.435 193.222 410.925 193.819C411.415 194.415 411.895 194.975 412.374 195.511C421.343 205.601 429.06 207.767 434.275 214.462C436.334 217.138 437.897 220.284 438.863 223.7C445.152 244.611 435.975 275.271 419.435 285.154Z" fill="#E6E6FF"/>
<path d="M292.652 116.36V225.903C292.652 226.459 292.558 227.009 292.376 227.522C292.193 228.035 291.926 228.501 291.588 228.894C291.251 229.286 290.851 229.597 290.411 229.809C289.971 230.02 289.499 230.128 289.023 230.127H220.944C210.891 200.233 209.472 166.056 219.411 146.143C220.99 142.929 222.989 140.022 225.334 137.526C235.45 126.876 242.187 135.724 267.675 124.198C274.649 121.13 281.273 117.071 287.396 112.112H289.075C290.031 112.125 290.944 112.579 291.614 113.374C292.285 114.17 292.658 115.244 292.652 116.36Z" fill="#121249"/>
<path d="M323.354 245.645C323.354 245.645 293.434 224.552 297.032 208.534C300.63 192.517 309.849 188.744 314.521 183.461C319.193 178.179 311.726 168.088 311.726 168.088C311.726 168.088 303.915 161.345 311.726 147.02C319.537 132.694 333.626 128.921 333.626 128.921C333.626 128.921 365.006 123.456 364.61 150.014C364.329 168.612 369.074 175.221 371.91 177.521C373.883 179.054 375.487 181.149 376.572 183.607C379.492 190.423 382.558 202.911 371.212 211.602C354.88 224.077 375.644 241.945 375.644 241.945C375.644 241.945 355.13 270.524 323.354 245.645Z" fill="black" stroke="black" stroke-width="0.889101" stroke-miterlimit="10"/>
<path d="M297.741 223.383L279.491 277.51L288.585 283.535L314.479 229.372L297.741 223.383Z" fill="#FFD4A9"/>
<path d="M288.595 283.547L284.58 291.702C284.58 291.702 275.788 294.964 269.166 295.561L262.825 289.183C266.434 281.758 279.511 277.51 279.511 277.51L288.595 283.547Z" fill="#FFD4A9"/>
<path d="M362.514 229.421L370.649 248.506L377.052 254.445C377.052 254.445 386.761 263.817 385.395 253.557L385.541 243.905L379.284 223.469L362.514 229.421Z" fill="#FFD4A9"/>
<path d="M368.333 281.052L367.874 281.198C339.644 290.534 337.84 331.564 315.793 333.621C315.397 333.621 315.001 333.682 314.594 333.682C310.694 333.682 306.105 331.406 291.171 317.287C297.897 287.795 313.697 265.193 313.697 265.193H356.319H363.192C364.021 267.004 364.753 268.874 365.382 270.792C366.515 274.151 367.5 277.576 368.333 281.052Z" fill="#2D3E42"/>
<path d="M349.447 194.342C349.447 194.342 339.967 212.234 327.609 194.342C327.609 194.342 305.135 191.579 302.58 202.278C300.025 212.977 297.783 223.408 297.783 223.408L314.521 229.396L318.901 218.953C318.901 218.953 307.21 264.462 313.76 265.205C313.76 265.205 361.409 274.942 363.255 265.205C364.516 258.571 358.197 218.953 358.197 218.953L362.556 229.396L379.304 223.444C379.304 223.444 377.135 213.001 374.549 202.303C371.963 191.604 349.52 194.318 349.52 194.318C337.131 212.21 327.682 194.318 327.682 194.318L349.447 194.342Z" fill="white"/>
<path d="M350.981 282.719L379.524 259.204C385.072 255.334 386.522 247.617 384.561 244.185C382.788 241.081 377.595 240.375 373.152 244.538C364.517 255.151 355.889 265.773 347.268 276.402C347.268 276.402 327.87 298.762 350.981 282.719Z" fill="#FFD4A9"/>
<path d="M349.447 198.955C348.215 201 346.58 202.668 344.68 203.82C342.779 204.971 340.67 205.573 338.528 205.573C336.387 205.573 334.277 204.971 332.377 203.82C330.476 202.668 328.841 201 327.609 198.955V166.092H349.447V198.955Z" fill="#FFD4A9"/>
<path d="M358.218 158.887C358.218 173.334 349.395 185.043 338.539 185.031C327.683 185.019 318.902 173.298 318.912 158.85C318.923 144.403 327.724 146.229 338.57 146.241C349.416 146.253 358.229 144.427 358.218 158.887Z" fill="#FFD4A9"/>
<path d="M330.842 158.376C328.814 157.979 326.738 158.07 324.742 158.643C324.085 158.802 323.438 158.412 323.438 157.864V157.694C323.457 157.51 323.526 157.337 323.635 157.202C323.744 157.066 323.887 156.974 324.043 156.939C325.451 156.465 328.986 155.503 331.708 156.939C331.838 156.99 331.952 157.084 332.037 157.209C332.122 157.335 332.175 157.486 332.188 157.645C332.188 158.181 331.499 158.57 330.842 158.376Z" fill="#1A1A1A"/>
<path d="M347.57 158.4C345.553 157.998 343.486 158.089 341.501 158.668C340.864 158.826 340.218 158.437 340.218 157.877V157.719C340.235 157.533 340.304 157.36 340.413 157.224C340.522 157.088 340.666 156.997 340.823 156.964C342.21 156.477 345.724 155.515 348.425 156.964C348.553 157.013 348.666 157.105 348.749 157.229C348.832 157.352 348.883 157.501 348.894 157.658C348.894 158.193 348.217 158.583 347.57 158.4Z" fill="#1A1A1A"/>
<path d="M346.833 160.405C346.84 159.457 346.196 158.683 345.395 158.676C344.594 158.669 343.94 159.432 343.934 160.38C343.928 161.328 344.572 162.102 345.373 162.109C346.173 162.116 346.827 161.353 346.833 160.405Z" fill="#1A1A1A"/>
<path d="M345.329 160.546C345.33 160.189 345.194 159.9 345.027 159.9C344.86 159.9 344.725 160.189 344.724 160.545C344.724 160.901 344.859 161.19 345.026 161.19C345.193 161.19 345.329 160.902 345.329 160.546Z" fill="white"/>
<path d="M328.645 160.466C328.651 159.518 328.007 158.744 327.206 158.737C326.405 158.73 325.752 159.493 325.745 160.441C325.739 161.388 326.383 162.162 327.184 162.169C327.984 162.176 328.638 161.414 328.645 160.466Z" fill="#1A1A1A"/>
<path d="M326.337 160.104C326.337 159.748 326.201 159.459 326.034 159.459C325.867 159.459 325.732 159.748 325.732 160.104C325.732 160.46 325.867 160.749 326.034 160.749C326.201 160.749 326.337 160.46 326.337 160.104Z" fill="white"/>
<path d="M335.618 159.848C335.618 159.848 329.674 169.878 338.163 166.798" stroke="black" stroke-width="0.444551" stroke-miterlimit="10"/>
<path d="M337.881 171.119C337.881 171.119 340.499 170.584 340.718 168.685" stroke="black" stroke-width="0.444551" stroke-miterlimit="10"/>
<path d="M320.883 129.59C326.744 118.307 342.981 115.934 357.144 124.283C371.306 132.633 378.064 148.553 372.203 159.836C366.342 171.119 356.664 154.59 342.491 146.228C328.319 137.867 315.032 140.861 320.883 129.59Z" fill="#F4AD31"/>
<path d="M229.11 146.167V230.151H220.944C210.891 200.258 209.472 166.08 219.411 146.167H229.11Z" fill="#333372"/>
<path d="M288.272 146.155H262.273V230.09H288.272V146.155Z" fill="#333372"/>
<path d="M258.529 171.107H232.53V230.09H258.529V171.107Z" fill="#464677"/>
<path d="M663.27 301.634C663.27 302.194 663.27 302.742 663.27 303.289C662.823 310.567 661.072 317.654 658.128 324.09C657.836 324.796 657.534 325.49 657.2 326.184C656.334 328.095 655.417 330.006 654.478 331.905C650.307 340.303 645.749 348.762 643.236 359.388C643.1 359.936 642.975 360.483 642.861 361.043L642.798 361.323C642.141 364.47 641.702 367.673 641.484 370.902C641.484 371.438 641.4 371.985 641.38 372.545C641.38 372.923 641.38 373.3 641.38 373.677C641.283 376.4 641.324 379.127 641.505 381.844C641.505 382.246 641.567 382.648 641.609 383.061C641.609 383.913 641.734 384.729 641.839 385.496V385.788C641.911 386.494 641.995 387.2 642.099 387.869C644.091 402.219 649.139 409.34 649.91 418.383C650.194 421.963 649.839 425.573 648.867 428.984C643.173 450.041 620.084 468.152 601.729 464.452C598.813 463.896 596.024 462.654 593.532 460.801C591.082 458.91 588.921 456.553 587.14 453.826C580.809 444.54 576.711 431.845 562.997 425.43L562.559 425.236C555.451 422.138 547.73 421.488 540.314 423.361C529.802 425.686 520.114 431.346 511.176 433.476C505.096 434.924 499.361 434.693 493.948 430.749C493.614 430.494 493.281 430.238 492.905 429.958C492.565 429.662 492.241 429.341 491.935 428.997C489.234 425.99 486.784 419.905 482.549 400.442C481.673 396.389 480.714 391.752 479.671 386.421C479.337 384.753 478.993 383.013 478.628 381.199C478.155 378.765 477.672 376.225 477.179 373.58C476.793 371.535 476.417 369.563 476.063 367.64C475.427 364.293 474.832 361.116 474.259 358.11C473.216 352.657 472.329 347.752 471.516 343.358C470.89 339.926 470.327 336.785 469.837 333.962C469.785 333.682 469.743 333.402 469.691 333.134C469.409 331.503 469.148 329.981 468.909 328.557C468.773 327.742 468.648 326.963 468.523 326.221C468.231 324.37 467.97 322.727 467.761 321.255C467.657 320.5 467.563 319.794 467.48 319.137C467.229 317.321 467.086 315.486 467.052 313.647C467.052 312.43 467.052 311.213 467.136 309.996C467.525 300.346 468.851 290.779 471.088 281.478C478.388 250.514 494.772 222.13 512.97 213.22C515.886 211.756 518.978 210.828 522.137 210.47C535.058 209.094 536.445 219.732 559.263 228.179C560.411 228.605 561.61 229.019 562.872 229.396C566.157 230.467 569.192 231.271 572.028 231.891C572.675 232.025 573.301 232.159 573.926 232.269C577.546 232.954 581.201 233.36 584.866 233.486C588.078 233.608 591.019 233.486 593.804 233.376H594.68H594.857H595.253C601.51 232.999 607.048 232.463 613.243 233.717L614.234 233.924L615.172 234.155C615.798 234.313 616.424 234.496 617.07 234.691C619.202 235.367 621.292 236.209 623.327 237.21C638.643 245.014 651.079 258.924 658.41 276.451C658.691 277.157 658.963 277.863 659.213 278.569C661.085 283.614 662.342 288.94 662.946 294.392C663.206 296.793 663.314 299.214 663.27 301.634Z" fill="#E6E6FF"/>
<path d="M412.375 195.584V235.178H409.476V192.091C409.955 192.723 410.435 193.308 410.925 193.904C411.415 194.501 411.895 195.048 412.375 195.584Z" fill="#808080"/>
<path d="M399.297 173.833H390.349L392.435 142.115H393.561C394.583 152.302 395.292 162.879 399.297 173.833Z" fill="#4A8491"/>
<path d="M427.746 235.178H394.093V238.014H427.746V235.178Z" fill="#808080"/>
<path opacity="0.21" d="M427.777 235.178V238.014H410.924V193.892C411.404 194.476 411.894 195.048 412.374 195.584V235.178H427.777Z" fill="black"/>
<path opacity="0.51" d="M435.651 238.014H386.198L389.89 173.833H399.276C401.627 180.169 404.827 186.028 408.756 191.19C408.985 191.494 409.215 191.799 409.454 192.091C409.934 192.724 410.414 193.308 410.904 193.904C411.394 194.501 411.874 195.06 412.354 195.596C421.322 205.686 429.04 207.853 434.254 214.547L435.651 238.014Z" fill="url(#paint0_linear)"/>
<path d="M401.956 366.277H227.003V450.711H401.956V366.277Z" fill="#7DA0EF"/>
<path d="M259.02 384.753H234.627V446.098H259.02V384.753Z" fill="#4F87E8"/>
<path d="M318.922 396.62H294.529V446.098H318.922V396.62Z" fill="#4F87E8"/>
<path d="M289.544 408.5H265.151V446.098H289.544V408.5Z" fill="#4F87E8"/>
<path d="M394.479 379.8H336.057V381.114H394.479V379.8Z" fill="#31317C"/>
<path d="M394.479 387.723H325.357V389.366H394.479V387.723Z" fill="#31317C"/>
<path d="M397.148 396.62H336.057V398.263H397.148V396.62Z" fill="#31317C"/>
<path d="M392.091 413.113H328.83V432.904H392.091V413.113Z" fill="#31317C"/>
<path d="M0.135656 371.499C-1.28266 355.676 8.81239 354.544 15.7788 323.701C23.8611 288.148 13.2863 277.194 21.598 253.106C29.065 231.453 48.1497 209.666 70.0188 206.1C99.5948 201.231 109.94 233.729 145.2 230.005C166.005 227.814 170.823 215.618 185.507 220.779C203.622 227.132 219.463 253.837 216.533 275.307C213.404 298.202 191.587 295.999 183.505 321.559C173.357 353.704 200.712 379.532 189.167 401.562C186.279 407.064 181.972 410.423 140.423 421.791C109.679 430.189 94.3179 434.389 89.2078 434.425C49.5367 434.632 3.07657 404.24 0.135656 371.499Z" fill="#E6E6FF"/>
<path d="M168.539 255.017H86.2355C84.2369 255.017 82.6167 256.908 82.6167 259.241V368.76C82.6167 371.093 84.2369 372.984 86.2355 372.984H168.539C170.538 372.984 172.158 371.093 172.158 368.76V259.241C172.158 256.908 170.538 255.017 168.539 255.017Z" fill="#121249"/>
<path d="M559.263 228.325V382.307C559.263 382.863 559.169 383.413 558.987 383.926C558.804 384.439 558.537 384.905 558.2 385.298C557.863 385.69 557.462 386.001 557.022 386.212C556.582 386.424 556.11 386.532 555.634 386.53H479.65C479.316 384.863 478.972 383.122 478.607 381.309C478.134 378.874 477.651 376.335 477.158 373.689C476.772 371.645 476.396 369.673 476.042 367.75C475.406 364.403 474.811 361.226 474.238 358.219C473.195 352.767 472.308 347.861 471.495 343.468C470.869 340.035 470.306 336.895 469.816 334.071L463.329 326.841V314.95L467.115 310.142C467.504 300.492 468.83 290.925 471.067 281.624C478.367 250.66 494.751 222.276 512.949 213.366C515.865 211.902 518.957 210.974 522.116 210.616C535.058 209.24 536.445 219.878 559.263 228.325Z" fill="#121249"/>
<path d="M150.852 328.582C150.852 328.582 167.643 321.595 172.69 328.582C177.738 335.568 177.31 339.865 177.31 339.865C177.31 339.865 185.653 383.926 176.945 421C168.237 458.074 108.115 430.141 108.115 430.141L108.939 400.576H84.9529C84.9529 400.576 82.0538 332.343 101.524 328.034C114.001 325.509 126.758 325.509 139.235 328.034" fill="white"/>
<path d="M110.92 365.242L107.291 400.454" stroke="black" stroke-width="0.889101" stroke-miterlimit="10"/>
<path d="M164.785 365.376C164.785 365.376 170.782 387.407 170.354 400.333" stroke="black" stroke-width="0.889101" stroke-miterlimit="10"/>
<path d="M109.846 378.753H84.7544V432.685H109.846V378.753Z" fill="#FFD4A9"/>
<path d="M168.393 378.047L171.24 396.803L182.534 395.489L180.605 376.623L168.393 378.047Z" fill="#FFD4A9"/>
<path d="M232.29 440.621C231.934 440.516 231.585 440.377 231.247 440.207C225.981 437.395 178.947 412.212 168.998 403.996C167.947 403.154 166.984 402.169 166.13 401.063C162.522 396.195 167.997 388.697 173.837 390.45L189.939 395.318C190.481 395.48 191.001 395.73 191.483 396.061L233.98 425.917C233.98 425.917 270.741 451.916 232.29 440.621Z" fill="#FFD4A9"/>
<path d="M182.493 400.832C182.115 401.125 181.713 401.373 181.294 401.574C174.442 404.897 113.204 434.571 97.3734 438.807C95.6975 439.278 93.9859 439.555 92.2633 439.635C84.7129 439.902 81.5634 429.131 87.8207 424.493L105.08 411.689C105.678 411.251 106.324 410.907 106.999 410.666L169.353 388.831C169.353 388.831 223.468 370.111 182.493 400.832Z" fill="#FFD4A9"/>
<path d="M165.296 300.904C165.296 300.904 185.549 289.718 165.296 285.081C165.296 285.081 172.752 250.684 143.333 266.264C143.333 266.264 120.963 260.36 129.244 291.52C129.244 291.52 126.543 321.948 137.587 309.984" fill="black"/>
<path d="M165.296 300.904C165.296 300.904 185.549 289.718 165.296 285.081C165.296 285.081 172.752 250.684 143.333 266.264C143.333 266.264 120.963 260.36 129.244 291.52C129.244 291.52 126.543 321.948 137.587 309.984" stroke="black" stroke-width="0.889101" stroke-miterlimit="10"/>
<path d="M135.866 303.728C138.786 303.728 141.153 300.66 141.153 296.875C141.153 293.09 138.786 290.022 135.866 290.022C132.946 290.022 130.579 293.09 130.579 296.875C130.579 300.66 132.946 303.728 135.866 303.728Z" fill="#FFD4A9"/>
<path d="M150.581 311.201H139.182V339.853H150.581V311.201Z" fill="#FFD4A9"/>
<path d="M165.296 300.904C165.296 311.444 158.705 319.977 150.581 319.977C142.457 319.977 135.876 311.457 135.876 300.904C135.876 290.351 145.659 273.457 150.581 281.831C156.63 292.043 165.296 290.363 165.296 300.904Z" fill="#FFD4A9"/>
<path d="M149.726 302.973C149.726 302.973 148.808 308.779 152.177 307.671" stroke="black" stroke-width="0.444551" stroke-miterlimit="10"/>
<path d="M155.993 295.707C155.993 295.707 161.844 306.503 153.501 303.204" stroke="black" stroke-width="0.444551" stroke-miterlimit="10"/>
<path d="M158.851 292.859C159.805 292.581 160.809 292.649 161.729 293.053C161.802 293.078 161.878 293.083 161.952 293.067C162.026 293.051 162.096 293.015 162.156 292.961C162.216 292.908 162.264 292.839 162.297 292.76C162.33 292.681 162.346 292.594 162.345 292.506V292.384C162.344 292.272 162.316 292.162 162.265 292.067C162.213 291.972 162.139 291.896 162.053 291.848C161.493 291.518 160.875 291.346 160.248 291.346C159.621 291.346 159.003 291.518 158.444 291.848C158.375 291.904 158.319 291.979 158.281 292.066C158.243 292.153 158.224 292.25 158.225 292.347C158.226 292.435 158.244 292.52 158.279 292.597C158.314 292.675 158.364 292.741 158.425 292.791C158.487 292.841 158.557 292.873 158.631 292.885C158.705 292.897 158.78 292.888 158.851 292.859Z" fill="#1A1A1A"/>
<path d="M148.985 292.968C150.053 292.649 151.179 292.726 152.208 293.187C152.29 293.217 152.377 293.223 152.462 293.205C152.547 293.186 152.627 293.144 152.694 293.082C152.762 293.02 152.816 292.939 152.851 292.847C152.886 292.755 152.901 292.655 152.896 292.554V292.42C152.898 292.292 152.868 292.165 152.811 292.056C152.754 291.946 152.671 291.857 152.573 291.8C151.832 291.41 149.965 290.583 148.526 291.8C148.448 291.864 148.383 291.949 148.34 292.049C148.296 292.149 148.274 292.26 148.276 292.372C148.274 292.472 148.294 292.571 148.332 292.661C148.371 292.75 148.427 292.828 148.497 292.887C148.567 292.945 148.647 292.983 148.732 292.997C148.817 293.012 148.904 293.002 148.985 292.968Z" fill="#1A1A1A"/>
<path d="M150.403 297.751C151.077 297.751 151.623 296.978 151.623 296.023C151.623 295.069 151.077 294.295 150.403 294.295C149.729 294.295 149.183 295.069 149.183 296.023C149.183 296.978 149.729 297.751 150.403 297.751Z" fill="#1A1A1A"/>
<path d="M150.769 296.766C150.907 296.766 151.019 296.471 151.019 296.108C151.019 295.745 150.907 295.451 150.769 295.451C150.631 295.451 150.519 295.745 150.519 296.108C150.519 296.471 150.631 296.766 150.769 296.766Z" fill="white"/>
<path d="M159.967 297.69C160.531 297.69 160.989 296.982 160.989 296.108C160.989 295.234 160.531 294.526 159.967 294.526C159.402 294.526 158.945 295.234 158.945 296.108C158.945 296.982 159.402 297.69 159.967 297.69Z" fill="#1A1A1A"/>
<path d="M160.28 296.79C160.395 296.79 160.488 296.523 160.488 296.194C160.488 295.864 160.395 295.597 160.28 295.597C160.165 295.597 160.071 295.864 160.071 296.194C160.071 296.523 160.165 296.79 160.28 296.79Z" fill="white"/>
<path d="M101.159 290.022C107.841 290.022 113.257 283.701 113.257 275.903C113.257 268.106 107.841 261.785 101.159 261.785C94.4782 261.785 89.062 268.106 89.062 275.903C89.062 283.701 94.4782 290.022 101.159 290.022Z" fill="white"/>
<path d="M122.997 263.902C123.09 263.885 123.174 263.829 123.235 263.745C123.296 263.662 123.329 263.556 123.329 263.446C123.329 263.336 123.296 263.23 123.235 263.146C123.174 263.063 123.09 263.007 122.997 262.99C122.904 263.007 122.82 263.063 122.759 263.146C122.698 263.23 122.665 263.336 122.665 263.446C122.665 263.556 122.698 263.662 122.759 263.745C122.82 263.829 122.904 263.885 122.997 263.902Z" fill="white"/>
<path d="M96.2888 305.188C96.3815 305.171 96.4658 305.115 96.5267 305.031C96.5876 304.948 96.621 304.842 96.621 304.732C96.621 304.622 96.5876 304.516 96.5267 304.432C96.4658 304.349 96.3815 304.293 96.2888 304.275C96.196 304.293 96.1117 304.349 96.0508 304.432C95.99 304.516 95.9565 304.622 95.9565 304.732C95.9565 304.842 95.99 304.948 96.0508 305.031C96.1117 305.115 96.196 305.171 96.2888 305.188Z" fill="white"/>
<path d="M110.743 307.72C110.836 307.702 110.92 307.647 110.981 307.563C111.042 307.479 111.075 307.373 111.075 307.263C111.075 307.154 111.042 307.048 110.981 306.964C110.92 306.88 110.836 306.825 110.743 306.807C110.65 306.825 110.566 306.88 110.505 306.964C110.444 307.048 110.411 307.154 110.411 307.263C110.411 307.373 110.444 307.479 110.505 307.563C110.566 307.647 110.65 307.702 110.743 307.72Z" fill="white"/>
<path d="M119.388 296.765C119.481 296.748 119.565 296.692 119.626 296.608C119.687 296.525 119.721 296.419 119.721 296.309C119.721 296.199 119.687 296.093 119.626 296.01C119.565 295.926 119.481 295.87 119.388 295.853C119.296 295.87 119.211 295.926 119.15 296.01C119.09 296.093 119.056 296.199 119.056 296.309C119.056 296.419 119.09 296.525 119.15 296.608C119.211 296.692 119.296 296.748 119.388 296.765Z" fill="white"/>
<path d="M94.1198 322.886C94.2126 322.868 94.2969 322.812 94.3578 322.729C94.4186 322.645 94.452 322.539 94.452 322.429C94.452 322.32 94.4186 322.213 94.3578 322.13C94.2969 322.046 94.2126 321.991 94.1198 321.973C94.027 321.991 93.9427 322.046 93.8818 322.13C93.821 322.213 93.7876 322.32 93.7876 322.429C93.7876 322.539 93.821 322.645 93.8818 322.729C93.9427 322.812 94.027 322.868 94.1198 322.886Z" fill="white"/>
<path d="M122.997 316.142C123.09 316.125 123.174 316.069 123.235 315.985C123.296 315.902 123.329 315.796 123.329 315.686C123.329 315.576 123.296 315.47 123.235 315.387C123.174 315.303 123.09 315.247 122.997 315.23C122.904 315.247 122.82 315.303 122.759 315.387C122.698 315.47 122.665 315.576 122.665 315.686C122.665 315.796 122.698 315.902 122.759 315.985C122.82 316.069 122.904 316.125 122.997 316.142Z" fill="white"/>
<path d="M121.558 274.857C121.651 274.839 121.735 274.783 121.796 274.7C121.857 274.616 121.89 274.51 121.89 274.4C121.89 274.291 121.857 274.185 121.796 274.101C121.735 274.017 121.651 273.962 121.558 273.944C121.465 273.962 121.381 274.017 121.32 274.101C121.259 274.185 121.226 274.291 121.226 274.4C121.226 274.51 121.259 274.616 121.32 274.7C121.381 274.783 121.465 274.839 121.558 274.857Z" fill="white"/>
<path d="M67.6824 335.714C67.6824 336.031 67.6824 336.323 67.6824 336.627C67.5578 339.118 66.9921 341.551 66.021 343.774C65.0499 345.997 63.6945 347.96 62.0404 349.541C61.8319 349.748 61.6129 349.943 61.3939 350.125L61.081 350.405C58.0867 346.9 56.3936 342.161 56.3672 337.211C56.3672 336.846 56.3672 336.493 56.3672 336.128C56.5198 333.61 57.0979 331.152 58.068 328.896C59.0381 326.64 60.3811 324.63 62.0196 322.983L62.2595 322.739L62.5515 322.447C64.154 324.117 65.4387 326.16 66.3225 328.446C67.2063 330.731 67.6695 333.207 67.6824 335.714Z" fill="#8CC63F"/>
<path d="M67.6622 336.627C67.6013 339.211 67.0662 341.75 66.0929 344.072C65.1196 346.395 63.7308 348.446 62.0202 350.089L61.6552 350.442L61.3736 350.125C58.3915 346.826 56.6073 342.317 56.3887 337.528C56.3887 337.065 56.3887 336.59 56.3887 336.128C56.4807 333.522 57.0244 330.965 57.9869 328.612C58.9495 326.258 60.3109 324.157 61.9889 322.435C61.9889 322.435 61.9889 322.435 61.9889 322.496L62.2288 322.739C63.8192 324.312 65.1177 326.247 66.0448 328.425C66.9719 330.604 67.5081 332.981 67.6204 335.41C67.6622 335.812 67.6726 336.225 67.6622 336.627Z" fill="#8CC63F"/>
<path d="M67.683 335.714C67.683 336.031 67.683 336.323 67.683 336.627C67.6221 339.211 67.087 341.75 66.1137 344.072C65.1404 346.395 63.7516 348.446 62.041 350.089V322.484L62.2809 322.727L62.5729 322.435C64.1729 324.108 65.4545 326.155 66.3347 328.442C67.2149 330.729 67.6742 333.207 67.683 335.714Z" fill="#39B54A"/>
<path d="M61.5196 334.753C61.6239 335.033 61.7282 335.313 61.8221 335.593C62.5996 337.914 62.953 340.399 62.8596 342.889C62.7663 345.379 62.2281 347.819 61.2798 350.052C61.1547 350.332 61.0399 350.612 60.9043 350.892L60.7166 351.282C56.7429 349.536 53.5149 346.039 51.727 341.545C51.5903 341.22 51.4685 340.886 51.362 340.546C50.6009 338.189 50.2494 335.677 50.3282 333.159C50.407 330.641 50.9144 328.167 51.8209 325.88C51.8209 325.758 51.9043 325.649 51.9565 325.527L52.1129 325.137C54.1674 325.889 56.0651 327.132 57.6848 328.788C59.3044 330.443 60.6105 332.475 61.5196 334.753Z" fill="#8CC63F"/>
<path d="M61.8217 335.593C62.6866 337.969 63.1026 340.536 63.0414 343.117C62.9802 345.698 62.4433 348.234 61.4671 350.551L61.2585 351.038L60.904 350.892C57.0148 349.307 53.7867 346.057 51.8726 341.8C51.6849 341.374 51.5181 340.948 51.3616 340.522C50.5116 338.114 50.0926 335.529 50.1303 332.925C50.1679 330.321 50.6615 327.754 51.5806 325.381H51.6432L51.9561 325.478C53.9591 326.162 55.8231 327.311 57.436 328.857C59.0489 330.403 60.3775 332.313 61.342 334.473C61.5401 334.85 61.7278 335.215 61.8217 335.593Z" fill="#8CC63F"/>
<path d="M61.5191 334.753C61.6234 335.033 61.7277 335.313 61.8216 335.593C62.6864 337.969 63.1024 340.536 63.0413 343.117C62.9801 345.698 62.4431 348.234 61.467 350.551L51.6431 325.393L51.9559 325.49L52.1124 325.101C54.1698 325.856 56.0692 327.105 57.6891 328.767C59.309 330.429 60.6135 332.468 61.5191 334.753Z" fill="#39B54A"/>
<path d="M72.3758 339.585C72.2924 339.877 72.209 340.169 72.1151 340.449C71.3445 342.782 70.1683 344.904 68.6607 346.68C67.153 348.456 65.3465 349.849 63.355 350.77L62.5937 351.111L62.2287 351.257C60.2855 346.865 59.9106 341.755 61.1858 337.041C61.2797 336.688 61.3839 336.347 61.4986 336.006C62.3007 333.656 63.4931 331.513 65.0072 329.702C66.5214 327.891 68.3274 326.447 70.3214 325.454L70.6238 325.296L70.9679 325.137C72.0603 327.294 72.7504 329.696 72.993 332.186C73.2356 334.675 73.0253 337.197 72.3758 339.585Z" fill="#8CC63F"/>
<path d="M72.1565 340.449C71.4196 342.893 70.2438 345.125 68.7078 346.995C67.1718 348.865 65.3111 350.331 63.2503 351.294L62.7706 351.537L62.5933 351.148C60.6169 346.95 60.0944 342.028 61.1333 337.394C61.2376 336.932 61.3523 336.493 61.4879 336.043C62.255 333.588 63.4407 331.339 64.9733 329.433C66.5058 327.527 68.3534 326.004 70.4045 324.955V325.016L70.5817 325.332C71.6852 327.393 72.4147 329.697 72.725 332.1C73.0353 334.504 72.9199 336.956 72.3859 339.305C72.3338 339.67 72.2295 340.06 72.1565 340.449Z" fill="#8CC63F"/>
<path d="M72.3754 339.585C72.2919 339.877 72.2085 340.169 72.1146 340.449C71.3777 342.893 70.2019 345.125 68.6659 346.995C67.1299 348.865 65.2693 350.331 63.2085 351.294L70.4356 324.979L70.6129 325.296L70.9571 325.137C72.0512 327.293 72.7431 329.695 72.9875 332.184C73.2319 334.674 73.0233 337.196 72.3754 339.585Z" fill="#39B54A"/>
<path d="M75.7962 350.843V352.061C75.7934 352.682 75.5802 353.276 75.203 353.714C74.8258 354.152 74.3155 354.398 73.7834 354.398H50.7255C50.4296 354.399 50.1364 354.333 49.8626 354.202C49.5888 354.072 49.3397 353.879 49.1295 353.636C48.9194 353.393 48.7523 353.104 48.6379 352.786C48.5234 352.468 48.4638 352.126 48.4624 351.781V350.564C48.4638 350.311 48.5077 350.061 48.5918 349.829C48.6759 349.596 48.7984 349.385 48.9524 349.207C49.1064 349.03 49.2888 348.89 49.4892 348.794C49.6896 348.699 49.9042 348.651 50.1206 348.653H73.8982C74.1461 348.651 74.3918 348.706 74.6213 348.816C74.8509 348.925 75.0597 349.086 75.236 349.289C75.4122 349.493 75.5524 349.735 75.6485 350.001C75.7446 350.268 75.7948 350.554 75.7962 350.843Z" fill="#C69C6D"/>
<path d="M73.0956 356.223L71.3853 374.043C71.2497 375.333 69.8522 376.343 68.1732 376.343H55.471C53.9692 376.343 52.7282 375.442 52.6343 374.286L51.1743 356.223H73.0956Z" fill="#C69C6D"/>
<path d="M73.1992 354.897L73.074 356.223H51.1736L51.0693 354.897C51.0693 354.592 51.3509 354.349 51.7368 354.349H72.5943C72.928 354.349 73.1992 354.605 73.1992 354.897Z" fill="#8C6239"/>
<path opacity="0.1" d="M75.7958 350.843V352.061C75.7931 352.682 75.5798 353.276 75.2026 353.714C74.8255 354.152 74.3151 354.398 73.7831 354.398H72.5316C72.9279 354.398 73.2304 354.653 73.1991 354.945L73.0739 356.272L71.3636 374.091C71.2384 375.381 69.841 376.392 68.162 376.392H62.1133V348.653H73.8978C74.1457 348.651 74.3914 348.706 74.621 348.816C74.8505 348.925 75.0593 349.086 75.2356 349.289C75.4118 349.493 75.552 349.735 75.6481 350.001C75.7443 350.268 75.7945 350.554 75.7958 350.843Z" fill="black"/>
<path d="M56.3364 278.374C68.8003 278.374 78.9043 266.958 78.9043 252.875C78.9043 238.792 68.8003 227.376 56.3364 227.376C43.8725 227.376 33.7686 238.792 33.7686 252.875C33.7686 266.958 43.8725 278.374 56.3364 278.374Z" fill="#1192BF"/>
<path d="M56.3361 276.05C67.746 276.05 76.9955 265.674 76.9955 252.875C76.9955 240.076 67.746 229.7 56.3361 229.7C44.9263 229.7 35.6768 240.076 35.6768 252.875C35.6768 265.674 44.9263 276.05 56.3361 276.05Z" fill="white"/>
<path d="M56.6907 231.867C56.6907 231.645 56.5367 231.465 56.3466 231.465C56.1565 231.465 56.0024 231.645 56.0024 231.867V235.068C56.0024 235.29 56.1565 235.47 56.3466 235.47C56.5367 235.47 56.6907 235.29 56.6907 235.068V231.867Z" fill="#1192BF"/>
<path d="M75.7652 253.277C75.9553 253.277 76.1094 253.097 76.1094 252.875C76.1094 252.653 75.9553 252.474 75.7652 252.474H73.0329C72.8428 252.474 72.6887 252.653 72.6887 252.875C72.6887 253.097 72.8428 253.277 73.0329 253.277H75.7652Z" fill="#1192BF"/>
<path d="M39.65 253.289C39.84 253.289 39.9941 253.109 39.9941 252.887C39.9941 252.666 39.84 252.486 39.65 252.486H36.9176C36.7276 252.486 36.5735 252.666 36.5735 252.887C36.5735 253.109 36.7276 253.289 36.9176 253.289H39.65Z" fill="#1192BF"/>
<path d="M40.057 240.862C40.0812 240.818 40.1127 240.781 40.1496 240.751C40.1865 240.722 40.2281 240.702 40.2718 240.691C40.3156 240.681 40.3607 240.681 40.4044 240.692C40.4481 240.702 40.4895 240.723 40.5263 240.752L42.8102 242.529C42.8844 242.591 42.9356 242.683 42.953 242.787C42.9705 242.892 42.953 243 42.9041 243.089C42.8514 243.176 42.7722 243.236 42.6829 243.256C42.5937 243.276 42.5011 243.256 42.4243 243.199L40.1509 241.422C40.0767 241.36 40.0255 241.268 40.0081 241.164C39.9906 241.06 40.0081 240.951 40.057 240.862Z" fill="#1192BF"/>
<path d="M46.4397 234.301C46.5185 234.248 46.6122 234.234 46.7002 234.261C46.7881 234.289 46.8632 234.356 46.909 234.447L48.2751 237.223C48.3206 237.315 48.3329 237.424 48.3095 237.527C48.286 237.629 48.2287 237.717 48.15 237.77C48.0711 237.823 47.9774 237.838 47.8895 237.81C47.8015 237.783 47.7265 237.716 47.6807 237.624L46.3145 234.849C46.2691 234.757 46.2567 234.648 46.2802 234.545C46.3036 234.442 46.361 234.355 46.4397 234.301Z" fill="#1192BF"/>
<path d="M72.4588 240.862C72.4061 240.775 72.3269 240.716 72.2376 240.695C72.1483 240.675 72.0558 240.695 71.979 240.752L69.7056 242.529C69.6313 242.591 69.5802 242.683 69.5628 242.787C69.5453 242.892 69.5628 243 69.6117 243.089C69.6359 243.133 69.6674 243.171 69.7043 243.2C69.7412 243.229 69.7828 243.25 69.8265 243.26C69.8703 243.27 69.9153 243.27 69.959 243.259C70.0028 243.249 70.0442 243.228 70.081 243.199L72.3649 241.422C72.4391 241.36 72.4902 241.268 72.5077 241.164C72.5252 241.059 72.5077 240.951 72.4588 240.862Z" fill="#1192BF"/>
<path d="M42.9563 262.965C42.9036 262.879 42.8245 262.819 42.7352 262.799C42.6459 262.778 42.5533 262.799 42.4766 262.856L40.2031 264.633C40.1653 264.662 40.1328 264.7 40.1076 264.744C40.0824 264.788 40.0649 264.838 40.0562 264.89C40.0475 264.942 40.0477 264.995 40.0568 265.047C40.0659 265.099 40.0837 265.149 40.1092 265.193C40.1335 265.236 40.1649 265.274 40.2018 265.303C40.2387 265.333 40.2803 265.353 40.3241 265.363C40.3678 265.373 40.4129 265.373 40.4566 265.363C40.5003 265.352 40.5418 265.332 40.5785 265.302L42.8624 263.513C42.8999 263.485 42.9322 263.448 42.9572 263.405C42.9823 263.362 42.9998 263.313 43.0085 263.262C43.0173 263.211 43.0171 263.159 43.0082 263.108C42.9992 263.057 42.9816 263.008 42.9563 262.965Z" fill="#1192BF"/>
<path d="M66.1185 234.289C66.0799 234.261 66.0367 234.243 65.9917 234.235C65.9467 234.227 65.9008 234.23 65.8569 234.244C65.8129 234.258 65.7718 234.282 65.7361 234.315C65.7004 234.347 65.6709 234.389 65.6493 234.435L64.2831 237.21C64.2403 237.303 64.2294 237.411 64.2527 237.513C64.2759 237.615 64.3316 237.702 64.4082 237.758C64.4871 237.811 64.5808 237.825 64.6687 237.798C64.7567 237.771 64.8317 237.704 64.8775 237.612L66.2437 234.837C66.2891 234.745 66.3015 234.636 66.278 234.533C66.2546 234.43 66.1972 234.343 66.1185 234.289Z" fill="#1192BF"/>
<path d="M48.1705 268.613C48.1318 268.585 48.0887 268.567 48.0437 268.559C47.9987 268.551 47.9528 268.554 47.9089 268.568C47.8649 268.582 47.8238 268.606 47.7881 268.638C47.7524 268.671 47.7228 268.712 47.7012 268.759L46.335 271.534C46.2896 271.626 46.2772 271.736 46.3007 271.838C46.3241 271.941 46.3815 272.028 46.4602 272.082C46.539 272.135 46.6327 272.149 46.7207 272.122C46.8086 272.095 46.8837 272.028 46.9295 271.936L48.2956 269.161C48.3411 269.069 48.3534 268.959 48.33 268.857C48.3065 268.754 48.2492 268.666 48.1705 268.613Z" fill="#1192BF"/>
<path d="M63.3342 268.613C63.372 268.585 63.4144 268.567 63.4586 268.559C63.5028 268.551 63.5479 268.555 63.5911 268.568C63.6342 268.582 63.6744 268.606 63.7092 268.639C63.7439 268.672 63.7725 268.712 63.7931 268.759L65.1696 271.534C65.2124 271.627 65.2233 271.735 65.2 271.837C65.1768 271.938 65.1212 272.026 65.0445 272.082C64.9656 272.135 64.872 272.149 64.784 272.122C64.696 272.094 64.621 272.027 64.5752 271.936L63.209 269.16C63.1636 269.068 63.1513 268.959 63.1747 268.856C63.1982 268.754 63.2555 268.666 63.3342 268.613Z" fill="#1192BF"/>
<path d="M69.2157 263.659C69.2399 263.615 69.2714 263.578 69.3083 263.548C69.3452 263.519 69.3868 263.499 69.4305 263.489C69.4743 263.478 69.5193 263.478 69.5631 263.489C69.6068 263.499 69.6482 263.52 69.685 263.549L71.9689 265.327C72.0067 265.356 72.0392 265.394 72.0644 265.438C72.0896 265.482 72.1071 265.532 72.1158 265.584C72.1245 265.636 72.1243 265.689 72.1152 265.741C72.1061 265.793 72.0883 265.843 72.0628 265.886C72.0101 265.973 71.931 266.033 71.8417 266.053C71.7524 266.073 71.6598 266.053 71.5831 265.996L69.3096 264.219C69.2354 264.157 69.1842 264.065 69.1668 263.961C69.1493 263.857 69.1668 263.749 69.2157 263.659Z" fill="#1192BF"/>
<path d="M57.0242 271.169C57.0242 270.947 56.8702 270.767 56.6801 270.767C56.49 270.767 56.3359 270.947 56.3359 271.169V274.37C56.3359 274.592 56.49 274.772 56.6801 274.772C56.8702 274.772 57.0242 274.592 57.0242 274.37V271.169Z" fill="#1192BF"/>
<path d="M56.3363 252.838C56.751 252.838 57.0872 252.446 57.0872 251.962C57.0872 251.478 56.751 251.086 56.3363 251.086C55.9216 251.086 55.5854 251.478 55.5854 251.962C55.5854 252.446 55.9216 252.838 56.3363 252.838Z" fill="black"/>
<path d="M50.3185 245.706L56.3359 251.962V251.001L51.4135 243.941L49.6406 242.98L50.3185 245.706Z" fill="black"/>
<path d="M56.7741 263.927L56.6802 251.962L55.9085 252.924L54.4067 264.657L55.1472 267.31L56.7741 263.927Z" fill="black"/>
<path d="M643.183 359.437C643.048 359.984 642.922 360.532 642.808 361.092L642.745 361.372C642.089 364.519 641.649 367.722 641.431 370.951C641.431 371.486 641.348 372.034 641.327 372.594H606.161C605.379 372.168 600.822 369.588 601.135 365.62C601.406 362.163 605.212 359.96 606.161 359.437H643.183Z" fill="#4364AF"/>
<path d="M642.808 361.092L642.746 361.372C642.089 364.519 641.65 367.722 641.432 370.951H606.162C607.204 370.135 609.468 367.981 608.915 365.121C608.447 363.432 607.468 362 606.162 361.092H642.808Z" fill="white"/>
<path d="M641.776 385.861C641.421 386.106 641.056 386.329 640.681 386.53H598.257V373.373H640.681L641.286 373.726C641.189 376.449 641.231 379.176 641.411 381.893C641.411 382.295 641.474 382.696 641.515 383.11C641.515 383.962 641.641 384.778 641.745 385.545L641.776 385.861Z" fill="#F6921E"/>
<path d="M598.466 375.016H640.681C639.382 375.939 638.406 377.372 637.928 379.057C637.375 381.905 639.691 384.06 640.681 384.887H598.466C597.314 383.432 596.69 381.512 596.724 379.532C596.887 377.852 597.496 376.273 598.466 375.016Z" fill="white"/>
<path d="M594.325 413.539H535.986V420.282H594.325V413.539Z" fill="#3E4344"/>
<path d="M543.954 274.163C543.954 274.163 554.602 273.822 561.308 267.651C568.013 261.48 563.925 254.433 563.925 254.433C565.792 248.201 557.585 243.418 557.585 243.418C557.585 236.432 545.873 235.202 545.873 235.202C538.646 222.057 529.396 229.445 529.396 229.445C529.396 229.445 516.964 224.114 513.398 233.097C513.398 233.097 504.241 237.211 506.859 244.599C506.859 244.599 503.24 252.486 508.486 256.977C513.732 261.468 543.954 274.163 543.954 274.163Z" fill="black" stroke="black" stroke-width="0.222275" stroke-miterlimit="10"/>
<path d="M532.044 294.112H541.962V274.151H532.044V294.112Z" fill="#FFD4A9"/>
<path d="M517.663 263.72C520.187 272.459 524.661 280.273 533.306 280.273C541.952 280.273 548.95 272.861 548.95 263.72C548.95 254.579 541.889 247.374 533.306 247.179C511.51 246.68 514.462 252.644 517.663 263.72Z" fill="#FFD4A9"/>
<path d="M548.95 268.686C552.054 268.686 554.571 266.027 554.571 262.746C554.571 259.466 552.054 256.807 548.95 256.807C545.845 256.807 543.329 259.466 543.329 262.746C543.329 266.027 545.845 268.686 548.95 268.686Z" fill="#FFD4A9"/>
<path d="M526.047 256.502C524.246 256.129 522.396 256.212 520.624 256.746C520.051 256.892 519.467 256.539 519.467 256.027V255.881C519.48 255.713 519.54 255.554 519.638 255.428C519.736 255.303 519.866 255.219 520.009 255.188C521.25 254.737 524.389 253.861 526.809 255.188C526.924 255.239 527.025 255.326 527.101 255.44C527.176 255.553 527.223 255.69 527.236 255.833C527.236 256.307 526.621 256.673 526.047 256.502Z" fill="#1A1A1A"/>
<path d="M539.105 256.526C537.317 256.153 535.481 256.236 533.723 256.77C533.15 256.916 532.576 256.563 532.576 256.052V255.906C532.59 255.737 532.65 255.578 532.748 255.453C532.846 255.327 532.976 255.243 533.118 255.212C534.349 254.762 537.467 253.885 539.866 255.212C539.981 255.262 540.081 255.35 540.155 255.464C540.229 255.578 540.273 255.714 540.283 255.857C540.283 256.332 539.678 256.697 539.105 256.526Z" fill="#1A1A1A"/>
<path d="M537.196 259.959C537.91 259.959 538.489 259.25 538.489 258.376C538.489 257.503 537.91 256.794 537.196 256.794C536.482 256.794 535.903 257.503 535.903 258.376C535.903 259.25 536.482 259.959 537.196 259.959Z" fill="#1A1A1A"/>
<path d="M536.8 259.058C536.944 259.058 537.061 258.791 537.061 258.462C537.061 258.133 536.944 257.865 536.8 257.865C536.656 257.865 536.539 258.133 536.539 258.462C536.539 258.791 536.656 259.058 536.8 259.058Z" fill="white"/>
<path d="M522.836 260.008C523.55 260.008 524.129 259.299 524.129 258.425C524.129 257.551 523.55 256.843 522.836 256.843C522.121 256.843 521.542 257.551 521.542 258.425C521.542 259.299 522.121 260.008 522.836 260.008Z" fill="#1A1A1A"/>
<path d="M522.44 259.107C522.584 259.107 522.701 258.84 522.701 258.51C522.701 258.181 522.584 257.914 522.44 257.914C522.296 257.914 522.179 258.181 522.179 258.51C522.179 258.84 522.296 259.107 522.44 259.107Z" fill="white"/>
<path d="M527.998 259.107C527.998 259.107 522.731 268.333 530.261 265.497" stroke="black" stroke-width="0.444551" stroke-miterlimit="10"/>
<path d="M530.262 268.771C530.262 268.771 532.598 269.185 533.307 267.651" stroke="black" stroke-width="0.444551" stroke-miterlimit="10"/>
<path d="M495.617 384.473C495.617 384.473 547.521 423.714 563.227 396.645C578.932 369.575 565.876 356.138 565.876 356.138L493.354 350.052C492.113 350.588 485.793 353.497 483.655 360.143C481.079 368.249 485.136 380.396 495.617 384.473Z" fill="#2D3E42"/>
<path d="M511.062 391.241L509.79 393.675L507.558 398.02L500.936 410.971L491.883 428.668C489.182 425.418 486.732 418.821 482.498 397.728C481.34 391.971 480.057 385.082 478.597 376.878L479.943 371.34C480.53 368.898 481.53 366.618 482.883 364.634C485.093 361.405 488.205 359.186 491.675 358.366H491.727C495.216 357.571 498.833 358.135 502.02 359.972C502.763 360.389 503.484 360.856 504.179 361.372L504.815 361.847C506.5 363.183 507.989 364.827 509.226 366.715C513.982 373.848 514.889 383.78 511.062 391.241Z" fill="#2D3E42"/>
<path d="M513.825 400.929C513.825 400.929 571.319 433.938 582.989 405.08C594.659 376.221 579.683 364.305 579.683 364.305L506.525 366.873C505.378 367.555 499.496 371.219 498.349 378.108C496.962 386.457 502.76 398.105 513.825 400.929Z" fill="#456C77"/>
<path d="M540.211 422.631C529.698 425.15 520.01 431.273 511.073 433.585L500.936 411.031L496.107 400.284C493.905 395.293 493.405 389.512 494.71 384.108C495.484 380.727 496.866 377.576 498.762 374.865C500.659 372.154 503.028 369.944 505.712 368.383C506.538 367.925 507.384 367.519 508.246 367.165L509.029 366.849H509.102H509.258C512.637 365.583 516.256 365.474 519.687 366.532C522.82 367.492 525.667 369.439 527.915 372.162C530.163 374.884 531.725 378.276 532.431 381.966L536.863 405.165L538.156 411.932L540.211 422.631Z" fill="#456C77"/>
<path d="M533.108 286.42C533.108 286.42 517.767 281.649 513.168 286.42C508.569 291.191 508.997 294.124 508.997 294.124C508.997 294.124 501.331 324.2 509.32 349.505C517.308 374.809 572.184 355.737 572.184 355.737L571.434 335.568H593.334C593.334 335.568 595.983 288.988 578.202 286.055C566.778 284.332 555.211 284.332 543.787 286.055L533.108 286.42Z" fill="white"/>
<path d="M519.947 310.921C519.947 310.921 514.472 325.953 514.868 334.777" stroke="black" stroke-width="0.889101" stroke-miterlimit="10"/>
<path d="M571.997 335.288L568.681 311.262" stroke="black" stroke-width="0.444551" stroke-miterlimit="10"/>
<path d="M518.57 324.407L515.296 328.558L510.895 334.144L506.869 339.256L502.823 344.381L498.005 350.491L491.768 358.414H491.758L491.727 358.463L491.695 358.426L487.649 353.911L469.837 334.071L463.35 326.841L458.354 321.279L463.35 314.95L467.135 310.142L485.198 287.235L506.264 310.702L516.578 322.192L518.57 324.407Z" fill="#E6E6E6"/>
<path d="M491.132 297.642L467.469 327.657L464.977 324.882L488.639 294.867L491.132 297.642Z" fill="#31317C"/>
<path d="M492.853 317.275L476.97 337.406L472.976 332.951L488.849 312.82L492.853 317.275Z" fill="#31317C"/>
<path d="M508.111 316.13L484.448 346.145L481.956 343.37L505.618 313.355L508.111 316.13Z" fill="#31317C"/>
<path d="M593.334 335.568C594.851 345.261 594.9 355.189 593.48 364.902C591.071 380.311 504.033 345.099 504.033 345.099C504.033 345.099 474.895 328.594 504.033 333C533.171 337.406 571.914 349.541 571.914 349.541L571.392 335.568H593.334Z" fill="#FFD4A9"/>
<path d="M593.439 460.923C590.988 459.032 588.827 456.675 587.046 453.948L578.275 420.294L577.629 417.86L581.8 416.375L582.843 420.318L593.439 460.923Z" fill="#3E4344"/>
<path d="M641.243 341.252H612.366C612.366 340.802 612.502 340.352 612.585 339.913C612.585 339.694 612.679 339.475 612.731 339.256H640.889C640.889 339.475 640.983 339.694 641.024 339.913C641.108 340.352 641.181 340.802 641.243 341.252Z" fill="#CCCCCC"/>
<path opacity="0.1" d="M641.421 343.967C641.431 346.899 640.807 349.786 639.608 352.362C638.408 354.939 636.672 357.121 634.559 358.706H626.8V335.97H639.784C640.241 337.02 640.607 338.121 640.879 339.256C641.025 339.913 641.15 340.583 641.244 341.252C641.361 342.151 641.42 343.058 641.421 343.967Z" fill="black"/>
<path d="M632.609 323.896C632.609 324.188 632.609 324.492 632.609 324.784C632.496 327.215 631.959 329.593 631.032 331.774C630.105 333.954 628.807 335.891 627.218 337.467L626.602 338.039L626.3 338.307C623.409 334.836 621.78 330.196 621.753 325.356C621.753 324.999 621.753 324.646 621.753 324.297C622.023 319.336 623.961 314.699 627.145 311.396L627.374 311.14L627.645 310.872C629.198 312.526 630.441 314.536 631.295 316.778C632.149 319.019 632.597 321.443 632.609 323.896Z" fill="#8CC63F"/>
<path d="M632.588 324.76C632.534 327.281 632.026 329.761 631.097 332.038C630.168 334.315 628.839 336.339 627.197 337.978L626.842 338.319L626.581 338.015C623.719 334.737 622.018 330.323 621.815 325.648C621.815 325.186 621.815 324.723 621.815 324.273C621.895 321.738 622.408 319.248 623.325 316.948C624.242 314.649 625.544 312.587 627.155 310.884H627.207L627.437 311.116C628.96 312.682 630.199 314.588 631.081 316.723C631.962 318.857 632.467 321.176 632.567 323.543C632.588 323.981 632.588 324.383 632.588 324.76Z" fill="#8CC63F"/>
<path d="M632.609 323.896C632.609 324.188 632.609 324.492 632.609 324.784C632.554 327.306 632.046 329.785 631.117 332.062C630.189 334.34 628.86 336.363 627.217 338.003V310.897L627.447 311.128L627.718 310.86C629.259 312.522 630.489 314.538 631.33 316.782C632.172 319.025 632.607 321.447 632.609 323.896Z" fill="#39B54A"/>
<path d="M626.717 322.946C626.821 323.214 626.915 323.494 627.009 323.774C627.751 326.057 628.087 328.493 627.997 330.932C627.908 333.372 627.394 335.765 626.487 337.966C626.373 338.246 626.258 338.514 626.133 338.794L625.945 339.171C622.12 337.412 619.039 333.973 617.362 329.592C617.237 329.263 617.123 328.935 617.008 328.606C615.542 323.923 615.699 318.757 617.446 314.207L617.581 313.806C617.581 313.684 617.675 313.55 617.738 313.416C619.722 314.183 621.547 315.428 623.094 317.069C624.64 318.711 625.875 320.713 626.717 322.946Z" fill="#8CC63F"/>
<path d="M626.967 323.774C627.792 326.113 628.189 328.627 628.131 331.155C628.074 333.683 627.564 336.169 626.634 338.453L626.435 338.928L626.091 338.794C622.343 337.209 619.254 334.013 617.456 329.86C617.279 329.446 617.122 329.032 616.966 328.643C616.158 326.272 615.76 323.739 615.796 321.188C615.831 318.637 616.3 316.12 617.175 313.781H617.237L617.54 313.879C619.474 314.561 621.269 315.695 622.816 317.212C624.363 318.729 625.63 320.597 626.54 322.703C626.738 323.044 626.873 323.397 626.967 323.774Z" fill="#8CC63F"/>
<path d="M626.717 322.946C626.821 323.214 626.915 323.494 627.009 323.774C627.834 326.113 628.23 328.627 628.173 331.155C628.115 333.683 627.605 336.169 626.675 338.453L617.289 313.757L617.592 313.854C617.592 313.733 617.685 313.599 617.748 313.465C619.727 314.228 621.547 315.466 623.091 317.099C624.636 318.732 625.871 320.724 626.717 322.946Z" fill="#39B54A"/>
<path d="M637.083 327.693C637.01 327.973 636.927 328.253 636.843 328.533C636.123 330.801 635.011 332.871 633.575 334.615C632.14 336.36 630.412 337.74 628.5 338.672C628.26 338.794 628.02 338.903 627.77 339.001L627.426 339.147C625.559 334.821 625.185 329.824 626.383 325.186C626.467 324.845 626.571 324.504 626.675 324.176C628.199 319.555 631.229 315.827 635.102 313.806L635.394 313.66L635.717 313.501C636.766 315.631 637.429 317.99 637.664 320.432C637.899 322.873 637.701 325.345 637.083 327.693Z" fill="#8CC63F"/>
<path d="M636.843 328.533C636.153 330.911 635.037 333.091 633.57 334.927C632.103 336.763 630.317 338.214 628.333 339.183L627.916 339.378L627.738 339.001C625.85 334.856 625.356 330.038 626.351 325.49C626.445 325.052 626.56 324.614 626.685 324.176C627.406 321.785 628.531 319.589 629.995 317.717C631.459 315.845 633.231 314.337 635.205 313.282V313.343L635.372 313.66C636.427 315.697 637.124 317.96 637.421 320.315C637.718 322.67 637.61 325.071 637.103 327.377C637.041 327.766 636.947 328.156 636.843 328.533Z" fill="#8CC63F"/>
<path d="M637.083 327.693C637.01 327.973 636.927 328.253 636.843 328.533C636.153 330.911 635.038 333.091 633.571 334.927C632.103 336.763 630.318 338.214 628.333 339.183L635.237 313.343L635.404 313.66L635.728 313.501C636.775 315.632 637.436 317.991 637.669 320.433C637.902 322.874 637.703 325.346 637.083 327.693Z" fill="#39B54A"/>
<path d="M641.421 343.967C641.431 346.899 640.808 349.786 639.608 352.363C638.409 354.939 636.673 357.121 634.559 358.706H619.041C616.929 357.12 615.194 354.938 613.997 352.361C612.799 349.785 612.178 346.898 612.19 343.967C612.19 343.455 612.19 342.956 612.19 342.457C612.19 341.958 612.263 341.654 612.315 341.24C612.367 340.826 612.45 340.34 612.534 339.901C612.534 339.682 612.628 339.463 612.68 339.244C612.93 338.11 613.279 337.009 613.723 335.958H639.68C640.137 337.009 640.504 338.109 640.775 339.244C640.775 339.463 640.869 339.682 640.91 339.901C641.004 340.34 641.077 340.79 641.14 341.24C641.203 341.691 641.234 342.044 641.255 342.457C641.275 342.871 641.421 343.455 641.421 343.967Z" fill="#C69C6D"/>
<path d="M641.359 342.457H612.242C612.242 342.052 612.283 341.646 612.367 341.24C612.367 340.79 612.502 340.34 612.586 339.901H641.015C641.108 340.34 641.182 340.79 641.244 341.24C641.307 341.691 641.338 342.056 641.359 342.457Z" fill="#E6E6E6"/>
<path d="M495.002 259.922C495.417 259.922 495.815 259.73 496.108 259.388C496.401 259.045 496.566 258.581 496.566 258.097C496.566 257.612 496.401 257.148 496.108 256.806C495.815 256.463 495.417 256.271 495.002 256.271C494.587 256.271 494.189 256.463 493.896 256.806C493.602 257.148 493.438 257.612 493.438 258.097C493.438 258.581 493.602 259.045 493.896 259.388C494.189 259.73 494.587 259.922 495.002 259.922Z" fill="#121249"/>
<path d="M499.34 261.079C499.433 261.061 499.518 261.005 499.578 260.922C499.639 260.838 499.673 260.732 499.673 260.622C499.673 260.513 499.639 260.407 499.578 260.323C499.518 260.239 499.433 260.184 499.34 260.166C499.248 260.184 499.163 260.239 499.103 260.323C499.042 260.407 499.008 260.513 499.008 260.622C499.008 260.732 499.042 260.838 499.103 260.922C499.163 261.005 499.248 261.061 499.34 261.079Z" fill="#121249"/>
<path d="M499.34 253.106C499.548 253.106 499.747 253.01 499.893 252.839C500.04 252.668 500.122 252.436 500.122 252.194C500.122 251.952 500.04 251.719 499.893 251.548C499.747 251.377 499.548 251.281 499.34 251.281C499.133 251.281 498.934 251.377 498.787 251.548C498.641 251.719 498.558 251.952 498.558 252.194C498.558 252.436 498.641 252.668 498.787 252.839C498.934 253.01 499.133 253.106 499.34 253.106Z" fill="white"/>
<path d="M505.836 272.495C506.044 272.495 506.243 272.399 506.389 272.228C506.536 272.057 506.618 271.825 506.618 271.583C506.618 271.34 506.536 271.108 506.389 270.937C506.243 270.766 506.044 270.67 505.836 270.67C505.629 270.67 505.43 270.766 505.283 270.937C505.137 271.108 505.054 271.34 505.054 271.583C505.054 271.825 505.137 272.057 505.283 272.228C505.43 272.399 505.629 272.495 505.836 272.495Z" fill="white"/>
<path d="M491.393 270.804C491.6 270.804 491.799 270.707 491.946 270.536C492.093 270.365 492.175 270.133 492.175 269.891C492.175 269.649 492.093 269.416 491.946 269.245C491.799 269.074 491.6 268.978 491.393 268.978C491.186 268.978 490.987 269.074 490.84 269.245C490.693 269.416 490.611 269.649 490.611 269.891C490.611 270.133 490.693 270.365 490.84 270.536C490.987 270.707 491.186 270.804 491.393 270.804Z" fill="white"/>
<path d="M498.609 285.969C498.817 285.969 499.016 285.873 499.162 285.702C499.309 285.531 499.391 285.299 499.391 285.057C499.391 284.814 499.309 284.582 499.162 284.411C499.016 284.24 498.817 284.144 498.609 284.144C498.402 284.144 498.203 284.24 498.056 284.411C497.91 284.582 497.827 284.814 497.827 285.057C497.827 285.299 497.91 285.531 498.056 285.702C498.203 285.873 498.402 285.969 498.609 285.969Z" fill="white"/>
<path d="M519.551 223.615C519.758 223.615 519.957 223.519 520.104 223.347C520.25 223.176 520.333 222.944 520.333 222.702C520.333 222.46 520.25 222.228 520.104 222.056C519.957 221.885 519.758 221.789 519.551 221.789C519.343 221.789 519.144 221.885 518.998 222.056C518.851 222.228 518.769 222.46 518.769 222.702C518.769 222.944 518.851 223.176 518.998 223.347C519.144 223.519 519.343 223.615 519.551 223.615Z" fill="white"/>
<path d="M508.726 230.358C508.933 230.358 509.132 230.262 509.279 230.09C509.426 229.919 509.508 229.687 509.508 229.445C509.508 229.203 509.426 228.971 509.279 228.799C509.132 228.628 508.933 228.532 508.726 228.532C508.519 228.532 508.32 228.628 508.173 228.799C508.026 228.971 507.944 229.203 507.944 229.445C507.944 229.687 508.026 229.919 508.173 230.09C508.32 230.262 508.519 230.358 508.726 230.358Z" fill="white"/>
<path d="M539.762 224.467C539.969 224.467 540.168 224.371 540.315 224.199C540.461 224.028 540.544 223.796 540.544 223.554C540.544 223.312 540.461 223.08 540.315 222.908C540.168 222.737 539.969 222.641 539.762 222.641C539.554 222.641 539.355 222.737 539.209 222.908C539.062 223.08 538.979 223.312 538.979 223.554C538.979 223.796 539.062 224.028 539.209 224.199C539.355 224.371 539.554 224.467 539.762 224.467Z" fill="white"/>
<path d="M480.568 281.758C480.776 281.758 480.975 281.662 481.121 281.491C481.268 281.32 481.35 281.087 481.35 280.845C481.35 280.603 481.268 280.371 481.121 280.2C480.975 280.029 480.776 279.932 480.568 279.932C480.361 279.932 480.162 280.029 480.015 280.2C479.869 280.371 479.786 280.603 479.786 280.845C479.786 281.087 479.869 281.32 480.015 281.491C480.162 281.662 480.361 281.758 480.568 281.758Z" fill="white"/>
<path d="M479.118 351.696C479.326 351.696 479.524 351.599 479.671 351.428C479.818 351.257 479.9 351.025 479.9 350.783C479.9 350.541 479.818 350.308 479.671 350.137C479.524 349.966 479.326 349.87 479.118 349.87C478.911 349.87 478.712 349.966 478.565 350.137C478.418 350.308 478.336 350.541 478.336 350.783C478.336 351.025 478.418 351.257 478.565 351.428C478.712 351.599 478.911 351.696 479.118 351.696Z" fill="white"/>
<path d="M480.568 360.97C480.776 360.97 480.975 360.874 481.121 360.703C481.268 360.532 481.35 360.299 481.35 360.057C481.35 359.815 481.268 359.583 481.121 359.412C480.975 359.241 480.776 359.144 480.568 359.144C480.361 359.144 480.162 359.241 480.015 359.412C479.869 359.583 479.786 359.815 479.786 360.057C479.786 360.299 479.869 360.532 480.015 360.703C480.162 360.874 480.361 360.97 480.568 360.97Z" fill="white"/>
<path d="M553.486 279.239C553.694 279.239 553.893 279.142 554.039 278.971C554.186 278.8 554.268 278.568 554.268 278.326C554.268 278.084 554.186 277.851 554.039 277.68C553.893 277.509 553.694 277.413 553.486 277.413C553.279 277.413 553.08 277.509 552.933 277.68C552.787 277.851 552.704 278.084 552.704 278.326C552.704 278.568 552.787 278.8 552.933 278.971C553.08 279.142 553.279 279.239 553.486 279.239Z" fill="white"/>
</g>
<defs>
<linearGradient id="paint0_linear" x1="410.925" y1="173.821" x2="410.925" y2="238.014" gradientUnits="userSpaceOnUse">
<stop stop-color="#FCEE21"/>
<stop offset="0.07" stop-color="#FCEE21" stop-opacity="0.84"/>
<stop offset="0.16" stop-color="#FCEE21" stop-opacity="0.65"/>
<stop offset="0.26" stop-color="#FCEE21" stop-opacity="0.47"/>
<stop offset="0.36" stop-color="#FCEE21" stop-opacity="0.33"/>
<stop offset="0.47" stop-color="#FCEE21" stop-opacity="0.21"/>
<stop offset="0.58" stop-color="#FCEE21" stop-opacity="0.12"/>
<stop offset="0.7" stop-color="#FCEE21" stop-opacity="0.05"/>
<stop offset="0.83" stop-color="#FCEE21" stop-opacity="0.01"/>
<stop offset="1" stop-color="#FCEE21" stop-opacity="0"/>
</linearGradient>
<clipPath id="clip0">
<rect width="663.27" height="465" fill="white"/>
</clipPath>
</defs>
</svg>
