<svg width="500" height="549" viewBox="0 0 500 549" fill="none" xmlns="http://www.w3.org/2000/svg">
<g clip-path="url(#clip0)">
<g opacity="0.51">
<path opacity="0.63" d="M203.457 4.09583C203.457 4.09583 201.693 54.8105 254.622 62.0455C307.55 69.2805 291.672 127.335 291.672 127.335C291.672 127.335 304.022 186.467 269.706 163.857C235.391 141.248 227.363 182.606 227.363 182.606C227.363 182.606 163.214 180.658 170.2 129.961C177.187 79.2634 96.3296 51.2799 96.3296 51.2799C96.3296 51.2799 151.887 8.6351 203.457 4.09583Z" fill="#8A8AFF"/>
<path opacity="0.63" d="M318.754 264.695C318.754 264.695 343.348 297.949 328.704 293.479C314.061 289.009 328.704 319.741 328.704 319.741C328.704 319.741 294.53 313.358 293.913 293.462C293.295 273.565 298.711 252.73 318.754 264.695Z" fill="#8A8AFF"/>
<path opacity="0.63" d="M497.301 279.252C480.998 280.991 482.586 259.565 482.586 259.565C482.586 259.565 474.065 209.476 447.301 221.511C420.536 233.546 415.049 184.988 415.049 184.988C415.049 184.988 422.107 154.622 415.984 123.386C410.25 94.3246 443.701 95.6812 448.412 96.0464C468.769 121.703 483.603 151.182 492.009 182.683C500.415 214.183 502.216 247.043 497.301 279.252Z" fill="#8A8AFF"/>
<path opacity="0.63" d="M193.172 476.859C142.249 464.89 96.3963 437.526 62.0319 398.595C50.2133 385.243 39.9023 370.665 31.2803 355.116C41.866 340.489 60.2323 323.376 79.9747 339.967C111.026 366.055 143.613 363.429 143.613 363.429C143.613 363.429 176.181 385.117 167.131 408.3C161.379 422.857 179.269 455.136 193.172 476.859Z" fill="#8A8AFF"/>
<path opacity="0.63" d="M201.834 4.09583C201.834 4.09583 200.07 54.8105 252.999 62.0455C305.927 69.2805 290.049 127.335 290.049 127.335C290.049 127.335 302.399 186.467 268.083 163.857C233.768 141.248 225.74 182.606 225.74 182.606C225.74 182.606 161.591 180.658 168.577 129.961C175.564 79.2634 94.7065 51.2799 94.7065 51.2799C94.7065 51.2799 150.264 8.6351 201.834 4.09583Z" fill="#8A8AFF"/>
<path opacity="0.63" d="M318.648 266.4C318.648 266.4 339.819 295.844 326.252 292.488C312.684 289.131 324.593 316.836 324.593 316.836C324.593 316.836 292.554 313.027 293.26 294.592C293.965 276.157 300.387 256.504 318.648 266.4Z" fill="#8A8AFF"/>
<path opacity="0.63" d="M327.136 105.682C327.136 105.682 357.534 85.1244 354.129 98.3075C350.724 111.49 379.288 99.9249 379.288 99.9249C379.288 99.9249 375.248 130.935 356.211 130.274C337.174 129.613 316.885 123.369 327.136 105.682Z" fill="#8A8AFF"/>
<path opacity="0.63" d="M495.677 279.252C479.375 280.991 480.963 259.565 480.963 259.565C480.963 259.565 472.442 209.476 445.677 221.511C418.913 233.546 413.426 184.988 413.426 184.988C413.426 184.988 420.483 154.622 414.344 123.386C408.627 94.3246 442.078 95.6812 446.789 96.0464C467.146 121.703 481.98 151.182 490.386 182.683C498.792 214.183 500.592 247.043 495.677 279.252Z" fill="#8A8AFF"/>
<path opacity="0.63" d="M191.549 476.859C157.427 468.822 125.393 453.825 97.5122 432.835C69.6311 411.845 46.5221 385.328 29.6753 354.994C40.3669 340.367 58.6449 323.254 78.3873 339.846C109.439 365.933 142.025 363.307 142.025 363.307C142.025 363.307 174.594 384.995 165.543 408.178C159.756 422.857 177.646 455.136 191.549 476.859Z" fill="#8A8AFF"/>
<path opacity="0.63" d="M131.069 270.243C104.728 271.183 62.5085 325.897 46.6828 279.374C38.62 255.617 20.9065 266.643 5.53954 283.148C-5.648 222.826 7.22706 160.576 41.4781 109.386C60.3384 119.63 77.1873 133.074 78.3341 148.535C80.9629 184.293 152.223 225.216 152.223 225.216C152.223 225.216 157.48 269.235 131.069 270.243Z" fill="#8A8AFF"/>
<path opacity="0.63" d="M441.461 399.117C432.92 408.97 423.554 418.098 413.462 426.405C371.998 460.809 320.223 480.844 266.09 483.433C277.629 471.085 287.967 455.362 265.508 455.606C228.599 455.988 265.508 427.361 265.508 427.361C265.508 427.361 302.435 455.188 293.737 404.926C285.039 354.664 347.212 358.09 347.212 358.09C347.212 358.09 349.841 304.366 376.235 343.637C402.629 382.908 368.296 411.744 368.296 411.744L414.749 391.917C432.375 384.473 439.467 389.691 441.461 399.117Z" fill="#8A8AFF"/>
</g>
<path d="M256.705 330.645C281.366 330.645 301.359 310.937 301.359 286.627C301.359 262.316 281.366 242.608 256.705 242.608C232.043 242.608 212.05 262.316 212.05 286.627C212.05 310.937 232.043 330.645 256.705 330.645Z" fill="#350259"/>
<path d="M348.412 121.352C348.484 141.485 342.188 161.139 330.399 177.58C323.983 186.58 319.135 196.573 316.055 207.146C315.755 208.172 315.473 209.198 315.191 210.241C313.607 216.172 312.527 222.222 311.962 228.329C311.768 230.364 311.644 232.399 311.574 234.451C311.574 235.964 311.468 237.494 311.468 239.025V285.322H203.37V238.955C203.37 238.034 203.37 237.129 203.37 236.225C203.37 233.564 203.158 230.903 202.911 228.259C201.378 210.062 195.013 192.584 184.456 177.58C181.44 173.393 178.773 168.973 176.482 164.362C169.841 150.971 166.407 136.257 166.443 121.352C166.431 111.177 168.02 101.062 171.154 91.3681C173.695 83.5235 177.253 76.0353 181.74 69.0891C189.679 56.7202 200.5 46.3989 213.303 38.9838C220.436 34.8695 228.121 31.7665 236.133 29.7661C246.472 27.2088 257.199 26.5368 267.784 27.7834C282.612 29.5414 296.741 34.9942 308.839 43.6274C319.652 51.3616 328.673 61.2739 335.303 72.7066C342.275 84.6574 346.57 97.941 347.9 111.664C348.253 114.847 348.412 118.082 348.412 121.352Z" fill="#662D91"/>
<path d="M313.409 268.904H201.412C198.927 268.904 196.913 270.89 196.913 273.339C196.913 275.788 198.927 277.774 201.412 277.774H313.409C315.893 277.774 317.908 275.788 317.908 273.339C317.908 270.89 315.893 268.904 313.409 268.904Z" fill="#5C0DA0"/>
<path d="M309.916 277.774H203.494C201.009 277.774 198.995 279.76 198.995 282.209C198.995 284.658 201.009 286.644 203.494 286.644H309.916C312.4 286.644 314.414 284.658 314.414 282.209C314.414 279.76 312.4 277.774 309.916 277.774Z" fill="#5C0DA0"/>
<path d="M305.945 286.626H207.463C204.978 286.626 202.964 288.612 202.964 291.061C202.964 293.511 204.978 295.496 207.463 295.496H305.945C308.43 295.496 310.444 293.511 310.444 291.061C310.444 288.612 308.43 286.626 305.945 286.626Z" fill="#5C0DA0"/>
<path d="M245.095 158.327C245.095 158.327 244.901 158.762 244.654 159.509C243.842 162.031 242.396 167.979 245.571 171.684C246.531 172.735 247.745 173.531 249.1 173.997C254.064 175.844 259.514 175.991 264.573 174.414C265.89 173.638 267.04 172.616 267.96 171.405C271.701 166.414 269.725 160.101 269.495 159.231L295.113 158.431V141.37L292.378 141.909C290.976 142.424 289.464 142.58 287.985 142.361C286.663 142.131 285.405 141.632 284.29 140.895C283.175 140.158 282.228 139.2 281.51 138.083C280.811 136.892 280.357 135.577 280.176 134.213C279.994 132.849 280.088 131.463 280.451 130.135C282.886 118.882 295.113 124.5 295.113 124.5V105.942H269.125C270.485 104.358 271.435 102.472 271.895 100.447C272.559 97.2456 272.006 93.9156 270.342 91.0899C270.342 91.0899 269.16 89.3507 268.578 88.4811C267.44 87.1973 265.971 86.2416 264.326 85.7158C258.768 83.5418 252.734 86.3767 252.082 86.6723C238.25 93.0899 246.383 105.942 246.383 105.942L218.295 106.343V124.813C218.295 124.813 228.475 122.117 232.957 130.187C233.868 131.844 234.313 133.712 234.245 135.596C234.065 137.377 233.352 139.066 232.198 140.448C231.048 142.084 229.434 143.348 227.558 144.083C226.033 144.594 224.414 144.768 222.813 144.594C221.212 144.42 219.67 143.901 218.295 143.074V158.327H245.095Z" fill="#B56EFF"/>
<path d="M205.522 207.406C205.156 208.737 205.061 210.126 205.243 211.494C205.424 212.861 205.879 214.179 206.581 215.372C207.301 216.488 208.249 217.444 209.363 218.18C210.478 218.917 211.735 219.417 213.056 219.65C214.536 219.852 216.043 219.697 217.449 219.198L220.183 218.642V235.633L203.335 236.155C203.335 233.494 203.123 230.833 202.876 228.19C201.342 209.993 194.978 192.514 184.421 177.51C181.405 173.324 178.738 168.903 176.447 164.292L177.029 163.996C177.664 163.683 183.698 160.848 189.256 163.022C190.897 163.555 192.365 164.51 193.507 165.788C194.178 166.605 195.272 168.396 195.272 168.396C196.938 171.228 197.491 174.564 196.824 177.771C196.373 179.794 195.421 181.676 194.054 183.249H220.219V201.719C220.219 201.719 207.957 196.171 205.522 207.406Z" fill="#B56EFF"/>
<path d="M347.936 111.664L347.777 111.769C342.719 113.344 337.272 113.203 332.305 111.369C330.953 110.887 329.742 110.087 328.776 109.038C325.6 105.386 327.012 99.4379 327.876 96.8639C328.106 96.1334 328.3 95.6813 328.3 95.6813H301.376V80.4286C302.751 81.2553 304.293 81.7742 305.894 81.9485C307.494 82.1228 309.114 81.9483 310.639 81.4373C312.515 80.7025 314.129 79.438 315.279 77.8024C316.433 76.4203 317.146 74.7316 317.326 72.9501C317.394 71.0661 316.949 69.1985 316.038 67.5412C311.556 59.4888 301.376 62.1672 301.376 62.1672V43.7318L308.822 43.6274C319.635 51.3616 328.655 61.2739 335.286 72.7066C342.276 84.6532 346.59 97.937 347.936 111.664Z" fill="#B56EFF"/>
<path d="M316.054 207.076C315.754 208.102 315.472 209.128 315.19 210.172C313.607 216.102 312.527 222.153 311.961 228.26C311.767 230.294 311.643 232.329 311.573 234.381C311.079 234.381 310.567 234.26 310.056 234.155C308.002 233.723 306.084 232.811 304.463 231.494L304.763 257.165L286.026 257.391C286.026 257.391 291.583 245.217 280.168 243.008C278.816 242.653 277.406 242.571 276.02 242.765C274.635 242.959 273.304 243.426 272.106 244.138C270.98 244.856 270.019 245.798 269.284 246.903C268.549 248.008 268.056 249.252 267.836 250.556C267.642 252.019 267.818 253.507 268.348 254.886L268.93 257.582L251.622 257.773L250.528 232.52C249.576 232.834 243.171 234.799 238.178 231.164C236.935 230.278 235.885 229.154 235.091 227.859C233.423 222.895 233.503 217.52 235.32 212.607C235.765 211.241 236.561 210.013 237.631 209.041C241.301 205.841 247.353 207.302 249.981 207.998C250.74 208.224 251.199 208.415 251.199 208.415L250.881 181.928L266.354 181.754C265.529 183.115 265.02 184.64 264.861 186.218C264.702 187.796 264.899 189.39 265.437 190.884C266.195 192.727 267.498 194.303 269.177 195.406C270.587 196.533 272.308 197.218 274.117 197.372C276.027 197.417 277.915 196.961 279.586 196.05C287.72 191.545 284.879 181.545 284.879 181.545L303.616 181.319L304.339 209.007C304.339 209.007 310.197 205.25 316.054 207.076Z" fill="#BF8DFF"/>
<path d="M257.268 62.7063C256.766 64.3394 255.813 65.8026 254.516 66.9325C253.704 67.5934 251.887 68.776 251.887 68.776C249.038 70.4448 245.667 71.0264 242.413 70.4109C240.353 69.9858 238.432 69.0658 236.82 67.7325L237.12 93.4203L218.383 93.629C218.383 93.629 223.941 81.4547 212.526 79.2459C211.171 78.9028 209.761 78.8277 208.378 79.0247C206.994 79.2217 205.663 79.687 204.463 80.3938C203.334 81.1085 202.371 82.0492 201.635 83.1549C200.9 84.2605 200.408 85.5063 200.193 86.8114C200.004 88.2731 200.174 89.7581 200.687 91.142C200.899 92.029 201.093 92.8811 201.287 93.8203L183.979 94.029L182.868 68.776C182.505 68.9058 182.134 69.0104 181.756 69.0891C189.696 56.7201 200.517 46.3989 213.32 38.9838C220.453 34.8695 228.138 31.7665 236.149 29.7661L236.555 45.2623C236.555 45.2623 249.487 37.0881 256.156 50.6537C256.421 51.2799 259.367 57.2105 257.268 62.7063Z" fill="#BF8DFF"/>
<path d="M125.971 422.231H395.713C401.765 425.866 425.953 441.205 427.7 465.38C429.693 493.05 400.724 511.068 395.713 514.077H125.971V422.231Z" fill="#9B27C1"/>
<path d="M127.277 433.709H395.713C389.521 439.205 380.47 448.962 378.194 461.919C374.665 481.815 389.362 496.877 395.713 502.598H127.277C121.86 494.198 115.597 481.102 116.514 464.945C117.325 453.796 121.031 443.039 127.277 433.709Z" fill="#F1F1F2"/>
<path d="M121.824 443.71H386.485" stroke="white" stroke-width="0.869565" stroke-miterlimit="10"/>
<path d="M117.59 456.98H379.446" stroke="white" stroke-width="0.869565" stroke-miterlimit="10"/>
<path d="M116.426 471.954H377.929" stroke="white" stroke-width="0.869565" stroke-miterlimit="10"/>
<path d="M118.648 483.833H381.351" stroke="white" stroke-width="0.869565" stroke-miterlimit="10"/>
<path d="M123.43 495.92H389.202" stroke="white" stroke-width="0.869565" stroke-miterlimit="10"/>
<path d="M395.607 331.289H130.364C124.418 334.854 100.636 349.915 98.9242 373.673C96.9658 400.856 125.389 418.561 130.364 421.535H395.607V331.289Z" fill="#B56EFF"/>
<path d="M394.318 342.611H130.363C136.45 348.002 145.359 357.585 147.6 370.316C151.023 389.865 136.608 404.648 130.363 410.317H394.318C401.719 399.39 405.424 386.436 404.904 373.308C404.11 362.349 400.464 351.777 394.318 342.611Z" fill="#F1F1F2"/>
<path d="M399.683 352.437H139.45" stroke="white" stroke-width="0.869565" stroke-miterlimit="10"/>
<path d="M403.863 365.446H146.383" stroke="white" stroke-width="0.869565" stroke-miterlimit="10"/>
<path d="M404.992 380.177H147.865" stroke="white" stroke-width="0.869565" stroke-miterlimit="10"/>
<path d="M402.824 391.847H144.496" stroke="white" stroke-width="0.869565" stroke-miterlimit="10"/>
<path d="M398.111 403.708H136.767" stroke="white" stroke-width="0.869565" stroke-miterlimit="10"/>
<path d="M378.724 308.853L388.022 316.523L368.614 332.75C367.062 334.054 365.245 334.489 364.557 333.706L362.792 331.654C362.122 330.889 362.792 329.202 364.398 327.897L372.708 320.941L374.684 312.245" fill="black"/>
<path d="M332.339 318.506L333.768 331.097L308.239 329.897C306.192 329.811 304.569 328.854 304.605 327.758L304.728 324.889C304.728 323.81 306.492 322.993 308.539 323.149L319.442 323.654L326.958 318.297" fill="black"/>
<path d="M332.939 238.851L359.35 238.225L335.956 321.167L322.9 319.775L332.939 238.851Z" fill="#43374F"/>
<path d="M368.508 233.251C369.728 237.887 370.027 242.712 369.39 247.46C369.071 249.466 368.635 251.452 368.084 253.408C366.704 259.12 365.831 264.939 365.473 270.8L381.352 309.671L370.343 319.062C370.343 319.062 349.841 280.122 345.484 274.417C341.126 268.713 345.484 238.555 345.484 238.555L368.508 233.251Z" fill="#533C68"/>
<path d="M324.064 201.98C321.899 207.395 320.349 213.03 319.442 218.781C318.119 227.059 317.819 225.32 318.295 230.486C318.867 230.154 319.543 230.041 320.194 230.169C320.845 230.298 321.425 230.658 321.824 231.181C322.141 231.686 324.064 232.834 324.664 231.947C324.894 231.634 329.851 227.564 327.028 230.312C327.028 230.312 326.464 230.764 326.376 230.712C326.287 230.66 328.422 228.607 329.287 227.233C331.474 223.755 327.699 219.964 326.04 217.494C323.8 214.155 322.371 208.694 326.358 199.511C325.724 199.518 325.107 199.718 324.594 200.085C324.294 200.289 324.076 200.591 323.979 200.938C323.883 201.284 323.913 201.653 324.064 201.98Z" fill="#EFBB8B"/>
<path d="M323.483 236.642L305.576 251.843C297.777 256.747 295.643 256.66 294.99 256.121C293.225 254.834 297.16 248.817 300.618 243.947L317.943 226.955C319.112 226.409 320.402 226.165 321.692 226.247C322.983 226.329 324.231 226.735 325.318 227.425C327.523 229.39 327.576 233.894 323.483 236.642Z" fill="#EFBB8B"/>
<path d="M323.412 201.319C321.25 206.741 319.699 212.381 318.79 218.137C317.467 226.416 317.167 224.677 317.643 229.842C318.215 229.51 318.891 229.397 319.542 229.526C320.193 229.654 320.773 230.014 321.172 230.538C321.489 231.042 323.395 232.19 324.012 231.303C324.224 230.99 329.199 226.92 326.376 229.668C326.376 229.668 325.794 230.12 325.724 230.068C325.653 230.016 327.77 227.964 328.635 226.59C330.823 223.111 327.047 219.32 325.388 216.85C323.148 213.494 321.719 208.05 325.706 198.867C325.075 198.879 324.462 199.072 323.942 199.424C323.644 199.63 323.429 199.932 323.333 200.278C323.236 200.624 323.264 200.992 323.412 201.319Z" fill="#FFD4A9"/>
<path d="M323.289 235.999L305.54 251.286C297.795 256.243 295.642 256.173 294.954 255.652C293.19 254.382 297.036 248.33 300.441 243.477L317.59 226.346C318.756 225.791 320.046 225.537 321.338 225.607C322.631 225.677 323.885 226.069 324.982 226.746C327.258 228.677 327.346 233.251 323.289 235.999Z" fill="#FFD4A9"/>
<path d="M385.126 220.868C385.126 221.39 385.126 221.685 385.126 221.685H369.565V221.894L370.094 235.964L368.188 236.573L367.077 236.903C360.991 238.729 354.74 239.97 348.411 240.608C341.124 241.234 333.732 240.608 329.215 236.99C327.459 235.579 326.169 233.684 325.51 231.547C324.049 226.719 323.213 221.728 323.023 216.694C323.023 216.137 323.023 215.598 323.023 215.059C322.868 207.457 323.65 199.865 325.352 192.45C325.352 192.45 325.087 190.38 328.351 187.006C329.929 185.801 331.928 185.263 333.908 185.51C336.816 185.673 339.695 186.175 342.483 187.006L347.493 186.832L350.034 186.745C358.132 185.529 366.371 185.529 374.469 186.745C385.796 188.502 385.32 215.807 385.126 220.868Z" fill="white"/>
<path d="M332.162 210.937C332.162 210.937 329.198 226.833 348.94 236.747" stroke="#E6E6E6" stroke-width="0.869565" stroke-miterlimit="10"/>
<path d="M329.357 225.372C329.357 225.372 332.48 233.32 339.132 235.72" stroke="#E6E6E6" stroke-width="0.869565" stroke-miterlimit="10"/>
<path d="M332.923 173.579C332.923 173.579 319.937 168.171 332.923 165.91C332.923 165.91 328.141 149.3 347.037 156.831C347.037 156.831 361.398 153.979 356.07 169.005C356.07 169.005 357.834 183.719 350.777 177.91" fill="black"/>
<path d="M332.923 173.579C332.923 173.579 319.937 168.171 332.923 165.91C332.923 165.91 328.141 149.3 347.037 156.831C347.037 156.831 361.398 153.979 356.07 169.005C356.07 169.005 357.834 183.719 350.777 177.91" stroke="black" stroke-width="0.869565" stroke-miterlimit="10"/>
<path d="M342.377 192.415H349.682V178.571H342.377V192.415Z" fill="#FFD4A9"/>
<path d="M332.921 173.579C332.921 176.047 333.915 178.414 335.685 180.159C337.456 181.904 339.856 182.884 342.36 182.884C344.863 182.884 347.264 181.904 349.034 180.159C350.804 178.414 351.799 176.047 351.799 173.579C351.799 168.484 345.518 160.309 342.36 164.362C338.514 169.284 332.921 168.484 332.921 173.579Z" fill="#FFD4A9"/>
<path d="M349.754 179.301C348.937 180.256 347.911 181.018 346.754 181.527C345.389 182.232 343.896 182.664 342.361 182.797L349.754 188.832V179.301Z" fill="#F4C295"/>
<path d="M351.394 176.345C353.031 176.345 354.358 174.982 354.358 173.301C354.358 171.62 353.031 170.258 351.394 170.258C349.757 170.258 348.43 171.62 348.43 173.301C348.43 174.982 349.757 176.345 351.394 176.345Z" fill="#FFD4A9"/>
<path d="M338.831 171.058C338.831 171.058 335.708 176.049 340.172 174.536" stroke="black" stroke-width="0.217391" stroke-miterlimit="10"/>
<path d="M337.579 170.275C336.633 170.021 335.628 170.082 334.721 170.449C334.645 170.468 334.566 170.47 334.49 170.453C334.413 170.436 334.342 170.402 334.281 170.353C334.221 170.303 334.173 170.241 334.143 170.17C334.112 170.099 334.098 170.022 334.104 169.945V169.84C334.105 169.742 334.131 169.646 334.18 169.56C334.23 169.475 334.301 169.404 334.386 169.353C334.927 169.061 335.534 168.908 336.15 168.908C336.767 168.908 337.374 169.061 337.915 169.353C337.985 169.405 338.042 169.474 338.079 169.553C338.116 169.632 338.132 169.719 338.126 169.805C338.127 169.873 338.113 169.941 338.085 170.003C338.056 170.065 338.015 170.12 337.963 170.165C337.911 170.209 337.849 170.242 337.783 170.261C337.717 170.28 337.648 170.285 337.579 170.275Z" fill="#1A1A1A"/>
<path d="M344.461 170.292C343.521 170.039 342.522 170.101 341.62 170.466C341.545 170.487 341.466 170.489 341.391 170.472C341.315 170.455 341.244 170.421 341.185 170.371C341.126 170.321 341.08 170.258 341.051 170.187C341.022 170.115 341.012 170.038 341.02 169.962V169.858C341.018 169.759 341.043 169.661 341.092 169.575C341.142 169.489 341.215 169.419 341.303 169.371C341.839 169.065 342.448 168.905 343.067 168.905C343.686 168.905 344.295 169.065 344.831 169.371C344.9 169.425 344.955 169.494 344.991 169.572C345.028 169.651 345.046 169.736 345.043 169.823C345.045 169.894 345.03 169.965 345 170.03C344.97 170.095 344.925 170.153 344.869 170.198C344.812 170.243 344.746 170.275 344.676 170.292C344.605 170.308 344.532 170.308 344.461 170.292Z" fill="#1A1A1A"/>
<path d="M343.048 172.171C343.389 172.171 343.666 171.797 343.666 171.336C343.666 170.875 343.389 170.501 343.048 170.501C342.707 170.501 342.431 170.875 342.431 171.336C342.431 171.797 342.707 172.171 343.048 172.171Z" fill="#1A1A1A"/>
<path d="M342.872 171.684C342.94 171.684 342.996 171.544 342.996 171.371C342.996 171.198 342.94 171.058 342.872 171.058C342.804 171.058 342.749 171.198 342.749 171.371C342.749 171.544 342.804 171.684 342.872 171.684Z" fill="white"/>
<path d="M336.167 172.188C336.508 172.188 336.785 171.814 336.785 171.353C336.785 170.892 336.508 170.519 336.167 170.519C335.826 170.519 335.55 170.892 335.55 171.353C335.55 171.814 335.826 172.188 336.167 172.188Z" fill="#1A1A1A"/>
<path d="M335.973 171.718C336.041 171.718 336.097 171.578 336.097 171.405C336.097 171.232 336.041 171.092 335.973 171.092C335.905 171.092 335.85 171.232 335.85 171.405C335.85 171.578 335.905 171.718 335.973 171.718Z" fill="white"/>
<path d="M340.191 176.779C340.346 176.823 340.51 176.834 340.67 176.811C340.83 176.788 340.983 176.733 341.12 176.647C341.257 176.562 341.373 176.449 341.463 176.316C341.552 176.183 341.612 176.033 341.638 175.875" stroke="black" stroke-width="0.217391" stroke-miterlimit="10"/>
<path d="M385.057 221.076H370.167V239.877H385.057V221.076Z" fill="#EFBB8B"/>
<path d="M384.51 221.076H369.725V239.494H384.51V221.076Z" fill="#FFD4A9"/>
<path d="M325.229 192.432L319.654 205.72L322.9 207.702L325.229 192.432Z" fill="#E6E6E6"/>
<path d="M367.502 201.685C367.502 201.685 370.502 206.746 369.725 220.729V225.372" stroke="black" stroke-width="0.434783" stroke-miterlimit="10"/>
<path d="M298.571 219.164H297.671C295.783 219.32 291.461 219.946 289.891 222.729C289.464 223.556 289.269 224.481 289.326 225.407C289.459 228.82 290.83 232.072 293.19 234.573C294.068 235.161 295.049 235.586 296.083 235.825C297.572 236.062 299.095 235.992 300.555 235.621C302.016 235.25 303.382 234.585 304.57 233.668L311.944 248.486L323.2 244.243L322.107 242.782C321.411 242.096 320.907 241.246 320.642 240.312C320.449 239.474 320.447 238.604 320.636 237.765C320.825 236.926 321.201 236.138 321.736 235.46C323 234.003 324.779 233.077 326.711 232.868C334.774 231.494 334.333 240.051 334.333 240.051L346.524 235.477L339.467 220.19C340.883 220.593 342.371 220.682 343.825 220.451C346.077 220.083 348.123 218.936 349.594 217.216C349.594 217.216 350.476 216.085 350.829 215.476C351.366 214.504 351.605 213.398 351.517 212.294C351.517 208.502 347.989 205.667 347.618 205.337C339.679 198.832 333.38 206.798 333.38 206.798L325.688 190.415L313.515 195.006C313.515 195.006 317.996 200.311 313.867 204.937C312.995 205.895 311.89 206.619 310.656 207.041C309.426 207.37 308.129 207.37 306.898 207.041C305.54 206.81 304.275 206.207 303.246 205.302C302.517 204.559 301.977 203.656 301.67 202.668C301.364 201.679 301.299 200.633 301.482 199.615L291.426 203.407L298.571 219.164Z" fill="#B56EFF"/>
<path d="M335.002 228.433C335.181 228.572 335.377 228.689 335.585 228.781C339.113 230.277 369.724 243.669 377.822 245.338C378.689 245.534 379.578 245.622 380.468 245.599C384.42 245.495 386.625 239.755 383.556 237.547L375.14 231.46C374.845 231.252 374.517 231.093 374.17 230.99L342.518 221.72C342.518 221.72 315.013 213.807 335.002 228.433Z" fill="#EFBB8B"/>
<path d="M335.214 228.155C335.404 228.288 335.605 228.404 335.814 228.503C339.237 229.981 369.777 243.234 377.84 244.869C378.702 245.061 379.585 245.143 380.469 245.112C384.385 244.973 386.555 239.234 383.521 237.042L375.123 230.99C374.834 230.782 374.512 230.624 374.17 230.52L342.66 221.407C342.66 221.407 315.313 213.616 335.214 228.155Z" fill="#FFD4A9"/>
<path d="M163.32 237.373C163.32 237.373 156.051 237.147 151.464 233.025C150.183 231.974 149.307 230.52 148.986 228.908C148.665 227.295 148.917 225.623 149.7 224.172C148.429 219.998 154.022 216.798 154.022 216.798C154.022 212.12 162.032 211.285 162.032 211.285C166.972 202.485 173.288 207.441 173.288 207.441C173.288 207.441 181.775 203.859 184.209 209.911C184.209 209.911 190.472 212.659 188.691 217.616C188.691 217.616 191.143 222.833 187.579 225.912C184.015 228.99 163.32 237.373 163.32 237.373Z" fill="black" stroke="black" stroke-width="0.217391" stroke-miterlimit="10"/>
<path d="M171.454 237.39H164.679V250.764H171.454V237.39Z" fill="#FFD4A9"/>
<path d="M181.281 230.416C179.516 236.26 176.5 241.495 170.589 241.495C167.717 241.336 165.016 240.1 163.04 238.039C161.064 235.979 159.963 233.251 159.963 230.416C159.963 227.581 161.064 224.853 163.04 222.793C165.016 220.732 167.717 219.496 170.589 219.337C185.48 218.972 183.468 222.972 181.281 230.416Z" fill="#FFD4A9"/>
<path d="M159.915 233.72C162.04 233.72 163.762 231.937 163.762 229.738C163.762 227.538 162.04 225.755 159.915 225.755C157.791 225.755 156.069 227.538 156.069 229.738C156.069 231.937 157.791 233.72 159.915 233.72Z" fill="#FFD4A9"/>
<path d="M175.565 225.546C176.789 225.301 178.057 225.361 179.252 225.72C179.337 225.749 179.427 225.76 179.516 225.75C179.605 225.74 179.691 225.711 179.767 225.664C179.843 225.617 179.908 225.555 179.956 225.48C180.004 225.405 180.035 225.321 180.046 225.233V225.198C180.042 225.094 180.003 224.993 179.937 224.912C179.87 224.83 179.778 224.772 179.675 224.746C178.186 224.161 176.525 224.161 175.035 224.746C174.951 224.786 174.878 224.847 174.826 224.924C174.773 225 174.742 225.089 174.735 225.181C174.76 225.262 174.802 225.338 174.859 225.401C174.916 225.465 174.986 225.516 175.065 225.551C175.144 225.585 175.229 225.603 175.315 225.602C175.402 225.601 175.487 225.582 175.565 225.546Z" fill="#1A1A1A"/>
<path d="M166.637 225.564C167.856 225.318 169.118 225.378 170.307 225.738C170.392 225.767 170.482 225.777 170.571 225.767C170.66 225.758 170.746 225.728 170.822 225.682C170.898 225.635 170.963 225.572 171.011 225.497C171.06 225.423 171.09 225.338 171.101 225.251V225.198C171.092 225.095 171.051 224.997 170.985 224.917C170.919 224.836 170.831 224.777 170.73 224.746C169.247 224.16 167.591 224.16 166.108 224.746C166.024 224.785 165.954 224.847 165.904 224.924C165.854 225.001 165.827 225.09 165.826 225.181C165.849 225.262 165.889 225.337 165.944 225.401C165.999 225.465 166.067 225.517 166.144 225.553C166.221 225.589 166.304 225.609 166.389 225.611C166.474 225.612 166.559 225.596 166.637 225.564Z" fill="#1A1A1A"/>
<path d="M167.944 227.877C168.431 227.877 168.826 227.402 168.826 226.816C168.826 226.23 168.431 225.755 167.944 225.755C167.456 225.755 167.062 226.23 167.062 226.816C167.062 227.402 167.456 227.877 167.944 227.877Z" fill="#1A1A1A"/>
<path d="M168.208 227.268C168.305 227.268 168.384 227.089 168.384 226.868C168.384 226.647 168.305 226.468 168.208 226.468C168.11 226.468 168.031 226.647 168.031 226.868C168.031 227.089 168.11 227.268 168.208 227.268Z" fill="white"/>
<path d="M177.752 227.911C178.239 227.911 178.634 227.437 178.634 226.851C178.634 226.265 178.239 225.79 177.752 225.79C177.265 225.79 176.87 226.265 176.87 226.851C176.87 227.437 177.265 227.911 177.752 227.911Z" fill="#1A1A1A"/>
<path d="M178.017 227.303C178.114 227.303 178.193 227.124 178.193 226.903C178.193 226.682 178.114 226.503 178.017 226.503C177.919 226.503 177.84 226.682 177.84 226.903C177.84 227.124 177.919 227.303 178.017 227.303Z" fill="white"/>
<path d="M174.223 227.303C174.223 227.303 177.752 233.477 172.671 231.581" stroke="black" stroke-width="0.434783" stroke-miterlimit="10"/>
<path d="M172.672 233.738C172.672 233.738 171.084 234.016 170.59 232.99" stroke="black" stroke-width="0.434783" stroke-miterlimit="10"/>
<path d="M190.472 313.236C190.472 313.236 159.933 337.845 149.894 319.497C139.855 301.149 147.512 292.574 147.512 292.574L191.125 290.505C193.97 291.972 196.131 294.464 197.159 297.462C198.923 302.853 196.718 310.801 190.472 313.236Z" fill="#43374F"/>
<path d="M160.374 377.012L154.887 387.447L174.294 398.248C175.847 399.117 177.382 399.03 177.823 398.056L178.74 395.5C179.093 394.526 178.105 393.03 176.553 392.16L168.296 387.552L164.608 379.377" fill="black"/>
<path d="M215.261 366.647L218.26 377.743L235.391 365.777C236.785 364.803 237.597 363.307 237.156 362.42L236.168 360.09C235.797 359.203 234.403 359.272 233.009 360.229L225.67 365.342L218.842 364.107" fill="black"/>
<path d="M207.023 302.488L221.948 362.49L213.127 368.194L185.78 315.775C184.203 312.495 183.763 308.794 184.528 305.243C185.293 301.692 187.221 298.487 190.015 296.122L190.456 295.809C190.925 295.468 191.414 295.154 191.92 294.87C198.254 291.409 205.17 295.009 207.023 302.488Z" fill="#43374F"/>
<path d="M183.909 322.262C183.909 322.262 144.636 344.35 136.662 325.028C128.687 305.705 138.92 297.74 138.92 297.74L188.885 299.479C190.299 300.275 191.528 301.355 192.492 302.649C193.456 303.944 194.132 305.423 194.477 306.992C194.831 310.358 193.964 313.739 192.029 316.535C190.095 319.33 187.218 321.359 183.909 322.262Z" fill="#533C68"/>
<path d="M196.013 321.828L168.455 381.917L158.045 376.96L171.189 309.566C172.777 301.444 180.011 296.749 187.174 299.41L187.721 299.618C188.325 299.87 188.914 300.154 189.485 300.471C196.489 304.471 199.436 314.349 196.013 321.828Z" fill="#533C68"/>
<path d="M170.819 245.582C170.819 245.582 181.298 242.399 184.439 245.582C187.579 248.764 187.315 250.799 187.315 250.799C187.315 250.799 192.608 270.939 187.103 287.879C181.598 304.818 144.16 292.053 144.16 292.053L144.672 278.539H129.675C129.675 278.539 127.911 247.356 140.014 245.39C147.81 244.235 155.737 244.235 163.532 245.39" fill="white"/>
<path d="M179.728 262C179.728 262 183.468 272.052 183.257 277.965" stroke="black" stroke-width="0.869565" stroke-miterlimit="10"/>
<path d="M144.16 278.313L146.436 262.226" stroke="black" stroke-width="0.434783" stroke-miterlimit="10"/>
<path d="M179.04 289.757C179.04 289.757 178.776 289.948 178.388 290.296C177.064 291.496 174.259 294.47 175.035 297.549C175.3 298.468 175.798 299.306 176.482 299.983C178.978 302.601 182.263 304.358 185.851 304.992C186.907 304.967 187.949 304.743 188.92 304.331C190.197 303.687 191.302 302.757 192.148 301.615C192.993 300.473 193.556 299.152 193.79 297.757L209.774 305.218L215.279 295.427L213.426 294.905C212.408 294.746 211.437 294.366 210.586 293.792C209.86 293.272 209.253 292.606 208.806 291.839C208.359 291.072 208.082 290.22 207.992 289.34C207.949 288.438 208.098 287.537 208.429 286.696C208.761 285.854 209.267 285.09 209.915 284.453C215.032 278.748 220.73 285.757 220.73 285.757L226.676 275.148L210.692 267.113C212.034 266.63 213.242 265.844 214.22 264.817C215.653 263.201 216.393 261.1 216.285 258.956C216.285 258.956 216.143 257.565 216.002 256.904C215.692 255.796 215.083 254.792 214.238 253.999C212.116 252.024 209.339 250.874 206.422 250.764C195.836 250.173 196.701 260.069 196.701 260.069L179.34 251.617L173.377 262.226C173.377 262.226 180.434 263.826 180.646 269.826C180.654 271.049 180.325 272.251 179.693 273.304C178.986 274.282 177.996 275.028 176.853 275.444C175.607 276.049 174.208 276.279 172.83 276.104C171.749 275.926 170.718 275.524 169.806 274.924C168.893 274.325 168.12 273.541 167.537 272.626L162.615 281.322L179.04 289.757Z" fill="#B56EFF"/>
<path d="M129.587 278.487C128.55 284.996 128.52 291.622 129.499 298.14C131.14 308.453 190.596 284.87 190.596 284.87C190.596 284.87 210.497 273.826 190.596 276.783C170.695 279.739 144.231 287.809 144.231 287.809L144.584 278.452" fill="#FFD4A9"/>
<path d="M354.569 547.452L346.947 548.252L309.085 297.253L316.725 296.435L354.569 547.452Z" fill="#48444C"/>
<path d="M388.02 539.417L380.592 540.217L343.771 296.001L351.199 295.218L388.02 539.417Z" fill="#48444C"/>
<path d="M320.236 319.706L348.483 319.358" stroke="#4F3268" stroke-width="1.73913" stroke-miterlimit="10"/>
<path d="M323.217 341.55L351.446 341.185" stroke="#4F3268" stroke-width="1.73913" stroke-miterlimit="10"/>
<path d="M327.4 367.342L355.629 366.994" stroke="#4F3268" stroke-width="1.73913" stroke-miterlimit="10"/>
<path d="M330.946 393.325L359.192 392.96" stroke="#4F3268" stroke-width="1.73913" stroke-miterlimit="10"/>
<path d="M334.844 417.761L363.09 417.396" stroke="#4F3268" stroke-width="1.73913" stroke-miterlimit="10"/>
<path d="M338.055 441.275L366.301 440.927" stroke="#4F3268" stroke-width="1.73913" stroke-miterlimit="10"/>
<path d="M342.872 466.18L371.118 465.832" stroke="#4F3268" stroke-width="1.73913" stroke-miterlimit="10"/>
<path d="M346.259 488.25L374.506 487.885" stroke="#4F3268" stroke-width="1.73913" stroke-miterlimit="10"/>
<path d="M348.378 513.016L376.624 512.668" stroke="#4F3268" stroke-width="1.73913" stroke-miterlimit="10"/>
<path d="M434.634 528.043L440.368 538.808C440.368 538.808 443.226 560.2 428.141 541L427.347 529.365" fill="black"/>
<path d="M380.663 528.808L375.37 538.86C375.37 538.86 373.606 559.331 387.879 541.695L388.091 530.495" fill="black"/>
<path d="M392.731 438.457C392.731 438.457 381.915 464.545 384.368 475.346C384.679 476.798 385.37 478.145 386.373 479.253C387.376 480.36 388.655 481.19 390.084 481.659C396.453 484.059 404.481 481.346 405.786 476.441L416.054 438.457H392.731Z" fill="#533C68"/>
<path d="M427.047 438.457C428.423 445.988 429.835 452.006 430.858 456.041C430.858 456.041 432.093 460.928 433.893 479.607C434.065 480.583 434.02 481.585 433.761 482.543C433.502 483.501 433.035 484.392 432.393 485.154C431.584 485.825 430.681 486.376 429.711 486.789C423.342 489.468 415.315 486.442 414.009 481.067L403.706 438.457H427.047Z" fill="#533C68"/>
<path d="M379.005 529.869L383.416 474.928C384.669 466.667 390.861 460.754 396.154 460.84C402.259 460.84 407.587 468.928 404.976 478.528C399.989 496.256 394.99 513.978 389.979 531.695C389.979 531.695 382.181 536.321 379.005 529.869Z" fill="#533C68"/>
<path d="M425.635 530.356L413.373 478.337C412.05 470.423 415.843 463.936 420.607 463.188C426.093 462.336 433.221 468.98 433.786 478.337L436.062 530.356C436.062 530.356 430.345 535.904 425.635 530.356Z" fill="#533C68"/>
<path d="M398.89 430.214C398.89 430.214 377.012 417.309 379.641 407.604C382.27 397.9 389.01 395.43 392.432 392.265C395.855 389.099 390.386 382.873 390.386 382.873C390.386 382.873 384.687 378.751 390.386 369.986C394.226 364.547 399.894 360.622 406.388 358.907C406.388 358.907 429.324 355.568 429.041 371.812C428.847 383.186 432.305 387.238 434.334 388.63C435.773 389.569 436.95 390.849 437.757 392.352C439.892 396.508 442.132 404.161 433.823 409.465C421.896 417.1 437.069 428.022 437.069 428.022C437.069 428.022 422.125 445.449 398.89 430.214Z" fill="black" stroke="black" stroke-width="0.869565" stroke-miterlimit="10"/>
<path d="M380.169 416.631L366.831 449.727L373.482 453.414L392.413 420.283L380.169 416.631Z" fill="#FFD4A9"/>
<path d="M366.831 449.727C366.831 449.727 355.116 452.91 354.04 458.423C352.963 463.936 370.536 458.423 370.536 458.423L373.465 453.449L366.831 449.727Z" fill="#FFD4A9"/>
<path d="M427.541 420.318L433.469 431.988L438.162 435.605C438.162 435.605 445.219 441.344 444.249 435.066V430.805C444.267 429.721 444.088 428.643 443.72 427.622L439.715 416.665L427.541 420.318Z" fill="#FFD4A9"/>
<path d="M417.979 398.856C417.979 398.856 411.045 409.795 402.012 398.856C402.012 398.856 385.569 397.117 383.663 403.708C381.758 410.3 380.135 416.63 380.135 416.63L392.361 420.3L395.572 413.917C395.572 413.917 387.015 441.744 391.814 442.196C391.814 442.196 426.659 448.179 428 442.196C428.917 438.144 424.313 413.9 424.313 413.9L427.506 420.3L439.75 416.648C439.75 416.648 438.145 410.265 436.222 403.726C434.298 397.186 417.891 398.839 417.891 398.839C408.822 409.778 401.924 398.839 401.924 398.839" fill="white"/>
<path d="M417.977 401.674C417.072 402.93 415.875 403.954 414.486 404.661C413.097 405.368 411.557 405.737 409.994 405.737C408.431 405.737 406.89 405.368 405.501 404.661C404.112 403.954 402.915 402.93 402.01 401.674V381.586H417.977V401.674Z" fill="#FFD4A9"/>
<path d="M424.383 377.168C424.383 386.004 417.943 393.169 410.004 393.169C402.065 393.169 395.643 385.986 395.643 377.151C395.643 368.316 402.082 369.429 410.022 369.429C417.961 369.429 424.4 368.333 424.383 377.168Z" fill="#FFD4A9"/>
<path d="M404.376 376.855C402.892 376.61 401.373 376.669 399.913 377.029C399.436 377.116 398.96 376.873 398.96 376.542V376.508C398.974 376.395 399.024 376.29 399.104 376.209C399.183 376.127 399.288 376.073 399.401 376.055C401.224 375.47 403.188 375.47 405.011 376.055C405.104 376.088 405.184 376.147 405.244 376.224C405.303 376.301 405.339 376.394 405.347 376.49C405.347 376.734 404.853 376.977 404.376 376.855Z" fill="#1A1A1A"/>
<path d="M416.602 376.873C415.13 376.631 413.624 376.685 412.174 377.029C411.698 377.134 411.221 376.89 411.221 376.56V376.508C411.221 376.299 411.398 376.125 411.662 376.038C413.466 375.448 415.416 375.448 417.22 376.038C417.317 376.066 417.402 376.123 417.466 376.201C417.529 376.279 417.566 376.373 417.573 376.473C417.573 376.751 417.079 376.995 416.602 376.873Z" fill="#1A1A1A"/>
<path d="M416.147 378.194C416.163 377.618 415.702 377.138 415.118 377.122C414.534 377.106 414.047 377.56 414.031 378.136C414.015 378.712 414.475 379.192 415.06 379.208C415.644 379.224 416.131 378.77 416.147 378.194Z" fill="#1A1A1A"/>
<path d="M414.991 378.218C414.992 377.997 414.897 377.818 414.78 377.818C414.663 377.817 414.568 377.996 414.568 378.217C414.568 378.438 414.662 378.617 414.779 378.617C414.896 378.618 414.991 378.439 414.991 378.218Z" fill="white"/>
<path d="M402.847 378.224C402.863 377.648 402.402 377.168 401.818 377.153C401.233 377.137 400.746 377.591 400.73 378.167C400.714 378.743 401.175 379.223 401.759 379.239C402.344 379.255 402.83 378.801 402.847 378.224Z" fill="#1A1A1A"/>
<path d="M401.69 378.252C401.69 378.032 401.596 377.852 401.479 377.852C401.362 377.852 401.267 378.031 401.267 378.252C401.266 378.473 401.361 378.652 401.478 378.652C401.595 378.652 401.69 378.473 401.69 378.252Z" fill="white"/>
<path d="M407.869 377.76C407.869 377.76 403.511 383.899 409.633 382.003" stroke="black" stroke-width="0.434783" stroke-miterlimit="10"/>
<path d="M409.509 385.377C409.509 385.377 411.432 385.047 411.591 383.917" stroke="black" stroke-width="0.434783" stroke-miterlimit="10"/>
<path d="M397.09 359.255C401.377 352.298 413.251 350.907 423.554 356.003C433.857 361.098 438.85 370.855 434.563 377.76C430.276 384.664 423.201 374.542 412.845 369.429C402.488 364.316 392.802 366.073 397.09 359.255Z" fill="#F4AD31"/>
<path d="M400.67 440.492C400.75 440.769 400.844 441.042 400.953 441.31C401.588 443.049 403.352 446.823 406.546 447.588C407.482 447.783 408.453 447.741 409.368 447.466C412.679 446.564 415.552 444.522 417.466 441.71C417.815 440.77 417.971 439.771 417.925 438.771C417.751 437.325 417.271 435.931 416.518 434.679C415.764 433.427 414.753 432.345 413.55 431.501L426.341 421.187L419.143 411.883L417.978 413.239C417.468 414.046 416.757 414.71 415.914 415.17C415.119 415.553 414.25 415.766 413.366 415.796C412.481 415.826 411.6 415.672 410.78 415.344C409.027 414.56 407.636 413.158 406.881 411.413C403.352 404.335 412.015 402.717 412.015 402.717L404.234 392.647L390.879 402.7C390.9 401.293 390.592 399.9 389.979 398.63C388.973 396.632 387.296 395.041 385.233 394.126C385.233 394.126 383.874 393.604 383.186 393.413C382.077 393.157 380.918 393.205 379.834 393.552C378.551 393.987 377.371 394.674 376.364 395.57C375.358 396.467 374.546 397.555 373.977 398.769C369.584 407.622 379.27 411.483 379.27 411.483L364.891 422.527L372.689 432.596C372.689 432.596 376.782 427.205 382.481 429.883C383.655 430.437 384.669 431.275 385.427 432.318C386.096 433.269 386.496 434.377 386.587 435.53C386.678 436.683 386.456 437.839 385.944 438.88C385.432 439.92 384.649 440.808 383.675 441.452C382.7 442.096 381.57 442.473 380.399 442.545L386.838 450.858L400.67 440.492Z" fill="#B56EFF"/>
<path d="M409.705 429.605L435.146 438.631C439.768 440.631 444.073 438.892 444.638 436.562C445.202 434.231 442.873 431.135 438.639 429.883L410.763 425.205C410.763 425.205 390.474 421.274 409.705 429.605Z" fill="#FFD4A9"/>
</g>
<defs>
<clipPath id="clip0">
<rect width="500" height="548.696" fill="white" transform="translate(0 0.304443)"/>
</clipPath>
</defs>
</svg>
