<svg width="114" height="136" viewBox="0 0 114 136" fill="none" xmlns="http://www.w3.org/2000/svg">
<path opacity="0.4" d="M110.814 93.6306L63.243 62.1357L2.10041 102.617L0.513672 103.738L49.2399 136L112.021 94.4303V92.8337L110.814 93.6306Z" fill="#D6D8E5"/>
<path d="M112.733 92.352L65.1618 60.8545L3.58518 101.624L2.37793 100.825V102.424L51.1564 134.721L113.94 93.1517V91.5524L112.733 92.352Z" fill="#252935"/>
<path d="M51.1564 133.122L2.37793 100.825L65.1618 59.2549L113.94 91.5521L51.1564 133.122Z" fill="#2B303F"/>
<path d="M3.59521 101.625C3.74464 101.586 5.03253 100.673 5.03253 100.673V90.1053L3.59521 89.1533V101.625Z" fill="#3A4151"/>
<path d="M51.1858 131.365L4.89307 100.79V85.8758L5.63544 85.1768L51.1858 115.056V131.365Z" fill="#E6E9EF"/>
<path d="M111.347 91.5114L51.1841 131.365V115.056L110.036 76.0728L111.347 77.003V91.5114Z" fill="#F4F6F9"/>
<path d="M112.733 78.2812L65.1618 46.7837L3.58518 87.5537L2.37793 86.754V88.3534L51.1564 120.651L113.94 79.0809V77.4843L112.733 78.2812Z" fill="#252935"/>
<path d="M51.1564 119.052L2.37793 86.7544L65.1618 45.1875L113.94 77.4847L51.1564 119.052Z" fill="#2B303F"/>
<path d="M2.37793 100.825V86.7544L3.58518 87.5541V103.167L2.37793 100.825Z" fill="#252935"/>
<path d="M108.883 75.6539L63.8022 45.8047L5.4488 84.4395L4.30322 83.6834V85.1984L50.5296 115.804L110.029 76.4101V74.8951L108.883 75.6539Z" fill="#E8A30A"/>
<path d="M50.5296 114.289L4.30322 83.6833L63.8022 44.2896L110.029 74.895L50.5296 114.289Z" fill="#F9CB07"/>
<path d="M5.4502 84.4396C5.59013 84.4043 6.81161 83.5393 6.81161 83.5393V73.5243L5.4502 72.624V84.4396Z" fill="#F9CB07"/>
<path d="M50.5573 112.624L6.68848 83.6481V69.5177L7.39053 68.854L50.5573 97.1692V112.624Z" fill="#E6E9EF"/>
<path d="M107.574 74.8574L50.5581 112.625V97.1696L106.331 60.2266L107.574 61.1078V74.8574Z" fill="#F4F6F9"/>
<path d="M108.883 62.3204L63.8022 32.4712L5.4488 71.106L4.30322 70.3499V71.8649L50.5296 102.47L110.029 63.0766V61.5615L108.883 62.3204Z" fill="#E8A30A"/>
<path d="M50.5296 100.956L4.30322 70.3503L63.8022 30.9565L110.029 61.562L50.5296 100.956Z" fill="#F9CB07"/>
<path d="M4.30322 83.6836V70.3501L5.4488 71.1063V85.9031L4.30322 83.6836Z" fill="#E8A30A"/>
<path d="M106.576 58.8119L63.5061 30.2954L7.75697 67.2085L6.66357 66.485V67.932L50.8265 97.172L107.669 59.5354V58.0883L106.576 58.8119Z" fill="#AB210D"/>
<path d="M50.8265 95.7252L6.66357 66.4852L63.5061 28.8486L107.669 58.0886L50.8265 95.7252Z" fill="#FF582B"/>
<path d="M7.75684 67.2081C7.89203 67.1701 9.05895 66.3459 9.05895 66.3459V56.777L7.75684 55.9175V67.2081Z" fill="#FF582B"/>
<path d="M50.852 94.1308L8.93994 66.4522V52.9502L9.61116 52.3164L50.852 79.3667V94.1308Z" fill="#E6E9EF"/>
<path d="M105.32 58.0531L50.8521 94.1311V79.367L104.135 44.0723L105.32 44.9155V58.0531Z" fill="#F4F6F9"/>
<path d="M106.576 46.074L63.5061 17.5576L7.75697 54.4679L6.66357 53.7444V55.1915L50.8265 84.4341L107.669 46.7976V45.3505L106.576 46.074Z" fill="#AB210D"/>
<path d="M50.8265 82.9843L6.66357 53.7443L63.5061 16.1104L107.669 45.3504L50.8265 82.9843Z" fill="#FF582B"/>
<path d="M6.66357 66.485V53.7446L7.75697 54.4681V68.6039L6.66357 66.485Z" fill="#AB210D"/>
<path d="M108.777 44.9589L63.4331 14.9355L4.74059 53.7962L3.58789 53.0346V54.5605L50.0846 85.3455L109.93 45.7205V44.1973L108.777 44.9589Z" fill="#3580F0"/>
<path d="M50.0846 83.8193L3.58789 53.0344L63.4331 13.4121L109.93 44.1971L50.0846 83.8193Z" fill="#0061F1"/>
<path d="M4.74023 53.7962C4.88017 53.7608 6.10877 52.8904 6.10877 52.8904V42.8264L4.74023 41.918V53.7962Z" fill="#0061F1"/>
<path d="M50.1093 82.144L5.98438 53.002V38.7846L6.69117 38.1182L50.1093 66.5993V82.144Z" fill="#E6E9EF"/>
<path d="M107.458 44.1593L50.1099 82.1441V66.5993L106.208 29.4414L107.458 30.3281V44.1593Z" fill="#F4F6F9"/>
<path d="M108.777 31.5463L63.4331 1.52295L4.74059 40.3863L3.58789 39.6247V41.1479L50.0846 71.9328L109.93 32.3079V30.7847L108.777 31.5463Z" fill="#3580F0"/>
<path d="M50.0846 70.4099L3.58789 39.6249L63.4331 0L109.93 30.7849L50.0846 70.4099Z" fill="#0061F1"/>
<path d="M3.58789 53.0345V39.625L4.74058 40.3866V55.2677L3.58789 53.0345Z" fill="#3580F0"/>
<g opacity="0.1">
<path d="M84.3468 40.7044L46.8677 15.8898L50.7313 13.333L88.2105 38.1476L84.3468 40.7044Z" fill="black" style="mix-blend-mode:darken"/>
</g>
<g opacity="0.1">
<path d="M72.1236 40.6178L47.0015 23.9849L48.9345 22.7065L74.0566 39.3394L72.1236 40.6178Z" fill="black" style="mix-blend-mode:darken"/>
</g>
<g opacity="0.1">
<path d="M67.9009 43.8002L42.7788 27.1646L44.7095 25.8862L69.8316 42.519L67.9009 43.8002Z" fill="black" style="mix-blend-mode:darken"/>
</g>
<g opacity="0.1">
<path d="M59.2358 43.5392L42.3628 32.3682L44.2958 31.0898L61.1664 42.2608L59.2358 43.5392Z" fill="black" style="mix-blend-mode:darken"/>
</g>
<path d="M26.0471 25.1091C26.3861 24.4522 29.1215 24.0246 30.013 26.6641C30.352 27.6631 30.3011 30.2209 30.5825 31.8302C30.8638 33.4395 31.535 34.3453 31.7756 35.6514C32.0163 36.9575 31.6231 39.1499 28.8843 39.5386C26.1454 39.9274 24.0371 38.8234 23.3897 37.8205C22.7422 36.8176 22.7117 34.6873 23.3897 33.5445C24.0676 32.4016 24.5726 31.4726 24.5557 29.9838L26.0471 25.1091Z" fill="#3A2C6D"/>
<path d="M27.8425 24.6466C27.8425 24.6466 25.8087 23.9702 24.5546 25.2375C24.1465 25.6704 23.8494 26.223 23.6953 26.8354C23.5412 27.4479 23.5359 28.097 23.68 28.7127C23.8461 29.4552 24.1783 30.4659 24.6969 30.5203C25.2155 30.5747 27.8425 24.6466 27.8425 24.6466Z" fill="#3A2C6D"/>
<path d="M28.622 31.041C28.622 31.041 28.4898 33.6571 28.5304 33.8476C28.5711 34.0381 29.4253 34.2364 29.6626 34.454C29.8998 34.6717 28.4254 37.3345 27.6729 37.7271C26.9203 38.1197 24.5917 37.1168 24.429 35.7835C24.2798 34.5629 25.1069 33.6105 25.412 33.2801C25.6249 33.2576 25.8389 33.2511 26.0526 33.2607L26.1204 31.9934C27.1407 31.6241 28.622 31.041 28.622 31.041Z" fill="#FFCEA9"/>
<path d="M21.9188 44.9928C21.2748 46.0168 20.5092 46.9327 19.6443 47.7139C19.4037 47.9549 19.2816 48.2114 18.8715 48.744C18.4642 49.2836 17.9371 49.6866 17.3461 49.9102C16.8309 50.0618 16.614 50.0229 16.5258 49.9102C16.4377 49.7974 16.4818 49.6303 16.7055 49.5215C17.0776 49.397 17.4236 49.1866 17.7224 48.9034C17.7224 48.9034 17.2445 49.1599 16.9428 49.2921C16.6695 49.4013 16.3843 49.4668 16.0954 49.4865C15.814 49.4865 15.5157 49.0977 15.7395 48.9967C15.9632 48.8956 16.1699 48.8762 16.614 48.6896C16.8537 48.5942 17.0816 48.4636 17.2919 48.3009C16.9838 48.4043 16.6686 48.4771 16.3496 48.5185C16.0855 48.57 15.8141 48.535 15.5666 48.4175C15.4344 48.3514 15.3191 48.0754 15.6174 47.986C16.0045 47.9407 16.385 47.8388 16.7496 47.6828C17.0885 47.504 17.3156 47.3135 17.2377 47.2941C17.1597 47.2746 16.9631 47.3796 16.614 47.3485C16.2648 47.3174 15.9361 47.0647 15.9361 46.8509C15.9361 46.6371 16.0106 46.7537 16.353 46.7226C16.7151 46.6201 17.0833 46.5486 17.4546 46.5088C17.8207 46.5252 18.1867 46.4753 18.5393 46.3611C18.9122 46.2328 19.746 45.0861 20.3833 44.0288C21.0798 42.8559 21.6308 41.5778 22.0205 40.2309C22.4035 38.7849 22.8611 36.0754 23.1865 35.1347C23.5119 34.194 24.0746 33.7625 24.6101 33.7431C25.2406 33.7198 25.5084 34.6683 25.3423 35.4885C25.0203 36.8957 23.6238 42.4233 21.9188 44.9928Z" fill="#FFCEA9"/>
<path d="M28.9338 34.1043C29.5744 34.2171 30.2896 34.6097 30.4083 35.0101C30.5269 35.4804 30.7777 37.6923 30.2252 39.3755C29.6727 41.0587 29.0423 44.0907 28.7236 44.8177C27.0752 45.0887 25.3951 44.7193 23.951 43.7681C23.951 43.7681 23.8188 40.841 23.8086 39.8808C21.7477 37.8167 23.5104 35.2744 25.256 33.2958C25.4658 33.2764 25.6767 33.2764 25.8865 33.2958C25.8865 33.2958 24.3273 35.4105 25.4086 36.6116C27.7305 35.7759 28.1813 34.5786 28.9338 34.1043Z" fill="#F4F4F4"/>
<path d="M24.3638 27.8028C24.5942 26.1235 25.6518 24.8562 27.1602 24.9573C27.5422 24.9826 27.9161 25.094 28.2605 25.2851C28.605 25.4762 28.9132 25.7433 29.1675 26.0711C29.4219 26.3989 29.6174 26.781 29.7429 27.1956C29.8685 27.6101 29.9215 28.0489 29.899 28.4869C29.873 28.997 29.744 29.4932 29.5222 29.9364C29.3005 30.3796 28.992 30.7577 28.6211 31.0409C28.5694 31.2957 28.4909 31.5424 28.3873 31.7756C27.8517 32.4908 26.4314 32.9418 25.9637 32.9418C25.5569 32.9418 25.2078 32.5142 24.8281 31.7756C24.0383 30.2984 24.2383 28.6347 24.3638 27.8028Z" fill="#FFCEA9"/>
<path d="M27.6299 24.9886C28.6908 25.2257 29.562 25.5678 29.8501 26.7612C30.0467 27.5814 30.3043 29.148 30.0569 29.8088L29.9077 30.2831L28.6231 31.0411C28.6231 31.0411 28.0231 30.4697 28.2129 28.7942C28.2058 28.5662 28.1423 28.3451 28.0299 28.1567C27.9504 27.9988 27.891 27.8286 27.8536 27.6514C27.7026 27.1983 27.4052 26.8293 27.0231 26.6213C26.0673 26.0032 24.6504 26.5357 24.4741 26.7573C24.7427 26.0914 25.2032 25.552 25.7779 25.2299C26.3527 24.9077 27.0067 24.8225 27.6299 24.9886Z" fill="#3A2C6D"/>
<path d="M21.7943 65.1906C21.2588 65.6882 20.4385 65.3422 20.3876 65.3888C19.8419 66.0147 19.0318 66.555 18.4216 67.1109C18.0827 67.4102 17.5674 67.8145 17.6624 68.3937C17.8284 69.4316 19.2758 69.1089 19.8216 68.7824C20.3673 68.4559 20.8113 67.9389 21.33 67.5735C21.696 67.3091 22.0587 67.1847 22.1163 66.6405C22.1502 66.314 21.8926 65.175 21.7943 65.1906Z" fill="#38226D"/>
<path d="M22.1104 66.4385C22.0392 66.9477 21.6833 67.0876 21.3172 67.3481C20.7918 67.7368 20.3308 68.2616 19.7851 68.5803C19.2393 68.8991 18.0224 69.1634 17.6699 68.421C17.8631 69.42 19.2834 69.109 19.8223 68.8097C20.3613 68.5104 20.8121 67.9662 21.3307 67.6008C21.6968 67.3364 22.0595 67.212 22.1171 66.6678C22.1241 66.5914 22.1218 66.5142 22.1104 66.4385Z" fill="#9C73FF"/>
<path d="M19.185 63.5074C18.6935 63.9661 17.9512 63.7096 17.9173 63.7523C17.3449 64.3097 16.7451 64.8289 16.1208 65.3072C15.8157 65.5832 15.3378 65.9525 15.4225 66.4734C15.5784 67.4219 16.9038 67.1304 17.4021 66.8388C17.9003 66.5473 18.3105 66.0614 18.7817 65.7309C19.1206 65.4899 19.4596 65.3655 19.5036 64.8796C19.5375 64.6075 19.2698 63.4958 19.185 63.5074Z" fill="#38226D"/>
<path d="M19.5006 64.7046C19.4329 65.1711 19.1074 65.3033 18.7719 65.5404C18.2905 65.8825 17.8668 66.3762 17.3686 66.6678C16.8703 66.9594 15.7551 67.2004 15.4297 66.524C15.6059 67.4375 16.9076 67.1499 17.4025 66.8622C17.8973 66.5745 18.3109 66.0847 18.782 65.7542C19.121 65.5132 19.46 65.3888 19.504 64.9029C19.5095 64.8368 19.5084 64.7703 19.5006 64.7046Z" fill="#9C73FF"/>
<path d="M26.6071 45.4629C25.1538 45.683 23.6757 45.4381 22.3362 44.7554C22.3599 45.2724 22.3836 45.735 22.3836 45.735C20.6447 47.146 17.1568 49.5173 16.9297 51.1538C17.1568 56.3277 17.8415 63.7135 18.0381 63.8185C18.5838 64.1178 18.9635 64.0711 19.2211 63.7718C19.2211 63.7718 20.3159 59.3909 19.9973 52.9614C19.9973 52.9614 26.0987 49.8749 26.4783 48.1839C26.6557 47.5027 26.7122 46.7876 26.6444 46.0809C26.641 45.8749 26.6275 45.6689 26.6071 45.4629Z" fill="#FFCEA9"/>
<path d="M28.6275 44.7905C27.4208 45.4358 26.3158 45.5174 24.9532 45.3542C24.9532 46.0461 25.0413 47.3483 25.0413 47.3483C23.3024 48.7555 19.8145 51.1307 19.584 52.7672C19.8145 57.9372 20.2348 65.428 20.4348 65.5213C20.6687 65.6363 20.9249 65.6789 21.1777 65.6448C21.4305 65.6107 21.6711 65.5011 21.8754 65.3269C21.8754 65.3269 22.9736 61.0004 22.655 54.5748C22.655 54.4543 27.8682 51.5116 28.5292 50.7303C29.1902 49.9489 29.319 48.7866 29.2987 47.6943C29.2489 46.6842 29.0205 45.6963 28.6275 44.7905Z" fill="#FFCEA9"/>
<path d="M29.9072 45.8868C29.9072 45.8868 31.8325 49.8013 28.6225 51.8149C25.2329 53.9412 23.1652 54.4388 23.1652 54.4388L22.6568 54.5748C22.817 55.9253 22.817 57.2944 22.6568 58.6448C22.6568 58.6448 20.2399 59.6127 17.1554 56.499L16.1385 52.7245L16.0198 51.7216C15.9608 51.3809 15.9767 51.0287 16.066 50.6969C16.1554 50.365 16.3154 50.0639 16.5317 49.8207C17.274 49.0432 19.6196 47.0996 21.0772 45.9528C22.5347 44.8061 23.6838 43.7682 23.6838 43.7682L23.9414 43.4961C23.9414 43.4961 25.6702 45.0743 28.8327 44.5457C29.2499 44.9254 29.6125 45.3779 29.9072 45.8868Z" fill="#8C50FF"/>
<path d="M27.9948 51.6982C28.2886 51.3933 28.6 51.1115 28.9269 50.8546C29.2723 50.6512 29.5888 50.3891 29.8658 50.0772C30.1607 49.739 30.598 48.3163 30.8251 46.9285C31.0356 45.3806 31.0127 43.8028 30.7573 42.2638C30.3575 40.4211 29.8177 38.6222 29.1438 36.8877C28.7134 35.8498 28.9574 35.2162 29.3472 34.7575C29.8082 34.2171 30.2861 34.2288 30.8319 35.6787C31.601 37.7091 32.1695 39.8318 32.5267 42.0072C32.7467 43.5864 32.7283 45.1971 32.4725 46.7691C32.2441 48.1473 31.8719 49.489 31.3641 50.7652C31.2251 51.154 31.2013 51.4572 31.0048 52.2074C30.8177 52.958 30.4759 53.646 30.0082 54.2132C29.5913 54.6603 29.3777 54.7458 29.2625 54.6875C29.1472 54.6292 29.1269 54.4426 29.2964 54.2132C29.5882 53.8748 29.8257 53.48 29.998 53.0471C29.998 53.0471 29.6591 53.5679 29.415 53.8556C29.2066 54.1152 28.9696 54.3426 28.71 54.532C28.4557 54.7069 28.0524 54.5009 28.2185 54.2638C28.3846 54.0266 28.5574 53.8984 28.8964 53.463C29.0769 53.2315 29.2338 52.9772 29.3642 52.705C29.122 52.981 28.8601 53.2333 28.5812 53.4591C28.3662 53.6576 28.1063 53.7817 27.8321 53.8167C27.6897 53.8167 27.4931 53.6263 27.7338 53.3658C28.0748 53.0956 28.3865 52.7798 28.6625 52.4251C28.9201 52.0364 29.0523 51.737 28.971 51.7448C28.8896 51.7526 28.7506 51.9819 28.4185 52.1569C28.0863 52.3318 27.7066 52.2735 27.6388 52.0636C27.5711 51.8537 27.6931 51.9314 27.9948 51.6982Z" fill="#FFCEA9"/>
<path d="M31.6766 37.6342C31.6766 37.6342 30.5072 38.8237 29.2055 38.5827L28.7005 36.0871C28.7005 36.0871 28.3615 34.777 29.3377 34.2795C30.314 33.7819 31.2529 35.0841 31.6766 37.6342Z" fill="#EDEDED"/>
<path d="M25.2565 33.2722C25.2565 33.2722 23.9922 32.8329 22.6465 36.0477L23.1515 36.3937C23.1515 36.3937 24.4735 34.1002 25.2565 33.2722Z" fill="#EDEDED"/>
<path d="M16.7002 47.4653L20.9474 44.6548C20.9844 44.6299 21.0265 44.6167 21.0694 44.6167C21.1123 44.6167 21.1545 44.6299 21.1915 44.6548L28.6487 49.5877L24.2794 52.4837L16.7002 47.4653Z" fill="#F4F4F4"/>
<path d="M24.3799 51.3676L24.7189 51.5852C24.746 51.5852 24.7426 51.6318 24.7189 51.6512L24.4104 51.8572C24.3941 51.8667 24.3761 51.8717 24.3579 51.8717C24.3396 51.8717 24.3216 51.8667 24.3053 51.8572L23.9664 51.6435C23.9392 51.624 23.9426 51.5968 23.9664 51.5735L24.2782 51.3715C24.2936 51.3614 24.3109 51.3557 24.3286 51.355C24.3464 51.3544 24.364 51.3587 24.3799 51.3676Z" fill="#3A2C6D"/>
<path d="M23.9238 51.0648L24.2628 51.2785C24.2866 51.298 24.2832 51.3291 24.2628 51.3485L23.9544 51.5544C23.9379 51.5631 23.92 51.5677 23.9018 51.5677C23.8837 51.5677 23.8657 51.5631 23.8493 51.5544L23.5103 51.3407C23.4832 51.3213 23.4866 51.2902 23.5103 51.2708L23.8188 51.0648C23.835 51.0553 23.853 51.0503 23.8713 51.0503C23.8896 51.0503 23.9076 51.0553 23.9238 51.0648Z" fill="#3A2C6D"/>
<path d="M23.4567 50.7656L23.7957 50.9794C23.8228 50.9988 23.8194 51.026 23.7957 51.0493L23.4872 51.2514C23.471 51.2609 23.453 51.2659 23.4347 51.2659C23.4164 51.2659 23.3984 51.2609 23.3822 51.2514L23.0432 51.0338C23.0195 51.0338 23.0195 50.9871 23.0432 50.9677L23.3516 50.7617C23.368 50.7521 23.3862 50.7474 23.4046 50.7481C23.423 50.7488 23.4409 50.7548 23.4567 50.7656Z" fill="#3A2C6D"/>
<path d="M23.002 50.4545L23.3409 50.6721C23.368 50.6721 23.3646 50.7188 23.3409 50.7382L23.0325 50.9441C23.0162 50.9537 22.9982 50.9587 22.9799 50.9587C22.9617 50.9587 22.9436 50.9537 22.9274 50.9441L22.5884 50.7304C22.5613 50.7304 22.5647 50.6838 22.5884 50.6605L22.9003 50.4584C22.9156 50.4483 22.933 50.4426 22.9507 50.442C22.9684 50.4413 22.986 50.4456 23.002 50.4545Z" fill="#3A2C6D"/>
<path d="M22.5425 50.1512L22.8815 50.3649C22.9052 50.3843 22.9018 50.4154 22.8815 50.4348L22.573 50.6407C22.5565 50.6494 22.5386 50.6539 22.5205 50.6539C22.5023 50.6539 22.4844 50.6494 22.4679 50.6407L22.129 50.427C22.1018 50.427 22.1052 50.3765 22.129 50.3571L22.4374 50.1512C22.4537 50.1417 22.4717 50.1367 22.49 50.1367C22.5082 50.1367 22.5262 50.1417 22.5425 50.1512Z" fill="#3A2C6D"/>
<path d="M22.0806 49.8481L22.4195 50.0618C22.4466 50.0618 22.4432 50.1084 22.4195 50.1317L22.1077 50.3337C22.092 50.3433 22.0746 50.3482 22.0568 50.3482C22.0391 50.3482 22.0217 50.3433 22.006 50.3337L21.667 50.1162C21.6399 50.1162 21.6433 50.0695 21.667 50.0501L21.9755 49.8442C21.992 49.8353 22.0102 49.8309 22.0284 49.8316C22.0467 49.8323 22.0646 49.8379 22.0806 49.8481Z" fill="#3A2C6D"/>
<path d="M21.6226 49.541L21.9615 49.7585C21.9886 49.7585 21.9852 49.8052 21.9615 49.8246L21.6531 50.0305C21.6368 50.04 21.6188 50.045 21.6005 50.045C21.5823 50.045 21.5642 50.04 21.548 50.0305L21.209 49.8168C21.1819 49.8168 21.1853 49.7702 21.209 49.7469L21.5209 49.5448C21.5362 49.5347 21.5536 49.5291 21.5713 49.5284C21.589 49.5277 21.6066 49.532 21.6226 49.541Z" fill="#3A2C6D"/>
<path d="M21.164 49.2377L21.503 49.4514C21.5301 49.4514 21.5267 49.5019 21.503 49.5213L21.1945 49.7272C21.178 49.7359 21.1601 49.7404 21.142 49.7404C21.1238 49.7404 21.1059 49.7359 21.0894 49.7272L20.7504 49.5135C20.7267 49.5135 20.7301 49.463 20.7504 49.4436L21.0589 49.2377C21.0752 49.2281 21.0932 49.2231 21.1114 49.2231C21.1297 49.2231 21.1477 49.2281 21.164 49.2377Z" fill="#3A2C6D"/>
<path d="M20.7026 48.9345L21.0416 49.1482C21.0687 49.1482 21.0653 49.1948 21.0416 49.2181L20.7298 49.4202C20.7141 49.4297 20.6966 49.4347 20.6789 49.4347C20.6612 49.4347 20.6437 49.4297 20.6281 49.4202L20.2891 49.2026C20.262 49.2026 20.2654 49.156 20.2891 49.1365L20.5976 48.9306C20.6141 48.9217 20.6322 48.9174 20.6505 48.918C20.6688 48.9187 20.6867 48.9244 20.7026 48.9345Z" fill="#3A2C6D"/>
<path d="M20.2432 48.6274L20.5821 48.845C20.6092 48.845 20.6059 48.8916 20.5821 48.911L20.2703 49.1169C20.2546 49.1265 20.2372 49.1314 20.2194 49.1314C20.2017 49.1314 20.1843 49.1265 20.1686 49.1169L19.8296 48.9032C19.8025 48.8838 19.8059 48.8566 19.8296 48.8333L20.1415 48.6313C20.1569 48.6211 20.1742 48.6155 20.1919 48.6148C20.2096 48.6141 20.2272 48.6185 20.2432 48.6274Z" fill="#3A2C6D"/>
<path d="M19.7846 48.3241L20.1236 48.5378C20.1507 48.5378 20.1473 48.5883 20.1236 48.6078L19.8151 48.8137C19.7986 48.8224 19.7807 48.8269 19.7626 48.8269C19.7444 48.8269 19.7265 48.8224 19.71 48.8137L19.371 48.6C19.3473 48.5806 19.3507 48.5495 19.371 48.53L19.6795 48.3241C19.6958 48.3145 19.7138 48.3096 19.732 48.3096C19.7503 48.3096 19.7683 48.3145 19.7846 48.3241Z" fill="#3A2C6D"/>
<path d="M19.3233 48.0209L19.6622 48.2346C19.6894 48.2346 19.686 48.2812 19.6622 48.3046L19.3504 48.5066C19.3347 48.5161 19.3173 48.5211 19.2995 48.5211C19.2818 48.5211 19.2643 48.5161 19.2487 48.5066L18.9097 48.289C18.8826 48.289 18.886 48.2424 18.9097 48.223L19.2182 48.017C19.2347 48.0081 19.2529 48.0038 19.2711 48.0045C19.2894 48.0051 19.3073 48.0108 19.3233 48.0209Z" fill="#3A2C6D"/>
<path d="M18.8633 47.7138L19.2023 47.9314C19.2294 47.9314 19.226 47.978 19.2023 47.9974L18.8904 48.2034C18.8747 48.2129 18.8573 48.2179 18.8396 48.2179C18.8218 48.2179 18.8044 48.2129 18.7887 48.2034L18.4498 47.9897C18.4226 47.9702 18.426 47.943 18.4498 47.9197L18.7616 47.7177C18.777 47.7076 18.7943 47.7019 18.812 47.7012C18.8298 47.7006 18.8474 47.7049 18.8633 47.7138Z" fill="#3A2C6D"/>
<path d="M18.1821 47.2665L18.7279 47.6279C18.755 47.6473 18.7516 47.6784 18.7279 47.6978L18.4194 47.9037C18.4029 47.9124 18.385 47.917 18.3669 47.917C18.3487 47.917 18.3308 47.9124 18.3143 47.9037L17.7686 47.5424C17.7415 47.523 17.7449 47.4958 17.7686 47.4725L18.0804 47.2665C18.0963 47.2579 18.1137 47.2534 18.1313 47.2534C18.1489 47.2534 18.1662 47.2579 18.1821 47.2665Z" fill="#3A2C6D"/>
<path d="M24.1464 50.6216L24.4854 50.8392C24.5125 50.8392 24.5091 50.8859 24.4854 50.9053L24.1769 51.1112C24.1606 51.1208 24.1426 51.1258 24.1244 51.1258C24.1061 51.1258 24.0881 51.1208 24.0718 51.1112L23.7329 50.8975C23.7091 50.8975 23.7125 50.847 23.7329 50.8276L24.0413 50.6216C24.0578 50.6129 24.0757 50.6084 24.0939 50.6084C24.112 50.6084 24.1299 50.6129 24.1464 50.6216Z" fill="#3A2C6D"/>
<path d="M23.6851 50.3183L24.024 50.532C24.0478 50.532 24.0444 50.5786 24.024 50.6019L23.7156 50.8039C23.6993 50.8135 23.6813 50.8185 23.663 50.8185C23.6448 50.8185 23.6268 50.8135 23.6105 50.8039L23.2715 50.5864C23.2444 50.5864 23.2478 50.5397 23.2715 50.5203L23.58 50.3144C23.5965 50.3055 23.6147 50.3012 23.6329 50.3018C23.6512 50.3025 23.6691 50.3082 23.6851 50.3183Z" fill="#3A2C6D"/>
<path d="M23.2256 50.0113L23.5645 50.2288C23.5883 50.2288 23.5849 50.2754 23.5645 50.2948L23.2561 50.5007C23.2398 50.5103 23.2218 50.5152 23.2036 50.5152C23.1853 50.5152 23.1673 50.5103 23.151 50.5007L22.8121 50.2871C22.7849 50.2676 22.7883 50.2405 22.8121 50.2171L23.1205 50.0113C23.137 50.0026 23.1549 49.998 23.173 49.998C23.1912 49.998 23.2091 50.0026 23.2256 50.0113Z" fill="#3A2C6D"/>
<path d="M22.7578 49.7079L23.0968 49.9216C23.1239 49.9216 23.1205 49.9682 23.0968 49.9915L22.7849 50.1974C22.7691 50.2061 22.7517 50.2106 22.7341 50.2106C22.7165 50.2106 22.6991 50.2061 22.6832 50.1974L22.3443 49.9799C22.3172 49.9799 22.3206 49.9332 22.3443 49.9138L22.6527 49.7079C22.669 49.6983 22.687 49.6934 22.7053 49.6934C22.7236 49.6934 22.7416 49.6983 22.7578 49.7079Z" fill="#3A2C6D"/>
<path d="M22.3076 49.4046L22.6466 49.6183C22.6737 49.6183 22.6703 49.6689 22.6466 49.6883L22.3347 49.8942C22.3188 49.9028 22.3015 49.9073 22.2839 49.9073C22.2663 49.9073 22.2489 49.9028 22.233 49.8942L21.8941 49.6805C21.867 49.6611 21.8704 49.63 21.8941 49.6106L22.2059 49.4046C22.2216 49.3951 22.239 49.3901 22.2568 49.3901C22.2745 49.3901 22.292 49.3951 22.3076 49.4046Z" fill="#3A2C6D"/>
<path d="M21.8457 49.0977L22.1847 49.3152C22.2118 49.3152 22.2084 49.3618 22.1847 49.3812L21.8728 49.5871C21.8572 49.5966 21.8397 49.6016 21.822 49.6016C21.8043 49.6016 21.7868 49.5966 21.7711 49.5871L21.4322 49.3735C21.4051 49.3735 21.4084 49.3269 21.4322 49.3074L21.744 49.1016C21.7597 49.0923 21.7769 49.0872 21.7945 49.0865C21.8121 49.0858 21.8296 49.0896 21.8457 49.0977Z" fill="#3A2C6D"/>
<path d="M21.4014 48.7943L21.7403 49.008C21.7675 49.0275 21.7641 49.0586 21.7403 49.078L21.4285 49.284C21.4128 49.2935 21.3954 49.2985 21.3776 49.2985C21.3599 49.2985 21.3425 49.2935 21.3268 49.284L20.9878 49.0702C20.9607 49.0508 20.9641 49.0197 20.9878 49.0003L21.2997 48.7943C21.3153 48.7848 21.3328 48.7798 21.3505 48.7798C21.3683 48.7798 21.3857 48.7848 21.4014 48.7943Z" fill="#3A2C6D"/>
<path d="M20.9224 48.4911L21.2613 48.7048C21.2884 48.7048 21.2851 48.7515 21.2613 48.7709L20.9529 48.9768C20.9363 48.9853 20.9184 48.9896 20.9003 48.9896C20.8822 48.9896 20.8643 48.9853 20.8478 48.9768L20.5088 48.7592C20.4817 48.7592 20.4851 48.7126 20.5088 48.6932L20.8207 48.4873C20.8366 48.4783 20.8542 48.474 20.8719 48.4747C20.8897 48.4754 20.907 48.481 20.9224 48.4911Z" fill="#3A2C6D"/>
<path d="M20.4624 48.184L20.8014 48.3977C20.8285 48.4171 20.8251 48.4482 20.8014 48.4676L20.4929 48.6736C20.4767 48.6831 20.4586 48.6881 20.4404 48.6881C20.4221 48.6881 20.4041 48.6831 20.3878 48.6736L20.0489 48.4599C20.0218 48.4405 20.0251 48.4094 20.0489 48.3899L20.3607 48.184C20.3766 48.1754 20.394 48.1709 20.4116 48.1709C20.4292 48.1709 20.4465 48.1754 20.4624 48.184Z" fill="#3A2C6D"/>
<path d="M20.0038 47.8808L20.3428 48.0945C20.3699 48.0945 20.3665 48.1411 20.3428 48.1645L20.0343 48.3665C20.0181 48.3761 20.0001 48.381 19.9818 48.381C19.9635 48.381 19.9455 48.3761 19.9292 48.3665L19.5903 48.1489C19.5666 48.1489 19.5699 48.1023 19.5903 48.0829L19.8987 47.8769C19.9153 47.868 19.9334 47.8637 19.9517 47.8643C19.97 47.865 19.9878 47.8706 20.0038 47.8808Z" fill="#3A2C6D"/>
<path d="M19.5439 47.5738L19.8828 47.7875C19.9099 47.7875 19.9065 47.838 19.8828 47.8574L19.5744 48.0634C19.5581 48.0729 19.5401 48.0779 19.5218 48.0779C19.5036 48.0779 19.4855 48.0729 19.4693 48.0634L19.1303 47.8497C19.1066 47.8497 19.11 47.7992 19.1303 47.7797L19.4388 47.5738C19.4552 47.5651 19.4732 47.5605 19.4913 47.5605C19.5095 47.5605 19.5274 47.5651 19.5439 47.5738Z" fill="#3A2C6D"/>
<path d="M19.083 47.2665L19.422 47.4803C19.4457 47.4803 19.4423 47.5269 19.422 47.5502L19.1135 47.7523C19.0973 47.7619 19.0792 47.7669 19.061 47.7669C19.0427 47.7669 19.0247 47.7619 19.0084 47.7523L18.6695 47.5347C18.6424 47.5347 18.6458 47.4881 18.6695 47.4686L18.9779 47.2627C18.9945 47.2537 19.0126 47.2494 19.0309 47.2501C19.0492 47.2507 19.067 47.2564 19.083 47.2665Z" fill="#3A2C6D"/>
<path d="M24.6097 50.9286L25.1555 51.29C25.1826 51.29 25.1792 51.3366 25.1555 51.356L24.8436 51.562C24.828 51.5715 24.8105 51.5765 24.7928 51.5765C24.7751 51.5765 24.7576 51.5715 24.7419 51.562L24.1928 51.2006C24.1691 51.2006 24.1725 51.154 24.1928 51.1346L24.5013 50.9286C24.518 50.9184 24.5366 50.9131 24.5555 50.9131C24.5744 50.9131 24.5931 50.9184 24.6097 50.9286Z" fill="#3A2C6D"/>
<path d="M18.2056 47.2435L18.5445 47.4611C18.5592 47.4696 18.5755 47.4741 18.592 47.4741C18.6085 47.4741 18.6247 47.4696 18.6394 47.4611L18.9784 47.2473C19.0055 47.2279 19.0055 47.2007 18.9784 47.1813H18.9513C18.9461 47.1791 18.9416 47.1751 18.9385 47.1699C18.9353 47.1647 18.9336 47.1585 18.9336 47.1521C18.9336 47.1458 18.9353 47.1396 18.9385 47.1344C18.9416 47.1292 18.9461 47.1252 18.9513 47.123L19.2903 46.8937C19.3174 46.8743 19.3174 46.8471 19.2903 46.8277L19.0835 46.6917C19.068 46.6841 19.0512 46.6802 19.0343 46.6802C19.0175 46.6802 19.0007 46.6841 18.9852 46.6917L18.6462 46.9054L18.5784 46.952L18.531 46.9831L18.4801 47.0142L18.2022 47.2007C18.1978 47.207 18.1958 47.2149 18.1964 47.2229C18.197 47.2308 18.2003 47.2382 18.2056 47.2435Z" fill="#3A2C6D"/>
<path d="M26.1641 50.186L26.503 50.4036C26.5301 50.4036 26.5268 50.4502 26.503 50.4696L26.1912 50.6755C26.1755 50.6851 26.1581 50.69 26.1403 50.69C26.1226 50.69 26.1052 50.6851 26.0895 50.6755L25.7505 50.4619C25.7234 50.4619 25.7268 50.4152 25.7505 50.3919L26.059 50.1899C26.075 50.1797 26.0928 50.1741 26.1111 50.1734C26.1294 50.1727 26.1475 50.177 26.1641 50.186Z" fill="#3A2C6D"/>
<path d="M25.7055 49.8829L26.0445 50.0966C26.0716 50.116 26.0682 50.1471 26.0445 50.1665L25.736 50.3725C25.7197 50.382 25.7017 50.387 25.6835 50.387C25.6652 50.387 25.6472 50.382 25.6309 50.3725L25.2919 50.1587C25.2682 50.1587 25.2716 50.1082 25.2919 50.0888L25.6004 49.8829C25.6169 49.8741 25.6348 49.8696 25.6529 49.8696C25.6711 49.8696 25.689 49.8741 25.7055 49.8829Z" fill="#3A2C6D"/>
<path d="M25.2441 49.5991L25.5831 49.8129C25.6102 49.8323 25.6068 49.8634 25.5831 49.8828L25.2712 50.0887C25.2556 50.0982 25.2381 50.1032 25.2204 50.1032C25.2027 50.1032 25.1852 50.0982 25.1696 50.0887L24.8306 49.875C24.8035 49.875 24.8069 49.8245 24.8306 49.8051L25.1289 49.5991C25.1465 49.5879 25.1663 49.582 25.1865 49.582C25.2067 49.582 25.2265 49.5879 25.2441 49.5991Z" fill="#3A2C6D"/>
<path d="M21.3403 46.9945L21.6793 47.2082C21.7064 47.2277 21.703 47.2587 21.6793 47.2782L21.3675 47.4841C21.3516 47.4928 21.3342 47.4973 21.3166 47.4973C21.299 47.4973 21.2817 47.4928 21.2658 47.4841L20.9268 47.2704C20.8997 47.251 20.9031 47.2199 20.9268 47.2005L21.2387 46.9945C21.2543 46.985 21.2718 46.98 21.2895 46.98C21.3072 46.98 21.3247 46.985 21.3403 46.9945Z" fill="#3A2C6D"/>
<path d="M20.8828 46.6918L21.2218 46.9056C21.2455 46.925 21.2455 46.9522 21.2218 46.9755L20.9133 47.1776C20.8977 47.1872 20.8802 47.1921 20.8625 47.1921C20.8448 47.1921 20.8273 47.1872 20.8117 47.1776L20.4727 46.96C20.4456 46.96 20.449 46.9134 20.4727 46.8939L20.7812 46.688C20.7972 46.6796 20.8148 46.6757 20.8324 46.6763C20.85 46.677 20.8673 46.6823 20.8828 46.6918Z" fill="#3A2C6D"/>
<path d="M20.4256 46.3882L20.7476 46.6019C20.7747 46.6019 20.7713 46.6485 20.7476 46.6718L20.4391 46.8738C20.4228 46.8834 20.4048 46.8884 20.3866 46.8884C20.3683 46.8884 20.3503 46.8834 20.334 46.8738L19.9951 46.6563C19.9713 46.6563 19.9747 46.6097 19.9951 46.5902L20.3035 46.3844C20.3221 46.3718 20.3434 46.3656 20.365 46.3663C20.3866 46.3669 20.4076 46.3746 20.4256 46.3882Z" fill="#3A2C6D"/>
<path d="M19.9644 46.1005L20.3033 46.3142C20.3304 46.3142 20.327 46.3608 20.3033 46.3802L19.9915 46.5861C19.9756 46.5948 19.9582 46.5993 19.9406 46.5993C19.923 46.5993 19.9057 46.5948 19.8898 46.5861L19.5508 46.3686C19.5237 46.3686 19.5271 46.322 19.5508 46.3025L19.8627 46.0966C19.8786 46.0877 19.8962 46.0834 19.9139 46.0841C19.9317 46.0847 19.949 46.0904 19.9644 46.1005Z" fill="#3A2C6D"/>
<path d="M24.6699 49.2103L25.114 49.5017C25.1411 49.5212 25.1377 49.5523 25.114 49.5717L24.8021 49.7776C24.7862 49.7863 24.7689 49.7908 24.7513 49.7908C24.7337 49.7908 24.7163 49.7863 24.7004 49.7776L24.2564 49.4862C24.2293 49.4668 24.2327 49.4357 24.2564 49.4163L24.5682 49.2103C24.5839 49.2008 24.6014 49.1958 24.6191 49.1958C24.6368 49.1958 24.6543 49.2008 24.6699 49.2103Z" fill="#3A2C6D"/>
<path d="M21.7984 47.2982L22.2424 47.5896C22.2695 47.5896 22.2661 47.6401 22.2424 47.6595L21.9306 47.8655C21.9149 47.875 21.8974 47.88 21.8797 47.88C21.862 47.88 21.8445 47.875 21.8289 47.8655L21.3848 47.5741C21.3577 47.5546 21.3611 47.5236 21.3848 47.5041L21.6967 47.2982C21.7123 47.2887 21.7298 47.2837 21.7475 47.2837C21.7652 47.2837 21.7827 47.2887 21.7984 47.2982Z" fill="#3A2C6D"/>
<path d="M22.3774 47.6788L24.5366 49.1094C24.5637 49.1094 24.5603 49.156 24.5366 49.1793L24.2281 49.3815C24.2124 49.391 24.195 49.396 24.1773 49.396C24.1595 49.396 24.1421 49.391 24.1264 49.3815L21.9638 47.9509C21.9401 47.9315 21.9435 47.9004 21.9638 47.881L22.2723 47.6749C22.289 47.6668 22.307 47.663 22.3252 47.6636C22.3433 47.6643 22.3611 47.6695 22.3774 47.6788Z" fill="#3A2C6D"/>
<path d="M24.4522 50.244L24.7911 50.4577C24.8182 50.4577 24.8149 50.5082 24.7911 50.5276L24.4793 50.7336C24.4634 50.7422 24.446 50.7467 24.4284 50.7467C24.4108 50.7467 24.3935 50.7422 24.3776 50.7336L24.0386 50.5199C24.0115 50.5199 24.0149 50.4694 24.0386 50.4499L24.3505 50.244C24.3661 50.2345 24.3836 50.2295 24.4013 50.2295C24.419 50.2295 24.4365 50.2345 24.4522 50.244Z" fill="#3A2C6D"/>
<path d="M24.0059 49.9414L24.3448 50.1551C24.3686 50.1551 24.3652 50.2017 24.3448 50.225L24.0364 50.4271C24.0201 50.4366 24.0021 50.4416 23.9838 50.4416C23.9656 50.4416 23.9476 50.4366 23.9313 50.4271L23.5923 50.2095C23.5652 50.2095 23.5686 50.1628 23.5923 50.1434L23.9008 49.9375C23.9173 49.9285 23.9355 49.9242 23.9537 49.9249C23.972 49.9255 23.9899 49.9312 24.0059 49.9414Z" fill="#3A2C6D"/>
<path d="M23.5479 49.6342L23.8868 49.8518C23.9139 49.8518 23.9105 49.8985 23.8868 49.9179L23.575 50.1239C23.5593 50.1334 23.5419 50.1384 23.5241 50.1384C23.5064 50.1384 23.4889 50.1334 23.4733 50.1239L23.1343 49.9101C23.1072 49.9101 23.1106 49.8635 23.1343 49.8441L23.4462 49.6381C23.4615 49.628 23.4789 49.6223 23.4966 49.6217C23.5143 49.621 23.5319 49.6253 23.5479 49.6342Z" fill="#3A2C6D"/>
<path d="M23.0971 49.3311L23.436 49.5487C23.4632 49.5487 23.4598 49.5953 23.436 49.6147L23.1276 49.8206C23.1113 49.8302 23.0933 49.8352 23.075 49.8352C23.0568 49.8352 23.0388 49.8302 23.0225 49.8206L22.6835 49.6069C22.6598 49.5875 22.6632 49.5564 22.6835 49.537L22.992 49.3311C23.0085 49.3224 23.0264 49.3179 23.0445 49.3179C23.0627 49.3179 23.0806 49.3224 23.0971 49.3311Z" fill="#3A2C6D"/>
<path d="M22.6284 49.0277L22.9674 49.2414C22.9945 49.2414 22.9911 49.2919 22.9674 49.3113L22.6555 49.5173C22.6396 49.5259 22.6223 49.5304 22.6047 49.5304C22.5871 49.5304 22.5697 49.5259 22.5539 49.5173L22.2149 49.3036C22.1878 49.2841 22.1912 49.253 22.2149 49.2336L22.5267 49.0277C22.5424 49.0182 22.5599 49.0132 22.5776 49.0132C22.5953 49.0132 22.6128 49.0182 22.6284 49.0277Z" fill="#3A2C6D"/>
<path d="M22.1698 48.7246L22.5088 48.9383C22.5359 48.9383 22.5325 48.9849 22.5088 49.0083L22.2003 49.2103C22.1841 49.2199 22.1661 49.2249 22.1478 49.2249C22.1295 49.2249 22.1115 49.2199 22.0953 49.2103L21.7563 48.9927C21.7326 48.9927 21.736 48.9461 21.7563 48.9266L22.0648 48.7207C22.0813 48.7117 22.0994 48.7074 22.1177 48.7081C22.136 48.7088 22.1538 48.7144 22.1698 48.7246Z" fill="#3A2C6D"/>
<path d="M21.7105 48.4326L22.0494 48.6502C22.0765 48.6502 22.0732 48.6968 22.0494 48.7162L21.7376 48.9221C21.7219 48.9316 21.7045 48.9366 21.6867 48.9366C21.669 48.9366 21.6515 48.9316 21.6359 48.9221L21.2969 48.7084C21.2698 48.7084 21.2732 48.6618 21.2969 48.6424L21.6088 48.4365C21.6244 48.4273 21.6416 48.4221 21.6592 48.4215C21.6768 48.4208 21.6943 48.4246 21.7105 48.4326Z" fill="#3A2C6D"/>
<path d="M21.2538 48.1143L21.5928 48.3319C21.6199 48.3319 21.6165 48.3785 21.5928 48.398L21.2843 48.6039C21.2681 48.6135 21.2501 48.6184 21.2318 48.6184C21.2135 48.6184 21.1955 48.6135 21.1792 48.6039L20.8403 48.3902C20.8166 48.3708 20.8199 48.3397 20.8403 48.3202L21.1487 48.1143C21.1652 48.1056 21.1831 48.1011 21.2013 48.1011C21.2194 48.1011 21.2373 48.1056 21.2538 48.1143Z" fill="#3A2C6D"/>
<path d="M20.7905 47.8109L21.1295 48.0246C21.1566 48.044 21.1532 48.0751 21.1295 48.0945L20.8176 48.3005C20.8018 48.3091 20.7844 48.3136 20.7668 48.3136C20.7492 48.3136 20.7319 48.3091 20.716 48.3005L20.377 48.0868C20.3499 48.0673 20.3533 48.0362 20.377 48.0168L20.6888 47.8109C20.7045 47.8014 20.722 47.7964 20.7397 47.7964C20.7574 47.7964 20.7749 47.8014 20.7905 47.8109Z" fill="#3A2C6D"/>
<path d="M20.3312 47.5078L20.6702 47.7215C20.6973 47.741 20.6939 47.7682 20.6702 47.7915L20.3617 47.9936C20.3455 48.0031 20.3275 48.0081 20.3092 48.0081C20.2909 48.0081 20.2729 48.0031 20.2567 47.9936L19.9177 47.776C19.894 47.776 19.894 47.7293 19.9177 47.7099L20.2262 47.5039C20.2425 47.4943 20.2608 47.4896 20.2791 47.4903C20.2975 47.491 20.3154 47.497 20.3312 47.5078Z" fill="#3A2C6D"/>
<path d="M19.8711 47.2009L20.2101 47.4185C20.2372 47.4185 20.2338 47.4651 20.2101 47.4845L19.8982 47.6905C19.8826 47.7 19.8651 47.705 19.8474 47.705C19.8297 47.705 19.8122 47.7 19.7965 47.6905L19.4576 47.4768C19.4304 47.4768 19.4338 47.4302 19.4576 47.4107L19.766 47.2048C19.7823 47.1957 19.8001 47.1907 19.8182 47.19C19.8363 47.1893 19.8543 47.1931 19.8711 47.2009Z" fill="#3A2C6D"/>
<path d="M19.4131 46.8974L19.7521 47.115C19.7792 47.115 19.7758 47.1616 19.7521 47.181L19.4436 47.3869C19.4273 47.3965 19.4093 47.4015 19.3911 47.4015C19.3728 47.4015 19.3548 47.3965 19.3385 47.3869L18.9996 47.1733C18.9724 47.1538 18.9758 47.1266 18.9996 47.1033L19.3114 46.8974C19.3273 46.8888 19.3447 46.8843 19.3623 46.8843C19.3798 46.8843 19.3972 46.8888 19.4131 46.8974Z" fill="#3A2C6D"/>
<path d="M24.9273 50.5474L25.6052 50.9942C25.6323 50.9942 25.6289 51.0409 25.6052 51.0603L25.2933 51.2662C25.2777 51.2757 25.2602 51.2807 25.2425 51.2807C25.2248 51.2807 25.2073 51.2757 25.1917 51.2662L24.5137 50.8233C24.4866 50.8233 24.49 50.7728 24.5137 50.7533L24.8222 50.5474C24.8386 50.5387 24.8566 50.5342 24.8747 50.5342C24.8929 50.5342 24.9108 50.5387 24.9273 50.5474Z" fill="#3A2C6D"/>
<path d="M25.1299 50.101L25.4688 50.3147C25.496 50.3147 25.4926 50.3652 25.4688 50.3847L25.157 50.5907C25.1411 50.5993 25.1237 50.6038 25.1062 50.6038C25.0886 50.6038 25.0712 50.5993 25.0553 50.5907L24.7164 50.3769C24.6892 50.3769 24.6926 50.3264 24.7164 50.3069L25.0248 50.101C25.0411 50.0914 25.0591 50.0864 25.0773 50.0864C25.0956 50.0864 25.1136 50.0914 25.1299 50.101Z" fill="#3A2C6D"/>
<path d="M24.6786 49.7978L25.0176 50.0115C25.0447 50.0115 25.0413 50.0582 25.0176 50.0815L24.7091 50.2835C24.6929 50.2931 24.6748 50.2981 24.6566 50.2981C24.6383 50.2981 24.6203 50.2931 24.604 50.2835L24.2651 50.0659C24.2414 50.0659 24.2447 50.0193 24.2651 49.9999L24.5735 49.794C24.5899 49.7843 24.6081 49.7797 24.6265 49.7803C24.6449 49.781 24.6628 49.787 24.6786 49.7978Z" fill="#3A2C6D"/>
<path d="M24.2217 49.4907L24.5606 49.7083C24.5878 49.7083 24.5844 49.7549 24.5606 49.7743L24.2488 49.9802C24.2331 49.9897 24.2157 49.9947 24.198 49.9947C24.1802 49.9947 24.1628 49.9897 24.1471 49.9802L23.8082 49.7665C23.781 49.7665 23.7844 49.7199 23.8082 49.6966L24.1166 49.4946C24.1326 49.4844 24.1505 49.4788 24.1687 49.4781C24.187 49.4774 24.2052 49.4817 24.2217 49.4907Z" fill="#3A2C6D"/>
<path d="M23.7736 49.1874L24.1126 49.4011C24.1397 49.4011 24.1363 49.4516 24.1126 49.471L23.8041 49.6769C23.7879 49.6865 23.7699 49.6915 23.7516 49.6915C23.7333 49.6915 23.7153 49.6865 23.699 49.6769L23.3601 49.4632C23.3364 49.4632 23.3364 49.4127 23.3601 49.3933L23.6685 49.1874C23.6849 49.1782 23.7029 49.1733 23.7211 49.1733C23.7393 49.1733 23.7573 49.1782 23.7736 49.1874Z" fill="#3A2C6D"/>
<path d="M23.3037 48.8837L23.6427 49.0974C23.6698 49.0974 23.6664 49.1479 23.6427 49.1673L23.3308 49.3732C23.3149 49.3819 23.2976 49.3863 23.28 49.3863C23.2624 49.3863 23.245 49.3819 23.2291 49.3732L22.8902 49.1595C22.8631 49.1595 22.8665 49.109 22.8902 49.0896L23.1986 48.8837C23.2149 48.8741 23.2329 48.8691 23.2512 48.8691C23.2695 48.8691 23.2875 48.8741 23.3037 48.8837Z" fill="#3A2C6D"/>
<path d="M22.8425 48.5806L23.1814 48.7943C23.2086 48.7943 23.2052 48.8409 23.1814 48.8642L22.873 49.0663C22.8567 49.0759 22.8387 49.0809 22.8204 49.0809C22.8022 49.0809 22.7842 49.0759 22.7679 49.0663L22.4289 48.8487C22.4052 48.8487 22.4052 48.8021 22.4289 48.7826L22.7374 48.5767C22.7538 48.5671 22.772 48.5624 22.7904 48.5631C22.8087 48.5637 22.8267 48.5698 22.8425 48.5806Z" fill="#3A2C6D"/>
<path d="M22.3838 48.2732L22.7228 48.4908C22.7499 48.4908 22.7465 48.5374 22.7228 48.5569L22.4109 48.7628C22.3953 48.7723 22.3778 48.7773 22.3601 48.7773C22.3423 48.7773 22.3249 48.7723 22.3092 48.7628L21.9703 48.5491C21.9431 48.5491 21.9465 48.5025 21.9703 48.483L22.2787 48.2771C22.295 48.268 22.3128 48.263 22.3309 48.2623C22.349 48.2616 22.367 48.2653 22.3838 48.2732Z" fill="#3A2C6D"/>
<path d="M21.9245 47.9706L22.2634 48.1881C22.2906 48.1881 22.2872 48.2347 22.2634 48.2542L21.955 48.4601C21.9387 48.4696 21.9207 48.4746 21.9025 48.4746C21.8842 48.4746 21.8662 48.4696 21.8499 48.4601L21.511 48.2464C21.4872 48.227 21.4872 48.1959 21.511 48.1765L21.8194 47.9706C21.8358 47.9614 21.8537 47.9565 21.872 47.9565C21.8902 47.9565 21.9081 47.9614 21.9245 47.9706Z" fill="#3A2C6D"/>
<path d="M21.4644 47.6556L21.8033 47.8693C21.8305 47.8693 21.8271 47.9198 21.8033 47.9392L21.4915 48.1451C21.4758 48.1547 21.4584 48.1596 21.4406 48.1596C21.4229 48.1596 21.4055 48.1547 21.3898 48.1451L21.0508 47.9315C21.0237 47.912 21.0271 47.881 21.0508 47.8615L21.3593 47.6556C21.3756 47.6461 21.3936 47.6411 21.4118 47.6411C21.4301 47.6411 21.4481 47.6461 21.4644 47.6556Z" fill="#3A2C6D"/>
<path d="M21.0051 47.3642L21.344 47.5779C21.3711 47.5779 21.3678 47.6245 21.344 47.6478L21.0356 47.8538C21.0191 47.8625 21.0012 47.867 20.983 47.867C20.9649 47.867 20.947 47.8625 20.9305 47.8538L20.5915 47.6362C20.5678 47.6362 20.5678 47.5896 20.5915 47.5701L20.9 47.3642C20.9161 47.354 20.9341 47.3486 20.9525 47.3486C20.9709 47.3486 20.989 47.354 21.0051 47.3642Z" fill="#3A2C6D"/>
<path d="M20.5464 47.061L20.8854 47.2746C20.9125 47.2746 20.9091 47.3213 20.8854 47.3407L20.5735 47.5466C20.5576 47.555 20.5402 47.5593 20.5227 47.5593C20.5051 47.5593 20.4878 47.555 20.4718 47.5466L20.1329 47.329C20.1057 47.329 20.1091 47.2824 20.1329 47.263L20.4413 47.0571C20.4579 47.0481 20.476 47.0438 20.4943 47.0445C20.5125 47.0452 20.5304 47.0508 20.5464 47.061Z" fill="#3A2C6D"/>
<path d="M19.52 46.3767L20.4115 46.9712C20.4386 46.9712 20.4352 47.0178 20.4115 47.0372L20.103 47.2432C20.0868 47.2527 20.0688 47.2577 20.0505 47.2577C20.0322 47.2577 20.0142 47.2527 19.998 47.2432L19.1065 46.6526C19.0794 46.6526 19.0828 46.6059 19.1065 46.5865L19.4149 46.3806C19.4312 46.3715 19.449 46.3665 19.4671 46.3658C19.4852 46.3651 19.5033 46.3688 19.52 46.3767Z" fill="#3A2C6D"/>
<path d="M25.6 50.4038L26.0406 50.6991C26.0678 50.6991 26.0644 50.7458 26.0406 50.7652L25.7322 50.9712C25.7159 50.9807 25.6979 50.9857 25.6796 50.9857C25.6614 50.9857 25.6434 50.9807 25.6271 50.9712L25.1831 50.6797C25.1593 50.6797 25.1627 50.6292 25.1831 50.6098L25.4915 50.4038C25.5084 50.3945 25.527 50.3896 25.5457 50.3896C25.5645 50.3896 25.5831 50.3945 25.6 50.4038Z" fill="#3A2C6D"/>
<path d="M17.72 47.57L24.2451 51.8887C24.2688 51.8887 24.2654 51.9354 24.2451 51.9587L24.0925 52.0597C24.0763 52.0693 24.0583 52.0743 24.04 52.0743C24.0217 52.0743 24.0037 52.0693 23.9874 52.0597L17.4556 47.7449C17.4285 47.7449 17.4319 47.6982 17.4556 47.6749L17.6115 47.5738C17.6277 47.5623 17.6463 47.5559 17.6653 47.5552C17.6844 47.5546 17.7032 47.5596 17.72 47.57Z" fill="#3A2C6D"/>
<path d="M25.4366 47.8538L25.3925 47.881L24.2705 48.6235L22.274 47.3018L22.23 47.2746L23.396 46.5049L25.4366 47.8538Z" fill="#BFBFBF"/>
<path d="M25.3944 47.8812L24.2724 48.6237L22.2759 47.302L23.3979 46.5596L25.3944 47.8812Z" fill="#E5E5E5"/>
<path d="M28.6419 49.599V49.7156C28.6396 49.7949 28.6197 49.8722 28.5841 49.9402C28.5486 50.0082 28.4984 50.0647 28.4385 50.1043L24.476 52.7283C24.4142 52.7692 24.344 52.7907 24.2726 52.7907C24.2012 52.7907 24.1311 52.7692 24.0693 52.7283L16.9036 47.9857C16.8419 47.9435 16.7908 47.8838 16.7551 47.8123C16.7195 47.7408 16.7006 47.6599 16.7002 47.5776V47.4609L24.2726 52.4756L28.6419 49.599Z" fill="#E5E5E5"/>
<path d="M24.2726 52.4794V52.7943C24.2012 52.7953 24.1308 52.7738 24.0693 52.7321L16.9036 47.9896C16.8419 47.9474 16.7908 47.8877 16.7551 47.8162C16.7195 47.7447 16.7006 47.6638 16.7002 47.5815V47.4648L24.2726 52.4794Z" fill="#E5E5E5"/>
<path d="M24.1578 52.5499C24.0899 52.5807 24.0169 52.5936 23.9441 52.5875C23.8714 52.5815 23.8007 52.5567 23.7375 52.5149L16.6192 47.7919C16.5574 47.7512 16.5044 47.6952 16.4639 47.6279C16.4234 47.5607 16.3966 47.4839 16.3853 47.4032L15.6023 42.0621C15.6007 42.0323 15.6007 42.0025 15.6023 41.9727C15.6047 41.8263 15.657 41.6867 15.7481 41.584L23.1375 46.4897C23.1845 46.5184 23.225 46.5594 23.2556 46.6094C23.2862 46.6593 23.3062 46.7169 23.3138 46.7773L24.1578 52.5499Z" fill="#F4F4F4"/>
<path d="M24.2743 52.4835L24.2234 52.5146C24.203 52.5285 24.1814 52.5402 24.159 52.5495L23.315 46.773C23.3074 46.7126 23.2875 46.655 23.2569 46.6051C23.2262 46.5551 23.1858 46.5141 23.1388 46.4854L15.729 41.5758C15.7572 41.541 15.7905 41.512 15.8273 41.4902L23.254 46.4076C23.2994 46.4381 23.3385 46.4797 23.3683 46.5294C23.3982 46.5791 23.4182 46.6358 23.4269 46.6953L24.2743 52.4835Z" fill="#E5E5E5"/>
<path d="M92.0812 33.8628C92.625 34.9722 93.284 36.002 94.0438 36.9296C94.2569 37.2101 95.8903 36.4946 95.5486 36.2933C95.2069 36.0919 94.1378 34.3842 93.6017 33.2444C93.1533 31.8848 92.7723 30.4972 92.4605 29.0882C92.1219 27.6933 91.8335 25.6475 91.589 24.684C91.5254 24.3276 91.3732 24.0001 91.1506 23.741C90.928 23.4819 90.6447 23.3024 90.3349 23.2243C89.7487 23.0697 89.3693 23.253 89.4759 24.0692C89.6672 25.4929 90.6422 31.0549 92.0812 33.8628Z" fill="#FFCEA9"/>
<path d="M91.1473 55.6358C91.652 56.1068 92.4013 55.6754 92.4358 55.7185C93.034 56.3562 93.6619 56.9563 94.3168 57.5162C94.6303 57.8002 95.1256 58.1813 95.0347 58.7278C94.8748 59.7093 93.5111 59.4073 92.9969 59.1089C92.4828 58.8105 92.0564 58.3143 91.5736 57.9656C91.2256 57.7175 90.8839 57.5881 90.8275 57.0847C90.7836 56.7719 91.0564 55.625 91.1473 55.6358Z" fill="#38226D"/>
<path d="M90.8234 56.8687C90.8892 57.3504 91.2278 57.4834 91.5726 57.7279C92.068 58.0874 92.5132 58.5908 93.0179 58.8892C93.5227 59.1876 94.6795 59.4393 95.015 58.7418C94.8331 59.6837 93.4913 59.3889 92.9834 59.1013C92.4756 58.8137 92.0429 58.3068 91.5601 57.958C91.2121 57.7099 90.8704 57.5805 90.814 57.0772C90.8112 57.0075 90.8143 56.9376 90.8234 56.8687Z" fill="#9C73FF"/>
<path d="M96.2807 52.2453C96.7854 52.7163 97.6726 52.2021 97.7103 52.2453C98.2367 52.8569 98.7936 53.4332 99.3781 53.9711C99.6916 54.2551 100.187 54.6362 100.096 55.1827C99.9393 56.1643 98.5724 55.8622 98.0582 55.5638C97.5441 55.2654 97.1177 54.7692 96.6349 54.4205C96.2869 54.1724 95.9452 54.043 95.8888 53.5396C95.8574 53.2376 96.1898 52.2345 96.2807 52.2453Z" fill="#38226D"/>
<path d="M95.9033 53.4067C95.9722 53.8885 96.3077 54.0215 96.6525 54.266C97.1479 54.6255 97.5931 55.1289 98.1009 55.4273C98.6088 55.7257 99.7625 55.981 100.098 55.2799C99.9161 56.2255 98.5743 55.927 98.0633 55.6394C97.5523 55.3518 97.1228 54.8449 96.6431 54.4961C96.2951 54.248 95.9534 54.1366 95.897 53.6189C95.8945 53.5481 95.8966 53.4772 95.9033 53.4067Z" fill="#9C73FF"/>
<path d="M84.3788 37.0333C83.8208 41.0493 85.3758 42.5521 87.401 43.4042C88.8525 44.019 90.9342 44.9646 90.9342 44.9646C90.9342 44.9646 90.906 45.8454 90.8872 47.8408C90.8872 49.5846 91.0753 55.9447 91.0753 55.9447C91.0753 55.9447 91.9124 56.4445 92.624 55.9447C92.624 55.9447 93.4391 51.0694 93.6116 48.8727C93.8467 45.8886 94.2386 43.9399 94.1132 43.2963C93.9972 42.7319 91.1568 41.1391 90.2539 40.2727L96.2106 42.5593C96.092 43.2993 96.0343 44.0504 96.0381 44.8028C96.0914 47.1685 96.2074 52.2918 96.2074 52.2918C96.2074 52.2918 97.0225 52.9678 97.7185 52.2918C97.7185 52.2918 99.2171 42.1566 99.0352 40.812C98.8628 39.5392 93.6179 36.9362 92.693 36.041C92.5317 35.8902 92.3444 35.7802 92.1434 35.7182C91.9424 35.6563 91.7323 35.6437 91.5268 35.6814L84.3788 37.0333Z" fill="#8C50FF"/>
<path d="M98.6534 38.7057L94.653 36.0596C94.6182 36.0365 94.5788 36.0244 94.5386 36.0244C94.4984 36.0244 94.459 36.0365 94.4242 36.0596L87.4048 40.7047L91.5211 43.43L98.6534 38.7057Z" fill="#F4F4F4"/>
<path d="M91.3346 42.4553L91.0211 42.6565C90.996 42.6565 90.9991 42.7033 91.0211 42.7212L91.3095 42.9153C91.3245 42.9241 91.3412 42.9287 91.3581 42.9287C91.375 42.9287 91.3916 42.9241 91.4067 42.9153L91.7202 42.714C91.7421 42.714 91.739 42.6673 91.7202 42.6494L91.4286 42.4553C91.4141 42.4465 91.398 42.4419 91.3816 42.4419C91.3652 42.4419 91.3491 42.4465 91.3346 42.4553Z" fill="#3A2C6D"/>
<path d="M91.7638 42.1716L91.4503 42.3729C91.4252 42.3729 91.4283 42.416 91.4503 42.4376L91.7418 42.628C91.7569 42.6368 91.7735 42.6414 91.7904 42.6414C91.8073 42.6414 91.824 42.6368 91.839 42.628L92.1525 42.4268C92.1776 42.4268 92.1745 42.3836 92.1525 42.3621L91.861 42.1716C91.8459 42.1628 91.8293 42.1582 91.8124 42.1582C91.7955 42.1582 91.7788 42.1628 91.7638 42.1716Z" fill="#3A2C6D"/>
<path d="M92.2008 41.8799L91.8873 42.0812C91.8622 42.0992 91.8653 42.1279 91.8873 42.1459L92.1788 42.34C92.1939 42.3488 92.2105 42.3534 92.2274 42.3534C92.2443 42.3534 92.261 42.3488 92.276 42.34L92.5895 42.1387C92.6146 42.1207 92.6114 42.092 92.5895 42.074L92.298 41.8799C92.2827 41.8718 92.2661 41.8677 92.2494 41.8677C92.2326 41.8677 92.216 41.8718 92.2008 41.8799Z" fill="#3A2C6D"/>
<path d="M92.6305 41.5999L92.317 41.8011C92.2919 41.8011 92.295 41.8442 92.317 41.8658L92.6054 42.0562C92.6204 42.0651 92.6371 42.0697 92.654 42.0697C92.6709 42.0697 92.6875 42.0651 92.7026 42.0562L93.0161 41.855C93.0411 41.855 93.038 41.8119 93.0161 41.7903L92.7276 41.5999C92.7126 41.591 92.696 41.5864 92.6791 41.5864C92.6622 41.5864 92.6455 41.591 92.6305 41.5999Z" fill="#3A2C6D"/>
<path d="M93.0597 41.3118L92.7462 41.513C92.7211 41.531 92.7242 41.5598 92.7462 41.5777L93.0377 41.7718C93.0528 41.7806 93.0694 41.7852 93.0863 41.7852C93.1032 41.7852 93.1199 41.7806 93.1349 41.7718L93.4484 41.5705C93.4735 41.5705 93.4703 41.5238 93.4484 41.5058L93.1569 41.3118C93.1418 41.3029 93.1252 41.2983 93.1083 41.2983C93.0914 41.2983 93.0747 41.3029 93.0597 41.3118Z" fill="#3A2C6D"/>
<path d="M93.4889 41.0281L93.1754 41.2293C93.1503 41.2293 93.1534 41.2725 93.1754 41.294L93.4669 41.4845C93.482 41.4933 93.4986 41.4979 93.5155 41.4979C93.5324 41.4979 93.5491 41.4933 93.5641 41.4845L93.8776 41.2832C93.9027 41.2832 93.8995 41.2401 93.8776 41.2186L93.5861 41.0281C93.571 41.0193 93.5544 41.0146 93.5375 41.0146C93.5206 41.0146 93.5039 41.0193 93.4889 41.0281Z" fill="#3A2C6D"/>
<path d="M93.9259 40.7403L93.6124 40.9415C93.5873 40.9595 93.5904 40.9882 93.6124 41.0062L93.9008 41.2002C93.9158 41.209 93.9325 41.2136 93.9494 41.2136C93.9663 41.2136 93.9829 41.209 93.998 41.2002L94.3115 40.999C94.3365 40.999 94.3334 40.9523 94.3115 40.9343L94.0231 40.7403C94.0078 40.7322 93.9912 40.728 93.9745 40.728C93.9577 40.728 93.9411 40.7322 93.9259 40.7403Z" fill="#3A2C6D"/>
<path d="M94.3551 40.4563L94.0416 40.6575C94.0165 40.6575 94.0196 40.7007 94.0416 40.7222L94.3331 40.9127C94.3482 40.9215 94.3648 40.9261 94.3817 40.9261C94.3986 40.9261 94.4153 40.9215 94.4303 40.9127L94.7438 40.7114C94.7689 40.7114 94.7657 40.6683 94.7438 40.6468L94.4523 40.4563C94.4372 40.4475 94.4206 40.4429 94.4037 40.4429C94.3868 40.4429 94.3701 40.4475 94.3551 40.4563Z" fill="#3A2C6D"/>
<path d="M94.7862 40.1685L94.4727 40.3697C94.4477 40.3877 94.4508 40.4164 94.4727 40.4344L94.7643 40.6285C94.7793 40.6373 94.796 40.6419 94.8129 40.6419C94.8298 40.6419 94.8464 40.6373 94.8615 40.6285L95.175 40.4272C95.2001 40.4093 95.1969 40.3805 95.175 40.3625L94.8834 40.1685C94.8682 40.1604 94.8516 40.1562 94.8348 40.1562C94.8181 40.1562 94.8015 40.1604 94.7862 40.1685Z" fill="#3A2C6D"/>
<path d="M95.2198 39.8737L94.9063 40.0749C94.8812 40.0749 94.8844 40.1181 94.9063 40.1396L95.1948 40.3301C95.2098 40.3389 95.2264 40.3435 95.2433 40.3435C95.2602 40.3435 95.2769 40.3389 95.2919 40.3301L95.6054 40.1252C95.6305 40.1252 95.6274 40.0821 95.6054 40.0606L95.317 39.8701C95.3017 39.8618 95.2849 39.8578 95.268 39.8585C95.2511 39.8591 95.2346 39.8643 95.2198 39.8737Z" fill="#3A2C6D"/>
<path d="M95.649 39.5972L95.3355 39.7984C95.3104 39.8164 95.3136 39.8452 95.3355 39.8631L95.6271 40.0572C95.6421 40.066 95.6588 40.0706 95.6757 40.0706C95.6926 40.0706 95.7092 40.066 95.7243 40.0572L96.0378 39.8559C96.0629 39.838 96.0597 39.8092 96.0378 39.7912L95.7462 39.5972C95.731 39.5891 95.7144 39.585 95.6976 39.585C95.6809 39.585 95.6643 39.5891 95.649 39.5972Z" fill="#3A2C6D"/>
<path d="M96.0821 39.3132L95.7686 39.5144C95.7436 39.5144 95.7467 39.5575 95.7686 39.5791L96.0602 39.7695C96.0752 39.7784 96.0919 39.783 96.1088 39.783C96.1257 39.783 96.1424 39.7784 96.1574 39.7695L96.4709 39.5647C96.496 39.5647 96.4929 39.5216 96.4709 39.5036L96.1793 39.3096C96.164 39.3013 96.1473 39.2973 96.1304 39.2979C96.1135 39.2985 96.0969 39.3038 96.0821 39.3132Z" fill="#3A2C6D"/>
<path d="M96.5168 39.0256L96.2033 39.2268C96.1813 39.2448 96.1845 39.2735 96.2033 39.2915L96.4949 39.4855C96.5093 39.4943 96.5255 39.4989 96.5419 39.4989C96.5583 39.4989 96.5744 39.4943 96.5889 39.4855L96.9024 39.2843C96.9275 39.2663 96.9244 39.2376 96.9024 39.2196L96.6109 39.0256C96.5961 39.018 96.58 39.0142 96.5638 39.0142C96.5476 39.0142 96.5316 39.018 96.5168 39.0256Z" fill="#3A2C6D"/>
<path d="M97.1549 38.6013L96.6407 38.9427C96.6156 38.9427 96.6188 38.9858 96.6407 39.0074L96.9323 39.1978C96.9473 39.2067 96.964 39.2113 96.9809 39.2113C96.9978 39.2113 97.0144 39.2067 97.0295 39.1978L97.5436 38.8564C97.5687 38.8564 97.5656 38.8133 97.5436 38.7918L97.2552 38.6013C97.2398 38.5919 97.2225 38.5869 97.205 38.5869C97.1875 38.5869 97.1703 38.5919 97.1549 38.6013Z" fill="#3A2C6D"/>
<path d="M91.5543 41.7542L91.2408 41.9554C91.2157 41.9733 91.2189 42.0021 91.2408 42.0201L91.5324 42.2141C91.5474 42.2229 91.5641 42.2275 91.581 42.2275C91.5979 42.2275 91.6145 42.2229 91.6296 42.2141L91.9431 42.0129C91.9681 41.9949 91.965 41.9662 91.9431 41.9482L91.6515 41.7542C91.6365 41.7453 91.6198 41.7407 91.6029 41.7407C91.586 41.7407 91.5693 41.7453 91.5543 41.7542Z" fill="#3A2C6D"/>
<path d="M91.9874 41.4668L91.6739 41.6716C91.6488 41.6716 91.652 41.7147 91.6739 41.7327L91.9655 41.9268C91.9805 41.9356 91.9972 41.9402 92.0141 41.9402C92.031 41.9402 92.0476 41.9356 92.0626 41.9268L92.3761 41.7255C92.4012 41.7255 92.3981 41.6824 92.3761 41.6608L92.0846 41.4704C92.0698 41.461 92.0533 41.4558 92.0364 41.4551C92.0195 41.4545 92.0027 41.4585 91.9874 41.4668Z" fill="#3A2C6D"/>
<path d="M92.4225 41.1828L92.109 41.384C92.0839 41.402 92.087 41.4307 92.109 41.4487L92.4005 41.6391C92.4156 41.6479 92.4322 41.6526 92.4491 41.6526C92.466 41.6526 92.4827 41.6479 92.4977 41.6391L92.8112 41.4379C92.8363 41.4199 92.8331 41.3912 92.8112 41.3732L92.5196 41.1792C92.5044 41.1709 92.4876 41.1669 92.4707 41.1675C92.4538 41.1682 92.4373 41.1734 92.4225 41.1828Z" fill="#3A2C6D"/>
<path d="M92.8629 40.895L92.5494 41.0963C92.5243 41.0963 92.5274 41.143 92.5494 41.161L92.8409 41.355C92.856 41.3639 92.8726 41.3685 92.8895 41.3685C92.9064 41.3685 92.9231 41.3639 92.9381 41.355L93.2516 41.1538C93.2766 41.1538 93.2735 41.1071 93.2516 41.0891L92.96 40.895C92.9448 40.887 92.9282 40.8828 92.9115 40.8828C92.8947 40.8828 92.8781 40.887 92.8629 40.895Z" fill="#3A2C6D"/>
<path d="M93.2828 40.6109L92.9693 40.8121C92.9442 40.8121 92.9474 40.8588 92.9693 40.8768L93.2609 41.0709C93.2759 41.0797 93.2926 41.0843 93.3095 41.0843C93.3264 41.0843 93.343 41.0797 93.3581 41.0709L93.6716 40.8696C93.6967 40.8516 93.6935 40.8229 93.6716 40.8049L93.38 40.6109C93.3648 40.6028 93.3482 40.5986 93.3314 40.5986C93.3146 40.5986 93.2981 40.6028 93.2828 40.6109Z" fill="#3A2C6D"/>
<path d="M93.714 40.3269L93.4005 40.5282C93.3754 40.5282 93.3785 40.5713 93.4005 40.5929L93.692 40.7833C93.7071 40.7922 93.7237 40.7968 93.7406 40.7968C93.7575 40.7968 93.7742 40.7922 93.7892 40.7833L94.1027 40.5821C94.1278 40.5821 94.1247 40.5389 94.1027 40.5174L93.8112 40.3269C93.7961 40.3181 93.7795 40.3135 93.7626 40.3135C93.7457 40.3135 93.729 40.3181 93.714 40.3269Z" fill="#3A2C6D"/>
<path d="M94.1487 40.0394L93.8351 40.2406C93.8132 40.2406 93.8163 40.2873 93.8351 40.3053L94.1267 40.4994C94.1414 40.5074 94.1575 40.5115 94.1737 40.5115C94.19 40.5115 94.2061 40.5074 94.2208 40.4994L94.5343 40.2981C94.5594 40.2802 94.5562 40.2514 94.5343 40.2334L94.2427 40.0394C94.2281 40.0311 94.212 40.0269 94.1957 40.0269C94.1794 40.0269 94.1633 40.0311 94.1487 40.0394Z" fill="#3A2C6D"/>
<path d="M94.5802 39.7519L94.2667 39.9532C94.2416 39.9712 94.2447 39.9999 94.2667 40.0179L94.5551 40.212C94.5701 40.2208 94.5868 40.2254 94.6037 40.2254C94.6206 40.2254 94.6372 40.2208 94.6523 40.212L94.9657 40.0107C94.9908 40.0107 94.9877 39.964 94.9657 39.946L94.6773 39.7555C94.6626 39.7461 94.646 39.7409 94.6291 39.7403C94.6122 39.7397 94.5954 39.7437 94.5802 39.7519Z" fill="#3A2C6D"/>
<path d="M95.0138 39.4679L94.7003 39.6692C94.6752 39.6692 94.6783 39.7123 94.7003 39.7339L94.9887 39.9244C95.0037 39.9332 95.0204 39.9378 95.0373 39.9378C95.0542 39.9378 95.0708 39.9332 95.0859 39.9244L95.3994 39.7195C95.4244 39.7195 95.4213 39.6764 95.3994 39.6584L95.111 39.4643C95.0957 39.4561 95.0789 39.4521 95.062 39.4527C95.0451 39.4533 95.0286 39.4585 95.0138 39.4679Z" fill="#3A2C6D"/>
<path d="M95.443 39.1799L95.1295 39.3812C95.1044 39.3991 95.1075 39.4279 95.1295 39.4458L95.421 39.6399C95.4361 39.6487 95.4527 39.6533 95.4696 39.6533C95.4865 39.6533 95.5032 39.6487 95.5182 39.6399L95.8317 39.4387C95.8568 39.4207 95.8537 39.3919 95.8317 39.374L95.5402 39.1799C95.5251 39.1711 95.5085 39.1665 95.4916 39.1665C95.4747 39.1665 95.458 39.1711 95.443 39.1799Z" fill="#3A2C6D"/>
<path d="M95.8741 38.8926L95.5606 39.0974C95.5355 39.0974 95.5387 39.1405 95.5606 39.1585L95.8522 39.3526C95.8672 39.3614 95.8839 39.366 95.9008 39.366C95.9177 39.366 95.9343 39.3614 95.9494 39.3526L96.2629 39.1513C96.288 39.1513 96.2848 39.1082 96.2629 39.0866L95.9713 38.8962C95.9565 38.8868 95.94 38.8815 95.9231 38.8809C95.9062 38.8803 95.8894 38.8843 95.8741 38.8926Z" fill="#3A2C6D"/>
<path d="M96.3111 38.6086L95.9976 38.8098C95.9726 38.8278 95.9757 38.8565 95.9976 38.8745L96.2892 39.0649C96.3042 39.0738 96.3209 39.0784 96.3378 39.0784C96.3547 39.0784 96.3713 39.0738 96.3864 39.0649L96.6999 38.8637C96.7249 38.8457 96.7218 38.817 96.6999 38.799L96.4083 38.605C96.393 38.5967 96.3762 38.5927 96.3593 38.5933C96.3424 38.594 96.3259 38.5992 96.3111 38.6086Z" fill="#3A2C6D"/>
<path d="M91.1239 42.031L90.6129 42.3688C90.5878 42.3868 90.5909 42.4155 90.6129 42.4335L90.9044 42.6276C90.9197 42.6356 90.9362 42.6398 90.953 42.6398C90.9698 42.6398 90.9864 42.6356 91.0016 42.6276L91.5126 42.2862C91.5377 42.2862 91.5346 42.243 91.5126 42.2251L91.2211 42.031C91.206 42.0222 91.1894 42.0176 91.1725 42.0176C91.1556 42.0176 91.1389 42.0222 91.1239 42.031Z" fill="#3A2C6D"/>
<path d="M97.1316 38.5829L96.818 38.7841C96.8041 38.7929 96.7885 38.7976 96.7726 38.7976C96.7567 38.7976 96.741 38.7929 96.7271 38.7841L96.4136 38.5829C96.3885 38.5829 96.3885 38.5397 96.4136 38.5218H96.4387C96.4606 38.5218 96.4606 38.4786 96.4387 38.4643L96.1252 38.2486C96.1185 38.2486 96.1121 38.2456 96.1074 38.2402C96.1027 38.2348 96.1001 38.2275 96.1001 38.2199C96.1001 38.2123 96.1027 38.205 96.1074 38.1996C96.1121 38.1942 96.1185 38.1911 96.1252 38.1911L96.3164 38.0618C96.3303 38.053 96.346 38.0483 96.3619 38.0483C96.3778 38.0483 96.3934 38.053 96.4073 38.0618L96.7209 38.263L96.7836 38.3061L96.8306 38.3349L96.8745 38.3636L97.1378 38.5397C97.1402 38.5429 97.1419 38.5466 97.1428 38.5507C97.1438 38.5547 97.144 38.5589 97.1434 38.563C97.1428 38.5671 97.1414 38.571 97.1394 38.5744C97.1373 38.5778 97.1347 38.5807 97.1316 38.5829Z" fill="#3A2C6D"/>
<path d="M89.6612 41.3479L89.3477 41.5492C89.3227 41.5492 89.3258 41.5923 89.3477 41.6138L89.6393 41.8043C89.6543 41.8131 89.671 41.8178 89.6879 41.8178C89.7048 41.8178 89.7214 41.8131 89.7365 41.8043L90.05 41.6031C90.0751 41.6031 90.0719 41.5599 90.05 41.5384L89.7584 41.3479C89.7434 41.3391 89.7267 41.3345 89.7098 41.3345C89.6929 41.3345 89.6763 41.3391 89.6612 41.3479Z" fill="#3A2C6D"/>
<path d="M90.0943 41.0605L89.7808 41.2618C89.7558 41.2618 89.7589 41.3085 89.7808 41.3265L90.0693 41.5205C90.0843 41.5294 90.101 41.534 90.1178 41.534C90.1347 41.534 90.1514 41.5294 90.1664 41.5205L90.4799 41.3193C90.505 41.3013 90.5019 41.2726 90.4799 41.2546L90.1915 41.0641C90.1767 41.0547 90.1602 41.0495 90.1433 41.0489C90.1264 41.0483 90.1096 41.0523 90.0943 41.0605Z" fill="#3A2C6D"/>
<path d="M90.5235 40.7761L90.21 40.9774C90.185 40.9953 90.1881 41.0241 90.21 41.042L90.5016 41.2361C90.5168 41.2441 90.5334 41.2483 90.5502 41.2483C90.567 41.2483 90.5835 41.2441 90.5988 41.2361L90.9123 41.0348C90.9374 41.0169 90.9342 40.9881 90.9123 40.9702L90.6207 40.7761C90.6057 40.7673 90.589 40.7627 90.5721 40.7627C90.5552 40.7627 90.5386 40.7673 90.5235 40.7761Z" fill="#3A2C6D"/>
<path d="M94.1891 38.3494L93.8756 38.5506C93.8505 38.5686 93.8536 38.5973 93.8756 38.6153L94.1671 38.8094C94.1824 38.8174 94.1989 38.8216 94.2157 38.8216C94.2325 38.8216 94.2491 38.8174 94.2643 38.8094L94.5778 38.6081C94.6029 38.5901 94.5998 38.5614 94.5778 38.5434L94.2863 38.3494C94.2712 38.3405 94.2546 38.3359 94.2377 38.3359C94.2208 38.3359 94.2041 38.3405 94.1891 38.3494Z" fill="#3A2C6D"/>
<path d="M94.6188 38.0758L94.3053 38.2771C94.2802 38.2771 94.2833 38.3202 94.3053 38.3418L94.5968 38.5323C94.6118 38.5411 94.6285 38.5457 94.6454 38.5457C94.6623 38.5457 94.6789 38.5411 94.694 38.5323L95.0075 38.3274C95.0326 38.3274 95.0294 38.2843 95.0075 38.2663L94.7159 38.0723C94.7006 38.064 94.6839 38.06 94.667 38.0606C94.6501 38.0612 94.6335 38.0665 94.6188 38.0758Z" fill="#3A2C6D"/>
<path d="M95.0572 37.7778L94.7437 37.9827C94.7186 37.9827 94.7218 38.0258 94.7437 38.0438L95.0322 38.2378C95.0472 38.2467 95.0639 38.2513 95.0808 38.2513C95.0977 38.2513 95.1143 38.2467 95.1293 38.2378L95.4429 38.0366C95.4679 38.0366 95.4648 37.9935 95.4429 37.9719L95.1544 37.7814C95.1396 37.772 95.1231 37.7668 95.1062 37.7662C95.0893 37.7656 95.0725 37.7695 95.0572 37.7778Z" fill="#3A2C6D"/>
<path d="M95.483 37.4937L95.1695 37.6949C95.1444 37.7129 95.1476 37.7417 95.1695 37.7596L95.4611 37.9537C95.4761 37.9625 95.4928 37.9671 95.5097 37.9671C95.5266 37.9671 95.5432 37.9625 95.5583 37.9537L95.8718 37.7524C95.8969 37.7345 95.8937 37.7057 95.8718 37.6878L95.5802 37.4937C95.565 37.4856 95.5484 37.4814 95.5316 37.4814C95.5148 37.4814 95.4983 37.4856 95.483 37.4937Z" fill="#3A2C6D"/>
<path d="M91.066 40.4167L90.649 40.6935C90.6239 40.6935 90.6271 40.7366 90.649 40.7581L90.9406 40.9486C90.9556 40.9574 90.9722 40.962 90.9891 40.962C91.006 40.962 91.0227 40.9574 91.0377 40.9486L91.4547 40.6719C91.4766 40.6539 91.4735 40.6252 91.4547 40.6072L91.1631 40.4167C91.1483 40.4073 91.1315 40.4023 91.1145 40.4023C91.0975 40.4023 91.0808 40.4073 91.066 40.4167Z" fill="#3A2C6D"/>
<path d="M93.7583 38.634L93.3414 38.9107C93.3163 38.9107 93.3194 38.9539 93.3414 38.9754L93.6329 39.1659C93.648 39.1747 93.6646 39.1793 93.6815 39.1793C93.6984 39.1793 93.7151 39.1747 93.7301 39.1659L94.1471 38.8892C94.1722 38.8712 94.169 38.8425 94.1471 38.8245L93.8555 38.634C93.8405 38.6252 93.8238 38.6206 93.8069 38.6206C93.79 38.6206 93.7734 38.6252 93.7583 38.634Z" fill="#3A2C6D"/>
<path d="M93.2162 38.9934L91.191 40.3345C91.1659 40.3525 91.169 40.3812 91.191 40.3992L91.4826 40.5933C91.4976 40.6022 91.5142 40.6068 91.5311 40.6068C91.548 40.6068 91.5647 40.6022 91.5797 40.5933L93.605 39.2523C93.6301 39.2343 93.6269 39.2055 93.605 39.1876L93.3134 38.9934C93.2984 38.9846 93.2817 38.98 93.2648 38.98C93.2479 38.98 93.2313 38.9846 93.2162 38.9934Z" fill="#3A2C6D"/>
<path d="M91.2545 41.3984L90.941 41.6033C90.9159 41.6033 90.919 41.6464 90.941 41.6644L91.2325 41.8584C91.2476 41.8673 91.2642 41.8719 91.2811 41.8719C91.298 41.8719 91.3147 41.8673 91.3297 41.8584L91.6432 41.6572C91.6683 41.6572 91.6652 41.6141 91.6432 41.5925L91.3517 41.402C91.3369 41.3926 91.3204 41.3874 91.3035 41.3868C91.2866 41.3862 91.2698 41.3902 91.2545 41.3984Z" fill="#3A2C6D"/>
<path d="M91.6876 41.114L91.3741 41.3153C91.349 41.3332 91.3522 41.362 91.3741 41.38L91.6657 41.574C91.6809 41.5821 91.6975 41.5862 91.7143 41.5862C91.731 41.5862 91.7476 41.5821 91.7628 41.574L92.0764 41.3728C92.1014 41.3548 92.0983 41.326 92.0764 41.3081L91.7848 41.114C91.7698 41.1052 91.7531 41.1006 91.7362 41.1006C91.7193 41.1006 91.7026 41.1052 91.6876 41.114Z" fill="#3A2C6D"/>
<path d="M92.1188 40.8303L91.8053 41.0316C91.7802 41.0316 91.7833 41.0747 91.8053 41.0963L92.0968 41.2867C92.1119 41.2956 92.1285 41.3002 92.1454 41.3002C92.1623 41.3002 92.179 41.2956 92.194 41.2867L92.5075 41.0855C92.5326 41.0855 92.5295 41.0424 92.5075 41.0208L92.216 40.8303C92.2009 40.8215 92.1843 40.8169 92.1674 40.8169C92.1505 40.8169 92.1338 40.8215 92.1188 40.8303Z" fill="#3A2C6D"/>
<path d="M92.5484 40.5425L92.2349 40.7438C92.2099 40.7618 92.213 40.7905 92.2349 40.8085L92.5265 41.0026C92.5415 41.0114 92.5582 41.016 92.5751 41.016C92.592 41.016 92.6086 41.0114 92.6237 41.0026L92.9372 40.8013C92.9622 40.7833 92.9591 40.7546 92.9372 40.7366L92.6456 40.5425C92.6304 40.5344 92.6138 40.5303 92.597 40.5303C92.5802 40.5303 92.5637 40.5344 92.5484 40.5425Z" fill="#3A2C6D"/>
<path d="M92.9776 40.2585L92.6641 40.4597C92.6391 40.4777 92.6422 40.5064 92.6641 40.5244L92.9557 40.7148C92.9707 40.7237 92.9874 40.7283 93.0043 40.7283C93.0212 40.7283 93.0378 40.7237 93.0529 40.7148L93.3664 40.5136C93.3914 40.4956 93.3883 40.4669 93.3664 40.4489L93.0748 40.2549C93.0595 40.2466 93.0427 40.2426 93.0258 40.2432C93.0089 40.2439 92.9924 40.2491 92.9776 40.2585Z" fill="#3A2C6D"/>
<path d="M93.4108 39.9707L93.0972 40.1755C93.0722 40.1755 93.0753 40.2187 93.0972 40.2366L93.3888 40.4307C93.4039 40.4395 93.4205 40.4441 93.4374 40.4441C93.4543 40.4441 93.471 40.4395 93.486 40.4307L93.7995 40.2295C93.8246 40.2295 93.8215 40.1863 93.7995 40.1648L93.508 39.9743C93.4932 39.9649 93.4766 39.9597 93.4597 39.959C93.4429 39.9584 93.4261 39.9624 93.4108 39.9707Z" fill="#3A2C6D"/>
<path d="M93.8439 39.6867L93.5304 39.888C93.5053 39.9059 93.5084 39.9347 93.5304 39.9526L93.8219 40.1467C93.8372 40.1547 93.8537 40.1589 93.8705 40.1589C93.8873 40.1589 93.9039 40.1547 93.9191 40.1467L94.2326 39.9454C94.2577 39.9275 94.2546 39.8987 94.2326 39.8808L93.9411 39.6867C93.9262 39.6773 93.9095 39.6724 93.8925 39.6724C93.8755 39.6724 93.8588 39.6773 93.8439 39.6867Z" fill="#3A2C6D"/>
<path d="M94.2731 39.4031L93.9595 39.6043C93.9345 39.6043 93.9376 39.6475 93.9595 39.669L94.2511 39.8595C94.2662 39.8683 94.2828 39.8729 94.2997 39.8729C94.3166 39.8729 94.3333 39.8683 94.3483 39.8595L94.6618 39.6582C94.6869 39.6582 94.6838 39.6151 94.6618 39.5936L94.3703 39.4031C94.3552 39.3943 94.3386 39.3896 94.3217 39.3896C94.3048 39.3896 94.2881 39.3943 94.2731 39.4031Z" fill="#3A2C6D"/>
<path d="M94.7062 39.1153L94.3927 39.3165C94.3676 39.3344 94.3707 39.3632 94.3927 39.3812L94.6811 39.5752C94.6961 39.584 94.7128 39.5886 94.7297 39.5886C94.7466 39.5886 94.7632 39.584 94.7783 39.5752L95.0918 39.374C95.1137 39.356 95.1106 39.3273 95.0918 39.3093L94.8034 39.1153C94.7881 39.1072 94.7715 39.103 94.7548 39.103C94.738 39.103 94.7214 39.1072 94.7062 39.1153Z" fill="#3A2C6D"/>
<path d="M95.1358 38.8312L94.8223 39.0325C94.7973 39.0504 94.8004 39.0792 94.8223 39.0971L95.1139 39.2876C95.1289 39.2964 95.1456 39.301 95.1625 39.301C95.1794 39.301 95.196 39.2964 95.2111 39.2876L95.5246 39.0864C95.5497 39.0684 95.5465 39.0396 95.5246 39.0217L95.233 38.8276C95.2177 38.8193 95.2009 38.8154 95.184 38.816C95.1672 38.8166 95.1506 38.8218 95.1358 38.8312Z" fill="#3A2C6D"/>
<path d="M95.569 38.5434L95.2554 38.7483C95.2304 38.7483 95.2335 38.7914 95.2554 38.8094L95.5439 39.0035C95.5589 39.0123 95.5756 39.0169 95.5925 39.0169C95.6094 39.0169 95.626 39.0123 95.6411 39.0035L95.9546 38.8022C95.9796 38.8022 95.9765 38.7591 95.9546 38.7375L95.6661 38.547C95.6513 38.5376 95.6348 38.5324 95.6179 38.5318C95.601 38.5312 95.5842 38.5352 95.569 38.5434Z" fill="#3A2C6D"/>
<path d="M95.9982 38.2595L95.6846 38.4608C95.6596 38.4787 95.6627 38.5075 95.6846 38.5255L95.9762 38.7195C95.9914 38.7276 96.008 38.7317 96.0248 38.7317C96.0416 38.7317 96.0582 38.7276 96.0734 38.7195L96.3869 38.5183C96.412 38.5003 96.4088 38.4716 96.3869 38.4536L96.0953 38.2595C96.0803 38.2507 96.0636 38.2461 96.0467 38.2461C96.0299 38.2461 96.0132 38.2507 95.9982 38.2595Z" fill="#3A2C6D"/>
<path d="M90.8258 41.6716L90.1988 42.0884C90.1737 42.1064 90.1769 42.1352 90.1988 42.1531L90.4904 42.3436C90.5054 42.3524 90.5221 42.357 90.5389 42.357C90.5558 42.357 90.5725 42.3524 90.5875 42.3436L91.2145 41.9267C91.2396 41.9088 91.2365 41.88 91.2145 41.862L90.923 41.668C90.9077 41.6597 90.8909 41.6557 90.874 41.6563C90.8571 41.6569 90.8406 41.6622 90.8258 41.6716Z" fill="#3A2C6D"/>
<path d="M90.6246 41.2653L90.3111 41.4666C90.286 41.4666 90.2892 41.5133 90.3111 41.5312L90.5995 41.7217C90.6146 41.7305 90.6312 41.7352 90.6481 41.7352C90.665 41.7352 90.6817 41.7305 90.6967 41.7217L91.0102 41.5205C91.0353 41.5205 91.0322 41.4737 91.0102 41.4558L90.7218 41.2617C90.7065 41.2534 90.6897 41.2494 90.6728 41.2501C90.6559 41.2507 90.6394 41.2559 90.6246 41.2653Z" fill="#3A2C6D"/>
<path d="M91.0543 40.9775L90.7408 41.1824C90.7157 41.1824 90.7189 41.2255 90.7408 41.2434L91.0324 41.4375C91.0474 41.4463 91.064 41.4509 91.0809 41.4509C91.0978 41.4509 91.1145 41.4463 91.1295 41.4375L91.443 41.2363C91.4681 41.2363 91.465 41.1931 91.443 41.1716L91.1515 40.9811C91.1367 40.9717 91.1202 40.9665 91.1033 40.9659C91.0864 40.9653 91.0696 40.9693 91.0543 40.9775Z" fill="#3A2C6D"/>
<path d="M91.4874 40.6936L91.1739 40.8948C91.1488 40.8948 91.152 40.9416 91.1739 40.9595L91.4623 41.1536C91.4776 41.1616 91.4942 41.1658 91.5109 41.1658C91.5277 41.1658 91.5443 41.1616 91.5595 41.1536L91.8731 40.9523C91.8981 40.9523 91.895 40.9056 91.8731 40.8877L91.5846 40.6936C91.5696 40.6848 91.5529 40.6802 91.536 40.6802C91.5191 40.6802 91.5025 40.6848 91.4874 40.6936Z" fill="#3A2C6D"/>
<path d="M91.9225 40.4094L91.609 40.6107C91.5839 40.6107 91.587 40.6538 91.609 40.6754L91.9005 40.8658C91.9153 40.8756 91.9321 40.8808 91.9491 40.8808C91.9662 40.8808 91.9829 40.8756 91.9977 40.8658L92.3112 40.6646C92.3363 40.6646 92.3332 40.6215 92.3112 40.5999L92.0197 40.4094C92.0046 40.4006 91.988 40.396 91.9711 40.396C91.9542 40.396 91.9375 40.4006 91.9225 40.4094Z" fill="#3A2C6D"/>
<path d="M92.3478 40.1221L92.0343 40.3233C92.0092 40.3413 92.0123 40.3701 92.0343 40.388L92.3227 40.5821C92.3377 40.5909 92.3544 40.5955 92.3713 40.5955C92.3882 40.5955 92.4048 40.5909 92.4199 40.5821L92.7334 40.3808C92.7584 40.3808 92.7553 40.3341 92.7334 40.3161L92.445 40.1221C92.4297 40.114 92.4131 40.1099 92.3964 40.1099C92.3796 40.1099 92.363 40.114 92.3478 40.1221Z" fill="#3A2C6D"/>
<path d="M92.7789 39.8381L92.4654 40.0393C92.4403 40.0393 92.4435 40.086 92.4654 40.104L92.757 40.2945C92.772 40.3033 92.7887 40.3079 92.8056 40.3079C92.8224 40.3079 92.8391 40.3033 92.8541 40.2945L93.1676 40.0932C93.1927 40.0932 93.1896 40.0465 93.1676 40.0285L92.8761 39.8345C92.8608 39.8262 92.844 39.8222 92.8271 39.8228C92.8102 39.8234 92.7937 39.8287 92.7789 39.8381Z" fill="#3A2C6D"/>
<path d="M93.2105 39.5503L92.897 39.7551C92.872 39.7551 92.8751 39.7982 92.897 39.8162L93.1855 40.0103C93.2005 40.0191 93.2172 40.0237 93.2341 40.0237C93.251 40.0237 93.2676 40.0191 93.2826 40.0103L93.5961 39.809C93.6212 39.809 93.6181 39.7659 93.5961 39.7443L93.3077 39.5539C93.2929 39.5445 93.2764 39.5393 93.2595 39.5386C93.2426 39.538 93.2258 39.542 93.2105 39.5503Z" fill="#3A2C6D"/>
<path d="M93.6398 39.2664L93.3262 39.4676C93.3012 39.4676 93.3043 39.5143 93.3262 39.5323L93.6178 39.7264C93.6329 39.7352 93.6495 39.7398 93.6664 39.7398C93.6833 39.7398 93.7 39.7352 93.715 39.7264L94.0285 39.5251C94.0536 39.5251 94.0505 39.4784 94.0285 39.4604L93.737 39.2664C93.7219 39.2575 93.7053 39.2529 93.6884 39.2529C93.6715 39.2529 93.6548 39.2575 93.6398 39.2664Z" fill="#3A2C6D"/>
<path d="M94.0729 38.9821L93.7594 39.1834C93.7343 39.1834 93.7374 39.2265 93.7594 39.248L94.0478 39.4385C94.0628 39.4473 94.0795 39.452 94.0964 39.452C94.1133 39.452 94.1299 39.4473 94.145 39.4385L94.4585 39.2337C94.4836 39.2337 94.4805 39.1905 94.4585 39.1726L94.1701 38.9785C94.1548 38.9702 94.138 38.9662 94.1211 38.9669C94.1042 38.9675 94.0877 38.9727 94.0729 38.9821Z" fill="#3A2C6D"/>
<path d="M94.5021 38.6943L94.1886 38.8956C94.1635 38.9136 94.1666 38.9423 94.1886 38.9603L94.4801 39.1544C94.4952 39.1632 94.5118 39.1678 94.5287 39.1678C94.5456 39.1678 94.5623 39.1632 94.5773 39.1544L94.8908 38.9531C94.9159 38.9531 94.9128 38.9064 94.8908 38.8884L94.5993 38.6979C94.5845 38.6885 94.5679 38.6833 94.551 38.6827C94.5341 38.6821 94.5174 38.686 94.5021 38.6943Z" fill="#3A2C6D"/>
<path d="M94.9352 38.4108L94.6217 38.612C94.5966 38.612 94.5997 38.6588 94.6217 38.6767L94.9101 38.8672C94.9251 38.876 94.9418 38.8806 94.9587 38.8806C94.9756 38.8806 94.9922 38.876 95.0073 38.8672L95.3208 38.666C95.3459 38.666 95.3428 38.6192 95.3208 38.6013L95.0324 38.4072C95.0171 38.3989 95.0003 38.3949 94.9834 38.3956C94.9665 38.3962 94.95 38.4014 94.9352 38.4108Z" fill="#3A2C6D"/>
<path d="M95.8969 37.7706L95.0567 38.3276C95.0316 38.3276 95.0348 38.3707 95.0567 38.3923L95.3483 38.5828C95.3633 38.5916 95.38 38.5962 95.3969 38.5962C95.4138 38.5962 95.4304 38.5916 95.4455 38.5828L96.2825 38.0293C96.3076 38.0293 96.3044 37.9826 96.2825 37.9646L95.991 37.7742C95.9766 37.7654 95.9606 37.7605 95.9443 37.7598C95.928 37.7592 95.9118 37.7629 95.8969 37.7706Z" fill="#3A2C6D"/>
<path d="M90.1916 41.5495L89.7746 41.8262C89.7526 41.8262 89.7558 41.8694 89.7746 41.8909L90.0662 42.0814C90.0806 42.0902 90.0968 42.0948 90.1132 42.0948C90.1296 42.0948 90.1457 42.0902 90.1602 42.0814L90.5772 41.8083C90.6023 41.8083 90.5991 41.7615 90.5772 41.7436L90.2856 41.5495C90.2708 41.542 90.2548 41.5381 90.2386 41.5381C90.2224 41.5381 90.2064 41.542 90.1916 41.5495Z" fill="#3A2C6D"/>
<path d="M97.5867 38.8886L91.4639 42.9441C91.4389 42.9441 91.442 42.9872 91.4639 43.0088L91.6113 43.1023C91.6263 43.1111 91.643 43.1157 91.6599 43.1157C91.6768 43.1157 91.6934 43.1111 91.7085 43.1023L97.8281 39.0468C97.8532 39.0288 97.8501 39.0001 97.8281 38.9821L97.6839 38.885C97.6684 38.8775 97.6517 38.874 97.635 38.8746C97.6182 38.8752 97.6017 38.88 97.5867 38.8886Z" fill="#3A2C6D"/>
<path d="M90.4233 39.0685L90.4641 39.0972L91.5206 39.7983L93.4017 38.5507L93.4393 38.5256L92.342 37.7993L90.4233 39.0685Z" fill="#BFBFBF"/>
<path d="M90.4653 39.0977L91.5218 39.7988L93.4029 38.5512L92.3432 37.8501L90.4653 39.0977Z" fill="#E5E5E5"/>
<path d="M87.4048 40.7046V40.8124C87.405 40.8904 87.4231 40.967 87.4572 41.0345C87.4913 41.102 87.5402 41.1581 87.5992 41.1971L91.3268 43.6635C91.3852 43.7045 91.4526 43.7256 91.5211 43.7246C91.5886 43.7256 91.655 43.7043 91.7124 43.6635L98.459 39.1981C98.5184 39.1597 98.5677 39.1037 98.6019 39.0361C98.636 38.9685 98.6538 38.8916 98.6534 38.8134V38.7056L91.5211 43.4298L87.4048 40.7046Z" fill="#E5E5E5"/>
<path d="M91.6313 43.4946C91.6947 43.5234 91.763 43.5351 91.8309 43.5289C91.8989 43.5226 91.9647 43.4986 92.0232 43.4586L98.7417 39.0112C98.7995 38.9735 98.8493 38.9219 98.8878 38.8597C98.9262 38.7976 98.9524 38.7266 98.9643 38.6517L99.6979 33.6182C99.7009 33.5895 99.7009 33.5606 99.6979 33.5319C99.6957 33.3964 99.6473 33.2674 99.5631 33.1724L92.5813 37.796C92.5391 37.8253 92.5028 37.8644 92.4747 37.9109C92.4466 37.9573 92.4274 38.0101 92.4182 38.0656L91.6313 43.4946Z" fill="#F4F4F4"/>
<path d="M91.5205 43.4297L91.5675 43.4585L91.6302 43.4944L92.4234 38.0511C92.4326 37.9956 92.4518 37.9428 92.4799 37.8964C92.508 37.8499 92.5443 37.8108 92.5864 37.7815L99.5682 33.1579C99.5403 33.1256 99.5086 33.0978 99.4741 33.0752L92.4798 37.7168C92.436 37.7436 92.3983 37.7821 92.3699 37.829C92.3416 37.8759 92.3234 37.9298 92.3168 37.9864L91.5205 43.4297Z" fill="#E5E5E5"/>
<path d="M86.4544 21.897C86.4544 21.897 86.5391 23.8133 86.5015 23.9823C86.4638 24.1513 85.7365 24.7013 85.5233 24.9135C85.3101 25.1256 86.677 26.6608 87.3416 27.0096C88.0063 27.3583 90.1099 26.4379 90.1475 25.2514C90.1851 24.065 89.787 23.0727 89.4641 23.0187C89.1412 22.9648 86.4544 21.897 86.4544 21.897Z" fill="#FFCEA9"/>
<path d="M86.2831 24.3204C86.2831 24.3204 87.4933 26.3877 89.1831 26.5854C89.716 25.9814 89.7662 23.8386 89.0263 23.1555C89.0263 23.1555 89.7035 22.5263 90.1675 22.6486C90.6666 22.9945 91.038 23.538 91.2114 24.1766C91.6421 25.5996 91.8439 27.1004 91.8071 28.606C91.7789 30.6338 91.8071 35.7679 91.8071 35.7679C91.7079 36.3739 91.4979 36.9489 91.191 37.4552C90.8841 37.9615 90.4872 38.3875 90.0264 38.7053C88.8091 39.4947 87.3751 39.7223 86.0166 39.3416C85.1608 39.1115 84.841 38.5614 84.5463 37.8496C84.6247 36.4114 85.1137 33.4992 84.91 31.7088C84.7062 29.9183 84.3707 28.5844 84.2829 27.1355C84.1952 25.6866 84.4491 25.719 85.0824 25.2048C85.4636 24.8774 85.8649 24.5818 86.2831 24.3204Z" fill="#F4F4F4"/>
<path d="M88.2057 40.812C87.9046 40.5809 87.5904 40.3731 87.2652 40.19C86.9591 40.079 86.6806 39.8855 86.4532 39.6255C86.1554 39.2911 85.6695 38.0292 85.3215 36.7996C84.9752 35.4127 84.8374 33.9683 84.9139 32.5283C85.0613 30.8026 85.6036 28.3865 85.7416 27.3942C85.8795 26.4019 85.5974 26.0064 85.1961 25.6432C84.7227 25.2118 84.0706 25.4024 83.7226 26.7938C83.2723 28.7175 83.0094 30.6927 82.9388 32.6829C82.9232 34.1617 83.1224 35.6331 83.5282 37.0369C83.887 38.2397 84.3724 39.3879 84.9735 40.456C85.1396 40.7796 85.1929 41.0637 85.4469 41.718C85.6921 42.376 86.0729 42.9559 86.5567 43.4078C86.9799 43.7673 87.1837 43.8069 87.2809 43.7422C87.3781 43.6775 87.3812 43.5013 87.2025 43.3143C86.9013 43.0461 86.6452 42.7172 86.447 42.3436C86.447 42.3436 86.8169 42.7714 87.074 43.0051C87.2906 43.2106 87.5286 43.3845 87.7825 43.5229C88.0333 43.6451 88.375 43.4042 88.2026 43.2137C88.0302 43.0231 87.8452 42.9296 87.4909 42.5773C87.3023 42.3927 87.1339 42.1827 86.9893 41.9517C87.238 42.1692 87.5011 42.3639 87.7762 42.5341C87.9869 42.6801 88.2293 42.7549 88.4754 42.7499C88.607 42.7499 88.7669 42.5341 88.5224 42.3292C88.185 42.1335 87.8692 41.892 87.5819 41.6101C87.3122 41.3009 87.1586 41.0385 87.2339 41.0349C87.3091 41.0313 87.4565 41.2218 87.7762 41.3369C88.096 41.452 88.4346 41.3369 88.4754 41.1463C88.5161 40.9558 88.5036 40.981 88.2057 40.812Z" fill="#FFCEA9"/>
<path d="M90.2294 19.0529C90.0319 17.568 89.0976 16.4427 87.7621 16.5362C87.0831 16.5835 86.4478 16.9364 85.9945 17.5182C85.5413 18.0999 85.3067 18.8634 85.3418 19.6426C85.3632 20.0909 85.4745 20.5275 85.6669 20.9185C85.8594 21.3094 86.128 21.6442 86.4516 21.8968C86.4996 22.1218 86.569 22.34 86.6586 22.5476C87.1319 23.1804 88.5615 23.5722 88.9722 23.5039C89.2168 23.4815 89.4499 23.3753 89.6411 23.1989C89.8323 23.0226 89.9728 22.7844 90.0444 22.5152C90.4771 21.3467 90.3391 19.7864 90.2294 19.0529Z" fill="#FFCEA9"/>
<path d="M86.4511 21.8972L86.5765 20.6029C86.5765 20.6029 85.6517 17.8597 87.8305 18.3882C89.2695 18.7477 89.6332 18.8844 90.069 17.777C90.5047 16.6697 88.9623 15.6737 87.1283 15.9506C86.496 16.0262 85.9116 16.3717 85.4911 16.9185C85.0707 17.4653 84.8448 18.1735 84.8585 18.9023C84.9087 19.7401 85.0968 21.3723 86.4511 21.8972Z" fill="#3A2C6D"/>
<path d="M82.7168 29.3466C82.7168 29.3466 83.9081 30.702 85.3158 30.3137C85.5196 30.1555 86.0023 26.9808 86.0023 26.9808C86.0023 26.9808 86.0023 25.2227 84.8267 25.2695C83.651 25.3162 82.7168 29.3466 82.7168 29.3466Z" fill="#EDEDED"/>
<path d="M91.7071 26.7117C92.0399 26.6961 92.355 26.5353 92.588 26.2623C92.541 25.5432 91.7478 22.8504 90.1489 22.667C90.5849 23.0151 90.9305 23.4922 91.149 24.0476C91.3938 24.9181 91.5803 25.8087 91.7071 26.7117Z" fill="#EDEDED"/>
</svg>
