<svg width="110" height="134" viewBox="0 0 110 134" fill="none" xmlns="http://www.w3.org/2000/svg">
<g opacity="0.4">
<path opacity="0.4" d="M99.8114 100.094C99.8107 100.54 99.6584 100.978 99.3698 101.364C99.0812 101.75 98.6665 102.071 98.1673 102.293L28.0132 133.664C27.5171 133.884 26.9552 134 26.3833 134C25.8114 134 25.2495 133.884 24.7534 133.664C24.2497 133.443 23.8303 133.123 23.5376 132.737C23.245 132.35 23.0895 131.911 23.0869 131.463C23.0844 131.015 23.2348 130.574 23.5231 130.186C23.8113 129.797 24.227 129.475 24.7281 129.251L94.8822 97.9001C95.3808 97.6769 95.9465 97.5591 96.5224 97.5586C97.0983 97.5581 97.6643 97.6748 98.1637 97.897C98.663 98.1193 99.078 98.4393 99.3672 98.8249C99.6564 99.2106 99.8096 99.6483 99.8114 100.094Z" fill="#D6D8E5"/>
</g>
<path d="M105.336 2.8538C105.419 2.83445 105.498 2.81188 105.582 2.79575L105.809 2.75383L106.104 2.71514H106.271C106.392 2.71514 106.509 2.71514 106.623 2.71514H106.706C106.845 2.72183 106.983 2.73692 107.119 2.76028L107.214 2.77963C107.317 2.79901 107.42 2.82377 107.52 2.8538L107.615 2.88282C107.745 2.92411 107.871 2.97258 107.993 3.02793L102.462 0.274094H102.432C102.342 0.229598 102.248 0.190798 102.151 0.158007H102.095L102.004 0.128985C101.954 0.128985 101.909 0.0967389 101.86 0.087065L101.697 0.0548187L101.599 0.0354709C101.581 0.0336481 101.563 0.0336481 101.546 0.0354709C101.435 0.0186942 101.324 0.00685429 101.212 0H101.091C101.004 0 100.917 0 100.83 0H100.735H100.569H100.414L100.277 0.025797L100.05 0.0677172L99.9554 0.0773911L99.8304 0.112862L99.4518 0.228949C99.4064 0.245072 99.3609 0.251521 99.3117 0.270869L99.2322 0.303115C98.9934 0.390304 98.7608 0.489363 98.5356 0.599781L5.53516 46.3154L11.0516 49.0466L104.026 3.33104C104.252 3.22059 104.486 3.12153 104.726 3.03438L104.942 2.96021L105.336 2.8538Z" fill="#E9EAF4"/>
<path d="M5.72095 117.841L5.51649 57.2177C5.51933 56.9396 5.54082 56.6618 5.58086 56.3857C5.58086 56.318 5.58086 56.2535 5.61115 56.1858C5.61115 56.06 5.65658 55.9343 5.68687 55.8085C5.71716 55.6828 5.72473 55.6344 5.74745 55.5473C5.77017 55.4603 5.79288 55.3893 5.8156 55.3087C5.83832 55.2281 5.88375 55.083 5.92162 54.9862L5.98977 54.7928C6.03899 54.6638 6.08821 54.538 6.14121 54.4123C6.16015 54.3607 6.18286 54.3091 6.20558 54.2575C6.2813 54.0833 6.3646 53.9092 6.45168 53.7383C6.46019 53.7184 6.47031 53.699 6.48197 53.6803C6.56148 53.5255 6.64857 53.3578 6.73565 53.2191C6.76215 53.174 6.79244 53.1256 6.81894 53.0773C6.90476 52.9354 6.99563 52.7935 7.09155 52.6516L7.14456 52.571C7.25436 52.4065 7.37173 52.2485 7.49289 52.0873L7.60269 51.9519C7.68977 51.8358 7.78442 51.7229 7.87529 51.6294L8.03053 51.452L8.28042 51.178L8.49623 50.9555C8.56438 50.8845 8.63632 50.8168 8.70826 50.7491C8.7802 50.6814 8.95057 50.5234 9.08688 50.4266L9.26861 50.2686C9.51796 50.0617 9.77955 49.8659 10.0524 49.6817L10.1962 49.5914C10.4707 49.4088 10.7591 49.2418 11.0595 49.0916L5.54299 46.3604C5.24196 46.5113 4.95238 46.6782 4.67596 46.8602L4.53208 46.9505C4.26705 47.131 4.0058 47.3277 3.75212 47.5373L3.68397 47.5857C3.64611 47.6212 3.60825 47.6599 3.5666 47.6953C3.44165 47.8018 3.31671 47.9146 3.18798 48.0178C3.14633 48.0565 3.10468 48.0888 3.06682 48.1274L2.97595 48.2242C2.90023 48.2951 2.83208 48.3725 2.76014 48.4467C2.6882 48.5209 2.6617 48.5434 2.61626 48.595C2.57083 48.6466 2.54433 48.6789 2.50646 48.7208C2.4686 48.7627 2.40424 48.8369 2.35502 48.8981L2.249 49.0207C2.18842 49.0916 2.13542 49.1626 2.07862 49.2367L1.97261 49.3722L1.92718 49.4302C1.82873 49.5592 1.73408 49.6946 1.63942 49.8301V49.8559L1.58642 49.9365C1.52205 50.0332 1.45769 50.1299 1.39711 50.2267L1.3176 50.3621L1.2343 50.504C1.2078 50.5459 1.18129 50.5878 1.15858 50.6298C1.098 50.7394 1.03742 50.8523 0.980625 50.9522L0.94655 51.0103C0.874612 51.1489 0.80646 51.2908 0.742095 51.4327C0.742095 51.4585 0.742095 51.4875 0.711805 51.5133C0.681516 51.5391 0.666371 51.6165 0.643654 51.6681C0.620937 51.7197 0.583075 51.81 0.556571 51.8809C0.530068 51.9519 0.514923 51.9906 0.495992 52.0486C0.477061 52.1066 0.446771 52.1776 0.424054 52.2421C0.401337 52.3066 0.393765 52.3227 0.382406 52.3614C0.371047 52.4001 0.340758 52.5065 0.318041 52.5807L0.249889 52.8225L0.227172 52.9031C0.227172 52.9612 0.204455 53.0192 0.18931 53.0773C0.162807 53.2062 0.136303 53.332 0.113586 53.4578C0.113586 53.49 0.113586 53.5255 0.113586 53.561C0.113586 53.5964 0.113586 53.6254 0.113586 53.6577C0.0573564 53.9308 0.019433 54.2064 0 54.4832L0.200669 115.106C0.200669 116.599 0.825391 117.647 1.82116 118.141L7.33765 120.875C6.34188 120.382 5.72473 119.334 5.72095 117.841Z" fill="#D5D7E2"/>
<path d="M104.026 3.33126C107.097 1.82213 109.588 3.03137 109.6 6.03673L109.8 66.6598C109.8 69.6619 107.336 73.3154 104.265 74.8246L11.291 120.553C8.22422 122.062 5.72912 120.853 5.72154 117.851L5.51709 57.2277C5.51709 54.2224 7.98569 50.5689 11.0525 49.0598L104.026 3.33126Z" fill="#F4F6F9"/>
<path d="M101.303 26.5386V27.0868C101.005 27.6446 100.776 28.227 100.618 28.8248C100.413 29.4558 100.297 30.1053 100.273 30.7595L100.849 30.4758V31.1852L98.6639 32.259V31.5528L99.2356 31.2722C99.2871 30.6839 99.4141 30.1022 99.6143 29.5374C99.8093 28.9034 100.062 28.2835 100.372 27.6833L99.1978 28.2637V28.8861L98.4746 29.2408V27.9251L101.303 26.5386Z" fill="#E26D6D"/>
<path d="M98.4034 37.9829L98.4147 41.7009L99.0054 41.4139V42.1234L96.7904 43.2101V42.5006L97.4152 42.1943L97.4038 39.1857L96.745 39.5114L96.7412 38.802L98.4034 37.9829Z" fill="#E26D6D"/>
<path d="M103.121 38.8795L102.682 39.0956V39.6631L103.06 39.4761V40.121L101.247 41.011V40.3661L101.75 40.1178V39.5503L100.084 40.3693C100.025 40.2128 99.9446 40.0625 99.8457 39.9211L101.78 36.245L102.674 35.8032V38.4861L103.117 38.2701L103.121 38.8795ZM101.746 38.9472V37.4026L100.611 39.5019L101.746 38.9472Z" fill="#E26D6D"/>
<path d="M98.3086 48.0989C98.7403 47.8893 99.0659 47.8377 99.3271 47.9537C99.4611 48.0251 99.5681 48.1278 99.6352 48.2497C99.7024 48.3715 99.7269 48.5072 99.7057 48.6406C99.7057 48.8355 99.67 49.0291 99.5997 49.2146C99.5289 49.4015 99.4337 49.5811 99.3158 49.7499C99.1984 49.9143 99.0015 50.1691 98.71 50.5141C98.3974 50.8647 98.1261 51.2405 97.8997 51.6363C97.8008 51.8127 97.7283 51.999 97.6839 52.1909L99.0015 51.546V50.972L99.7247 50.6141L99.6944 51.92L96.7904 53.3485C96.7819 53.024 96.8149 52.6996 96.8888 52.3811C96.9582 52.1152 97.0623 51.8567 97.1993 51.6105C97.3793 51.2772 97.5842 50.9541 97.8126 50.6431C98.1572 50.1594 98.3806 49.824 98.4904 49.6241C98.5938 49.4454 98.6494 49.2493 98.6532 49.0501C98.6607 48.9997 98.6532 48.9484 98.6314 48.9011C98.6095 48.8537 98.5741 48.8118 98.5282 48.7792C98.4804 48.7551 98.4249 48.744 98.3694 48.7475C98.3139 48.7509 98.261 48.7688 98.2178 48.7986C98.0305 48.8911 97.8882 49.0374 97.8164 49.2113C97.7189 49.4641 97.6716 49.7289 97.6763 49.9949L96.8472 50.3658C96.8317 50.0051 96.8959 49.6453 97.0365 49.3049C97.156 49.033 97.336 48.7834 97.5665 48.5697C97.7844 48.3815 98.0346 48.2228 98.3086 48.0989Z" fill="#E26D6D"/>
<path d="M102.53 46.1025L102.541 49.8206L103.136 49.5271L103.14 50.243L100.925 51.3329L100.921 50.617L101.546 50.3107L101.538 47.3021L100.872 47.6278V46.9184L102.53 46.1025Z" fill="#E26D6D"/>
<path d="M98.1149 58.3495C98.5428 58.1366 98.8722 58.0883 99.1296 58.1979C99.2642 58.2703 99.3715 58.3742 99.4386 58.4971C99.5058 58.6201 99.5299 58.7569 99.5083 58.8912C99.5089 59.0851 99.4731 59.2778 99.4022 59.462C99.33 59.6495 99.2348 59.8299 99.1183 60.0005C99.0047 60.165 98.804 60.4133 98.5163 60.7615C98.2027 61.111 97.93 61.4857 97.7022 61.8805C97.6098 62.063 97.5449 62.2548 97.5092 62.4512L98.8267 61.8063V61.2194L99.5499 60.8615L99.5196 62.1675L96.6232 63.5928C96.6125 63.2749 96.643 62.9569 96.7141 62.6447C96.7869 62.3796 96.8909 62.1214 97.0245 61.874C97.2077 61.5421 97.4125 61.2191 97.6379 60.9066C97.8836 60.5768 98.1098 60.2367 98.3156 59.8876C98.4207 59.7106 98.4764 59.5153 98.4784 59.3169C98.4852 59.2655 98.4774 59.2135 98.4557 59.1652C98.4339 59.117 98.3989 59.0739 98.3535 59.0395C98.3049 59.0167 98.2495 59.0067 98.1942 59.0107C98.1389 59.0147 98.0863 59.0326 98.043 59.0621C97.8643 59.158 97.7304 59.304 97.6644 59.4749C97.5642 59.7272 97.5142 59.9921 97.5167 60.2585L96.6875 60.6293C96.6718 60.2687 96.736 59.9087 96.8769 59.5684C97.0006 59.2993 97.1801 59.0513 97.4069 58.8364C97.6131 58.6449 97.8517 58.4808 98.1149 58.3495Z" fill="#E26D6D"/>
<path d="M102.606 58.3173C103.132 58.256 103.397 58.4914 103.397 59.0235C103.397 59.4282 103.257 59.824 102.996 60.1618C102.697 60.5541 102.289 60.8766 101.807 61.1002C101.284 61.3582 100.887 61.4226 100.626 61.3098C100.488 61.2282 100.38 61.1156 100.313 60.9846C100.246 60.8537 100.223 60.7095 100.247 60.5681C100.258 60.2894 100.334 60.0154 100.471 59.7623C100.608 59.5091 100.804 59.2821 101.046 59.0945C100.599 59.0687 100.376 58.8397 100.376 58.4044C100.382 58.0354 100.513 57.6759 100.754 57.3693C101.025 57.0224 101.388 56.735 101.814 56.5309C102.28 56.3019 102.64 56.2342 102.89 56.3213C103.14 56.4083 103.268 56.6244 103.268 56.9662C103.236 57.468 103.002 57.945 102.606 58.3173ZM102.265 59.9974C102.38 59.8185 102.44 59.6177 102.439 59.4137C102.45 59.3368 102.439 59.2589 102.408 59.1861C102.378 59.1133 102.327 59.0477 102.261 58.9945C102.151 58.9171 102 58.9268 101.814 59.0203C101.626 59.1179 101.474 59.2587 101.375 59.4266C101.261 59.609 101.202 59.8131 101.205 60.0199C101.192 60.0958 101.201 60.1732 101.23 60.2457C101.26 60.3181 101.31 60.3833 101.375 60.4359C101.446 60.4669 101.526 60.4797 101.605 60.4728C101.685 60.466 101.76 60.4397 101.822 60.3972C102.011 60.3024 102.165 60.1637 102.265 59.9974ZM101.421 57.5627C101.319 57.7218 101.268 57.9008 101.273 58.0819C101.265 58.1449 101.274 58.2086 101.299 58.2683C101.324 58.328 101.364 58.3822 101.417 58.4269C101.515 58.4914 101.644 58.4818 101.795 58.4011C101.958 58.3151 102.089 58.1923 102.174 58.0464C102.268 57.892 102.316 57.7205 102.314 57.5466C102.323 57.4821 102.316 57.4167 102.292 57.3549C102.269 57.2931 102.23 57.2364 102.178 57.1887C102.083 57.1274 101.951 57.1339 101.799 57.2145C101.639 57.2997 101.508 57.42 101.421 57.5627Z" fill="#E26D6D"/>
<g opacity="0.8">
<path opacity="0.8" d="M15.8034 68.5781L15.8147 72.3026L16.4054 72.0124L16.4092 72.7219L14.1942 73.8086L14.1905 73.0992L14.8152 72.7928L14.8038 69.7842L14.145 70.1099V69.394L15.8034 68.5781Z" fill="#3A4151"/>
<path opacity="0.8" d="M29.0211 62.0064C29.4489 61.7968 29.7783 61.7452 30.0358 61.8549C30.1687 61.9287 30.2747 62.0328 30.3416 62.1554C30.4086 62.2779 30.4338 62.414 30.4144 62.5482C30.4109 62.7441 30.3687 62.9382 30.2894 63.1222C30.2172 63.3086 30.122 63.488 30.0055 63.6574C29.8919 63.8208 29.6912 64.0756 29.4035 64.4217C29.0865 64.7703 28.8136 65.1464 28.5894 65.5439C28.4962 65.725 28.4312 65.9158 28.3963 66.1114L29.7177 65.4665V64.8893L30.4409 64.5346L30.4068 65.8405L27.5066 67.2658C27.5005 66.9479 27.5322 66.6303 27.6012 66.3178C27.674 66.0518 27.7807 65.7934 27.9193 65.5471C28.0994 65.2151 28.3017 64.8921 28.5251 64.5797C28.7727 64.2492 29.0002 63.908 29.2066 63.5575C29.312 63.3817 29.3678 63.1873 29.3694 62.9899C29.3762 62.9386 29.3684 62.8866 29.3467 62.8383C29.3249 62.79 29.2899 62.7469 29.2445 62.7126C29.1961 62.6898 29.141 62.6794 29.0858 62.6828C29.0307 62.6863 28.9779 62.7034 28.934 62.732C28.7563 62.8303 28.6228 62.9769 28.5554 63.148C28.4545 63.4001 28.4058 63.6652 28.4115 63.9315L27.5823 64.2992C27.566 63.9382 27.6315 63.578 27.7754 63.2382C27.8938 62.9708 28.0683 62.7238 28.2903 62.5095C28.5022 62.3109 28.7487 62.1412 29.0211 62.0064Z" fill="#3A4151"/>
<path opacity="0.8" d="M43.076 55.0927C43.5228 54.8734 43.8673 54.8057 44.1172 54.8928C44.3671 54.9798 44.4958 55.2152 44.4958 55.5635C44.4785 56.0678 44.2361 56.5474 43.8181 56.9049C44.3785 56.8049 44.6586 57.021 44.6624 57.5498C44.6591 57.9745 44.5104 58.3891 44.2346 58.7429C43.9571 59.1107 43.5807 59.4169 43.1366 59.6361C42.1673 60.1133 41.6423 59.8984 41.5615 58.9912L42.4361 58.4914C42.4361 59.0073 42.6482 59.1718 43.0381 58.9815C43.2231 58.8838 43.3726 58.7443 43.4698 58.5784C43.5749 58.4072 43.6307 58.2171 43.6326 58.0238C43.642 57.9518 43.6319 57.8788 43.603 57.8106C43.5741 57.7424 43.5272 57.6808 43.466 57.6304C43.36 57.553 43.1934 57.5692 42.9776 57.6756C42.9246 57.7046 42.8602 57.7401 42.7731 57.782V57.0371C43.0034 56.9317 43.1978 56.7773 43.3373 56.5889C43.446 56.4383 43.5061 56.2658 43.5114 56.0891C43.5188 56.0353 43.5102 55.9809 43.4864 55.9307C43.4625 55.8806 43.4243 55.8363 43.3751 55.8021C43.3193 55.7779 43.2565 55.7678 43.1941 55.7729C43.1317 55.7781 43.0724 55.7982 43.023 55.8311C42.8606 55.9168 42.7297 56.0396 42.6454 56.1855C42.561 56.3315 42.5266 56.4947 42.5459 56.6566L41.6903 57.0274C41.7047 56.6283 41.8475 56.2401 42.103 55.9053C42.3449 55.5711 42.6789 55.2922 43.076 55.0927Z" fill="#3A4151"/>
<path opacity="0.8" d="M59.0414 50.5362L58.6022 50.7523V51.3198L58.9808 51.1328V51.7777L57.1635 52.671V52.026L57.6632 51.781V51.2231L56.0049 52.0389C55.9439 51.8818 55.8613 51.7313 55.7588 51.5907L57.6973 47.9114L58.5871 47.4761V50.1557L59.0263 49.9397L59.0414 50.5362ZM57.667 50.6072V49.0594L56.5501 51.1586L57.686 50.6072" fill="#3A4151"/>
<path opacity="0.8" d="M73.0252 40.4434V41.4849L72.3588 41.8074L72.2983 41.5107L71.1359 42.0815L71.0791 43.1747C71.2732 42.9151 71.5316 42.695 71.8363 42.5297C72.2755 42.3137 72.6201 42.2814 72.8662 42.4427C73.0029 42.5489 73.1084 42.681 73.1741 42.8283C73.2399 42.9756 73.2641 43.134 73.2448 43.2907C73.2471 43.7358 73.1168 44.174 72.8662 44.5645C72.5938 44.9946 72.1826 45.3493 71.6811 45.5867C71.2306 45.806 70.8747 45.8673 70.6248 45.7673C70.4841 45.6974 70.3669 45.5977 70.2847 45.478C70.2024 45.3582 70.1578 45.2224 70.1553 45.0837L71.0147 44.558C71.0715 44.9579 71.2722 45.074 71.613 44.9063C71.8104 44.8086 71.9688 44.6626 72.0673 44.4871C72.173 44.2934 72.2248 44.0815 72.2188 43.868C72.2188 43.3423 72.0219 43.1779 71.6281 43.3714C71.3732 43.5191 71.1828 43.7345 71.0867 43.984H70.3559L70.4847 41.672L73.0252 40.4434Z" fill="#3A4151"/>
<path opacity="0.8" d="M87.0188 35.5127C87.2573 35.6288 87.3785 35.9126 87.3974 36.3576C87.4093 36.8199 87.2787 37.2769 87.0188 37.6829C86.7846 38.0486 86.4377 38.353 86.0154 38.5632C85.4626 38.8341 85.0499 38.8567 84.7849 38.6245C84.5199 38.3923 84.376 37.899 84.3722 37.1315C84.3406 36.4424 84.4947 35.7562 84.8228 35.1257C85.0896 34.6427 85.521 34.2393 86.0609 33.9681C86.8181 33.6005 87.2384 33.7811 87.333 34.5227L86.5531 34.9742C86.4622 34.6517 86.288 34.5421 86.0268 34.6711C85.7842 34.8119 85.6094 35.0226 85.5346 35.2644C85.4147 35.5923 85.3535 35.9336 85.3528 36.277C85.5443 35.9926 85.8197 35.7558 86.1517 35.5901C86.2745 35.5116 86.42 35.4629 86.5727 35.4493C86.7254 35.4356 86.8796 35.4576 87.0188 35.5127ZM86.3259 37.4959C86.4227 37.2912 86.4678 37.0715 86.4584 36.8509C86.4712 36.7701 86.4632 36.6879 86.4351 36.61C86.407 36.5321 86.3594 36.4603 86.2956 36.3995C86.2369 36.3716 86.1701 36.3586 86.103 36.362C86.0359 36.3655 85.9713 36.3852 85.917 36.4188C85.6894 36.5395 85.4946 36.7 85.3453 36.8896C85.3188 37.2032 85.3825 37.5175 85.5308 37.8054C85.6368 37.9344 85.792 37.9441 85.9851 37.8506C86.1475 37.7642 86.2724 37.6352 86.341 37.483" fill="#3A4151"/>
<path opacity="0.8" d="M16.1028 80.5671C16.6291 80.5026 16.8942 80.738 16.8979 81.2765C16.894 81.6808 16.7548 82.0756 16.4966 82.4148C16.1948 82.8029 15.7868 83.1227 15.3077 83.3468C14.7815 83.6047 14.3915 83.6692 14.1264 83.5564C13.9841 83.4779 13.871 83.3663 13.8006 83.2349C13.7301 83.1035 13.7053 82.9577 13.7289 82.8147C13.7374 82.5362 13.8126 82.2621 13.95 82.0092C14.0874 81.7563 14.284 81.5301 14.5278 81.3443C14.0848 81.312 13.8576 81.0863 13.8576 80.651C13.8596 80.2835 13.9915 79.925 14.2362 79.6223C14.5029 79.272 14.8654 78.9821 15.2926 78.7774C15.7583 78.5485 16.118 78.4808 16.3717 78.5678C16.6253 78.6549 16.7503 78.871 16.7503 79.2128C16.7256 79.7145 16.4967 80.1933 16.1028 80.5671ZM15.7621 82.2439C15.8787 82.0656 15.9388 81.8644 15.9362 81.6603C15.9462 81.584 15.9361 81.5068 15.9067 81.4343C15.8772 81.3618 15.8291 81.2958 15.7659 81.2411C15.6485 81.1637 15.5008 81.1734 15.3153 81.2636C15.1269 81.3625 14.9747 81.5044 14.8761 81.6732C14.7619 81.8558 14.7021 82.0596 14.7019 82.2665C14.6893 82.3425 14.6989 82.4199 14.7299 82.492C14.761 82.564 14.8125 82.6283 14.8799 82.6793C14.9475 82.714 15.0262 82.73 15.105 82.7248C15.1837 82.7195 15.2586 82.6935 15.3191 82.6502C15.5087 82.5529 15.6622 82.4121 15.7621 82.2439ZM14.9215 79.8093C14.821 79.9686 14.7714 80.1477 14.7777 80.3285C14.7687 80.3908 14.7767 80.454 14.801 80.5133C14.8252 80.5726 14.8652 80.6263 14.9178 80.6703C15.0124 80.738 15.1411 80.7283 15.2964 80.6477C15.4593 80.5623 15.5906 80.4393 15.675 80.293C15.7699 80.14 15.8193 79.9695 15.8189 79.7964C15.8276 79.7309 15.8192 79.6646 15.7943 79.6022C15.7694 79.5397 15.7287 79.4828 15.675 79.4353C15.5879 79.3708 15.4554 79.3804 15.2964 79.4675C15.136 79.55 15.0051 79.6682 14.9178 79.8093" fill="#3A4151"/>
<path opacity="0.8" d="M30.1151 72.0123C30.3839 72.2283 30.5278 72.7475 30.5316 73.5569C30.5316 75.0854 29.9775 76.1226 28.8694 76.6687C28.7435 76.7495 28.5969 76.8038 28.4417 76.8274C28.2864 76.8509 28.1268 76.8429 27.9759 76.8041C27.7411 76.717 27.5973 76.4816 27.5745 76.1076L28.3318 75.6561C28.4227 75.9786 28.5968 76.0915 28.8505 75.9786C29.2556 75.7819 29.4866 75.2466 29.5358 74.3663C29.3211 74.6487 29.0336 74.8858 28.6953 75.0596C28.5728 75.1386 28.4259 75.1856 28.2727 75.1948C28.1194 75.2039 27.9662 75.1749 27.832 75.1112C27.5973 74.9822 27.4761 74.7016 27.4761 74.2728C27.4737 73.8318 27.6041 73.3977 27.8547 73.0119C28.0947 72.6152 28.4641 72.286 28.9186 72.0639C29.4487 71.8124 29.8387 71.7962 30.1151 72.0123ZM29.5547 73.7278V73.6794C29.5701 73.4119 29.5132 73.1449 29.3881 72.8991C29.2746 72.7185 29.1117 72.683 28.8808 72.7959C28.724 72.8828 28.6045 73.0107 28.54 73.1603C28.4455 73.3511 28.3965 73.5561 28.3962 73.7633C28.3825 73.9243 28.4332 74.0845 28.54 74.2179C28.6347 74.3147 28.7786 74.3114 28.9679 74.2179C29.1963 74.089 29.392 73.9223 29.5434 73.7278" fill="#3A4151"/>
<path opacity="0.8" d="M41.6139 65.9629L41.6291 69.6841L42.2159 69.3939L42.2197 70.1033L40.0086 71.19V70.4806L40.6333 70.1743L40.6219 67.1592L39.9594 67.4881L39.9556 66.7787L41.6139 65.9629Z" fill="#3A4151"/>
<path opacity="0.8" d="M45.9231 64.3634C46.1843 64.631 46.3017 65.1308 46.3017 65.8596C46.3298 66.506 46.2009 67.1503 45.9231 67.7524C45.6982 68.2351 45.2922 68.641 44.7683 68.9067C44.2635 69.1582 43.8773 69.1518 43.6097 68.8874C43.3409 68.6262 43.2046 68.1296 43.2046 67.3912C43.1824 66.7504 43.3112 66.1123 43.5832 65.5145C43.8054 65.0233 44.2164 64.6107 44.7494 64.3441C45.2681 64.0893 45.6543 64.0958 45.9231 64.3634ZM45.1961 67.4331C45.2504 67.0803 45.2795 66.7249 45.2832 66.369C45.2974 65.9952 45.2554 65.6214 45.1583 65.2566C45.0788 65.0341 44.9425 64.9664 44.7569 65.0567C44.6448 65.1289 44.5514 65.22 44.4823 65.3243C44.4133 65.4286 44.3702 65.5438 44.3556 65.6629C44.2655 66.0644 44.2261 66.473 44.2382 66.8817C44.2201 67.2546 44.2621 67.6278 44.3632 67.991C44.4427 68.2167 44.579 68.2779 44.7418 68.1877C44.8785 68.0994 44.9894 67.9853 45.0656 67.8544C45.1418 67.7235 45.1813 67.5793 45.181 67.4331" fill="#3A4151"/>
<path opacity="0.8" d="M56.1226 58.6948L56.1339 62.4128L56.7284 62.1226L56.7322 62.8353L54.5172 63.9252L54.5135 63.2093L55.1382 62.903L55.1306 59.8944L54.4642 60.2233L54.4604 59.5139L56.1226 58.6948Z" fill="#3A4151"/>
<path opacity="0.8" d="M59.8 56.8857L59.8151 60.6038L60.402 60.3135L60.4057 61.0294L58.1984 62.1161L58.1946 61.4002L58.8193 61.0939L58.808 58.0853L58.1454 58.411L58.1416 57.7016L59.8 56.8857Z" fill="#3A4151"/>
<path opacity="0.8" d="M70.2797 51.8682L70.2911 55.5893L70.8817 55.2991L70.8855 56.0085L68.6706 57.0985L68.6668 56.3891L69.2915 56.0827L69.2801 53.0677L68.6176 53.3966L68.6138 52.684L70.2797 51.8682Z" fill="#3A4151"/>
<path opacity="0.8" d="M73.4078 50.2559C73.8432 50.0398 74.1839 49.9915 74.43 50.1011C74.564 50.1741 74.6707 50.278 74.7378 50.4008C74.8048 50.5236 74.8294 50.6601 74.8087 50.7944C74.8091 50.9888 74.7707 51.1818 74.6951 51.3652C74.6268 51.5529 74.5341 51.7335 74.4187 51.9037C74.3051 52.0681 74.1044 52.3164 73.8167 52.6647C73.5014 53.0143 73.2286 53.3903 73.0027 53.7869C72.9078 53.9689 72.8416 54.1608 72.8058 54.3576L74.1272 53.7127V53.1355L74.8503 52.7808L74.8162 54.0868L71.916 55.5121C71.9072 55.1942 71.9377 54.8765 72.0069 54.564C72.0806 54.3022 72.1846 54.0473 72.3174 53.803C72.5011 53.4713 72.7059 53.1484 72.9307 52.8356C73.2753 52.3519 73.5024 52.0165 73.6122 51.8134C73.7127 51.6362 73.7669 51.4426 73.7713 51.2458C73.7785 51.1947 73.7713 51.1429 73.7502 51.0947C73.7291 51.0464 73.6948 51.0032 73.6501 50.9685C73.6021 50.9448 73.5467 50.934 73.4914 50.9374C73.436 50.9409 73.3831 50.9585 73.3396 50.9879C73.1548 51.0834 73.0144 51.2304 72.9421 51.4039C72.8415 51.6561 72.7916 51.921 72.7944 52.1875L71.9615 52.5583C71.9485 52.1962 72.0153 51.8353 72.1583 51.4941C72.2821 51.226 72.4616 50.9791 72.6884 50.7654C72.8955 50.5646 73.1382 50.3927 73.4078 50.2559Z" fill="#3A4151"/>
<path opacity="0.8" d="M84.4049 44.9224L84.4163 48.6436L85.0069 48.3534L85.0107 49.0628L82.7996 50.1495L82.7958 49.4401L83.4205 49.1338L83.4129 46.1187L82.7466 46.4476V45.7382L84.4049 44.9224Z" fill="#3A4151"/>
<path opacity="0.8" d="M87.4615 43.3422C87.6074 43.2461 87.7761 43.1782 87.9559 43.1431C88.1356 43.108 88.3222 43.1066 88.5027 43.1391C88.7488 43.2262 88.8813 43.4615 88.8813 43.813C88.8672 44.3166 88.6274 44.7965 88.2112 45.1544C88.7715 45.0545 89.0517 45.2705 89.0555 45.7994C89.0526 46.2246 88.9025 46.6396 88.6239 46.9925C88.3453 47.3623 87.9677 47.6706 87.5221 47.8921C86.5528 48.3693 86.0341 48.1501 85.9546 47.2472L86.8292 46.7474C86.8292 47.2601 87.0412 47.4213 87.4274 47.2343C87.613 47.1397 87.7618 47.0006 87.8553 46.8345C87.9662 46.6625 88.0248 46.4696 88.0257 46.2734C88.0342 46.2019 88.0236 46.1296 87.9948 46.0621C87.9659 45.9945 87.9195 45.9334 87.8591 45.8832C87.7455 45.8123 87.5864 45.8252 87.3668 45.9348C87.3176 45.9606 87.2533 45.9896 87.1662 46.038V45.2899C87.3965 45.1845 87.5909 45.03 87.7303 44.8417C87.8403 44.6905 87.8993 44.5165 87.9007 44.3386C87.9087 44.2844 87.9004 44.2293 87.8766 44.1785C87.8528 44.1278 87.8141 44.083 87.7644 44.0484C87.7079 44.0272 87.6458 44.0193 87.5845 44.0256C87.5233 44.0318 87.4651 44.052 87.4161 44.0839C87.2532 44.1695 87.1216 44.2921 87.036 44.438C86.9503 44.5838 86.9142 44.747 86.9314 44.9094L86.0871 45.2609C86.1016 44.8617 86.2443 44.4736 86.4998 44.1387C86.7388 43.8101 87.0691 43.5365 87.4615 43.3422Z" fill="#3A4151"/>
<path opacity="0.8" d="M13.8463 89.6899L13.8577 93.408L14.4521 93.1177L14.4559 93.8304L12.241 94.9203L12.2372 94.2044L12.8657 93.8981L12.8544 90.8895L12.188 91.2152V90.5058L13.8463 89.6899Z" fill="#3A4151"/>
<path opacity="0.8" d="M18.2654 87.5161V88.5609L17.6066 88.8834L17.5385 88.5835L16.3761 89.1575L16.3231 90.241C16.5175 89.9817 16.7759 89.7616 17.0804 89.5961C17.5234 89.3768 17.8641 89.351 18.1102 89.5122C18.2467 89.6186 18.352 89.7507 18.4177 89.898C18.4835 90.0453 18.5078 90.2036 18.4888 90.3603C18.4915 90.8044 18.3612 91.2417 18.1102 91.6309C17.8412 92.0612 17.4307 92.4153 16.9289 92.6499C16.4746 92.8724 16.1187 92.9369 15.8688 92.8337C15.7316 92.7665 15.6164 92.6711 15.5338 92.5561C15.4511 92.4412 15.4035 92.3105 15.3955 92.1759L16.2512 91.6567C16.3118 92.0533 16.5086 92.1662 16.8532 91.9985C17.0481 91.9021 17.205 91.7584 17.3038 91.5857C17.4091 91.3908 17.4609 91.1779 17.4552 90.9634C17.4552 90.4377 17.2583 90.27 16.8646 90.4635C16.6114 90.6128 16.4215 90.8277 16.3231 91.0762H15.6L15.7211 88.7641L18.2654 87.5161Z" fill="#3A4151"/>
<path opacity="0.8" d="M27.5303 83.0405L27.5417 86.7585L28.1361 86.4683L28.1399 87.1777L25.925 88.2644L25.9212 87.555L26.5459 87.2486L26.5345 84.2401L25.872 84.5658L25.8682 83.8564L27.5303 83.0405Z" fill="#3A4151"/>
<path opacity="0.8" d="M31.8539 82.8598C32.0962 82.9759 32.2325 83.2597 32.2325 83.7047C32.2446 84.1661 32.114 84.622 31.8539 85.0268C31.618 85.3945 31.2684 85.7 30.8429 85.9104C30.2939 86.1812 29.885 86.2006 29.6124 85.9749C29.3398 85.7491 29.2111 85.2429 29.2073 84.4754C29.1713 83.7863 29.3243 83.0996 29.6541 82.4696C29.9218 81.989 30.3515 81.5872 30.8884 81.3152C31.6456 80.9433 32.0697 81.1282 32.1605 81.8699L31.4033 82.3213C31.3049 81.9989 31.1307 81.8892 30.8694 82.0182C30.6287 82.16 30.4555 82.3705 30.381 82.6115C30.2579 82.9376 30.1965 83.2783 30.1993 83.6209C30.3919 83.339 30.6672 83.1045 30.9982 82.9404C31.1192 82.8629 31.2625 82.8145 31.413 82.8003C31.5636 82.7861 31.7159 82.8067 31.8539 82.8598ZM31.1648 84.8462C31.2625 84.6418 31.3077 84.4219 31.2973 84.2013C31.2973 83.9723 31.2481 83.8208 31.1345 83.7531C31.0783 83.7216 31.0125 83.7048 30.9452 83.7048C30.8779 83.7048 30.8121 83.7216 30.7559 83.7531C30.5318 83.8739 30.3396 84.0331 30.1917 84.2206C30.1635 84.5347 30.2245 84.85 30.3697 85.1397C30.4795 85.2654 30.6309 85.2816 30.8316 85.1816C30.9896 85.0956 31.1116 84.9692 31.1799 84.8204" fill="#3A4151"/>
<path opacity="0.8" d="M41.7057 76.0498L41.7171 79.7678L42.3115 79.4775L42.3153 80.187L40.1004 81.2736L40.0966 80.5642L40.7213 80.2579L40.7137 77.2494L40.0474 77.575V76.8688L41.7057 76.0498Z" fill="#3A4151"/>
<path opacity="0.8" d="M46.2835 73.7954V74.3404C45.9836 74.8975 45.7539 75.4801 45.5982 76.0785C45.3904 76.7089 45.2746 77.3587 45.2536 78.0133L45.8291 77.7295V78.4389L43.6445 79.5127V78.8033L44.2124 78.5228C44.2649 77.9346 44.3919 77.3529 44.5911 76.7879C44.7838 76.1533 45.0371 75.5332 45.3483 74.9337L44.1859 75.5045V76.1268L43.459 76.4816V75.1723L46.2835 73.7954Z" fill="#3A4151"/>
<path opacity="0.8" d="M55.9264 68.9395L55.9378 72.6639L56.5322 72.3704L56.536 73.0798L54.3211 74.1698L54.3173 73.4603L54.942 73.154L54.9344 70.139L54.2681 70.4647V69.7553L55.9264 68.9395Z" fill="#3A4151"/>
<path opacity="0.8" d="M59.8755 69.1036C60.4017 69.0423 60.663 69.281 60.6668 69.813C60.665 70.2175 60.5256 70.6129 60.2654 70.9513C59.965 71.3421 59.5569 71.6643 59.0766 71.8897C58.5541 72.1444 58.1603 72.2122 57.8953 72.0993C57.758 72.0174 57.65 71.9048 57.5832 71.7739C57.5163 71.6431 57.4933 71.499 57.5167 71.3576C57.5263 71.0783 57.602 70.8036 57.7393 70.5498C57.8766 70.2961 58.0726 70.0685 58.3155 69.8807C57.8726 69.8549 57.6454 69.6292 57.6416 69.1939C57.6462 68.8247 57.7778 68.4648 58.0202 68.1588C58.2911 67.8101 58.6559 67.5215 59.0841 67.3171C59.5461 67.0914 59.902 67.0172 60.1518 67.1108C60.2869 67.1704 60.3963 67.2649 60.4644 67.3808C60.5324 67.4966 60.5555 67.6279 60.5305 67.7557C60.5032 68.2563 60.2715 68.733 59.8755 69.1036ZM59.5309 70.7869C59.6489 70.609 59.709 70.4075 59.7051 70.2032C59.7162 70.1269 59.7066 70.0494 59.6771 69.9767C59.6475 69.9041 59.5988 69.8381 59.5347 69.784C59.4671 69.7468 59.3873 69.729 59.307 69.733C59.2266 69.7371 59.1499 69.7629 59.0879 69.8066C58.8976 69.9045 58.7439 70.0465 58.6449 70.2161C58.5307 70.3988 58.4709 70.6025 58.4708 70.8094C58.4574 70.8854 58.4667 70.9631 58.4978 71.0352C58.5289 71.1073 58.5808 71.1716 58.6487 71.2222C58.7623 71.2899 58.9062 71.277 59.0917 71.1867C59.2803 71.0922 59.4328 70.9534 59.5309 70.7869ZM58.6866 68.349C58.5822 68.5073 58.5299 68.6867 58.5351 68.8682C58.5285 68.9314 58.5383 68.9951 58.5638 69.0547C58.5893 69.1144 58.63 69.1685 58.6828 69.2132C58.7775 69.2777 58.91 69.2681 59.0614 69.1874C59.2245 69.1035 59.3559 68.9815 59.44 68.8359C59.5346 68.6816 59.5839 68.5102 59.5839 68.3361C59.5946 68.271 59.5871 68.2047 59.5621 68.1426C59.5371 68.0804 59.4953 68.0241 59.44 67.9782C59.3492 67.9105 59.2204 67.9201 59.0614 68.004C58.9001 68.0868 58.769 68.2063 58.6828 68.349" fill="#3A4151"/>
<path opacity="0.8" d="M70.2721 62.0225L70.2835 65.7405L70.8817 65.4503V66.1565L68.6668 67.2464V66.537L69.2915 66.2306L69.2801 63.222L68.6138 63.5477V62.8383L70.2721 62.0225Z" fill="#3A4151"/>
<path opacity="0.8" d="M74.4942 60.3971C74.7706 60.6164 74.9069 61.1323 74.9107 61.9417C74.9107 63.4701 74.3579 64.5063 73.2523 65.0502C73.1258 65.1313 72.9788 65.1862 72.823 65.2102C72.6672 65.2343 72.5069 65.227 72.355 65.1889C72.1203 65.1018 71.9764 64.8664 71.9764 64.4923L72.7336 64.0441C72.8283 64.3666 72.9987 64.4762 73.2523 64.3666C73.6575 64.1699 73.8884 63.6346 73.9414 62.7543C73.7275 63.0356 73.4398 63.2707 73.1009 63.4411C72.9796 63.5211 72.8333 63.5686 72.6803 63.5778C72.5274 63.587 72.3746 63.5574 72.2414 63.4927C71.9991 63.367 71.8628 63.0864 71.8628 62.6575C71.8616 62.2167 71.9919 61.7829 72.2414 61.3967C72.4797 60.9929 72.8507 60.6568 73.3091 60.4293C73.8316 60.1972 74.2102 60.181 74.4942 60.3971ZM73.9339 62.1158V62.0707C73.951 61.8012 73.8953 61.5321 73.771 61.2838C73.6612 61.1033 73.4909 61.0678 73.2637 61.1807C73.1043 61.2674 72.9831 61.3967 72.9192 61.5483C72.8312 61.7381 72.7875 61.9407 72.7904 62.1448C72.7756 62.306 72.8264 62.4665 72.9343 62.5995C73.029 62.6962 73.169 62.6962 73.3659 62.5995C73.5909 62.4718 73.784 62.3074 73.9339 62.1158Z" fill="#3A4151"/>
<path opacity="0.8" d="M84.0535 55.2219C84.4889 55.0091 84.8297 54.9575 85.072 55.0671C85.2046 55.1412 85.3103 55.2454 85.3772 55.3679C85.4441 55.4904 85.4695 55.6263 85.4506 55.7604C85.4486 55.9567 85.4103 56.1515 85.337 56.3376C85.2651 56.5227 85.1712 56.7009 85.0568 56.8697C84.9432 57.0342 84.7426 57.2857 84.4548 57.6339C84.1393 57.984 83.8653 58.3599 83.637 58.7561C83.5441 58.9385 83.4792 59.1303 83.4439 59.3269L84.7691 58.6819V58.1047L85.496 57.7468L85.4582 59.0367L82.5617 60.4619C82.5508 60.1451 82.5813 59.8282 82.6526 59.5171C82.7251 59.2504 82.8304 58.991 82.9669 58.7432C83.15 58.4119 83.3535 58.089 83.5764 57.7758C83.8252 57.4476 84.0515 57.1073 84.2542 56.7568C84.3594 56.5797 84.4164 56.3846 84.4208 56.1861C84.428 56.135 84.4208 56.0831 84.3997 56.0349C84.3786 55.9866 84.3443 55.9434 84.2996 55.9088C84.251 55.8867 84.196 55.8768 84.1411 55.8802C84.0861 55.8836 84.0334 55.9002 83.9891 55.9281C83.8012 56.0229 83.6589 56.1714 83.5878 56.3473C83.4912 56.5993 83.4414 56.8626 83.4401 57.1277L82.611 57.4985C82.5966 57.1377 82.6621 56.7778 82.804 56.4376C82.9272 56.1683 83.1068 55.9203 83.3341 55.7056C83.5437 55.5142 83.7863 55.3511 84.0535 55.2219Z" fill="#3A4151"/>
<path opacity="0.8" d="M88.9158 53.4288C89.1771 53.6964 89.2944 54.1962 89.2944 54.925C89.3221 55.5725 89.1932 56.2179 88.9158 56.8211C88.693 57.3 88.2946 57.7049 87.78 57.9755C87.2726 58.2238 86.8826 58.2174 86.6176 57.9562C86.3526 57.695 86.2163 57.1952 86.2125 56.4567C86.19 55.8169 86.3187 55.1798 86.5911 54.5832C86.8168 54.092 87.2285 53.6789 87.761 53.4094C88.2646 53.1579 88.6546 53.1579 88.9158 53.4288ZM88.1889 56.5019C88.2481 56.1472 88.2785 55.7895 88.2797 55.4313C88.2971 55.0593 88.2538 54.6871 88.151 54.3252C88.0715 54.0995 87.9352 54.035 87.7497 54.1253C87.6382 54.1973 87.5451 54.2879 87.4761 54.3916C87.4071 54.4953 87.3636 54.6099 87.3483 54.7283C87.2603 55.1323 87.221 55.5429 87.231 55.9537C87.2169 56.3254 87.2589 56.6971 87.3559 57.0597C87.443 57.2822 87.5717 57.35 87.7535 57.2597C87.8885 57.1696 87.9978 57.0546 88.0733 56.9233C88.1487 56.7921 88.1882 56.648 88.1889 56.5019Z" fill="#3A4151"/>
<path opacity="0.8" d="M13.5738 99.9572C14.0092 99.7444 14.331 99.6896 14.5961 99.8025C14.7297 99.8757 14.8361 99.9797 14.9032 100.102C14.9702 100.225 14.995 100.362 14.9747 100.496C14.9751 100.69 14.9367 100.883 14.8611 101.067C14.7934 101.254 14.7006 101.435 14.5847 101.605C14.4711 101.769 14.2704 102.021 13.9827 102.363C13.6674 102.715 13.3935 103.093 13.1649 103.491C13.0719 103.674 13.007 103.866 12.9718 104.062L14.2932 103.417V102.84L15.0163 102.482L14.9747 103.785L12.0744 105.21C12.0665 104.893 12.0982 104.576 12.1691 104.265C12.2407 103.999 12.3448 103.739 12.4796 103.491C12.631 103.218 12.8355 102.896 13.0929 102.524C13.3386 102.202 13.5648 101.869 13.7707 101.528C13.8744 101.349 13.9301 101.153 13.9335 100.954C13.9401 100.903 13.9326 100.852 13.9115 100.804C13.8905 100.757 13.8565 100.714 13.8123 100.68C13.764 100.657 13.7088 100.646 13.6537 100.65C13.5985 100.653 13.5458 100.67 13.5018 100.699C13.325 100.797 13.1917 100.942 13.1232 101.112C13.0234 101.366 12.9735 101.633 12.9756 101.902L12.1161 102.253C12.1036 101.892 12.169 101.533 12.3092 101.192C12.4328 100.921 12.6138 100.672 12.843 100.457C13.0563 100.261 13.3025 100.092 13.5738 99.9572Z" fill="#3A4151"/>
<path opacity="0.8" d="M17.2536 98.1479C17.6852 97.9383 18.0108 97.8835 18.2758 97.9932C18.4091 98.0675 18.5152 98.1722 18.5821 98.2953C18.6491 98.4184 18.6741 98.5551 18.6544 98.6897C18.6585 98.8867 18.6239 99.0828 18.5522 99.2701C18.4847 99.4601 18.3893 99.6422 18.2683 99.8119C18.1585 99.9731 17.954 100.228 17.67 100.566C17.3547 100.919 17.0808 101.297 16.8522 101.695C16.761 101.878 16.6962 102.07 16.6591 102.266L17.9805 101.621V101.044L18.7112 100.686L18.6772 101.992L15.7769 103.417C15.7679 103.1 15.7984 102.784 15.8678 102.472C15.942 102.206 16.0473 101.947 16.1821 101.698C16.3629 101.365 16.5677 101.042 16.7954 100.731C17.1362 100.25 17.3634 99.9151 17.4732 99.7119C17.5769 99.5333 17.6326 99.3372 17.636 99.1379C17.6438 99.0871 17.636 99.0355 17.6135 98.988C17.5909 98.9406 17.5543 98.8989 17.5072 98.867C17.4592 98.8433 17.4039 98.8325 17.3485 98.8359C17.2931 98.8394 17.2402 98.857 17.1968 98.8864C17.0208 98.9834 16.8876 99.1275 16.8181 99.2959C16.722 99.5513 16.6722 99.8177 16.6705 100.086L15.8413 100.454C15.8288 100.093 15.8942 99.7332 16.0344 99.3927C16.1568 99.1228 16.335 98.8737 16.5607 98.6574C16.7627 98.461 16.9959 98.2895 17.2536 98.1479Z" fill="#3A4151"/>
<path opacity="0.8" d="M27.2612 93.311C27.6928 93.0981 28.0184 93.0498 28.2759 93.1626C28.4099 93.2348 28.5167 93.3382 28.5838 93.4605C28.6509 93.5828 28.6755 93.7189 28.6545 93.8527C28.6544 94.0478 28.6174 94.2416 28.5447 94.4267C28.4741 94.6137 28.3788 94.7932 28.2608 94.962C28.1472 95.1264 27.9465 95.3812 27.6587 95.723C27.3443 96.0742 27.0716 96.4512 26.8447 96.8484C26.7515 97.0284 26.6866 97.2182 26.6516 97.4127L27.973 96.7678V96.1906L28.7037 95.8326L28.6697 97.1386L25.7467 98.5607C25.7375 98.2449 25.768 97.9293 25.8376 97.6191C25.9111 97.3516 26.0164 97.0912 26.1518 96.8419C26.3343 96.5097 26.5391 96.1867 26.7652 95.8746C27.106 95.3973 27.3331 95.0555 27.4429 94.862C27.5456 94.6819 27.6012 94.485 27.6057 94.2848C27.6142 94.2335 27.6068 94.1812 27.5842 94.1332C27.5617 94.0851 27.5247 94.0429 27.477 94.0107C27.429 93.987 27.3737 93.9762 27.3183 93.9796C27.2629 93.9831 27.21 94.0006 27.1665 94.0301C26.9887 94.1268 26.8551 94.2724 26.7879 94.4428C26.6896 94.6978 26.6397 94.9645 26.6403 95.2329L25.8111 95.6005C25.7986 95.2387 25.8641 94.878 26.0042 94.5363C26.1184 94.2729 26.2877 94.0293 26.504 93.8172C26.7234 93.6155 26.979 93.4446 27.2612 93.311Z" fill="#3A4151"/>
<path opacity="0.8" d="M30.851 91.5312C31.2978 91.3152 31.6423 91.2475 31.8884 91.3378C32.1346 91.428 32.2671 91.6602 32.2671 92.0053C32.2552 92.5093 32.0151 92.9899 31.5969 93.3467C32.1573 93.2532 32.4374 93.466 32.4412 93.9916C32.4394 94.419 32.2892 94.8364 32.0096 95.1912C31.7318 95.5599 31.3539 95.8663 30.9078 96.0844C29.9386 96.5585 29.4198 96.3456 29.3403 95.4395L30.2149 94.9365C30.2149 95.4556 30.427 95.6169 30.8132 95.4266C30.9981 95.3298 31.1465 95.1899 31.241 95.0235C31.3483 94.853 31.4042 94.6624 31.4038 94.4689C31.4142 94.3968 31.4053 94.3237 31.3778 94.255C31.3502 94.1863 31.3048 94.1238 31.2448 94.0723C31.1312 94.0013 30.9722 94.0142 30.7526 94.1239C30.7034 94.1464 30.6314 94.1883 30.5519 94.2303V93.4821C30.781 93.3805 30.9733 93.2278 31.1085 93.0404C31.2212 92.8899 31.2827 92.7158 31.2864 92.5373C31.2949 92.4834 31.2872 92.4284 31.264 92.3777C31.2409 92.3269 31.203 92.282 31.1539 92.2471C31.0973 92.2242 31.0342 92.2154 30.9719 92.2216C30.9096 92.2279 30.8506 92.249 30.8018 92.2826C30.6389 92.3666 30.5071 92.488 30.4214 92.6328C30.3357 92.7777 30.2996 92.9401 30.3172 93.1016L29.4653 93.466C29.4796 93.0673 29.6209 92.6794 29.8742 92.3438C30.12 92.0112 30.4547 91.7327 30.851 91.5312Z" fill="#3A4151"/>
<path opacity="0.8" d="M41.3345 86.3072C41.7624 86.0976 42.0918 86.0428 42.3492 86.1556C42.4822 86.2294 42.5882 86.3335 42.6551 86.4561C42.722 86.5787 42.7472 86.7148 42.7279 86.8489C42.7246 87.043 42.6863 87.2355 42.6143 87.4197C42.5447 87.6075 42.4508 87.7881 42.3341 87.9582C42.2205 88.1226 42.0198 88.3741 41.7321 88.716C41.4173 89.067 41.1446 89.444 40.9181 89.8413C40.8238 90.0233 40.7589 90.2153 40.725 90.4121L42.0464 89.7672V89.19L42.7733 88.832L42.7354 90.138L39.8352 91.5633C39.8291 91.2464 39.8608 90.9299 39.9299 90.6185C40.002 90.3513 40.1087 90.0917 40.2479 89.8446C40.4272 89.5122 40.6295 89.1892 40.8537 88.8772C41.1982 88.3967 41.4254 88.0581 41.5352 87.8582C41.6404 87.6789 41.6961 87.4815 41.698 87.281C41.7036 87.2307 41.6952 87.1799 41.6735 87.1329C41.6518 87.0858 41.6174 87.0438 41.5731 87.0101C41.5247 86.9873 41.4696 86.9769 41.4145 86.9804C41.3593 86.9838 41.3065 87.0009 41.2626 87.0295C41.0858 87.1272 40.9525 87.2725 40.884 87.4422C40.7841 87.6957 40.7355 87.9617 40.7401 88.229L39.9109 88.5966C39.8961 88.2369 39.9616 87.8779 40.104 87.539C40.224 87.2681 40.4025 87.0187 40.6303 86.8038C40.8356 86.6101 41.0729 86.4428 41.3345 86.3072Z" fill="#3A4151"/>
<path opacity="0.8" d="M46.5934 87.0163L46.1542 87.2324V87.8031L46.5328 87.6161V88.261L44.7155 89.1543V88.5093L45.2228 88.261V87.6903L43.5607 88.5093C43.4952 88.3532 43.4141 88.2022 43.3184 88.0579L45.2531 84.3883L46.1429 83.9497V86.6294L46.5821 86.4133L46.5934 87.0163ZM45.2228 87.0873V85.5427L44.087 87.6419L45.2228 87.0873Z" fill="#3A4151"/>
<path opacity="0.8" d="M55.6574 79.203C56.0853 78.9902 56.4147 78.9418 56.6721 79.0514C56.8057 79.1247 56.9122 79.2287 56.9792 79.3514C57.0462 79.4741 57.071 79.6105 57.0507 79.7447C57.0501 79.9387 57.013 80.1314 56.9409 80.3155C56.8687 80.5029 56.7735 80.6834 56.657 80.854C56.5472 81.0152 56.3427 81.2667 56.0588 81.6118C55.7449 81.9628 55.471 82.3386 55.2409 82.7339C55.1485 82.9165 55.0836 83.1082 55.0478 83.3047L56.3692 82.6598V82.0826L57.1 81.7246L57.0659 83.0145L54.1657 84.4398C54.155 84.1219 54.1854 83.8039 54.2565 83.4917C54.3308 83.2265 54.436 82.9683 54.5708 82.721C54.7524 82.3885 54.9573 82.0654 55.1842 81.7536C55.5249 81.2764 55.7521 80.9346 55.8619 80.7347C55.9635 80.5565 56.019 80.3619 56.0247 80.1639C56.031 80.1123 56.0226 80.0601 56.0002 80.0118C55.9778 79.9635 55.942 79.9206 55.896 79.8866C55.8474 79.8638 55.792 79.8537 55.7367 79.8577C55.6814 79.8617 55.6288 79.8797 55.5855 79.9092C55.4076 80.0059 55.274 80.1515 55.2069 80.3219C55.1099 80.575 55.0601 80.8393 55.0592 81.1055L54.23 81.4763C54.2172 81.1156 54.2826 80.7559 54.4231 80.4154C54.5446 80.1461 54.723 79.898 54.9494 79.6834C55.1567 79.4948 55.3952 79.3329 55.6574 79.203Z" fill="#3A4151"/>
<path opacity="0.8" d="M60.6247 76.8364V77.878L59.9621 78.2005L59.9015 77.9038L58.7392 78.4745L58.6748 79.5677C58.8777 79.3198 59.1396 79.1111 59.4434 78.955C59.8826 78.739 60.2271 78.7067 60.4732 78.8679C60.6092 78.9746 60.7142 79.1068 60.7799 79.254C60.8456 79.4012 60.8702 79.5593 60.8519 79.716C60.8579 80.1665 60.7275 80.6108 60.4732 81.0059C60.2016 81.4348 59.79 81.7876 59.2882 82.0216C58.8338 82.2474 58.4855 82.3054 58.2356 82.2022C58.0939 82.1341 57.9759 82.0353 57.8934 81.9158C57.811 81.7963 57.7671 81.6604 57.7661 81.5218L58.6218 80.9994C58.6824 81.3961 58.883 81.5122 59.2238 81.3445C59.4179 81.2467 59.5734 81.1019 59.6706 80.9285C59.7802 80.7346 59.8347 80.5213 59.8296 80.3061C59.8296 79.7773 59.6327 79.6161 59.2389 79.8095C58.9817 79.9574 58.7899 80.1742 58.6937 80.4254H57.9668L58.0955 78.1166L60.6247 76.8364Z" fill="#3A4151"/>
<path opacity="0.8" d="M69.9428 72.3154C70.3707 72.1025 70.7001 72.0542 70.9575 72.167C71.0908 72.2398 71.1971 72.3432 71.2642 72.4654C71.3312 72.5875 71.3561 72.7234 71.3361 72.8571C71.339 73.0511 71.3032 73.2441 71.2301 73.4279C71.1579 73.6154 71.0627 73.7959 70.9462 73.9664C70.8326 74.1309 70.6319 74.3856 70.3442 74.7274C70.0269 75.077 69.754 75.4543 69.5301 75.8528C69.4369 76.0329 69.372 76.2226 69.337 76.4172L70.6584 75.7722V75.195L71.3816 74.8371L71.3475 76.1431L68.4473 77.5716C68.44 77.2546 68.4731 76.9378 68.5457 76.6268C68.6147 76.3582 68.7202 76.0974 68.86 75.8496C69.0417 75.5183 69.2439 75.1953 69.4658 74.8822C69.8103 74.405 70.0375 74.0599 70.1473 73.8632C70.252 73.6849 70.3077 73.4886 70.3101 73.2892C70.3169 73.2378 70.3091 73.1858 70.2873 73.1376C70.2656 73.0893 70.2305 73.0462 70.1851 73.0119C70.1366 72.9891 70.0811 72.979 70.0259 72.983C69.9706 72.9871 69.918 73.005 69.8747 73.0345C69.689 73.1292 69.5483 73.2764 69.4771 73.4504C69.3762 73.7037 69.3276 73.9699 69.3332 74.2373L68.5041 74.6049C68.4874 74.2429 68.553 73.8816 68.6972 73.5407C68.8171 73.2788 68.9916 73.0374 69.2121 72.8281C69.4229 72.6259 69.6694 72.4529 69.9428 72.3154Z" fill="#3A4151"/>
<path opacity="0.8" d="M74.8076 71.9445C75.0448 72.0606 75.1711 72.3443 75.1862 72.7958C75.1988 73.2551 75.0681 73.7091 74.8076 74.1114C74.5745 74.4798 74.2258 74.7857 73.8004 74.995C73.2514 75.2659 72.8388 75.2852 72.5699 75.0627C72.3011 74.8402 72.1648 74.3339 72.1648 73.56C72.1288 72.872 72.2818 72.1863 72.6116 71.5575C72.8772 71.0757 73.3074 70.6733 73.8459 70.4031C74.6031 70.029 75.0196 70.2161 75.118 70.9577L74.3608 71.406C74.2699 71.0835 74.0882 70.9771 73.827 71.1028C73.5853 71.2438 73.4118 71.4546 73.3385 71.6962C73.2166 72.0247 73.1553 72.3674 73.1568 72.7119C73.3482 72.4276 73.6236 72.1908 73.9557 72.0251C74.0766 71.9487 74.2192 71.901 74.3689 71.8869C74.5185 71.8727 74.6699 71.8926 74.8076 71.9445ZM74.1185 73.9309C74.2126 73.7312 74.2577 73.5172 74.251 73.3021C74.251 73.0667 74.198 72.9151 74.0882 72.8506C74.0305 72.8206 73.9635 72.8061 73.896 72.809C73.8285 72.8119 73.7635 72.832 73.7096 72.8667C73.4838 72.9857 73.2912 73.1453 73.1454 73.3343C73.1184 73.6494 73.1794 73.9654 73.3234 74.2565C73.4332 74.3791 73.5846 74.3952 73.7815 74.2985C73.9436 74.2126 74.0674 74.0833 74.1336 73.9309" fill="#3A4151"/>
<path opacity="0.8" d="M84.1594 65.3827C84.5873 65.1698 84.9167 65.1215 85.1741 65.2311C85.3077 65.3044 85.4142 65.4084 85.4812 65.5311C85.5482 65.6538 85.573 65.7902 85.5527 65.9244C85.5534 66.1193 85.5176 66.313 85.4467 66.4983C85.3745 66.6848 85.2793 66.8642 85.1628 67.0336C85.0492 67.1981 84.8485 67.4528 84.5608 67.7946C84.2443 68.1447 83.9715 68.5218 83.7467 68.92C83.6534 69.1011 83.5885 69.2919 83.5536 69.4875L84.8712 68.8426V68.2654L85.5944 67.9107L85.5603 69.2166L82.6601 70.6419C82.6531 70.3238 82.6861 70.006 82.7585 69.6939C82.8266 69.4266 82.9308 69.1669 83.069 68.92C83.2514 68.5883 83.4549 68.2654 83.6786 67.9526C83.9262 67.6221 84.1537 67.2809 84.3601 66.9304C84.4643 66.7531 84.52 66.558 84.5229 66.3597C84.5291 66.3088 84.521 66.2575 84.4992 66.2098C84.4775 66.1622 84.4428 66.1196 84.398 66.0856C84.3499 66.0619 84.2946 66.0511 84.2392 66.0545C84.1838 66.058 84.131 66.0755 84.0875 66.105C83.9098 66.2033 83.7763 66.3499 83.7089 66.5209C83.6083 66.772 83.5596 67.036 83.565 67.3013L82.7093 67.6689C82.6938 67.3083 82.758 66.9484 82.8986 66.608C83.0224 66.3399 83.2019 66.093 83.4287 65.8792C83.6401 65.682 83.8867 65.5145 84.1594 65.3827Z" fill="#3A4151"/>
<path opacity="0.8" d="M89.279 62.938V63.4765C88.9819 64.0346 88.7523 64.617 88.5937 65.2147C88.389 65.8457 88.2734 66.4952 88.2491 67.1495L88.8246 66.869V67.5784L86.64 68.6523V67.9428L87.2117 67.6623C87.263 67.0739 87.39 66.4921 87.5903 65.9273C87.7819 65.2924 88.0352 64.6722 88.3476 64.0731L87.189 64.6439V65.263L86.4658 65.621V64.3053L89.279 62.938Z" fill="#3A4151"/>
<path opacity="0.8" d="M13.5736 110.047C14.009 109.834 14.3308 109.786 14.5959 109.898C14.7282 109.971 14.8339 110.074 14.9008 110.196C14.9677 110.317 14.9933 110.452 14.9745 110.585C14.9731 110.782 14.9347 110.977 14.8609 111.163C14.7886 111.349 14.6934 111.528 14.5769 111.698C14.4671 111.859 14.2627 112.117 13.9787 112.459C13.662 112.809 13.388 113.186 13.1609 113.584C13.0676 113.765 13.0027 113.956 12.9678 114.152L14.293 113.507V112.93L15.0161 112.572L14.982 113.862L12.0818 115.287C12.0707 114.971 12.1012 114.655 12.1727 114.345C12.2457 114.08 12.3511 113.821 12.4869 113.575C12.6693 113.242 12.8741 112.919 13.1003 112.607C13.4411 112.13 13.6682 111.791 13.778 111.595C13.8797 111.415 13.9352 111.22 13.9408 111.021C13.9472 110.969 13.9388 110.917 13.9164 110.869C13.894 110.82 13.8582 110.777 13.8121 110.743C13.7654 110.72 13.7117 110.709 13.6578 110.712C13.6039 110.715 13.5521 110.731 13.5092 110.759C13.3146 110.86 13.1693 111.017 13.1003 111.201C13.0035 111.455 12.9537 111.721 12.9526 111.988L12.1159 112.346C12.1027 111.986 12.1682 111.628 12.309 111.288C12.4322 111.018 12.6132 110.77 12.8428 110.556C13.0548 110.356 13.3012 110.184 13.5736 110.047Z" fill="#3A4151"/>
<path opacity="0.8" d="M18.3408 108.235C18.6096 108.454 18.7535 108.967 18.7535 109.779C18.7535 111.306 18.1994 112.342 17.0913 112.888C16.9663 112.969 16.8205 113.024 16.6659 113.048C16.5113 113.072 16.3522 113.065 16.2016 113.026C15.9668 112.943 15.8229 112.704 15.8229 112.33L16.5802 111.878C16.671 112.201 16.849 112.317 17.1027 112.201C17.5078 112.001 17.735 111.469 17.788 110.589C17.575 110.873 17.2855 111.109 16.9437 111.279C16.8217 111.357 16.6761 111.404 16.5238 111.414C16.3716 111.425 16.2191 111.398 16.0842 111.337C15.8494 111.201 15.7283 110.924 15.7056 110.492C15.7082 110.051 15.8382 109.618 16.0842 109.231C16.3312 108.838 16.7058 108.515 17.1633 108.299C17.6744 108.031 18.0644 108.015 18.3408 108.235ZM17.7956 109.953V109.911C17.8104 109.643 17.7521 109.374 17.6252 109.128C17.6079 109.087 17.579 109.051 17.5413 109.022C17.5035 108.993 17.4579 108.972 17.4085 108.961C17.3592 108.951 17.3075 108.951 17.2582 108.961C17.2088 108.972 17.1632 108.992 17.1254 109.021C16.9675 109.11 16.8468 109.238 16.7808 109.389C16.6893 109.579 16.6455 109.783 16.6521 109.989C16.6336 110.15 16.6848 110.312 16.796 110.444C16.8869 110.54 17.0307 110.537 17.22 110.444C17.4476 110.316 17.6432 110.152 17.7956 109.96" fill="#3A4151"/>
<path opacity="0.8" d="M27.2197 103.462C27.6664 103.243 28.011 103.175 28.2571 103.259C28.5032 103.343 28.6357 103.581 28.6357 103.933C28.6227 104.438 28.3813 104.92 27.9618 105.278C28.5221 105.178 28.8023 105.39 28.8023 105.922C28.8039 106.346 28.6562 106.761 28.3783 107.112C28.0998 107.479 27.7236 107.785 27.2803 108.006C26.3072 108.483 25.7658 108.27 25.709 107.361L26.5798 106.864C26.5798 107.376 26.7805 107.537 27.1818 107.348C27.3647 107.252 27.5128 107.114 27.6097 106.951C27.718 106.779 27.774 106.586 27.7725 106.39C27.7831 106.318 27.7735 106.246 27.7445 106.178C27.7155 106.11 27.668 106.049 27.6059 106C27.5036 105.926 27.337 105.942 27.1212 106.048L26.9168 106.155V105.41C27.1484 105.306 27.3431 105.151 27.4809 104.962C27.5923 104.811 27.6525 104.637 27.6551 104.458C27.6631 104.404 27.6548 104.349 27.631 104.298C27.6071 104.248 27.5685 104.203 27.5188 104.168C27.4355 104.117 27.3143 104.133 27.1742 104.2C27.0108 104.285 26.8789 104.408 26.7939 104.554C26.7088 104.7 26.6739 104.864 26.6934 105.026L25.8339 105.397C25.8472 104.999 25.9886 104.612 26.2428 104.278C26.4839 103.941 26.8196 103.661 27.2197 103.462Z" fill="#3A4151"/>
<path opacity="0.8" d="M32.1374 101.65C32.3987 101.918 32.5161 102.417 32.5161 103.146C32.5438 103.792 32.4149 104.437 32.1374 105.039C31.9165 105.518 31.5176 105.922 31.0016 106.19C30.4904 106.442 30.1042 106.435 29.8392 106.19C29.5742 105.945 29.4341 105.432 29.4341 104.694C29.4119 104.053 29.5407 103.415 29.8127 102.817C30.035 102.325 30.4477 101.912 30.9826 101.647C31.4862 101.376 31.8762 101.382 32.1374 101.65ZM31.4256 104.72C31.4818 104.367 31.5109 104.012 31.5127 103.656C31.5288 103.282 31.4868 102.908 31.3878 102.543C31.3083 102.321 31.172 102.253 30.9864 102.343C30.874 102.415 30.7803 102.506 30.7112 102.61C30.6422 102.715 30.5992 102.83 30.5851 102.949C30.4948 103.351 30.4554 103.76 30.4677 104.168C30.4498 104.541 30.4919 104.914 30.5927 105.278C30.6722 105.497 30.8085 105.565 30.9713 105.474C31.1093 105.386 31.222 105.272 31.3007 105.142C31.3794 105.011 31.4222 104.867 31.4256 104.72Z" fill="#3A4151"/>
</g>
<path d="M101.344 7.06194C104.237 5.63987 106.584 6.78139 106.596 9.61262L106.626 19.3736L8.56349 67.5979L8.5332 57.837C8.5332 55.0057 10.8579 51.5618 13.7468 50.1398L101.344 7.06194Z" fill="#2B49FD"/>
<path d="M57.1377 31.8979L57.168 40.3948L55.237 41.3428V36.2608C55.237 35.7127 55.237 35.0935 55.3052 34.4067L55.256 34.4293C55.1575 35 55.0667 35.4192 54.9872 35.6901L52.9729 42.4618L51.3751 43.2486L49.2851 38.5503C49.1669 38.2053 49.0745 37.8542 49.0087 37.4991L48.9557 37.5249C49.0087 38.3375 49.039 39.0598 49.039 39.6918V44.3901L47.2785 45.2543L47.252 36.7574L50.1143 35.3515L51.9052 39.5145C52.0512 39.8592 52.1552 40.2158 52.2157 40.5786L52.2535 40.5592C52.3633 40.0369 52.4731 39.5725 52.5943 39.163L54.3511 33.2684L57.1377 31.8979Z" fill="#F4F6F9"/>
<path d="M73.4525 23.8818L70.6318 30.747V33.7685L68.6781 34.7359V31.7499L65.9028 27.5966L68.1518 26.4905L69.5603 28.9735C69.5868 29.0219 69.655 29.2186 69.7648 29.5668C69.8405 29.2444 69.9011 28.9896 69.973 28.7929L71.3853 24.9008L73.4525 23.8818Z" fill="#F4F6F9"/>
<path d="M63.6567 28.6929L66.7727 35.671L64.6411 36.7125L64.0164 35.126L60.9306 36.6416L60.3286 38.8344L58.2046 39.8759L61.3358 29.8312L63.6567 28.6929ZM61.3358 34.9745L63.5583 33.8813L62.6155 31.4854C62.5371 31.2606 62.4876 31.0292 62.4678 30.7953L62.4186 30.8179C62.3965 31.0929 62.3471 31.3658 62.271 31.6337L61.3358 34.9745Z" fill="#F4F6F9"/>
<path opacity="0.4" d="M92.9205 115.593C101.245 115.593 107.993 112.274 107.993 108.18C107.993 104.086 101.245 100.767 92.9205 100.767C84.596 100.767 77.8477 104.086 77.8477 108.18C77.8477 112.274 84.596 115.593 92.9205 115.593Z" fill="#D6D8E5"/>
<path d="M102.617 70.9692C102.617 70.9692 102.301 75.0265 101.678 75.6078C101.054 76.1891 98.9389 76.5927 98.9389 76.5927L97.3115 78.8723C97.3115 78.8723 98.7979 71.6202 99.1194 71.4473C99.441 71.2743 102.617 70.9692 102.617 70.9692Z" fill="#FFCEA9"/>
<path d="M99.4751 66.4657C99.87 66.3117 100.317 66.286 100.733 66.3936C101.149 66.5011 101.504 66.7343 101.731 67.0494C102.329 67.8925 102.953 70.7919 103.009 71.2867C103.009 71.2867 102.163 72.274 100.908 72.1106L99.4751 66.4657Z" fill="#EDEDED"/>
<path d="M94.6518 106.948C93.7659 107.156 92.8196 107.058 92.0175 106.677C91.3829 106.694 87.9391 105.437 87.4681 106.492C87.0591 107.414 88.5511 108.269 89.3465 108.435C91.0867 108.793 92.3757 109.533 93.0751 109.658C93.5941 109.752 94.2682 109.814 94.6828 109.463C95.182 109.045 95.1369 107.498 94.6518 106.948Z" fill="#38226D"/>
<path d="M93.0753 109.403C92.3758 109.276 91.1009 108.538 89.3466 108.178C88.681 108.041 87.5303 107.419 87.4118 106.677C87.2595 107.527 88.6049 108.281 89.3466 108.435C91.0868 108.793 92.3758 109.533 93.0753 109.658C93.5942 109.751 94.2683 109.814 94.6829 109.463C94.7907 109.362 94.8689 109.242 94.9114 109.11C94.6529 109.277 94.3525 109.39 94.0338 109.441C93.7152 109.492 93.3871 109.479 93.0753 109.403Z" fill="#9C73FF"/>
<path d="M100.016 105.524C99.1303 105.733 98.1834 105.635 97.3817 105.252C96.7471 105.269 93.3005 104.013 92.8323 105.067C92.4234 105.992 93.9154 106.845 94.7108 107.011C96.451 107.369 97.7399 108.109 98.4366 108.234C98.9583 108.327 99.6324 108.39 100.047 108.041C100.546 107.621 100.501 106.074 100.016 105.524Z" fill="#38226D"/>
<path d="M98.4371 107.979C97.7405 107.852 96.4628 107.114 94.7113 106.754C94.0429 106.617 92.8921 105.995 92.7765 105.252C92.6213 106.103 93.9695 106.857 94.7113 107.011C96.4515 107.369 97.7405 108.109 98.4371 108.234C98.9589 108.327 99.633 108.39 100.048 108.041C100.155 107.94 100.234 107.818 100.276 107.686C100.017 107.853 99.7162 107.966 99.3971 108.017C99.078 108.067 98.7494 108.055 98.4371 107.979Z" fill="#9C73FF"/>
<path d="M100.397 97.2724C100.247 96.1835 99.9812 95.1084 99.6016 94.0608C99.6016 94.0608 99.8385 91.2863 99.9569 88.6584C100.092 85.675 101.308 83.0495 100.349 80.6689L89.6792 82.6891C89.6792 82.6891 90.1925 94.6085 90.3364 96.0497C90.418 97.1701 90.58 98.2852 90.8215 99.3887C91.3151 101.697 91.8538 106.867 91.8538 106.867C92.982 107.431 94.6742 106.967 94.6742 106.967C94.6742 106.967 94.6742 100.496 94.6094 98.8338C94.5191 96.8016 94.4458 96.9578 94.4458 96.9578L94.804 91.8965L95.0352 89.379C95.0352 89.379 95.337 91.2263 95.5316 92.8765C95.7009 94.3178 96.0957 95.6174 96.5639 98.2957C96.9588 100.619 97.3678 105.356 97.3678 105.356C98.51 105.92 100.047 105.531 100.047 105.531C100.047 105.531 100.704 99.2878 100.397 97.2724Z" fill="#8C50FF"/>
<path d="M98.8991 66.5154C98.0784 66.549 97.4635 66.7292 97.362 66.5154C97.2736 66.1538 97.2106 65.788 97.173 65.42C97.2689 65.2159 97.3507 64.9973 97.3507 64.9973C98.383 64.4568 98.7102 63.5055 98.8455 62.3958C99.0796 60.5029 97.8781 58.8454 95.6528 58.6485C93.5628 58.4611 92.0257 59.7126 91.6139 61.4301C91.3939 62.2805 90.9539 63.8827 91.549 65.2735C91.879 66.0518 92.3106 66.6715 92.7364 66.7916C93.151 66.7838 93.5646 66.7533 93.9746 66.7004C93.9746 66.7004 94.0846 67.2264 94.1608 67.5651C94.2369 67.9038 94.2059 68.0816 93.419 68.4948C92.6321 68.9079 94.612 69.7607 95.9066 69.6766C97.2012 69.5925 98.6594 68.9271 99.0599 68.2137C99.514 67.4282 99.466 66.4914 98.8991 66.5154Z" fill="#FFCEA9"/>
<path d="M97.7099 66.6194C97.9383 67.0998 97.3601 67.6955 95.8117 68.1111C94.2633 68.5267 94.1194 67.991 94.1194 67.991C94.1194 67.991 91.8631 68.8702 91.1157 69.3098C90.1877 69.8623 89.7759 71.4597 89.6518 74.1597C89.5052 77.2825 89.4939 81.9162 89.6152 82.7161C89.6152 82.7161 91.3498 84.1886 93.5638 84.0325C95.7779 83.8763 99.515 82.2044 100.42 80.9097C100.395 78.1713 100.02 77.7269 100.542 76.1486C101.732 72.5454 102.361 71.0585 101.78 68.6588C101.303 66.6818 100.635 66.4344 99.718 66.4536C99.0457 66.4784 98.3753 66.5338 97.7099 66.6194Z" fill="#F4F4F4"/>
<path d="M91.5718 85.12L92.7 74.2456L90.3224 73.1694L89.3916 73.8324L89.6736 83.5994V83.8661L89.6906 84.2096C89.6906 84.2096 89.6342 85.0335 91.4562 86.016C91.4562 86.016 91.4844 85.759 91.5126 85.5163L91.5549 85.1104L91.5718 85.12Z" fill="#FFCEA9"/>
<path d="M91.8558 68.6367C90.6289 68.6175 89.8448 69.1724 89.5458 70.7866C89.2469 72.4008 89.0776 73.7195 89.0776 73.7195C89.6429 74.2542 90.4271 74.5842 91.2691 74.6419C92.7583 74.7836 93.1898 74.1399 93.1898 74.1399C93.1898 74.1399 93.345 72.4584 93.4267 71.327C93.5085 70.1957 93.376 68.6631 91.8558 68.6367Z" fill="#EDEDED"/>
<path d="M91.6846 61.1879C91.6846 61.1879 89.7638 58.6993 93.9268 58.1924C96.9306 57.8273 98.8598 59.4703 99.0826 61.2527C99.2942 62.9559 98.0644 64.7263 97.1732 65.4277C96.7388 65.5598 95.8053 65.6367 94.5784 65.161C94.5299 64.697 94.5111 64.2311 94.5219 63.7654C94.5219 63.7654 95.9858 61.1422 91.6846 61.1879Z" fill="#3A2C6D"/>
<path opacity="0.4" d="M35.7086 133.828C44.0331 133.828 50.7815 130.509 50.7815 126.415C50.7815 122.321 44.0331 119.001 35.7086 119.001C27.3841 119.001 20.6357 122.321 20.6357 126.415C20.6357 130.509 27.3841 133.828 35.7086 133.828Z" fill="#D6D8E5"/>
<path d="M27.8274 89.2568C27.7136 90.1022 26.5333 93.7404 26.7865 94.9879C27.0396 96.2353 31.0753 98.3209 31.0753 98.3209L31.6441 96.1845L29.4087 94.3193L30.0145 90.7853L27.8274 89.2568Z" fill="#FFCEA9"/>
<path d="M30.9499 85.6723C30.5576 85.5169 30.1118 85.4898 29.6976 85.5961C29.2833 85.7024 28.9293 85.9347 28.7031 86.2488C28.1087 87.0869 27.4915 89.9621 27.4375 90.4513C27.4375 90.4513 28.268 91.4202 29.5193 91.27L30.9499 85.6723Z" fill="#EDEDED"/>
<path d="M35.5635 126.252C36.4414 126.459 37.3799 126.363 38.1744 125.983C38.8057 126 42.2214 124.753 42.685 125.799C43.0917 126.715 41.6128 127.565 40.8222 127.737C39.0958 128.093 37.8189 128.824 37.1249 128.948C36.6073 129.04 35.9389 129.1 35.5266 128.754C35.0374 128.333 35.08 126.799 35.5635 126.252Z" fill="#2B2A30"/>
<path d="M37.1282 128.686C37.8193 128.563 39.0963 127.829 40.8255 127.475C41.4881 127.339 42.6286 126.722 42.7452 125.985C42.8988 126.828 41.5621 127.577 40.8255 127.729C39.0991 128.085 37.8222 128.817 37.1282 128.941C36.6106 129.033 35.9422 129.093 35.5299 128.747C35.4231 128.647 35.3461 128.526 35.3052 128.396C35.5614 128.562 35.8597 128.675 36.1762 128.725C36.4928 128.775 36.8188 128.762 37.1282 128.686Z" fill="#BF4B4B"/>
<path d="M30.0198 124.132C30.8985 124.34 31.8379 124.243 32.6334 123.863C33.262 123.88 36.6777 122.633 37.1441 123.679C37.5508 124.597 36.0719 125.445 35.2812 125.617C33.5549 125.973 32.2779 126.707 31.584 126.828C31.0692 126.92 30.4009 126.981 29.9885 126.637C29.505 126.213 29.5363 124.68 30.0198 124.132Z" fill="#2B2A30"/>
<path d="M31.5843 126.566C32.2782 126.443 33.5552 125.709 35.2815 125.355C35.9442 125.22 37.0847 124.602 37.1984 123.866C37.352 124.709 36.0181 125.457 35.2815 125.61C33.5552 125.966 32.2782 126.7 31.5843 126.821C31.0695 126.913 30.4011 126.973 29.9888 126.629C29.8822 126.529 29.8044 126.409 29.7612 126.278C30.018 126.443 30.3164 126.556 30.6328 126.606C30.9492 126.656 31.275 126.642 31.5843 126.566Z" fill="#BF4B4B"/>
<path d="M29.9526 116.226C30.1008 115.146 30.3655 114.079 30.7432 113.039C30.7432 113.039 30.5071 110.29 30.3905 107.683C30.254 104.723 29.051 102.112 30.0009 99.7578L40.7201 101.788C40.7201 101.788 40.0717 113.586 39.9295 115.013C39.8551 116.125 39.6984 117.232 39.4602 118.327C38.971 120.616 38.1747 126.063 38.1747 126.063C37.0371 126.625 35.5525 126.305 35.5525 126.305C35.5525 126.305 35.635 119.414 35.7089 117.765C35.7971 115.749 35.871 115.904 35.871 115.904L35.5155 110.885L35.2823 108.388C35.2823 108.388 34.9979 110.222 34.7931 111.857C34.6253 113.283 34.2243 114.575 33.7693 117.232C33.3768 119.535 32.7426 124.167 32.7426 124.167C31.6049 124.728 30.0692 124.261 30.0692 124.261C30.0692 124.261 29.6482 118.237 29.9526 116.226Z" fill="#E26D6D"/>
<path d="M31.5188 85.7205C32.335 85.7544 32.9408 85.9337 33.0432 85.7205C33.1329 85.3626 33.1956 85.0001 33.2309 84.6354C33.137 84.4319 33.0574 84.2163 33.0574 84.2163C32.0307 83.6786 31.7065 82.7339 31.5728 81.6366C31.3424 79.757 32.5341 78.1147 34.7382 77.9185C36.8115 77.7344 38.3388 78.9746 38.7455 80.6774C38.9645 81.5204 39.3996 83.0997 38.8109 84.4925C38.481 85.2676 38.0544 85.8804 37.6306 86.0015C37.2203 85.9911 36.811 85.9603 36.4048 85.9095C36.4048 85.9095 36.2939 86.4302 36.22 86.7669C36.146 87.1036 36.1745 87.278 36.9566 87.6898C37.7387 88.1016 35.7735 88.9445 34.4879 88.8597C33.2024 88.775 31.7577 88.1161 31.3595 87.4064C30.9272 86.6264 30.9585 85.6987 31.5188 85.7205Z" fill="#FFCEA9"/>
<path d="M32.6996 85.8248C32.4749 86.3092 33.0494 86.8905 34.5823 87.3023C36.1153 87.7141 36.2518 87.1836 36.2518 87.1836C36.2518 87.1836 38.5014 88.0581 39.2324 88.4916C40.1538 89.0391 40.5605 90.6256 40.6857 93.3022C40.8279 96.4003 40.8421 100.995 40.7198 101.78C40.7198 101.78 39.0134 103.233 36.8007 103.086C34.588 102.938 30.8965 101.274 29.9977 99.9925C30.0233 97.2771 30.3959 96.8435 29.8783 95.2715C28.698 91.689 28.0752 90.2211 28.6497 87.8425C29.1218 85.8805 29.7873 85.6358 30.6974 85.6625C31.3677 85.6861 32.0361 85.7403 32.6996 85.8248Z" fill="#F4F4F4"/>
<path d="M44.1461 95.8625C42.3373 96.2501 41.9135 95.2812 41.6775 94.477C41.1087 92.5392 40.793 90.7783 40.3635 89.6738C39.8601 88.3706 39.3311 88.1647 38.5889 87.9104C37.7157 87.6125 36.9649 88.2398 37.2578 89.8966C37.5991 91.8562 38.0513 93.2344 38.9102 95.5525C39.1349 96.158 39.6411 97.2335 40.3948 97.7543C41.3277 98.3961 42.7298 98.3671 44.8543 97.919C45.7587 97.7252 46.7513 97.265 48.4662 96.5843C48.927 96.4027 49.2825 96.2815 50.1727 95.9303C51.0626 95.5928 51.8432 95.0766 52.4479 94.4261C52.9115 93.8545 52.9712 93.5881 52.8773 93.4573C52.7835 93.3265 52.5474 93.3289 52.3085 93.5687C51.9515 93.9742 51.5111 94.3214 51.0088 94.5933C51.0088 94.5933 51.5776 94.0919 51.8876 93.7649C52.165 93.4764 52.3947 93.157 52.5702 92.8154C52.7351 92.4835 52.3967 92.0306 52.1407 92.2679C51.8848 92.5053 51.7653 92.7524 51.2875 93.2223C51.0425 93.4774 50.7617 93.706 50.4514 93.9029C50.7409 93.569 50.9986 93.2158 51.2221 92.8469C51.4244 92.5592 51.5233 92.2275 51.5065 91.8925C51.5065 91.7181 51.205 91.5122 50.9377 91.8416C50.6704 92.1711 50.5367 92.5998 49.9679 93.1036C49.5555 93.4669 49.2057 93.6777 49.1943 93.5759C49.1829 93.4742 49.4446 93.2756 49.5925 92.8493C49.7404 92.423 49.5925 91.9749 49.3081 91.9264C49.0237 91.878 49.0834 91.8901 48.8644 92.2873C48.6454 92.6846 48.2956 92.9776 48.0425 93.5566C47.9027 93.9659 47.6479 94.34 47.3002 94.6466C46.8537 95.0511 45.8611 95.4943 44.1461 95.8625Z" fill="#FFCEA9"/>
<path d="M37.9215 87.644C39.1274 87.4938 39.9778 87.9564 40.5125 89.5115C41.0471 91.0665 41.4169 92.3454 41.4169 92.3454C40.9396 92.9319 40.2172 93.3409 39.3976 93.4887C37.9528 93.7866 37.4352 93.2005 37.4352 93.2005C37.4352 93.2005 37.0342 91.5679 36.7839 90.4586C36.5336 89.3492 36.4284 87.8329 37.9215 87.644Z" fill="#EDEDED"/>
<path d="M38.674 80.45C38.674 80.45 40.5795 77.9818 36.45 77.4804C33.4723 77.1171 31.5582 78.7448 31.3307 80.5154C31.1174 82.211 32.3403 83.9574 33.222 84.655C33.6514 84.7858 34.5786 84.8609 35.7958 84.3885C35.8447 83.9288 35.8637 83.467 35.8527 83.0055C35.8527 83.0055 34.4108 80.3919 38.674 80.45Z" fill="#2B2A30"/>
</svg>
