<svg width="193" height="200" viewBox="0 0 193 200" fill="none" xmlns="http://www.w3.org/2000/svg">
<path opacity="0.4" d="M153.567 106.13C158.833 106.13 163.103 103.664 163.103 100.623C163.103 97.5821 158.833 95.1167 153.567 95.1167C148.301 95.1167 144.032 97.5821 144.032 100.623C144.032 103.664 148.301 106.13 153.567 106.13Z" fill="#D6D8E5"/>
<path d="M155.078 51.2818C155.449 50.683 158.292 50.2902 159.227 52.6973C159.581 53.6123 159.528 55.9452 159.825 57.4135C160.122 58.8817 160.819 59.7105 161.071 60.9009C161.322 62.0913 160.913 64.0913 158.055 64.4554C155.198 64.8195 152.982 63.8015 152.307 62.8889C151.631 61.9763 151.615 60.0314 152.319 58.9871C153.023 57.9428 153.557 57.0949 153.54 55.7368L155.078 51.2818Z" fill="#3A2C6D"/>
<path d="M151.671 61.3679C151.671 61.3679 150.998 66.12 152.27 69.5117C153.542 72.9033 153.192 68.6398 153.192 68.6398L152.886 67.6314C152.886 67.6314 152.629 63.7368 152.735 62.7787C152.84 61.8206 152.816 61.0063 152.886 60.9296C152.955 60.853 152.632 60.7021 152.497 60.6901C152.363 60.6781 151.671 61.3679 151.671 61.3679Z" fill="#FFCEA9"/>
<path d="M156.954 50.8721C156.954 50.8721 154.812 50.2565 153.514 51.4134C153.086 51.8076 152.774 52.3118 152.613 52.871C152.452 53.4302 152.447 54.023 152.599 54.5847C152.772 55.2601 153.119 56.1823 153.656 56.2326C154.192 56.2829 156.954 50.8721 156.954 50.8721Z" fill="#3A2C6D"/>
<path d="M157.774 56.7092C157.774 56.7092 157.635 59.1044 157.678 59.2697C157.721 59.435 158.615 59.6146 158.864 59.823C159.113 60.0314 157.568 62.4578 156.78 62.8099C155.992 63.162 153.556 62.2518 153.388 61.0398C153.23 59.9236 154.085 59.0565 154.414 58.7547C154.637 58.7324 154.862 58.7268 155.087 58.738L155.159 57.5811C156.224 57.241 157.774 56.7092 157.774 56.7092Z" fill="#FFCEA9"/>
<path d="M158.101 59.5022C158.771 59.6052 159.538 59.9645 159.641 60.3309C159.765 60.7597 160.029 62.7765 159.449 64.3118C158.87 65.8471 158.479 66.8244 158.144 67.4854C158.144 67.4854 155.246 68.731 152.908 67.2795C152.908 67.2795 152.745 65.6339 152.735 64.7525C150.58 62.8699 152.422 60.5489 154.252 58.7453C154.471 58.7262 154.691 58.7262 154.91 58.7453C154.91 58.7453 153.279 60.6615 154.412 61.7705C156.841 61.0279 157.322 59.9381 158.101 59.5022Z" fill="#F4F4F4"/>
<path d="M153.318 53.7538C153.557 52.2209 154.664 51.064 156.245 51.1574C156.645 51.1797 157.037 51.2808 157.399 51.4549C157.76 51.629 158.083 51.8726 158.35 52.1718C158.617 52.4711 158.823 52.8201 158.955 53.1988C159.086 53.5775 159.142 53.9786 159.119 54.3789C159.091 54.8444 158.956 55.2971 158.723 55.7015C158.491 56.1058 158.168 56.4509 157.78 56.7095C157.726 56.9413 157.645 57.1663 157.541 57.3801C156.978 58.0316 155.493 58.446 155.002 58.4508C154.578 58.4508 154.211 58.0604 153.804 57.4017C152.975 56.0316 153.186 54.5107 153.318 53.7538Z" fill="#FFCEA9"/>
<path d="M156.733 51.1835C157.842 51.4015 158.752 51.7129 159.054 52.8027C159.26 53.5524 159.533 54.9799 159.272 55.5835L159.114 56.0171L157.77 56.7093C157.77 56.7093 157.145 56.1871 157.339 54.6566C157.332 54.4495 157.266 54.2486 157.15 54.077C157.067 53.9325 157.005 53.7768 156.965 53.6147C156.806 53.2017 156.495 52.865 156.096 52.6734C155.095 52.1129 153.631 52.5967 153.428 52.8003C153.709 52.1922 154.191 51.6995 154.793 51.4051C155.395 51.1107 156.08 51.0324 156.733 51.1835Z" fill="#3A2C6D"/>
<path d="M159.73 70.647C159.97 69.0949 160.449 68.0865 160.228 67.2338C159.746 65.5057 159.114 63.8228 158.341 62.2038C157.862 61.2458 157.998 60.5655 158.506 60.1847C159.079 59.7559 159.625 59.9452 160.14 61.0134C160.786 62.3595 161.517 63.7416 161.871 65.7464C162.046 66.7188 162.137 67.6625 161.824 69.6601C161.603 71.0565 161.16 71.8398 160.626 73.15C160.48 73.5068 159.505 71.9643 159.73 70.647Z" fill="#FFCEA9"/>
<path d="M158.748 99.6124C158.188 100.07 157.311 99.7537 157.273 99.7968C156.7 100.369 155.85 100.867 155.215 101.366C154.865 101.641 154.322 102.01 154.42 102.537C154.597 103.483 156.111 103.193 156.681 102.903C157.251 102.614 157.718 102.135 158.259 101.799C158.643 101.56 159.023 101.435 159.083 100.949C159.119 100.654 158.846 99.6028 158.748 99.6124Z" fill="#38226D"/>
<path d="M159.076 100.752C159.002 101.231 158.628 101.346 158.245 101.584C157.697 101.926 157.213 102.417 156.643 102.707C156.113 102.973 154.799 103.239 154.427 102.563C154.628 103.476 156.116 103.188 156.681 102.903C157.246 102.618 157.718 102.134 158.26 101.799C158.643 101.56 159.024 101.435 159.084 100.949C159.088 100.883 159.085 100.817 159.076 100.752Z" fill="#9C73FF"/>
<path d="M154.811 98.8267C154.299 99.2459 153.523 99.0112 153.485 99.0495C152.962 99.574 152.186 100.024 151.607 100.487C151.286 100.74 150.785 101.076 150.876 101.562C151.039 102.427 152.423 102.161 152.948 101.895C153.473 101.629 153.906 101.191 154.385 100.884C154.737 100.666 155.085 100.551 155.14 100.106C155.18 99.8303 154.902 98.8171 154.811 98.8267Z" fill="#38226D"/>
<path d="M155.142 99.9187C155.073 100.345 154.73 100.462 154.38 100.68C153.877 100.994 153.422 101.444 152.912 101.708C152.433 101.947 151.235 102.187 150.883 101.579C151.068 102.412 152.431 102.151 152.948 101.888C153.465 101.624 153.906 101.183 154.385 100.877C154.737 100.659 155.085 100.544 155.14 100.098C155.147 100.039 155.148 99.9785 155.142 99.9187Z" fill="#9C73FF"/>
<path d="M151.786 72.7259C152.026 70.7929 152.744 67.981 152.744 67.981C153.421 68.2978 154.153 68.4792 154.9 68.5151C156.148 68.5798 158.145 68.1989 158.145 68.1989C158.493 68.8079 158.873 69.3972 159.285 69.9642C159.844 70.7378 160.926 72.436 160.665 75.3989C160.493 77.3366 159.408 85.5618 159.408 85.5618C159.83 86.9509 160.055 88.3926 160.076 89.8444C160.064 91.042 159.75 93.0732 159.396 94.9534L158.749 99.6217C158.749 99.6217 157.887 100.244 157.273 99.8061L157.35 95.236C157.276 94.1175 157.163 92.4672 157.094 91.4037C156.976 89.6887 156.67 86.963 156.581 86.2827C156.493 85.6025 156.275 84.4145 156.169 83.0804C156.064 81.7462 155.563 74.9774 155.563 74.9774L155.494 76.2468C155.494 76.2468 155.429 78.3043 155.132 80.8456C154.835 83.3869 154.732 84.5127 154.732 84.5127C154.732 84.5127 155.247 85.4564 155.312 86.1534C155.365 86.7019 155.992 91.0444 155.616 93.2528L154.847 98.8696C154.655 99.0016 154.435 99.0863 154.203 99.1167C153.972 99.1471 153.737 99.1223 153.518 99.0444L153.065 93.3845C152.761 91.2289 152.107 86.6636 152.018 86.0696C151.889 85.2887 151.779 84.9031 151.635 82.448C151.491 79.9929 151.539 74.6612 151.786 72.7259Z" fill="#FFCEA9"/>
<path d="M158.143 67.485L159.819 70.8383C159.819 70.8383 162.361 74.5605 159.728 84.1246L160.21 87.0683C160.21 87.0683 155.223 90.2683 151.886 87.0683C151.886 87.0683 150.729 78.23 151.345 74.1533C151.687 71.809 152.206 69.4941 152.899 67.2288C152.899 67.2288 153.716 68.1318 157.929 67.5353" fill="#8C50FF"/>
<path d="M161.132 62.8889C161.132 62.8889 159.975 64.041 158.603 63.8973L157.944 61.6554C157.944 61.6554 157.516 60.4817 158.517 59.9788C159.518 59.4758 160.557 60.5919 161.132 62.8889Z" fill="#EDEDED"/>
<path d="M154.252 58.7452C154.252 58.7452 152.927 58.3428 151.521 61.2746L152.046 61.5931C152.046 61.5931 153.43 59.4997 154.252 58.7452Z" fill="#EDEDED"/>
<path opacity="0.4" d="M65.073 128.525C70.3392 128.525 74.6083 126.06 74.6083 123.018C74.6083 119.977 70.3392 117.512 65.073 117.512C59.8067 117.512 55.5376 119.977 55.5376 123.018C55.5376 126.06 59.8067 128.525 65.073 128.525Z" fill="#D6D8E5"/>
<path d="M60.1806 121.327C60.8632 121.883 61.8692 121.375 61.9195 121.425C62.7213 122.169 63.5625 122.87 64.4393 123.524C64.8632 123.859 65.5267 124.305 65.3974 124.949C65.1818 126.099 63.3423 125.744 62.6477 125.392C61.953 125.04 61.3854 124.458 60.7315 124.051C60.2524 123.758 59.7997 123.608 59.7279 123.016C59.6896 122.659 60.0584 121.313 60.1806 121.327Z" fill="#38226D"/>
<path d="M59.7461 122.776C59.8347 123.344 60.2898 123.495 60.7569 123.789C61.4228 124.204 62.012 124.803 62.7066 125.155C63.3485 125.478 64.9485 125.801 65.3989 124.98C65.1593 126.089 63.3461 125.741 62.6587 125.392C61.9713 125.042 61.3964 124.458 60.7425 124.05C60.2635 123.758 59.8108 123.607 59.7389 123.016C59.7324 122.936 59.7348 122.855 59.7461 122.776Z" fill="#9C73FF"/>
<path d="M66.108 119.126C66.7883 119.682 67.9835 119.073 68.0242 119.126C68.7352 119.845 69.4861 120.523 70.2733 121.157C70.6996 121.493 71.3631 121.938 71.2314 122.582C71.0158 123.732 69.1763 123.378 68.4817 123.025C67.7871 122.673 67.2194 122.091 66.5655 121.684C66.0865 121.392 65.6362 121.241 65.5643 120.649C65.5356 120.293 65.9859 119.112 66.108 119.126Z" fill="#38226D"/>
<path d="M65.6007 120.503C65.6918 121.071 66.1469 121.222 66.6115 121.517C67.2798 121.931 67.869 122.53 68.5612 122.882C69.2031 123.205 70.8055 123.529 71.2558 122.707C71.0163 123.816 69.2007 123.469 68.5133 123.119C67.8259 122.769 67.2534 122.185 66.5972 121.778C66.1301 121.485 65.6678 121.335 65.596 120.743C65.5884 120.663 65.59 120.583 65.6007 120.503Z" fill="#9C73FF"/>
<path d="M60.1445 96.1349C60.1781 97.1672 60.499 101.644 60.6427 104.022C60.7865 106.401 60.82 109.292 60.82 109.292C60.82 109.292 60.4104 111.021 60.1445 113.052C59.8787 115.083 60.1445 121.495 60.1445 121.495C60.4054 121.663 60.7088 121.752 61.0188 121.752C61.3287 121.752 61.6322 121.663 61.893 121.495C61.893 121.495 62.9853 116.365 63.4907 114.053C63.996 111.742 64.0847 110.408 64.3481 108.976C64.6643 107.241 65.3493 99.1552 65.3493 99.1552L65.6224 99.172L66.341 108.305C66.1164 108.978 65.9623 109.672 65.8811 110.377C65.6823 111.864 66.0895 119.349 66.0895 119.349C66.3811 119.511 66.7118 119.59 67.0452 119.576C67.3785 119.563 67.7018 119.458 67.9793 119.273C67.9793 119.273 69.8045 109.359 69.8045 107.85C69.8045 106.853 69.6344 93.6965 69.6344 93.6965L60.1445 96.1349Z" fill="#8C50FF"/>
<path d="M62.6178 76.1924C62.6178 76.1924 62.7352 78.4415 62.6849 78.6403C62.6346 78.8391 61.6501 79.5002 61.3651 79.7373C61.0801 79.9744 62.922 81.79 63.8154 82.1996C64.7088 82.6092 67.5495 81.5289 67.5998 80.1349C67.6501 78.7409 67.1208 77.5696 66.6777 77.5002C66.2346 77.4307 62.6178 76.1924 62.6178 76.1924Z" fill="#FFCEA9"/>
<path d="M68.7813 80.3644C68.913 79.3728 68.2591 78.4291 68.8939 77.6387C71.1142 79.8159 70.8316 85.5788 71.337 89.265C72.9849 90.9896 76.2999 92.6878 77.234 93.0974C77.4041 93.174 77.5502 93.2555 77.5167 93.4399C77.3825 94.1585 77.1742 94.4315 76.7454 95.1166C74.5514 94.1704 72.9705 93.6267 70.2304 91.0231C69.9705 90.7425 69.7379 90.4377 69.5358 90.113C68.7526 87.7848 68.5562 82.077 68.7813 80.3644Z" fill="#FFCEA9"/>
<path d="M62.3652 79.028C62.3652 79.028 63.9988 81.4615 66.2766 81.701C66.9952 80.9825 67.0599 78.4723 66.0659 77.6675C66.0659 77.6675 66.9808 76.9298 67.606 77.0735C68.2773 77.4805 68.7772 78.1184 69.012 78.8675C69.5915 80.5414 69.8634 82.3064 69.8144 84.0771C69.7761 86.4723 69.8144 93.7585 69.8144 93.7585C69.8144 93.7585 69.4958 95.301 67.4359 96.4483C65.376 97.5956 63.8431 97.7082 62.4467 97.3825C61.2922 97.1142 60.3389 96.707 59.9437 95.8711C60.0467 94.1945 60.794 89.8304 60.5137 87.7274C60.2335 85.6244 59.7952 84.0507 59.6754 82.3501C59.5556 80.6495 59.9006 80.6735 60.7533 80.0771C61.265 79.6895 61.8037 79.339 62.3652 79.028Z" fill="#F4F4F4"/>
<path d="M67.7125 72.8387C67.4442 71.0926 66.1867 69.7681 64.3855 69.8687C63.4654 69.92 62.6033 70.3346 61.9889 71.0213C61.3744 71.7081 61.0579 72.6108 61.1088 73.5309C61.1383 74.061 61.2901 74.5771 61.5523 75.0388C61.8145 75.5005 62.18 75.8952 62.6202 76.192C62.6833 76.4568 62.7773 76.7133 62.9005 76.9561C63.5352 77.701 65.4633 78.1537 66.0142 78.0818C66.7328 77.9812 67.1113 77.6842 67.4514 76.9082C68.0478 75.5309 67.861 73.6986 67.7125 72.8387Z" fill="#FFCEA9"/>
<path d="M62.6185 76.1922L62.7838 74.6688C62.7838 74.6688 61.5287 71.4401 64.482 72.0604C66.4221 72.4676 66.9107 72.6449 67.5023 71.3419C68.094 70.0389 66.0077 68.8676 63.5335 69.1862C62.6812 69.276 61.8937 69.6825 61.3269 70.3252C60.76 70.968 60.4551 71.8 60.4724 72.6569C60.5371 73.6221 60.7933 75.5623 62.6185 76.1922Z" fill="#3A2C6D"/>
<path d="M59.1741 81.3345C60.0267 81.095 59.3776 81.2938 60.0267 81.095C62.2471 83.2746 61.9717 87.0063 62.4747 90.695C63.701 92.7213 68.2519 95.4686 68.2519 95.4686C68.3094 95.8614 68.1705 95.9764 67.6795 96.7692C65.4878 95.8231 63.6507 95.0063 60.9106 92.4051C60.8028 92.3021 60.6447 92.2758 60.5992 92.1345C59.816 89.78 58.9465 83.0495 59.1741 81.3345Z" fill="#FFCEA9"/>
<path d="M79.4217 85.8787L76.114 97.1888L68.8564 100.089L71.5032 89.0715L79.4217 85.8787Z" fill="#F4F4F4"/>
<path d="M67.1092 95.5457C67.217 95.16 67.4972 95.2558 67.811 95.3517C68.1513 95.4894 68.5251 95.522 68.8841 95.4451C69.1835 95.3517 69.399 95.0954 69.6529 94.9253C69.7981 94.8388 69.9631 94.791 70.132 94.7864C70.1176 94.8846 69.9667 95.4594 69.9667 95.4594C69.9667 95.4594 71.5571 95.4762 71.72 95.4427C71.7739 95.4353 71.8288 95.4446 71.8774 95.4692C71.9259 95.4938 71.9658 95.5326 71.9918 95.5804C72.0178 95.6282 72.0286 95.6828 72.0229 95.7369C72.0171 95.791 71.995 95.8421 71.9595 95.8834L72.0673 95.8666C72.3931 95.7948 72.532 96.293 72.2038 96.3672C72.1176 96.3864 72.029 96.396 71.938 96.4079C72.1512 96.4894 72.2038 96.8415 71.938 96.887L71.8565 96.9014C71.8191 96.9156 71.7791 96.9213 71.7392 96.9181H71.6889C71.6964 96.9561 71.6961 96.9953 71.688 97.0332C71.68 97.0711 71.6642 97.1069 71.6418 97.1385C71.6194 97.1702 71.5908 97.1969 71.5577 97.217C71.5246 97.2372 71.4877 97.2504 71.4494 97.2559C70.6733 97.3588 69.5332 97.6678 68.829 97.0283C68.3417 96.9802 67.8657 96.8515 67.4206 96.6475C66.9918 96.4439 66.9799 96.0079 67.1092 95.5457Z" fill="#FFCEA9"/>
<path d="M75.045 94.6208H75.1528C75.1098 94.5871 75.0781 94.5411 75.062 94.489C75.0458 94.4369 75.046 94.381 75.0624 94.329C75.0787 94.2769 75.1106 94.2311 75.1538 94.1977C75.1969 94.1642 75.2492 94.1447 75.3037 94.1417C75.4713 94.1417 77.1073 93.7992 77.1073 93.7992L77.3037 93.1262C77.3037 93.0878 77.5887 93.2603 77.5983 93.2675C77.7368 93.3582 77.8531 93.4789 77.9385 93.6207C78.0239 93.7626 78.0763 93.9218 78.0917 94.0866C78.0996 94.3183 78.0614 94.5492 77.9791 94.7659C77.8969 94.9827 77.7723 95.1808 77.6127 95.3489C77.3186 95.6457 76.9213 95.8173 76.5037 95.8279C76.3049 95.8399 76.1133 95.8495 75.9432 95.8639C75.9056 95.8639 75.8683 95.8564 75.8336 95.842C75.7988 95.8275 75.7673 95.8063 75.7408 95.7795C75.7143 95.7528 75.6934 95.7211 75.6792 95.6863C75.665 95.6514 75.6579 95.6141 75.6582 95.5764H75.6079C75.5693 95.5855 75.5291 95.5855 75.4905 95.5764H75.4067C75.1288 95.5764 75.1073 95.2315 75.2965 95.0974C75.2079 95.0974 75.1169 95.1142 75.0282 95.1142C74.6809 95.1357 74.7001 94.6184 75.045 94.6208Z" fill="#FFCEA9"/>
<path d="M69.708 81.8402C69.708 81.8402 70.5464 81.7971 70.8937 81.3084C70.829 80.4725 69.7583 77.2989 67.6074 77.0618C68.1937 77.4725 68.6587 78.0334 68.9535 78.6857C69.344 79.6414 69.708 81.8402 69.708 81.8402Z" fill="#EDEDED"/>
<path d="M58.7851 86.0339C58.7851 86.0339 60.9264 86.7717 62.4354 85.5309C62.6006 85.2459 61.5611 81.6028 61.5611 81.6028C61.5611 81.6028 60.6629 79.7393 59.2569 80.4794C57.851 81.2196 58.7851 86.0339 58.7851 86.0339Z" fill="#EDEDED"/>
<path opacity="0.4" d="M80.6134 144.745C81.296 144.745 81.8493 144.426 81.8493 144.032C81.8493 143.637 81.296 143.318 80.6134 143.318C79.9308 143.318 79.3774 143.637 79.3774 144.032C79.3774 144.426 79.9308 144.745 80.6134 144.745Z" fill="#D6D8E5"/>
<path opacity="0.4" d="M103.763 157.946C104.446 157.946 104.999 157.626 104.999 157.232C104.999 156.838 104.446 156.518 103.763 156.518C103.081 156.518 102.527 156.838 102.527 157.232C102.527 157.626 103.081 157.946 103.763 157.946Z" fill="#D6D8E5"/>
<path opacity="0.4" d="M143.885 133.476C144.567 133.476 145.121 133.157 145.121 132.762C145.121 132.368 144.567 132.049 143.885 132.049C143.202 132.049 142.649 132.368 142.649 132.762C142.649 133.157 143.202 133.476 143.885 133.476Z" fill="#D6D8E5"/>
<path d="M79.811 119.859V143.888C79.8165 143.962 79.8416 144.033 79.8836 144.095C79.9257 144.156 79.9833 144.205 80.0506 144.237C80.2387 144.333 80.4467 144.383 80.6577 144.383C80.8688 144.383 81.0768 144.333 81.2649 144.237C81.332 144.205 81.3895 144.156 81.4315 144.095C81.4736 144.033 81.4987 143.962 81.5045 143.888V119.859H79.811Z" fill="#C1C4D3"/>
<path d="M103.011 129.21V157.097C103.015 157.17 103.037 157.24 103.075 157.301C103.114 157.363 103.166 157.414 103.229 157.449C103.39 157.545 103.574 157.595 103.761 157.595C103.948 157.595 104.132 157.545 104.293 157.449C104.356 157.414 104.409 157.363 104.447 157.301C104.486 157.24 104.509 157.17 104.513 157.097V129.21H103.011Z" fill="#C1C4D3"/>
<path d="M143.132 109.84V132.58C143.136 132.652 143.159 132.722 143.197 132.783C143.236 132.844 143.289 132.895 143.352 132.93C143.513 133.025 143.696 133.075 143.883 133.075C144.069 133.075 144.253 133.025 144.413 132.93C144.476 132.895 144.53 132.844 144.568 132.783C144.607 132.722 144.629 132.652 144.634 132.58V109.84H143.132Z" fill="#C1C4D3"/>
<path d="M103.766 136.367L78.314 121.672V119.955L103.766 134.652V136.367Z" fill="#62C8E8"/>
<path d="M146.677 109.927L103.76 134.705L78.3057 120.01L121.223 95.2319L146.677 109.927Z" fill="#6CD4FF"/>
<path d="M146.678 111.589L103.761 136.367V134.652L146.678 109.874V111.589Z" fill="#5CBFD6"/>
<path d="M134.431 104.983L127.588 110.715L121.336 108.226L128.18 102.494L134.431 104.983Z" fill="#F4F4F4"/>
<path d="M132.844 105.248L124.32 110.17L118.952 107.071L127.477 102.149L132.844 105.248Z" fill="#F4F4F4"/>
<path d="M124.888 108.842L124.366 109.144L120.826 107.1L121.348 106.799L124.888 108.842Z" fill="#D6D8E5"/>
<path d="M126.063 108.163L125.541 108.465L122.003 106.422L122.525 106.12L126.063 108.163Z" fill="#D6D8E5"/>
<path d="M127.193 107.512L126.671 107.811L123.133 105.771L123.655 105.469L127.193 107.512Z" fill="#D6D8E5"/>
<path d="M129.847 105.979L129.325 106.281L127.265 105.093L127.787 104.791L129.847 105.979Z" fill="#D6D8E5"/>
<path d="M130.98 105.328L130.458 105.627L128.398 104.439L128.921 104.137L130.98 105.328Z" fill="#D6D8E5"/>
<path d="M125.284 109.797C125.425 109.737 132.843 105.246 132.843 105.246L125.095 109.725L125.284 109.797Z" fill="#D6D6D6"/>
<path opacity="0.2" d="M126.493 116.731C127.52 116.731 128.352 116.251 128.352 115.658C128.352 115.065 127.52 114.585 126.493 114.585C125.467 114.585 124.635 115.065 124.635 115.658C124.635 116.251 125.467 116.731 126.493 116.731Z" fill="black"/>
<path d="M128.537 115.505V112.642L124.827 112.736V115.37C124.758 115.687 124.933 116.02 125.357 116.264C125.765 116.472 126.216 116.58 126.674 116.58C127.132 116.58 127.583 116.472 127.991 116.264C128.142 116.198 128.272 116.092 128.368 115.959C128.464 115.825 128.522 115.668 128.537 115.505Z" fill="#A6CE28"/>
<path d="M126.681 113.715C127.707 113.715 128.539 113.235 128.539 112.642C128.539 112.05 127.707 111.569 126.681 111.569C125.654 111.569 124.822 112.05 124.822 112.642C124.822 113.235 125.654 113.715 126.681 113.715Z" fill="#BCD64D"/>
<path d="M128.245 112.643C128.245 112.818 128.102 113.002 127.848 113.146C127.525 113.318 127.166 113.411 126.801 113.419H126.679C126.273 113.427 125.872 113.332 125.512 113.143C125.261 113 125.115 112.815 125.115 112.64C125.115 112.465 125.261 112.283 125.512 112.137C125.872 111.948 126.273 111.853 126.679 111.862H126.799C127.164 111.869 127.523 111.963 127.845 112.135C128.102 112.286 128.245 112.468 128.245 112.643Z" fill="#28221C"/>
<path opacity="0.07" d="M128.24 112.643C128.24 112.817 128.096 113.002 127.842 113.146C127.522 113.324 127.161 113.417 126.794 113.417C126.427 113.417 126.067 113.324 125.746 113.146C125.495 113.002 125.349 112.817 125.349 112.643C125.349 112.468 125.495 112.286 125.746 112.14C126.067 111.961 126.427 111.868 126.794 111.868C127.161 111.868 127.522 111.961 127.842 112.14C128.096 112.286 128.24 112.468 128.24 112.643Z" fill="white"/>
<path d="M128.265 113.967L127.87 113.74L127.678 113.852L127.87 113.962V114.034L128.239 114.247V114.317C128.327 114.444 128.407 114.577 128.478 114.714L128.493 114.702V115.625C128.493 115.864 128.351 115.785 128.289 115.749L127.875 115.51L127.683 115.622L127.875 115.732V115.804L128.289 116.044C128.332 116.069 128.378 116.089 128.426 116.104L128.399 116.221L128.615 116.099C128.661 116.06 128.696 116.01 128.718 115.954C128.739 115.898 128.747 115.837 128.739 115.778V114.82C128.73 114.651 128.683 114.486 128.601 114.339C128.518 114.191 128.404 114.064 128.265 113.967Z" fill="#8DA01F"/>
<path d="M128.093 116.156L127.678 115.917V115.622L128.093 115.861C128.153 115.895 128.296 115.976 128.296 115.735V114.776C128.289 114.695 128.264 114.616 128.223 114.546C128.181 114.475 128.124 114.415 128.057 114.369L127.681 114.151V113.857L128.076 114.084C128.214 114.179 128.329 114.304 128.411 114.45C128.494 114.595 128.543 114.758 128.555 114.925V115.883C128.55 116.142 128.43 116.35 128.093 116.156Z" fill="#99B524"/>
<path opacity="0.2" d="M89.827 120.592C90.8535 120.592 91.6857 120.112 91.6857 119.519C91.6857 118.926 90.8535 118.446 89.827 118.446C88.8004 118.446 87.9683 118.926 87.9683 119.519C87.9683 120.112 88.8004 120.592 89.827 120.592Z" fill="black"/>
<path d="M91.8674 119.366V116.503L88.1573 116.597V119.232C88.0878 119.55 88.265 119.883 88.6866 120.125C89.0946 120.333 89.546 120.441 90.004 120.441C90.4619 120.441 90.9133 120.333 91.3213 120.125C91.4719 120.059 91.602 119.954 91.6981 119.82C91.7941 119.686 91.8526 119.53 91.8674 119.366Z" fill="#F7B03E"/>
<path d="M90.0115 117.577C91.0381 117.577 91.8702 117.096 91.8702 116.503C91.8702 115.911 91.0381 115.43 90.0115 115.43C88.985 115.43 88.1528 115.911 88.1528 116.503C88.1528 117.096 88.985 117.577 90.0115 117.577Z" fill="#FCC068"/>
<path d="M91.573 116.504C91.573 116.679 91.4269 116.861 91.1754 117.007C90.8524 117.178 90.494 117.271 90.1287 117.28H90.0089C89.603 117.288 89.2016 117.193 88.8424 117.004C88.5885 116.858 88.4448 116.676 88.4448 116.501C88.4448 116.326 88.5885 116.142 88.8424 115.996C89.2019 115.807 89.6032 115.714 90.0089 115.723H90.1287C90.494 115.73 90.8526 115.822 91.1754 115.993C91.4269 116.144 91.573 116.329 91.573 116.504Z" fill="#28221C"/>
<path opacity="0.07" d="M91.5751 116.504C91.5751 116.678 91.429 116.86 91.1775 117.007C90.857 117.185 90.4963 117.278 90.1296 117.278C89.7628 117.278 89.4022 117.185 89.0817 117.007C88.8422 116.86 88.6841 116.678 88.6841 116.504C88.6841 116.329 88.8302 116.144 89.0817 115.998C89.4022 115.82 89.7628 115.726 90.1296 115.726C90.4963 115.726 90.857 115.82 91.1775 115.998C91.429 116.144 91.5751 116.329 91.5751 116.504Z" fill="white"/>
<path d="M91.5964 117.828L91.2036 117.601L91.0096 117.711L91.2036 117.824V117.895L91.5725 118.109L91.5605 118.178C91.65 118.305 91.73 118.437 91.8 118.576L91.812 118.564V119.486C91.812 119.725 91.6707 119.646 91.6108 119.61L91.1964 119.371L91.0024 119.481L91.1964 119.594V119.666L91.6108 119.905C91.653 119.93 91.698 119.95 91.7449 119.965L91.721 120.082L91.9365 119.96C91.9833 119.921 92.0195 119.871 92.0417 119.815C92.0639 119.758 92.0714 119.697 92.0635 119.637V118.679C92.0548 118.511 92.0083 118.347 91.9274 118.2C91.8465 118.053 91.7334 117.926 91.5964 117.828Z" fill="#C9883A"/>
<path d="M91.4241 120.024L91.0073 119.785V119.488L91.4241 119.727C91.484 119.763 91.6253 119.845 91.6253 119.603V118.645C91.6173 118.563 91.5917 118.484 91.5504 118.414C91.509 118.343 91.4529 118.282 91.3858 118.235L91.0073 118.02V117.723L91.4025 117.962C91.5406 118.057 91.6554 118.182 91.7383 118.328C91.8213 118.473 91.8702 118.636 91.8815 118.803V119.761C91.8815 120.003 91.7618 120.211 91.4241 120.024Z" fill="#E09C3B"/>
<path opacity="0.2" d="M113.553 112.429L108.044 109.246C107.996 109.218 107.941 109.203 107.886 109.203C107.83 109.203 107.776 109.218 107.728 109.246L98.0557 114.832L103.72 118.108L113.553 112.429Z" fill="black"/>
<path d="M113.815 111.804L108.306 108.621C108.259 108.593 108.204 108.578 108.148 108.578C108.093 108.578 108.038 108.593 107.99 108.621L98.3184 114.207L103.99 117.481L113.815 111.804Z" fill="#F4F4F4"/>
<path d="M103.727 116.309L103.305 116.549C103.272 116.57 103.276 116.604 103.305 116.628L103.708 116.867C103.728 116.878 103.751 116.883 103.775 116.883C103.798 116.883 103.821 116.878 103.842 116.867L104.261 116.628C104.294 116.609 104.292 116.575 104.261 116.551L103.861 116.312C103.84 116.301 103.817 116.296 103.794 116.295C103.771 116.295 103.748 116.3 103.727 116.309Z" fill="#2B303F"/>
<path d="M104.32 115.967L103.901 116.206C103.865 116.225 103.87 116.261 103.901 116.283L104.301 116.522C104.322 116.532 104.345 116.537 104.368 116.537C104.391 116.537 104.414 116.532 104.435 116.522L104.854 116.283C104.89 116.264 104.886 116.228 104.854 116.206L104.454 115.967C104.434 115.956 104.411 115.95 104.387 115.95C104.364 115.95 104.341 115.956 104.32 115.967Z" fill="#2B303F"/>
<path d="M104.921 115.619L104.502 115.859C104.468 115.878 104.471 115.914 104.502 115.936L104.902 116.175C104.923 116.185 104.946 116.19 104.969 116.19C104.992 116.19 105.015 116.185 105.036 116.175L105.457 115.936C105.491 115.916 105.486 115.881 105.457 115.859L105.055 115.619C105.034 115.608 105.011 115.603 104.988 115.603C104.965 115.603 104.942 115.608 104.921 115.619Z" fill="#2B303F"/>
<path d="M105.512 115.279L105.091 115.519C105.057 115.538 105.062 115.574 105.091 115.595L105.493 115.835C105.514 115.846 105.537 115.852 105.56 115.852C105.584 115.852 105.607 115.846 105.627 115.835L106.046 115.595C106.082 115.576 106.078 115.54 106.046 115.519L105.646 115.279C105.626 115.269 105.603 115.264 105.579 115.264C105.556 115.264 105.533 115.269 105.512 115.279Z" fill="#2B303F"/>
<path d="M106.108 114.934L105.689 115.174C105.655 115.193 105.658 115.226 105.689 115.25L106.089 115.49C106.11 115.5 106.133 115.505 106.156 115.505C106.179 115.505 106.202 115.5 106.223 115.49L106.644 115.25C106.678 115.229 106.673 115.195 106.644 115.171L106.242 114.932C106.221 114.922 106.198 114.917 106.175 114.917C106.151 114.917 106.129 114.923 106.108 114.934Z" fill="#2B303F"/>
<path d="M106.703 114.592L106.281 114.831C106.248 114.853 106.252 114.886 106.281 114.91L106.684 115.15C106.704 115.161 106.727 115.167 106.751 115.167C106.774 115.167 106.797 115.161 106.818 115.15L107.237 114.91C107.27 114.891 107.268 114.855 107.237 114.834L106.837 114.594C106.816 114.584 106.793 114.578 106.77 114.578C106.747 114.577 106.724 114.582 106.703 114.592Z" fill="#2B303F"/>
<path d="M107.295 114.249L106.876 114.489C106.84 114.508 106.845 114.544 106.876 114.566L107.276 114.805C107.297 114.815 107.32 114.82 107.343 114.82C107.367 114.82 107.389 114.815 107.41 114.805L107.83 114.566C107.865 114.546 107.861 114.51 107.83 114.489L107.43 114.249C107.409 114.238 107.386 114.232 107.362 114.232C107.339 114.232 107.316 114.238 107.295 114.249Z" fill="#2B303F"/>
<path d="M107.889 113.904L107.47 114.144C107.436 114.165 107.438 114.199 107.47 114.223L107.87 114.462C107.89 114.473 107.913 114.478 107.937 114.478C107.96 114.478 107.983 114.473 108.004 114.462L108.425 114.223C108.459 114.204 108.454 114.17 108.425 114.146L108.023 113.907C108.002 113.896 107.979 113.891 107.956 113.89C107.933 113.89 107.91 113.895 107.889 113.904Z" fill="#2B303F"/>
<path d="M108.489 113.557L108.067 113.797C108.034 113.816 108.039 113.852 108.067 113.873L108.47 114.113C108.491 114.123 108.514 114.129 108.537 114.129C108.56 114.129 108.583 114.123 108.604 114.113L109.023 113.873C109.059 113.854 109.054 113.818 109.023 113.797L108.623 113.557C108.602 113.546 108.579 113.54 108.556 113.54C108.533 113.54 108.51 113.546 108.489 113.557Z" fill="#2B303F"/>
<path d="M109.08 113.217L108.661 113.456C108.627 113.476 108.63 113.509 108.661 113.533L109.061 113.773C109.082 113.783 109.105 113.788 109.128 113.788C109.151 113.788 109.174 113.783 109.195 113.773L109.617 113.533C109.65 113.512 109.645 113.478 109.617 113.454L109.214 113.215C109.193 113.204 109.17 113.199 109.147 113.2C109.124 113.2 109.101 113.206 109.08 113.217Z" fill="#2B303F"/>
<path d="M109.669 112.874L109.247 113.114C109.213 113.133 109.218 113.169 109.247 113.19L109.649 113.43C109.67 113.441 109.693 113.447 109.716 113.447C109.74 113.447 109.763 113.441 109.784 113.43L110.203 113.19C110.236 113.171 110.234 113.135 110.203 113.114L109.803 112.874C109.782 112.864 109.759 112.859 109.736 112.859C109.712 112.859 109.69 112.864 109.669 112.874Z" fill="#2B303F"/>
<path d="M110.273 112.529L109.854 112.769C109.818 112.788 109.823 112.822 109.854 112.846L110.254 113.085C110.275 113.095 110.298 113.1 110.321 113.1C110.344 113.1 110.367 113.095 110.388 113.085L110.807 112.846C110.843 112.824 110.838 112.791 110.807 112.767L110.407 112.527C110.386 112.517 110.363 112.512 110.34 112.512C110.316 112.513 110.294 112.519 110.273 112.529Z" fill="#2B303F"/>
<path d="M110.863 112.187L110.444 112.426C110.41 112.448 110.413 112.481 110.444 112.505L110.844 112.745C110.864 112.755 110.887 112.761 110.911 112.761C110.934 112.761 110.957 112.755 110.978 112.745L111.399 112.505C111.433 112.486 111.428 112.453 111.399 112.429L110.997 112.189C110.976 112.179 110.953 112.173 110.93 112.173C110.907 112.172 110.884 112.177 110.863 112.187Z" fill="#2B303F"/>
<path d="M111.748 111.679L111.03 112.087C110.996 112.106 111.001 112.142 111.03 112.163L111.432 112.403C111.453 112.413 111.476 112.418 111.499 112.418C111.522 112.418 111.545 112.413 111.566 112.403L112.285 111.996C112.318 111.976 112.314 111.941 112.285 111.919L111.882 111.679C111.862 111.668 111.839 111.662 111.815 111.662C111.792 111.662 111.769 111.668 111.748 111.679Z" fill="#2B303F"/>
<path d="M104.031 115.473L103.612 115.713C103.578 115.732 103.581 115.765 103.612 115.789L104.012 116.029C104.033 116.039 104.056 116.044 104.079 116.044C104.102 116.044 104.125 116.039 104.146 116.029L104.567 115.789C104.601 115.768 104.596 115.734 104.567 115.71L104.158 115.473C104.138 115.464 104.116 115.459 104.094 115.459C104.072 115.459 104.051 115.464 104.031 115.473Z" fill="#2B303F"/>
<path d="M104.636 115.123L104.217 115.363C104.181 115.382 104.186 115.418 104.217 115.44L104.617 115.679C104.638 115.689 104.661 115.694 104.684 115.694C104.707 115.694 104.73 115.689 104.751 115.679L105.173 115.44C105.206 115.42 105.202 115.384 105.173 115.363L104.77 115.123C104.75 115.112 104.727 115.106 104.703 115.106C104.68 115.106 104.657 115.112 104.636 115.123Z" fill="#2B303F"/>
<path d="M105.224 114.779L104.805 115.018C104.769 115.04 104.774 115.073 104.805 115.097L105.205 115.337C105.226 115.347 105.249 115.353 105.272 115.353C105.295 115.353 105.318 115.347 105.339 115.337L105.758 115.097C105.794 115.078 105.789 115.042 105.758 115.021L105.358 114.781C105.337 114.771 105.315 114.765 105.291 114.765C105.268 114.764 105.245 114.769 105.224 114.779Z" fill="#2B303F"/>
<path d="M105.822 114.434L105.401 114.673C105.367 114.692 105.372 114.726 105.401 114.75L105.803 114.989C105.824 114.999 105.847 115.005 105.87 115.005C105.894 115.005 105.916 114.999 105.937 114.989L106.357 114.75C106.39 114.728 106.388 114.695 106.357 114.671L105.957 114.431C105.936 114.421 105.912 114.416 105.889 114.417C105.866 114.417 105.843 114.423 105.822 114.434Z" fill="#2B303F"/>
<path d="M106.41 114.094L105.989 114.333C105.955 114.352 105.96 114.388 105.989 114.41L106.391 114.649C106.412 114.66 106.435 114.666 106.458 114.666C106.482 114.666 106.505 114.66 106.525 114.649L106.944 114.41C106.978 114.391 106.976 114.355 106.944 114.333L106.544 114.094C106.523 114.084 106.501 114.078 106.477 114.078C106.454 114.078 106.431 114.084 106.41 114.094Z" fill="#2B303F"/>
<path d="M107.008 113.749L106.587 113.988C106.553 114.01 106.558 114.043 106.587 114.067L106.989 114.307C107.01 114.317 107.032 114.323 107.055 114.323C107.078 114.323 107.101 114.317 107.121 114.307L107.543 114.067C107.576 114.048 107.571 114.014 107.543 113.99L107.14 113.751C107.12 113.741 107.097 113.735 107.075 113.735C107.052 113.734 107.029 113.739 107.008 113.749Z" fill="#2B303F"/>
<path d="M107.601 113.404L107.182 113.643C107.148 113.663 107.151 113.696 107.182 113.72L107.582 113.96C107.603 113.97 107.626 113.975 107.649 113.975C107.672 113.975 107.695 113.97 107.716 113.96L108.138 113.72C108.171 113.699 108.166 113.665 108.138 113.641L107.735 113.402C107.714 113.391 107.691 113.386 107.668 113.387C107.645 113.387 107.622 113.393 107.601 113.404Z" fill="#2B303F"/>
<path d="M108.201 113.061L107.782 113.301C107.746 113.32 107.75 113.356 107.782 113.378L108.182 113.617C108.202 113.628 108.225 113.634 108.249 113.634C108.272 113.634 108.295 113.628 108.316 113.617L108.735 113.378C108.771 113.358 108.766 113.322 108.735 113.301L108.335 113.061C108.314 113.051 108.291 113.046 108.268 113.046C108.245 113.046 108.222 113.051 108.201 113.061Z" fill="#2B303F"/>
<path d="M108.796 112.717L108.377 112.956C108.341 112.978 108.346 113.011 108.377 113.035L108.777 113.275C108.798 113.285 108.82 113.291 108.844 113.291C108.867 113.291 108.89 113.285 108.911 113.275L109.33 113.035C109.366 113.016 109.361 112.983 109.33 112.959L108.93 112.719C108.909 112.709 108.886 112.703 108.863 112.703C108.84 112.702 108.817 112.707 108.796 112.717Z" fill="#2B303F"/>
<path d="M109.392 112.371L108.97 112.611C108.937 112.63 108.941 112.664 108.97 112.688L109.373 112.927C109.394 112.937 109.416 112.942 109.44 112.942C109.463 112.942 109.486 112.937 109.507 112.927L109.926 112.688C109.959 112.666 109.957 112.633 109.926 112.609L109.526 112.369C109.505 112.359 109.482 112.354 109.459 112.354C109.435 112.355 109.412 112.361 109.392 112.371Z" fill="#2B303F"/>
<path d="M109.988 112.029L109.566 112.268C109.533 112.288 109.538 112.323 109.566 112.345L109.969 112.585C109.989 112.596 110.012 112.601 110.036 112.601C110.059 112.601 110.082 112.596 110.103 112.585L110.522 112.345C110.556 112.326 110.553 112.29 110.522 112.268L110.122 112.029C110.101 112.019 110.078 112.014 110.055 112.014C110.032 112.014 110.009 112.019 109.988 112.029Z" fill="#2B303F"/>
<path d="M110.587 111.684L110.165 111.924C110.131 111.945 110.136 111.979 110.165 112.003L110.565 112.242C110.586 112.253 110.609 112.258 110.632 112.258C110.655 112.258 110.678 112.253 110.699 112.242L111.121 112.003C111.154 111.984 111.149 111.95 111.121 111.926L110.718 111.687C110.698 111.676 110.675 111.671 110.653 111.67C110.63 111.67 110.607 111.675 110.587 111.684Z" fill="#2B303F"/>
<path d="M103.44 115.811L102.722 116.218C102.688 116.24 102.693 116.273 102.722 116.297L103.124 116.537C103.145 116.547 103.168 116.553 103.191 116.553C103.214 116.553 103.237 116.547 103.258 116.537L103.965 116.127C103.998 116.108 103.993 116.072 103.965 116.05L103.562 115.811C103.543 115.802 103.522 115.798 103.501 115.798C103.48 115.798 103.459 115.802 103.44 115.811Z" fill="#2B303F"/>
<path d="M111.722 111.655L111.3 111.895C111.281 111.904 111.26 111.909 111.238 111.909C111.216 111.909 111.195 111.904 111.176 111.895L110.752 111.655C110.718 111.636 110.718 111.605 110.752 111.583L110.785 111.564C110.817 111.547 110.817 111.516 110.785 111.497L110.337 111.241C110.302 111.219 110.302 111.188 110.337 111.167L110.606 111.013C110.625 111.004 110.646 110.999 110.668 110.999C110.69 110.999 110.711 111.004 110.73 111.013L111.149 111.253L111.236 111.303L111.298 111.339L111.363 111.375L111.722 111.583C111.755 111.605 111.755 111.641 111.722 111.655Z" fill="#2B303F"/>
<path d="M101.421 114.975L100.999 115.214C100.965 115.234 100.97 115.267 100.999 115.291L101.401 115.531C101.422 115.541 101.444 115.546 101.467 115.546C101.49 115.546 101.513 115.541 101.533 115.531L101.955 115.291C101.988 115.27 101.983 115.236 101.955 115.212L101.552 114.973C101.532 114.962 101.509 114.957 101.486 114.958C101.463 114.958 101.441 114.964 101.421 114.975Z" fill="#2B303F"/>
<path d="M102.015 114.632L101.596 114.872C101.563 114.891 101.565 114.925 101.596 114.949L101.996 115.188C102.017 115.198 102.04 115.203 102.063 115.203C102.086 115.203 102.109 115.198 102.13 115.188L102.552 114.949C102.585 114.927 102.58 114.894 102.552 114.87L102.149 114.63C102.128 114.62 102.105 114.615 102.082 114.615C102.059 114.616 102.036 114.622 102.015 114.632Z" fill="#2B303F"/>
<path d="M102.608 114.29L102.189 114.53C102.153 114.549 102.158 114.582 102.189 114.606L102.589 114.846C102.61 114.856 102.633 114.861 102.656 114.861C102.679 114.861 102.702 114.856 102.723 114.846L103.142 114.606C103.178 114.585 103.173 114.551 103.142 114.527L102.742 114.288C102.721 114.278 102.698 114.273 102.675 114.273C102.651 114.273 102.629 114.279 102.608 114.29Z" fill="#2B303F"/>
<path d="M107.66 111.375L107.241 111.615C107.208 111.634 107.21 111.67 107.241 111.691L107.641 111.931C107.662 111.941 107.685 111.946 107.708 111.946C107.731 111.946 107.754 111.941 107.775 111.931L108.197 111.691C108.23 111.672 108.226 111.636 108.197 111.615L107.794 111.375C107.774 111.364 107.751 111.358 107.727 111.358C107.704 111.358 107.681 111.364 107.66 111.375Z" fill="#2B303F"/>
<path d="M108.254 111.033L107.835 111.272C107.799 111.291 107.804 111.327 107.835 111.349L108.235 111.588C108.256 111.598 108.279 111.603 108.302 111.603C108.325 111.603 108.348 111.598 108.369 111.588L108.788 111.349C108.824 111.33 108.819 111.294 108.788 111.272L108.388 111.033C108.367 111.021 108.344 111.016 108.321 111.016C108.298 111.016 108.275 111.021 108.254 111.033Z" fill="#2B303F"/>
<path d="M108.851 110.683L108.429 110.922C108.396 110.941 108.4 110.977 108.429 110.999L108.832 111.238C108.852 111.248 108.875 111.254 108.899 111.254C108.922 111.254 108.945 111.248 108.966 111.238L109.385 110.999C109.418 110.98 109.416 110.944 109.385 110.922L108.985 110.683C108.964 110.672 108.941 110.666 108.918 110.666C108.894 110.666 108.871 110.672 108.851 110.683Z" fill="#2B303F"/>
<path d="M109.44 110.347L109.02 110.587C108.987 110.606 108.989 110.642 109.02 110.664L109.42 110.903C109.441 110.913 109.464 110.918 109.487 110.918C109.511 110.918 109.534 110.913 109.554 110.903L109.976 110.664C110.01 110.644 110.005 110.609 109.976 110.587L109.574 110.347C109.553 110.336 109.53 110.331 109.507 110.331C109.483 110.331 109.46 110.336 109.44 110.347Z" fill="#2B303F"/>
<path d="M103.356 113.861L102.781 114.192C102.748 114.211 102.752 114.245 102.781 114.269L103.184 114.508C103.205 114.518 103.227 114.523 103.251 114.523C103.274 114.523 103.297 114.518 103.318 114.508L103.89 114.178C103.924 114.158 103.919 114.122 103.89 114.101L103.488 113.861C103.468 113.85 103.445 113.844 103.422 113.844C103.399 113.844 103.376 113.85 103.356 113.861Z" fill="#2B303F"/>
<path d="M107.071 111.718L106.497 112.048C106.463 112.068 106.468 112.101 106.497 112.125L106.899 112.365C106.92 112.375 106.943 112.38 106.966 112.38C106.989 112.38 107.012 112.375 107.033 112.365L107.606 112.034C107.639 112.015 107.637 111.979 107.606 111.957L107.206 111.718C107.185 111.707 107.162 111.701 107.138 111.701C107.115 111.701 107.092 111.707 107.071 111.718Z" fill="#2B303F"/>
<path d="M106.317 112.146L103.524 113.761C103.488 113.78 103.493 113.816 103.524 113.838L103.924 114.077C103.945 114.087 103.968 114.092 103.991 114.092C104.014 114.092 104.037 114.087 104.058 114.077L106.854 112.465C106.887 112.444 106.882 112.41 106.842 112.386L106.442 112.146C106.422 112.137 106.401 112.133 106.379 112.133C106.358 112.133 106.337 112.137 106.317 112.146Z" fill="#2B303F"/>
<path d="M103.616 115.04L103.197 115.279C103.161 115.298 103.165 115.332 103.197 115.356L103.597 115.595C103.617 115.606 103.64 115.611 103.664 115.611C103.687 115.611 103.71 115.606 103.731 115.595L104.152 115.356C104.186 115.337 104.181 115.303 104.152 115.279L103.75 115.04C103.729 115.029 103.706 115.024 103.683 115.024C103.66 115.024 103.637 115.029 103.616 115.04Z" fill="#2B303F"/>
<path d="M104.212 114.698L103.793 114.937C103.759 114.959 103.762 114.992 103.793 115.016L104.193 115.256C104.214 115.266 104.237 115.272 104.26 115.272C104.283 115.272 104.306 115.266 104.327 115.256L104.748 115.016C104.782 114.997 104.777 114.963 104.748 114.94L104.346 114.7C104.325 114.69 104.303 114.684 104.279 114.684C104.256 114.683 104.233 114.688 104.212 114.698Z" fill="#2B303F"/>
<path d="M104.807 114.355L104.388 114.594C104.354 114.614 104.356 114.649 104.388 114.671L104.788 114.911C104.808 114.922 104.831 114.928 104.855 114.928C104.878 114.928 104.901 114.922 104.922 114.911L105.343 114.671C105.377 114.652 105.372 114.616 105.343 114.594L104.941 114.355C104.92 114.344 104.897 114.339 104.874 114.339C104.85 114.339 104.827 114.344 104.807 114.355Z" fill="#2B303F"/>
<path d="M105.401 114.012L104.98 114.251C104.946 114.271 104.951 114.306 104.98 114.328L105.382 114.568C105.403 114.578 105.425 114.583 105.448 114.583C105.471 114.583 105.494 114.578 105.514 114.568L105.936 114.328C105.969 114.306 105.964 114.273 105.936 114.249L105.533 114.009C105.513 113.999 105.49 113.993 105.467 113.994C105.444 113.994 105.421 114 105.401 114.012Z" fill="#2B303F"/>
<path d="M105.994 113.667L105.573 113.907C105.539 113.926 105.544 113.959 105.573 113.983L105.975 114.223C105.996 114.233 106.019 114.239 106.042 114.239C106.065 114.239 106.088 114.233 106.109 114.223L106.528 113.983C106.562 113.964 106.56 113.931 106.528 113.907L106.128 113.667C106.108 113.657 106.085 113.651 106.061 113.651C106.038 113.651 106.015 113.657 105.994 113.667Z" fill="#2B303F"/>
<path d="M106.588 113.317L106.166 113.557C106.132 113.579 106.137 113.612 106.166 113.636L106.568 113.876C106.589 113.886 106.612 113.892 106.635 113.892C106.659 113.892 106.682 113.886 106.702 113.876L107.122 113.636C107.155 113.617 107.153 113.583 107.122 113.559L106.722 113.32C106.701 113.31 106.678 113.304 106.655 113.303C106.632 113.303 106.609 113.308 106.588 113.317Z" fill="#2B303F"/>
<path d="M107.185 112.982L106.763 113.222C106.73 113.241 106.734 113.277 106.763 113.299L107.166 113.538C107.186 113.549 107.209 113.555 107.233 113.555C107.256 113.555 107.279 113.549 107.3 113.538L107.719 113.299C107.755 113.279 107.75 113.243 107.719 113.222L107.319 112.982C107.298 112.972 107.275 112.966 107.252 112.966C107.228 112.966 107.205 112.972 107.185 112.982Z" fill="#2B303F"/>
<path d="M107.778 112.637L107.359 112.877C107.323 112.896 107.328 112.93 107.359 112.953L107.759 113.193C107.78 113.203 107.803 113.208 107.826 113.208C107.849 113.208 107.872 113.203 107.893 113.193L108.312 112.953C108.348 112.932 108.344 112.898 108.312 112.874L107.912 112.635C107.891 112.625 107.868 112.62 107.845 112.62C107.822 112.621 107.799 112.626 107.778 112.637Z" fill="#2B303F"/>
<path d="M108.369 112.295L107.949 112.535C107.914 112.554 107.918 112.588 107.949 112.611L108.35 112.851C108.37 112.862 108.393 112.867 108.417 112.867C108.44 112.867 108.463 112.862 108.484 112.851L108.903 112.611C108.939 112.592 108.934 112.559 108.903 112.535L108.503 112.295C108.482 112.285 108.459 112.279 108.436 112.279C108.412 112.279 108.389 112.285 108.369 112.295Z" fill="#2B303F"/>
<path d="M108.966 111.952L108.547 112.192C108.513 112.214 108.516 112.247 108.547 112.271L108.947 112.511C108.967 112.521 108.99 112.527 109.014 112.527C109.037 112.527 109.06 112.521 109.081 112.511L109.502 112.271C109.536 112.252 109.531 112.218 109.502 112.194L109.1 111.955C109.079 111.945 109.056 111.939 109.033 111.939C109.01 111.938 108.987 111.943 108.966 111.952Z" fill="#2B303F"/>
<path d="M109.561 111.61L109.142 111.849C109.108 111.869 109.111 111.905 109.142 111.926L109.542 112.166C109.563 112.176 109.586 112.182 109.609 112.182C109.632 112.182 109.655 112.176 109.676 112.166L110.098 111.926C110.131 111.907 110.126 111.871 110.098 111.849L109.695 111.61C109.675 111.599 109.652 111.593 109.628 111.593C109.605 111.593 109.582 111.599 109.561 111.61Z" fill="#2B303F"/>
<path d="M110.148 111.265L109.726 111.504C109.692 111.523 109.697 111.557 109.726 111.581L110.128 111.82C110.149 111.83 110.171 111.836 110.194 111.836C110.217 111.836 110.24 111.83 110.26 111.82L110.682 111.581C110.715 111.559 110.71 111.526 110.682 111.502L110.279 111.262C110.259 111.252 110.236 111.247 110.213 111.248C110.19 111.248 110.168 111.254 110.148 111.265Z" fill="#2B303F"/>
<path d="M103.023 115.385L102.153 115.885C102.12 115.905 102.125 115.941 102.153 115.962L102.556 116.202C102.576 116.212 102.599 116.218 102.622 116.218C102.644 116.218 102.667 116.212 102.687 116.202L103.557 115.701C103.593 115.679 103.588 115.646 103.557 115.624L103.157 115.385C103.136 115.374 103.113 115.368 103.09 115.368C103.066 115.368 103.043 115.374 103.023 115.385Z" fill="#2B303F"/>
<path d="M102.742 114.877L102.323 115.117C102.287 115.136 102.292 115.169 102.323 115.193L102.723 115.433C102.744 115.443 102.767 115.448 102.79 115.448C102.813 115.448 102.836 115.443 102.857 115.433L103.279 115.193C103.312 115.172 103.307 115.138 103.279 115.114L102.876 114.875C102.855 114.865 102.832 114.859 102.809 114.86C102.786 114.86 102.763 114.866 102.742 114.877Z" fill="#2B303F"/>
<path d="M103.34 114.535L102.921 114.774C102.887 114.796 102.89 114.829 102.921 114.853L103.321 115.093C103.342 115.103 103.364 115.109 103.388 115.109C103.411 115.109 103.434 115.103 103.455 115.093L103.876 114.853C103.91 114.834 103.905 114.8 103.876 114.776L103.474 114.537C103.453 114.527 103.43 114.521 103.407 114.521C103.384 114.52 103.361 114.525 103.34 114.535Z" fill="#2B303F"/>
<path d="M103.933 114.192L103.514 114.431C103.48 114.451 103.483 114.487 103.514 114.508L103.914 114.748C103.935 114.759 103.958 114.764 103.981 114.764C104.004 114.764 104.028 114.759 104.048 114.748L104.47 114.508C104.503 114.489 104.498 114.453 104.47 114.431L104.067 114.192C104.046 114.182 104.023 114.177 104 114.177C103.977 114.177 103.954 114.182 103.933 114.192Z" fill="#2B303F"/>
<path d="M104.531 113.849L104.109 114.088C104.076 114.108 104.081 114.144 104.109 114.165L104.512 114.405C104.532 114.415 104.555 114.42 104.578 114.42C104.6 114.42 104.623 114.415 104.643 114.405L105.065 114.165C105.099 114.146 105.094 114.11 105.065 114.088L104.663 113.849C104.642 113.838 104.62 113.832 104.597 113.832C104.574 113.832 104.551 113.838 104.531 113.849Z" fill="#2B303F"/>
<path d="M105.114 113.505L104.692 113.744C104.659 113.763 104.664 113.797 104.692 113.821L105.095 114.06C105.115 114.07 105.138 114.075 105.161 114.075C105.183 114.075 105.206 114.07 105.226 114.06L105.648 113.821C105.682 113.799 105.677 113.766 105.648 113.742L105.246 113.502C105.225 113.492 105.202 113.487 105.179 113.487C105.157 113.488 105.134 113.494 105.114 113.505Z" fill="#2B303F"/>
<path d="M105.719 113.162L105.298 113.401C105.264 113.42 105.269 113.454 105.298 113.478L105.7 113.717C105.721 113.728 105.744 113.733 105.767 113.733C105.791 113.733 105.814 113.728 105.834 113.717L106.253 113.478C106.287 113.459 106.285 113.425 106.253 113.401L105.853 113.162C105.833 113.151 105.81 113.146 105.786 113.146C105.763 113.146 105.74 113.151 105.719 113.162Z" fill="#2B303F"/>
<path d="M106.314 112.819L105.892 113.059C105.859 113.08 105.863 113.114 105.892 113.138L106.294 113.377C106.315 113.388 106.338 113.393 106.361 113.393C106.385 113.393 106.408 113.388 106.429 113.377L106.848 113.138C106.881 113.119 106.879 113.085 106.848 113.061L106.448 112.822C106.427 112.811 106.404 112.806 106.381 112.805C106.358 112.805 106.335 112.81 106.314 112.819Z" fill="#2B303F"/>
<path d="M106.905 112.477L106.484 112.716C106.45 112.735 106.455 112.771 106.484 112.793L106.886 113.032C106.907 113.044 106.93 113.049 106.953 113.049C106.977 113.049 107 113.044 107.02 113.032L107.44 112.793C107.473 112.774 107.471 112.738 107.44 112.716L107.04 112.477C107.019 112.466 106.996 112.461 106.972 112.461C106.949 112.461 106.926 112.466 106.905 112.477Z" fill="#2B303F"/>
<path d="M107.511 112.134L107.09 112.374C107.056 112.393 107.061 112.429 107.09 112.451L107.492 112.69C107.513 112.7 107.536 112.705 107.559 112.705C107.582 112.705 107.605 112.7 107.626 112.69L108.045 112.451C108.081 112.431 108.077 112.395 108.045 112.374L107.645 112.134C107.625 112.123 107.602 112.117 107.578 112.117C107.555 112.117 107.532 112.123 107.511 112.134Z" fill="#2B303F"/>
<path d="M108.092 111.789L107.673 112.029C107.637 112.048 107.642 112.082 107.673 112.106L108.073 112.345C108.094 112.355 108.117 112.36 108.14 112.36C108.163 112.36 108.186 112.355 108.207 112.345L108.626 112.106C108.662 112.084 108.658 112.051 108.626 112.027L108.226 111.787C108.205 111.777 108.182 111.772 108.159 111.772C108.136 111.773 108.113 111.779 108.092 111.789Z" fill="#2B303F"/>
<path d="M108.686 111.447L108.266 111.686C108.23 111.708 108.235 111.741 108.266 111.765L108.666 112.005C108.687 112.015 108.71 112.021 108.733 112.021C108.757 112.021 108.78 112.015 108.801 112.005L109.22 111.765C109.256 111.746 109.251 111.712 109.22 111.689L108.82 111.449C108.799 111.439 108.776 111.433 108.753 111.433C108.73 111.432 108.707 111.437 108.686 111.447Z" fill="#2B303F"/>
<path d="M110.02 110.683L108.865 111.349C108.829 111.368 108.834 111.404 108.865 111.425L109.265 111.665C109.286 111.676 109.309 111.682 109.332 111.682C109.356 111.682 109.379 111.676 109.399 111.665L110.556 110.999C110.59 110.98 110.585 110.944 110.556 110.922L110.149 110.683C110.129 110.673 110.107 110.667 110.084 110.667C110.062 110.667 110.04 110.673 110.02 110.683Z" fill="#2B303F"/>
<path d="M102.151 115.234L101.579 115.564C101.545 115.584 101.548 115.617 101.579 115.641L101.979 115.881C102 115.891 102.023 115.896 102.046 115.896C102.069 115.896 102.092 115.891 102.113 115.881L102.688 115.55C102.721 115.531 102.717 115.495 102.676 115.473L102.276 115.234C102.257 115.224 102.235 115.219 102.214 115.219C102.192 115.219 102.171 115.224 102.151 115.234Z" fill="#2B303F"/>
<path d="M112.345 112.022L103.905 116.896C103.871 116.915 103.876 116.949 103.905 116.972L104.106 117.087C104.127 117.098 104.15 117.103 104.173 117.103C104.196 117.103 104.219 117.098 104.24 117.087L112.678 112.213C112.714 112.194 112.71 112.161 112.678 112.137L112.48 112.022C112.459 112.011 112.436 112.006 112.413 112.006C112.389 112.006 112.366 112.011 112.345 112.022Z" fill="#2B303F"/>
<path d="M102.47 112.24L102.525 112.271L103.984 113.114L106.576 111.617L106.631 111.586L105.117 110.714L102.47 112.24Z" fill="#BFBFBF"/>
<path d="M102.526 112.271L103.985 113.114L106.576 111.617L105.117 110.776L102.526 112.271Z" fill="#E5E5E5"/>
<path d="M98.313 114.206V114.335C98.3131 114.429 98.3377 114.52 98.3844 114.601C98.431 114.682 98.4981 114.749 98.5789 114.795L103.719 117.763C103.8 117.81 103.891 117.835 103.985 117.835C104.078 117.835 104.17 117.81 104.251 117.763L113.549 112.393C113.63 112.347 113.697 112.28 113.744 112.199C113.79 112.118 113.815 112.026 113.815 111.933V111.804L103.994 117.48L98.313 114.206Z" fill="#E5E5E5"/>
<path d="M104.135 117.56C104.223 117.594 104.318 117.608 104.412 117.6C104.506 117.593 104.597 117.564 104.679 117.517L113.939 112.171C114.019 112.124 114.088 112.06 114.141 111.984C114.194 111.908 114.23 111.821 114.245 111.73L115.259 105.687C115.261 105.652 115.261 105.618 115.259 105.584C115.259 105.501 115.243 105.418 115.211 105.341C115.179 105.264 115.133 105.195 115.074 105.136L105.457 110.683C105.399 110.718 105.348 110.765 105.31 110.822C105.271 110.878 105.244 110.942 105.232 111.009L104.135 117.56Z" fill="#F4F4F4"/>
<path d="M103.983 117.48L104.045 117.516C104.073 117.533 104.102 117.547 104.131 117.56L105.228 111.016C105.241 110.949 105.267 110.885 105.306 110.829C105.345 110.772 105.395 110.725 105.454 110.69L115.078 105.136C115.039 105.098 114.995 105.065 114.948 105.037L105.305 110.604C105.246 110.639 105.196 110.686 105.157 110.742C105.118 110.799 105.092 110.862 105.08 110.93L103.983 117.48Z" fill="#E5E5E5"/>
<path opacity="0.4" d="M152.416 167.689C157.682 167.689 161.952 165.224 161.952 162.183C161.952 159.141 157.682 156.676 152.416 156.676C147.15 156.676 142.881 159.141 142.881 162.183C142.881 165.224 147.15 167.689 152.416 167.689Z" fill="#D6D8E5"/>
<path d="M160.144 120.334C160.252 121.292 161.387 125.385 161.143 126.789C160.898 128.193 157.025 130.545 157.025 130.545L156.489 128.15L158.644 126.047L158.05 122.054L160.144 120.334Z" fill="#FFCEA9"/>
<path d="M157.148 116.293C157.525 116.118 157.952 116.087 158.35 116.207C158.748 116.327 159.087 116.59 159.304 116.944C159.874 117.888 160.465 121.126 160.52 121.679C160.52 121.679 159.72 122.784 158.52 122.599L157.148 116.293Z" fill="#EDEDED"/>
<path d="M152.723 162.017C151.88 162.251 150.978 162.142 150.215 161.713C149.612 161.732 146.332 160.329 145.887 161.507C145.497 162.54 146.917 163.495 147.676 163.68C149.331 164.08 150.55 164.906 151.221 165.045C151.717 165.15 152.359 165.22 152.754 164.829C153.228 164.362 153.188 162.633 152.723 162.017Z" fill="#38226D"/>
<path d="M151.219 164.76C150.556 164.621 149.329 163.802 147.674 163.392C147.037 163.239 145.942 162.542 145.832 161.716C145.684 162.674 146.965 163.51 147.674 163.682C149.329 164.082 150.548 164.909 151.219 165.048C151.715 165.153 152.357 165.222 152.752 164.832C152.854 164.719 152.928 164.583 152.97 164.437C152.724 164.623 152.437 164.75 152.133 164.806C151.829 164.862 151.516 164.846 151.219 164.76Z" fill="#9C73FF"/>
<path d="M158.052 159.629C157.209 159.862 156.308 159.754 155.544 159.327C154.941 159.344 151.662 157.94 151.216 159.119C150.826 160.151 152.246 161.107 153.005 161.291C154.66 161.691 155.88 162.518 156.55 162.659C157.048 162.762 157.688 162.831 158.083 162.441C158.545 161.974 158.505 160.245 158.052 159.629Z" fill="#38226D"/>
<path d="M156.54 162.372C155.876 162.233 154.65 161.414 152.995 161.004C152.358 160.851 151.263 160.156 151.153 159.328C151.004 160.286 152.286 161.119 152.995 161.292C154.65 161.692 155.869 162.518 156.54 162.659C157.038 162.762 157.678 162.832 158.073 162.441C158.175 162.328 158.249 162.193 158.291 162.046C158.044 162.233 157.758 162.36 157.454 162.417C157.15 162.473 156.837 162.458 156.54 162.372Z" fill="#9C73FF"/>
<path d="M158.106 150.721C157.966 149.503 157.712 148.3 157.349 147.129C157.349 147.129 157.577 144.029 157.689 141.09C157.819 137.756 158.973 134.822 158.06 132.161L147.773 134.448C147.773 134.448 148.396 147.742 148.535 149.351C148.61 150.602 148.764 151.847 148.995 153.078C149.474 155.658 150.228 161.797 150.228 161.797C151.315 162.429 152.743 162.079 152.743 162.079C152.743 162.079 152.666 154.317 152.595 152.458C152.511 150.187 152.441 150.36 152.441 150.36L152.784 144.712L153.007 141.9C153.007 141.9 153.292 143.964 153.486 145.809C153.646 147.416 154.034 148.87 154.468 151.864C154.844 154.46 155.454 159.677 155.454 159.677C156.542 160.312 158.02 159.785 158.02 159.785C158.02 159.785 158.401 152.973 158.106 150.721Z" fill="#8C50FF"/>
<path d="M156.614 116.348C155.831 116.386 155.249 116.588 155.15 116.348C155.066 115.944 155.006 115.535 154.971 115.124C155.062 114.897 155.138 114.645 155.138 114.645C156.123 114.039 156.434 112.968 156.563 111.737C156.784 109.62 155.639 107.768 153.524 107.546C151.534 107.34 150.07 108.743 149.68 110.659C149.469 111.618 149.05 113.4 149.617 114.971C149.934 115.843 150.336 116.535 150.748 116.669C151.142 116.659 151.536 116.625 151.926 116.566C151.926 116.566 152.032 117.155 152.106 117.524C152.18 117.893 152.149 118.101 151.399 118.564C150.65 119.026 152.535 119.979 153.768 119.883C155.002 119.788 156.374 119.067 156.753 118.26C157.177 117.371 157.141 116.322 156.614 116.348Z" fill="#FFCEA9"/>
<path d="M155.47 116.466C155.686 117.005 155.135 117.663 153.664 118.13C152.193 118.597 152.059 117.999 152.059 117.999C152.059 117.999 149.903 118.981 149.199 119.472C148.318 120.09 147.925 121.867 147.805 124.892C147.669 128.382 147.657 133.558 147.772 134.451C147.772 134.451 149.422 136.097 151.535 135.924C153.647 135.752 157.202 133.881 158.064 132.437C158.04 129.378 157.681 128.88 158.177 127.117C159.312 123.081 159.908 121.428 159.357 118.746C158.902 116.535 158.265 116.262 157.393 116.284C156.749 116.31 156.107 116.371 155.47 116.466Z" fill="#F4F4F4"/>
<path d="M144.486 127.776C146.221 128.214 146.628 127.119 146.855 126.216C147.406 124.025 147.703 122.046 148.115 120.801C148.594 119.335 149.107 119.102 149.818 118.815C150.657 118.48 151.375 119.186 151.097 121.055C150.767 123.263 150.336 124.813 149.509 127.426C149.294 128.108 148.81 129.32 148.086 129.907C147.191 130.626 145.845 130.599 143.806 130.092C142.937 129.876 141.983 129.356 140.34 128.59C139.9 128.384 139.555 128.247 138.709 127.852C137.864 127.457 136.98 126.798 136.537 126.156C136.094 125.514 136.034 125.198 136.125 125.064C136.237 124.88 136.438 124.92 136.676 125.191C137.018 125.649 137.441 126.04 137.924 126.346C137.924 126.346 137.375 125.78 137.078 125.414C136.812 125.087 136.592 124.726 136.422 124.341C136.266 123.967 136.589 123.459 136.834 123.725C137.078 123.991 137.198 124.264 137.646 124.801C137.881 125.088 138.15 125.345 138.448 125.567C138.17 125.188 137.923 124.788 137.708 124.37C137.516 124.045 137.422 123.671 137.437 123.294C137.449 123.098 137.727 122.865 137.986 123.237C138.225 123.57 138.374 124.092 138.918 124.659C139.313 125.069 139.65 125.306 139.66 125.191C139.67 125.076 139.421 124.853 139.279 124.374C139.138 123.895 139.279 123.39 139.545 123.335C139.811 123.28 139.758 123.294 139.969 123.742C140.18 124.19 140.508 124.52 140.757 125.179C140.893 125.64 141.14 126.061 141.476 126.405C141.897 126.861 142.839 127.361 144.486 127.776Z" fill="#FFCEA9"/>
<path d="M150.462 118.516C149.305 118.346 148.488 118.866 147.975 120.621C147.463 122.377 147.108 123.814 147.108 123.814C147.566 124.475 148.259 124.936 149.046 125.101C150.431 125.436 150.929 124.775 150.929 124.775C150.929 124.775 151.314 122.938 151.554 121.687C151.793 120.437 151.894 118.727 150.462 118.516Z" fill="#EDEDED"/>
<path d="M149.735 110.394C149.735 110.394 147.905 107.615 151.869 107.04C154.727 106.633 156.564 108.477 156.775 110.461C156.978 112.365 155.805 114.341 154.959 115.126C154.547 115.273 153.656 115.366 152.49 114.827C152.442 114.309 152.424 113.788 152.435 113.268C152.435 113.268 153.829 110.343 149.735 110.394Z" fill="#3A2C6D"/>
<path d="M112.744 100.746C115.07 100.746 116.955 98.8603 116.955 96.5347C116.955 94.2092 115.07 92.324 112.744 92.324C110.418 92.324 108.533 94.2092 108.533 96.5347C108.533 98.8603 110.418 100.746 112.744 100.746Z" fill="#3D348B"/>
<path d="M112.745 98.5277C111.148 98.5277 109.601 98.1637 108.501 97.5265C107.584 96.9972 107.064 96.3289 107.064 95.6966C107.064 95.0643 107.591 94.396 108.501 93.8667C109.601 93.2295 111.136 92.8655 112.745 92.8655C114.355 92.8655 115.888 93.2319 116.99 93.8667C117.907 94.396 118.427 95.0643 118.427 95.6966C118.427 96.3289 117.902 96.9972 116.99 97.5265C115.898 98.1637 114.341 98.5277 112.745 98.5277Z" fill="#B7C0EE"/>
<path d="M112.745 97.802C111.148 97.802 109.601 97.4379 108.501 96.8032C107.584 96.2738 107.064 95.6056 107.064 94.9732C107.064 94.3409 107.591 93.6726 108.501 93.1409C109.601 92.5062 111.136 92.1421 112.745 92.1421C114.355 92.1421 115.888 92.5062 116.99 93.1409C117.907 93.6726 118.427 94.3385 118.427 94.9732C118.427 95.608 117.902 96.2738 116.99 96.8032C115.898 97.4379 114.341 97.802 112.745 97.802Z" fill="#3D348B"/>
<path d="M112.746 97.148C110.676 97.148 108.674 96.669 107.237 95.8522C106.039 95.1648 105.366 94.3001 105.366 93.4786C105.366 92.657 106.046 91.8019 107.237 91.1073C108.662 90.2834 110.667 89.8115 112.746 89.8115C114.825 89.8115 116.818 90.2906 118.255 91.1073C119.452 91.7924 120.128 92.657 120.128 93.4786C120.128 94.3001 119.445 95.1552 118.255 95.8522C116.82 96.6762 114.815 97.148 112.746 97.148Z" fill="#B7C0EE"/>
<path d="M112.746 96.2088C110.676 96.2088 108.674 95.7298 107.237 94.913C106.039 94.228 105.366 93.3609 105.366 92.5418C105.366 91.7226 106.046 90.8651 107.237 90.1681C108.662 89.3442 110.667 88.8723 112.746 88.8723C114.825 88.8723 116.818 89.3514 118.255 90.1681C119.452 90.8555 120.128 91.7202 120.128 92.5418C120.128 93.3633 119.445 94.2184 118.255 94.913C116.82 95.737 114.815 96.2088 112.746 96.2088Z" fill="#3D348B"/>
<path d="M112.746 95.3346C110.221 95.3346 107.778 94.7598 106.039 93.7562C104.59 92.9178 103.759 91.8639 103.759 90.8627C103.759 89.8615 104.59 88.8076 106.039 87.9717C107.778 86.9681 110.221 86.3909 112.746 86.3909C115.27 86.3909 117.711 86.9681 119.452 87.9717C120.901 88.8076 121.733 89.8615 121.733 90.8627C121.733 91.8639 120.901 92.9178 119.452 93.7562C117.713 94.7598 115.268 95.3346 112.746 95.3346Z" fill="#B7C0EE"/>
<path d="M112.746 94.1898C110.221 94.1898 107.778 93.615 106.039 92.6114C104.59 91.7755 103.759 90.7192 103.759 89.718C103.759 88.7168 104.59 87.6629 106.039 86.827C107.778 85.8234 110.221 85.2485 112.746 85.2485C115.27 85.2485 117.711 85.8234 119.452 86.827C120.901 87.6629 121.733 88.7192 121.733 89.7204C121.733 90.7216 120.901 91.7755 119.452 92.6114C117.713 93.615 115.268 94.1898 112.746 94.1898Z" fill="#3D348B"/>
<path d="M112.745 93.0088C109.847 93.0088 107.042 92.3501 105.045 91.1956C103.38 90.2375 102.427 89.0255 102.427 87.8758C102.427 86.7261 103.385 85.5166 105.045 84.5537C107.04 83.4016 109.847 82.7429 112.743 82.7429C115.639 82.7429 118.448 83.4016 120.444 84.5561C122.108 85.5142 123.062 86.7261 123.062 87.8758C123.062 89.0255 122.103 90.2351 120.444 91.1956C118.448 92.3501 115.641 93.0088 112.745 93.0088Z" fill="#B7C0EE"/>
<path d="M112.745 91.6965C109.847 91.6965 107.042 91.0354 105.045 89.8833C103.38 88.9252 102.427 87.7133 102.427 86.5636C102.427 85.4139 103.385 84.2019 105.045 83.2414C107.04 82.0893 109.847 81.4282 112.743 81.4282C115.639 81.4282 118.448 82.0893 120.444 83.2414C122.108 84.1995 123.062 85.4139 123.062 86.5636C123.062 87.7133 122.103 88.9228 120.444 89.8833C118.448 91.0426 115.641 91.6965 112.745 91.6965Z" fill="#3D348B"/>
<path d="M112.743 90.7188C119.151 90.7188 124.346 87.7194 124.346 84.0195C124.346 80.3195 119.151 77.3201 112.743 77.3201C106.335 77.3201 101.141 80.3195 101.141 84.0195C101.141 87.7194 106.335 90.7188 112.743 90.7188Z" fill="#FFCE00"/>
<path d="M109.783 67.512H108.756V83.4856H109.783V67.512Z" fill="#D8AA44"/>
<path d="M116.818 67.512H115.79V83.4856H116.818V67.512Z" fill="#D8AA44"/>
<path d="M112.715 68.5515L111.209 67.1718L109.359 68.4102L108.756 67.5144L111.309 65.8377L112.773 67.1766L114.526 65.8162L116.818 67.5144L116.102 68.3359L114.524 67.1503L112.715 68.5515Z" fill="#D8AA44"/>
<path opacity="0.69" d="M124.331 84.3694C124.35 82.8652 124.608 78.4245 128.141 72.3048C132.321 65.064 127.964 47.9287 112.714 47.9287C97.4633 47.9287 93.1064 65.064 97.2861 72.3048C100.34 77.5958 101.006 82.2904 101.145 84.4365" fill="#FFCE00"/>
<path opacity="0.2" d="M104.67 127.962L104.004 127.339C103.919 127.217 103.818 127.107 103.702 127.014C103.651 126.971 103.598 126.933 103.541 126.899L102.679 126.324L101.738 125.907C101.68 125.88 101.621 125.857 101.561 125.838C101.422 125.791 101.278 125.764 101.132 125.756L100.236 125.464C100.186 125.464 100.214 125.555 100.236 125.593L100.322 125.629C100.43 125.67 100.339 125.655 100.452 125.735L100.967 125.866C101.295 125.854 101.619 125.937 101.901 126.106L102.583 126.448L103.24 126.844C103.528 127.002 103.758 127.249 103.896 127.548L104.243 127.828C104.351 127.929 104.289 127.885 104.449 127.909L104.538 127.986C104.602 128.003 104.698 128.005 104.67 127.962Z" fill="black"/>
<path opacity="0.1" d="M102.799 126.645C102.852 126.563 102.923 126.494 103.007 126.444C103.129 126.369 103.272 126.336 103.414 126.35C103.582 126.367 103.745 126.418 103.893 126.499H103.91L104.149 126.628C104.212 126.661 104.269 126.7 104.327 126.738L104.437 126.82C104.602 126.951 104.554 127.21 104.408 127.416C104.327 127.531 104.234 127.637 104.13 127.732C104.039 127.811 103.929 127.866 103.811 127.892C103.693 127.917 103.571 127.913 103.455 127.878C103.347 127.844 103.244 127.8 103.146 127.744C103.055 127.691 102.969 127.63 102.89 127.562C102.791 127.47 102.724 127.351 102.695 127.219C102.667 127.088 102.68 126.951 102.731 126.827C102.747 126.764 102.77 126.703 102.799 126.645ZM100.822 125.447C100.952 125.248 101.172 125.097 101.359 125.16L101.479 125.205C101.539 125.229 101.599 125.256 101.656 125.287L101.874 125.399H101.888C102.025 125.471 102.144 125.574 102.236 125.699C102.273 125.749 102.3 125.807 102.316 125.868C102.331 125.929 102.334 125.993 102.324 126.056C102.31 126.148 102.274 126.236 102.219 126.312C102.174 126.366 102.124 126.415 102.068 126.458C101.968 126.556 101.843 126.626 101.708 126.66C101.572 126.695 101.429 126.694 101.294 126.657C101.198 126.626 101.105 126.586 101.016 126.537C100.931 126.484 100.851 126.423 100.777 126.355C100.7 126.284 100.647 126.191 100.625 126.088C100.602 125.986 100.611 125.88 100.65 125.782C100.695 125.665 100.753 125.554 100.822 125.45V125.447Z" fill="black"/>
<path d="M100.568 125.739L101.081 125.692C101.405 125.659 101.732 125.724 102.02 125.878L104.848 127.299L105.014 127.059L101.847 125.663C101.657 125.574 101.451 125.523 101.241 125.512L100.235 125.454C100.224 125.453 100.213 125.454 100.203 125.459C100.192 125.463 100.184 125.471 100.178 125.481C100.172 125.49 100.17 125.501 100.171 125.512C100.171 125.524 100.175 125.534 100.182 125.543L100.209 125.579C100.25 125.634 100.305 125.677 100.368 125.706C100.431 125.734 100.5 125.745 100.568 125.739Z" fill="#2B303F"/>
<path d="M104.225 127.79L104.012 127.311C103.875 127.012 103.646 126.764 103.358 126.604L100.774 125.057L100.92 124.834L103.653 126.652C103.835 126.767 103.991 126.918 104.113 127.095L104.7 127.953C104.728 127.996 104.685 128.051 104.628 128.041H104.578C104.502 128.032 104.431 128.004 104.369 127.96C104.308 127.917 104.258 127.858 104.225 127.79Z" fill="#2B303F"/>
<path opacity="0.3" d="M103.461 126.252C103.629 126.268 103.792 126.318 103.94 126.398H103.955L104.194 126.525C104.256 126.561 104.314 126.597 104.371 126.635C104.429 126.673 104.446 126.69 104.482 126.719C104.644 126.848 104.597 127.109 104.453 127.313C104.372 127.429 104.278 127.535 104.173 127.629C104.083 127.709 103.973 127.765 103.856 127.791C103.738 127.817 103.615 127.813 103.5 127.778C103.392 127.742 103.289 127.696 103.191 127.641C103.099 127.59 103.013 127.529 102.934 127.459C102.836 127.368 102.768 127.249 102.739 127.118C102.711 126.986 102.724 126.85 102.776 126.726C102.794 126.659 102.821 126.595 102.855 126.534C102.909 126.453 102.98 126.384 103.064 126.333C103.184 126.264 103.323 126.235 103.461 126.252Z" fill="url(#paint0_linear)"/>
<path d="M100.845 124.784L100.721 124.98C100.71 124.991 100.704 125.006 100.704 125.022C100.704 125.037 100.71 125.052 100.721 125.064C100.742 125.083 100.756 125.109 100.762 125.137C100.767 125.165 100.763 125.194 100.749 125.22L100.543 125.651C100.483 125.773 100.464 125.911 100.489 126.045C100.514 126.179 100.582 126.301 100.682 126.393C100.857 126.548 101.063 126.664 101.286 126.731C101.452 126.782 101.629 126.786 101.798 126.744C101.967 126.702 102.121 126.615 102.244 126.491L102.436 126.297C102.478 126.256 102.504 126.201 102.508 126.142C102.511 126.115 102.521 126.091 102.536 126.069C102.552 126.047 102.572 126.03 102.595 126.017C102.618 126.005 102.644 125.998 102.671 125.998C102.697 125.997 102.723 126.003 102.747 126.015L102.795 126.039L102.843 126.067C102.862 126.081 102.878 126.1 102.888 126.122C102.898 126.144 102.903 126.168 102.901 126.192C102.899 126.216 102.892 126.239 102.878 126.259C102.865 126.279 102.847 126.296 102.826 126.307C102.772 126.335 102.729 126.381 102.704 126.436L102.596 126.676C102.528 126.828 102.511 126.998 102.548 127.161C102.585 127.324 102.673 127.47 102.8 127.579C102.983 127.74 103.197 127.862 103.43 127.936C103.579 127.984 103.738 127.989 103.89 127.952C104.042 127.914 104.18 127.835 104.29 127.722L104.649 127.344C104.673 127.32 104.703 127.303 104.736 127.295C104.769 127.286 104.803 127.287 104.836 127.296C104.853 127.302 104.872 127.303 104.889 127.297C104.907 127.292 104.922 127.282 104.934 127.267L105.08 127.066C105.095 127.048 105.104 127.025 105.104 127.002C105.104 126.978 105.095 126.955 105.08 126.937C104.851 126.71 104.588 126.52 104.299 126.376L104.06 126.247C103.882 126.151 103.688 126.09 103.487 126.07L103.31 126.051C103.27 126.053 103.232 126.039 103.202 126.012C103.185 125.988 103.162 125.967 103.135 125.952L102.939 125.847L102.742 125.739C102.714 125.725 102.683 125.717 102.651 125.715C102.628 125.715 102.606 125.709 102.586 125.699C102.565 125.688 102.548 125.674 102.534 125.655L102.438 125.526C102.327 125.378 102.184 125.257 102.019 125.174L101.801 125.059C101.543 124.906 101.261 124.798 100.967 124.74C100.945 124.736 100.922 124.737 100.9 124.745C100.879 124.752 100.86 124.766 100.845 124.784ZM102.845 126.549C102.899 126.467 102.97 126.399 103.054 126.348C103.175 126.273 103.319 126.241 103.461 126.257C103.629 126.273 103.791 126.323 103.94 126.403H103.954L104.194 126.53C104.256 126.566 104.313 126.602 104.371 126.64C104.428 126.678 104.445 126.695 104.481 126.724C104.644 126.853 104.596 127.114 104.452 127.318C104.372 127.434 104.278 127.54 104.172 127.634C104.082 127.714 103.973 127.77 103.855 127.796C103.737 127.822 103.615 127.817 103.499 127.782C103.392 127.747 103.289 127.701 103.19 127.646C103.098 127.595 103.013 127.534 102.934 127.464C102.835 127.373 102.767 127.254 102.739 127.122C102.711 126.991 102.723 126.854 102.776 126.731C102.791 126.668 102.815 126.606 102.845 126.549ZM100.867 125.351C100.999 125.155 101.216 125.004 101.406 125.066C101.446 125.078 101.486 125.093 101.525 125.109C101.585 125.133 101.645 125.162 101.703 125.191L101.921 125.306H101.935C102.071 125.379 102.189 125.482 102.282 125.605C102.32 125.656 102.347 125.714 102.362 125.776C102.376 125.838 102.379 125.902 102.369 125.964C102.355 126.056 102.319 126.144 102.263 126.218C102.219 126.274 102.168 126.324 102.112 126.367C102.012 126.464 101.888 126.534 101.752 126.569C101.616 126.604 101.474 126.603 101.339 126.566C101.243 126.535 101.15 126.494 101.063 126.443C100.977 126.393 100.897 126.332 100.824 126.264C100.747 126.192 100.694 126.099 100.671 125.996C100.649 125.893 100.658 125.786 100.697 125.689C100.742 125.572 100.799 125.459 100.867 125.354V125.351Z" fill="#2B303F"/>
<path d="M102.095 126.405C101.995 126.503 101.871 126.573 101.735 126.608C101.599 126.643 101.456 126.642 101.321 126.604C101.227 126.576 101.135 126.538 101.048 126.491C100.961 126.441 100.881 126.381 100.809 126.312C100.732 126.24 100.679 126.147 100.656 126.045C100.634 125.943 100.643 125.836 100.682 125.739C100.729 125.618 100.789 125.502 100.861 125.394C100.795 125.495 100.74 125.603 100.696 125.715C100.657 125.813 100.648 125.92 100.671 126.022C100.694 126.125 100.747 126.218 100.823 126.29C100.896 126.359 100.976 126.419 101.063 126.47C101.15 126.52 101.242 126.561 101.338 126.592C101.473 126.629 101.616 126.63 101.751 126.595C101.887 126.56 102.011 126.491 102.112 126.393C102.167 126.35 102.218 126.301 102.263 126.247L102.246 126.252C102.202 126.309 102.151 126.36 102.095 126.405Z" fill="#1F232D"/>
<path d="M104.142 127.674C104.051 127.754 103.942 127.81 103.824 127.835C103.706 127.861 103.584 127.856 103.469 127.82C103.361 127.787 103.258 127.742 103.16 127.686C103.069 127.633 102.983 127.572 102.903 127.504C102.805 127.412 102.737 127.293 102.709 127.161C102.681 127.03 102.693 126.893 102.745 126.769C102.764 126.703 102.791 126.639 102.824 126.58L102.843 126.553C102.811 126.612 102.785 126.675 102.767 126.74C102.714 126.864 102.702 127 102.73 127.132C102.758 127.263 102.826 127.382 102.925 127.473C103.004 127.543 103.089 127.604 103.181 127.655C103.28 127.71 103.383 127.756 103.49 127.792C103.606 127.827 103.728 127.831 103.846 127.805C103.964 127.779 104.073 127.723 104.163 127.643C104.26 127.556 104.348 127.459 104.424 127.353C104.343 127.471 104.249 127.579 104.142 127.674Z" fill="#1F232D"/>
<path opacity="0.3" d="M102.283 125.615C102.19 125.491 102.072 125.389 101.936 125.316H101.921L101.704 125.201C101.646 125.172 101.586 125.143 101.526 125.119C101.487 125.103 101.447 125.088 101.406 125.076C101.217 125.014 100.999 125.165 100.868 125.361C100.796 125.469 100.736 125.585 100.688 125.706C100.649 125.803 100.64 125.91 100.663 126.013C100.685 126.116 100.738 126.209 100.815 126.281C100.888 126.349 100.968 126.41 101.054 126.46C101.142 126.511 101.234 126.552 101.33 126.583C101.465 126.62 101.607 126.621 101.743 126.586C101.879 126.551 102.003 126.481 102.104 126.384C102.16 126.341 102.21 126.291 102.254 126.235C102.31 126.161 102.346 126.073 102.36 125.981C102.372 125.918 102.372 125.853 102.359 125.79C102.346 125.727 102.32 125.668 102.283 125.615Z" fill="url(#paint1_linear)"/>
<defs>
<linearGradient id="paint0_linear" x1="103.648" y1="126.252" x2="103.648" y2="127.823" gradientUnits="userSpaceOnUse">
<stop offset="0.01" stop-color="white"/>
<stop offset="0.88" stop-color="white" stop-opacity="0"/>
</linearGradient>
<linearGradient id="paint1_linear" x1="430.518" y1="624.001" x2="430.518" y2="634.057" gradientUnits="userSpaceOnUse">
<stop offset="0.01" stop-color="white"/>
<stop offset="0.88" stop-color="white" stop-opacity="0"/>
</linearGradient>
</defs>
</svg>
